<svg width="721" height="720" viewBox="0 0 721 720" fill="none" xmlns="http://www.w3.org/2000/svg">
<g filter="url(#filter0_d_1095_802)">
<rect x="10" y="10" width="681" height="680" fill="#6255A4"/>
</g>
<rect x="74" y="70" width="560" height="560" fill="white"/>
<path fill-rule="evenodd" clip-rule="evenodd" d="M324.705 102.83C356.751 83.8287 388.656 115.837 394.581 133.667C452.394 138.945 485.668 167.564 495.077 181.214C506.271 173.943 546.325 179.988 553.534 213.117C563.626 259.491 534.206 281.631 512.104 289.031C510.67 294.491 507.829 301.937 503.419 309.834C524.74 304.441 568.405 303.701 572.489 343.88C577.54 393.564 524.161 407.789 453.433 426.638L451.121 427.254C450.335 429.848 449.53 432.388 448.708 434.875C447.901 432.296 447.139 429.97 446.422 427.898C445.835 426.244 444.502 425.044 442.422 424.298C440.395 423.498 438.048 423.098 435.382 423.098C433.515 423.098 431.648 423.338 429.782 423.818C427.968 424.298 426.608 424.804 425.702 425.338C425.328 426.298 424.795 427.684 424.102 429.498C423.462 431.311 422.742 433.391 421.941 435.738C421.142 438.031 420.288 440.484 419.382 443.098C418.475 445.711 417.622 448.271 416.822 450.778C416.022 453.231 415.275 455.524 414.582 457.658C413.941 459.791 413.435 461.578 413.062 463.018C412.795 464.031 412.555 464.911 412.342 465.658C412.128 466.404 412.022 467.151 412.022 467.898C412.022 469.551 412.661 470.858 413.941 471.818C415.275 472.724 417.302 473.178 420.022 473.178C421.195 473.178 422.182 473.071 422.982 472.858C423.835 472.698 424.635 472.484 425.382 472.218C425.808 470.618 426.235 468.964 426.661 467.258C427.088 465.551 427.515 463.898 427.941 462.298H438.016C407.968 528.107 364.504 544.635 344.064 543.983C342.113 545.351 335.506 551.719 324.687 566.249C290.644 635.248 220.089 585.795 209.239 572.576C198.39 559.357 217.088 518.475 242.712 517.863C230.349 514.035 242.413 489.724 249.99 478.047L243.174 470.677C243.023 470.651 242.868 470.623 242.708 470.595C243.234 469.701 243.497 468.482 243.497 466.938C243.497 465.871 243.337 464.858 243.017 463.898C242.75 462.938 242.43 462.164 242.057 461.578H221.497V453.178H236.217C237.657 453.178 238.804 452.751 239.657 451.898C240.51 451.044 240.937 449.604 240.937 447.578C240.937 446.511 240.777 445.524 240.457 444.618C240.19 443.658 239.87 442.884 239.497 442.298H221.497V434.858H238.377C239.817 434.858 240.964 434.431 241.817 433.578C242.724 432.724 243.177 431.284 243.177 429.258C243.177 428.191 243.017 427.178 242.697 426.218C242.43 425.258 242.11 424.484 241.737 423.898H215.337C213.044 423.898 211.23 424.564 209.897 425.898C208.564 427.231 207.897 429.044 207.897 431.338V463.565C200.475 461.963 192.186 460.119 183.204 458.046V435.098H192.084C193.577 435.098 194.777 434.644 195.684 433.738C196.644 432.831 197.124 431.338 197.124 429.258C197.124 428.138 196.964 427.071 196.644 426.058C196.324 425.044 195.977 424.244 195.604 423.658H160.724C159.231 423.658 158.004 424.111 157.044 425.018C156.137 425.924 155.684 427.418 155.684 429.498C155.684 430.618 155.844 431.684 156.164 432.698C156.484 433.711 156.831 434.511 157.204 435.098H169.204V454.758C168.02 454.475 166.827 454.188 165.625 453.899C117.732 442.358 136.607 361.433 161.552 342.204C181.507 326.822 205.317 350.276 214.727 363.926L263.475 354.04C241.147 355.234 196.39 345.891 195.989 298.964C195.587 252.037 261.296 264.057 294.201 275.933C287.458 246.887 296.146 201.144 314.465 181.17C290.947 164.686 280.31 129.153 324.705 102.83ZM169.204 454.758V466.138C169.204 467.524 169.364 468.644 169.684 469.498C170.004 470.351 170.484 471.018 171.124 471.498C171.764 471.978 172.537 472.298 173.444 472.458C174.404 472.671 175.497 472.778 176.724 472.778C177.951 472.778 179.177 472.698 180.404 472.538C181.684 472.378 182.617 472.218 183.204 472.058V458.046C178.704 457.007 174.03 455.911 169.204 454.758ZM207.897 463.565V465.178C207.897 467.471 208.564 469.284 209.897 470.618C211.23 471.951 213.044 472.618 215.337 472.618H238.697C240.137 472.618 241.284 472.191 242.137 471.338C242.353 471.122 242.543 470.874 242.708 470.595C236.733 469.529 224.48 467.147 207.897 463.565ZM438.016 462.298H442.422L443.862 467.818C444.128 468.724 444.422 469.524 444.742 470.218C445.115 470.911 445.568 471.471 446.102 471.898C446.688 472.324 447.408 472.644 448.262 472.858C449.168 473.071 450.262 473.178 451.542 473.178C453.302 473.178 454.822 472.938 456.102 472.458C457.382 472.031 458.342 471.444 458.982 470.698C458.182 467.764 457.248 464.404 456.182 460.618C455.115 456.778 454.022 452.911 452.902 449.018C451.782 445.071 450.661 441.258 449.542 437.578C449.258 436.648 448.981 435.747 448.708 434.875C445.408 444.849 441.82 453.968 438.016 462.298ZM369.213 224.862C366.053 231.536 358.082 234.385 351.408 231.226C344.734 228.066 341.885 220.095 345.044 213.421C348.204 206.747 356.175 203.898 362.849 207.058C369.523 210.217 372.372 218.189 369.213 224.862ZM431.966 269.365C438.64 272.524 446.611 269.675 449.771 263.001C452.93 256.327 450.081 248.356 443.407 245.196C436.734 242.037 428.762 244.886 425.603 251.56C422.443 258.233 425.292 266.205 431.966 269.365ZM363.899 256.909C367.803 248.661 374.361 251.866 381.543 255.376C382.297 255.745 383.059 256.117 383.825 256.48C403.16 265.634 396.122 272.166 396.122 272.166C392.309 280.224 378.827 283.699 372.382 280.648C364.326 276.834 360.084 264.966 363.899 256.909ZM271.805 462.298C270.952 462.191 270.232 462.084 269.645 461.978V434.138C270.445 434.031 271.219 433.951 271.965 433.898C272.765 433.844 273.539 433.818 274.285 433.818C278.019 433.818 281.005 435.044 283.245 437.498C285.485 439.898 286.605 443.498 286.605 448.298C286.605 450.804 286.285 452.964 285.645 454.778C285.059 456.538 284.205 457.978 283.085 459.098C282.019 460.218 280.712 461.044 279.165 461.578C277.672 462.111 276.019 462.378 274.205 462.378C273.459 462.378 272.659 462.351 271.805 462.298ZM271.005 473.578C272.179 473.631 273.219 473.658 274.125 473.658C278.125 473.658 281.779 473.124 285.085 472.058C288.392 470.991 291.219 469.391 293.565 467.258C295.965 465.071 297.805 462.404 299.085 459.258C300.365 456.058 301.005 452.324 301.005 448.058C301.005 443.684 300.339 439.898 299.005 436.698C297.672 433.498 295.779 430.858 293.325 428.778C290.925 426.644 288.019 425.071 284.605 424.058C281.245 423.044 277.485 422.538 273.325 422.538C271.299 422.538 269.005 422.671 266.445 422.938C263.885 423.151 261.459 423.631 259.165 424.378C258.099 424.751 257.245 425.258 256.605 425.898C256.019 426.484 255.725 427.338 255.725 428.458V465.818C255.725 468.591 257.192 470.538 260.125 471.658C261.192 472.084 262.339 472.404 263.565 472.618C264.845 472.884 266.099 473.098 267.325 473.258C268.605 473.418 269.832 473.524 271.005 473.578ZM329.487 462.858C328.313 462.751 327.353 462.591 326.607 462.378V452.618H333.167C335.567 452.618 337.353 452.991 338.527 453.738C339.7 454.484 340.287 455.738 340.287 457.498C340.287 459.364 339.567 460.751 338.127 461.658C336.74 462.511 334.98 462.938 332.847 462.938C331.78 462.938 330.66 462.911 329.487 462.858ZM332.447 442.858H326.607V433.418C327.193 433.311 327.993 433.231 329.007 433.178C330.073 433.124 331.007 433.098 331.807 433.098C334.207 433.098 335.993 433.524 337.167 434.378C338.393 435.231 339.007 436.378 339.007 437.818C339.007 439.471 338.473 440.724 337.407 441.578C336.393 442.431 334.74 442.858 332.447 442.858ZM328.607 473.578C329.833 473.631 330.9 473.658 331.807 473.658C339.167 473.658 344.793 472.404 348.687 469.898C352.633 467.338 354.607 463.418 354.607 458.138C354.607 455.151 353.7 452.671 351.887 450.698C350.127 448.724 347.913 447.364 345.247 446.618C347.593 445.818 349.46 444.564 350.847 442.858C352.233 441.098 352.927 439.018 352.927 436.618C352.927 431.818 351.087 428.271 347.407 425.978C343.727 423.684 338.473 422.538 331.647 422.538C328.767 422.538 325.967 422.698 323.247 423.018C320.527 423.284 318.26 423.738 316.447 424.378C315.38 424.751 314.527 425.258 313.887 425.898C313.3 426.484 313.007 427.338 313.007 428.458V465.818C313.007 468.591 314.473 470.538 317.407 471.658C318.473 472.084 319.647 472.404 320.927 472.618C322.207 472.884 323.487 473.098 324.767 473.258C326.1 473.418 327.38 473.524 328.607 473.578ZM368.538 425.898C367.204 427.231 366.538 429.044 366.538 431.338V465.178C366.538 467.471 367.204 469.284 368.538 470.618C369.871 471.951 371.684 472.618 373.978 472.618H397.338C398.778 472.618 399.924 472.191 400.778 471.338C401.684 470.431 402.138 468.964 402.138 466.938C402.138 465.871 401.978 464.858 401.658 463.898C401.391 462.938 401.071 462.164 400.698 461.578H380.138V453.178H394.858C396.298 453.178 397.444 452.751 398.298 451.898C399.151 451.044 399.578 449.604 399.578 447.578C399.578 446.511 399.418 445.524 399.098 444.618C398.831 443.658 398.511 442.884 398.138 442.298H380.138V434.858H397.018C398.458 434.858 399.604 434.431 400.458 433.578C401.364 432.724 401.818 431.284 401.818 429.258C401.818 428.191 401.658 427.178 401.338 426.218C401.071 425.258 400.751 424.484 400.378 423.898H373.978C371.684 423.898 369.871 424.564 368.538 425.898ZM432.742 443.178C433.702 440.404 434.555 437.898 435.302 435.658H435.782C436.422 437.844 437.115 440.324 437.862 443.098C438.661 445.818 439.435 448.618 440.182 451.498H430.262C431.008 448.671 431.835 445.898 432.742 443.178ZM483.458 472.058V456.698H487.698L494.418 467.498C494.898 468.298 495.404 469.044 495.938 469.738C496.471 470.431 497.058 471.018 497.698 471.498C498.338 471.978 499.084 472.351 499.938 472.618C500.791 472.884 501.804 473.018 502.978 473.018C504.738 473.018 506.311 472.538 507.698 471.578C509.138 470.564 510.124 469.124 510.658 467.258C509.591 465.391 508.124 463.311 506.258 461.018C504.391 458.724 502.498 456.271 500.578 453.658C502.924 452.378 504.951 450.564 506.658 448.218C508.364 445.871 509.218 443.044 509.218 439.738C509.218 434.458 507.351 430.271 503.618 427.178C499.884 424.084 494.338 422.538 486.978 422.538C484.258 422.538 481.698 422.698 479.298 423.018C476.898 423.284 474.791 423.738 472.978 424.378C471.911 424.751 471.058 425.258 470.418 425.898C469.831 426.484 469.538 427.338 469.538 428.458V466.138C469.538 467.524 469.698 468.644 470.018 469.498C470.338 470.351 470.791 471.018 471.378 471.498C472.018 471.978 472.791 472.298 473.698 472.458C474.658 472.671 475.751 472.778 476.978 472.778C478.204 472.778 479.431 472.698 480.658 472.538C481.938 472.378 482.871 472.218 483.458 472.058ZM493.298 444.538C492.124 445.551 490.524 446.058 488.498 446.058H483.378V434.058C483.964 433.951 484.498 433.871 484.978 433.818C485.458 433.764 486.098 433.738 486.898 433.738C489.724 433.738 491.778 434.271 493.058 435.338C494.391 436.351 495.058 437.871 495.058 439.898C495.058 441.924 494.471 443.471 493.298 444.538Z" fill="#FEAD55"/>
<line x1="355" y1="350" x2="355" y2="630" stroke="black" stroke-opacity="0.5" stroke-width="2" stroke-dasharray="4 4"/>
<rect x="74" y="350" width="280" height="280" fill="white"/>
<rect x="354" y="350" width="280" height="280" fill="white"/>
<defs>
<filter id="filter0_d_1095_802" x="0" y="0" width="721" height="720" filterUnits="userSpaceOnUse" color-interpolation-filters="sRGB">
<feFlood flood-opacity="0" result="BackgroundImageFix"/>
<feColorMatrix in="SourceAlpha" type="matrix" values="0 0 0 0 0 0 0 0 0 0 0 0 0 0 0 0 0 0 127 0" result="hardAlpha"/>
<feMorphology radius="10" operator="dilate" in="SourceAlpha" result="effect1_dropShadow_1095_802"/>
<feOffset dx="10" dy="10"/>
<feGaussianBlur stdDeviation="5"/>
<feComposite in2="hardAlpha" operator="out"/>
<feColorMatrix type="matrix" values="0 0 0 0 0 0 0 0 0 0 0 0 0 0 0 0 0 0 0.25 0"/>
<feBlend mode="normal" in2="BackgroundImageFix" result="effect1_dropShadow_1095_802"/>
<feBlend mode="normal" in="SourceGraphic" in2="effect1_dropShadow_1095_802" result="shape"/>
</filter>
</defs>
</svg>
