<svg width="721" height="720" viewBox="0 0 721 720" fill="none" xmlns="http://www.w3.org/2000/svg">
<g filter="url(#filter0_d_1095_802)">
<rect x="10" y="10" width="681" height="680" fill="#6255A4"/>
</g>
<rect x="74" y="70" width="560" height="560" fill="white"/>
<path fill-rule="evenodd" clip-rule="evenodd" d="M320.705 102.83C352.751 83.8287 384.656 115.837 390.581 133.667C448.394 138.945 481.668 167.564 491.078 181.214C502.271 173.943 542.325 179.988 549.534 213.117C559.626 259.491 530.206 281.631 508.104 289.031C506.67 294.491 503.829 301.937 499.419 309.834C520.74 304.441 564.405 303.701 568.489 343.88C573.54 393.564 520.161 407.789 449.433 426.638L447.121 427.254C446.335 429.848 445.53 432.388 444.708 434.875C443.901 432.296 443.139 429.97 442.422 427.898C441.835 426.244 440.502 425.044 438.422 424.298C436.395 423.498 434.048 423.098 431.382 423.098C429.515 423.098 427.648 423.338 425.782 423.818C423.968 424.298 422.608 424.804 421.702 425.338C421.328 426.298 420.795 427.684 420.102 429.498C419.462 431.311 418.742 433.391 417.941 435.738C417.142 438.031 416.288 440.484 415.382 443.098C414.475 445.711 413.622 448.271 412.822 450.778C412.022 453.231 411.275 455.524 410.582 457.658C409.941 459.791 409.435 461.578 409.062 463.018C408.795 464.031 408.555 464.911 408.342 465.658C408.128 466.404 408.022 467.151 408.022 467.898C408.022 469.551 408.661 470.858 409.941 471.818C411.275 472.724 413.302 473.178 416.022 473.178C417.195 473.178 418.182 473.071 418.982 472.858C419.835 472.698 420.635 472.484 421.382 472.218C421.808 470.618 422.235 468.964 422.661 467.258C423.088 465.551 423.515 463.898 423.941 462.298H434.016C403.968 528.107 360.504 544.635 340.064 543.983C338.113 545.351 331.507 551.719 320.687 566.249C286.644 635.248 216.089 585.795 205.239 572.576C194.39 559.357 213.088 518.475 238.712 517.863C226.35 514.035 238.413 489.724 245.99 478.046L239.174 470.677C239.023 470.651 238.868 470.623 238.708 470.595C239.234 469.701 239.497 468.482 239.497 466.938C239.497 465.871 239.337 464.858 239.017 463.898C238.75 462.938 238.43 462.164 238.057 461.578H217.497V453.178H232.217C233.657 453.178 234.804 452.751 235.657 451.898C236.51 451.044 236.937 449.604 236.937 447.578C236.937 446.511 236.777 445.524 236.457 444.618C236.19 443.658 235.87 442.884 235.497 442.298H217.497V434.858H234.377C235.817 434.858 236.964 434.431 237.817 433.578C238.724 432.724 239.177 431.284 239.177 429.258C239.177 428.191 239.017 427.178 238.697 426.218C238.43 425.258 238.11 424.484 237.737 423.898H211.337C209.044 423.898 207.23 424.564 205.897 425.898C204.564 427.231 203.897 429.044 203.897 431.338V463.565C196.475 461.963 188.186 460.119 179.204 458.046V435.098H188.084C189.577 435.098 190.777 434.644 191.684 433.738C192.644 432.831 193.124 431.338 193.124 429.258C193.124 428.138 192.964 427.071 192.644 426.058C192.324 425.044 191.977 424.244 191.604 423.658H156.724C155.231 423.658 154.004 424.111 153.044 425.018C152.137 425.924 151.684 427.418 151.684 429.498C151.684 430.618 151.844 431.684 152.164 432.698C152.484 433.711 152.831 434.511 153.204 435.098H165.204V454.758C164.02 454.475 162.827 454.188 161.625 453.899C113.733 442.358 132.607 361.433 157.552 342.204C177.508 326.822 201.317 350.276 210.727 363.926L259.475 354.04C237.147 355.234 192.39 345.891 191.989 298.964C191.587 252.037 257.296 264.057 290.201 275.933C283.459 246.887 292.147 201.144 310.465 181.17C286.947 164.686 276.31 129.153 320.705 102.83ZM165.204 454.758V466.138C165.204 467.524 165.364 468.644 165.684 469.498C166.004 470.351 166.484 471.018 167.124 471.498C167.764 471.978 168.537 472.298 169.444 472.458C170.404 472.671 171.497 472.778 172.724 472.778C173.951 472.778 175.177 472.698 176.404 472.538C177.684 472.378 178.617 472.218 179.204 472.058V458.046C174.704 457.007 170.03 455.91 165.204 454.758ZM203.897 463.565V465.178C203.897 467.471 204.564 469.284 205.897 470.618C207.23 471.951 209.044 472.618 211.337 472.618H234.697C236.137 472.618 237.284 472.191 238.137 471.338C238.353 471.122 238.543 470.874 238.708 470.595C232.733 469.529 220.48 467.147 203.897 463.565ZM434.016 462.298H438.422L439.862 467.818C440.128 468.724 440.422 469.524 440.742 470.218C441.115 470.911 441.568 471.471 442.102 471.898C442.688 472.324 443.408 472.644 444.262 472.858C445.168 473.071 446.262 473.178 447.542 473.178C449.302 473.178 450.822 472.938 452.102 472.458C453.382 472.031 454.342 471.444 454.982 470.698C454.182 467.764 453.248 464.404 452.182 460.618C451.115 456.778 450.022 452.911 448.902 449.018C447.782 445.071 446.661 441.258 445.542 437.578C445.258 436.648 444.981 435.747 444.708 434.875C441.408 444.849 437.82 453.968 434.016 462.298ZM365.213 224.862C362.053 231.536 354.082 234.385 347.408 231.226C340.734 228.066 337.885 220.095 341.045 213.421C344.204 206.747 352.176 203.898 358.849 207.058C365.523 210.217 368.372 218.189 365.213 224.862ZM427.966 269.365C434.64 272.524 442.611 269.675 445.771 263.001C448.93 256.327 446.081 248.356 439.408 245.196C432.734 242.037 424.762 244.886 421.603 251.56C418.443 258.233 421.292 266.205 427.966 269.365ZM359.899 256.909C363.803 248.661 370.361 251.866 377.543 255.376C378.297 255.745 379.059 256.117 379.825 256.48C399.16 265.634 392.122 272.166 392.122 272.166C388.309 280.224 374.827 283.699 368.382 280.648C360.326 276.834 356.084 264.966 359.899 256.909ZM267.805 462.298C266.952 462.191 266.232 462.084 265.645 461.978V434.138C266.445 434.031 267.219 433.951 267.965 433.898C268.765 433.844 269.539 433.818 270.285 433.818C274.019 433.818 277.005 435.044 279.245 437.498C281.485 439.898 282.605 443.498 282.605 448.298C282.605 450.804 282.285 452.964 281.645 454.778C281.059 456.538 280.205 457.978 279.085 459.098C278.019 460.218 276.712 461.044 275.165 461.578C273.672 462.111 272.019 462.378 270.205 462.378C269.459 462.378 268.659 462.351 267.805 462.298ZM267.005 473.578C268.179 473.631 269.219 473.658 270.125 473.658C274.125 473.658 277.779 473.124 281.085 472.058C284.392 470.991 287.219 469.391 289.565 467.258C291.965 465.071 293.805 462.404 295.085 459.258C296.365 456.058 297.005 452.324 297.005 448.058C297.005 443.684 296.339 439.898 295.005 436.698C293.672 433.498 291.779 430.858 289.325 428.778C286.925 426.644 284.019 425.071 280.605 424.058C277.245 423.044 273.485 422.538 269.325 422.538C267.299 422.538 265.005 422.671 262.445 422.938C259.885 423.151 257.459 423.631 255.165 424.378C254.099 424.751 253.245 425.258 252.605 425.898C252.019 426.484 251.725 427.338 251.725 428.458V465.818C251.725 468.591 253.192 470.538 256.125 471.658C257.192 472.084 258.339 472.404 259.565 472.618C260.845 472.884 262.099 473.098 263.325 473.258C264.605 473.418 265.832 473.524 267.005 473.578ZM325.487 462.858C324.313 462.751 323.353 462.591 322.607 462.378V452.618H329.167C331.567 452.618 333.353 452.991 334.527 453.738C335.7 454.484 336.287 455.738 336.287 457.498C336.287 459.364 335.567 460.751 334.127 461.658C332.74 462.511 330.98 462.938 328.847 462.938C327.78 462.938 326.66 462.911 325.487 462.858ZM328.447 442.858H322.607V433.418C323.193 433.311 323.993 433.231 325.007 433.178C326.073 433.124 327.007 433.098 327.807 433.098C330.207 433.098 331.993 433.524 333.167 434.378C334.393 435.231 335.007 436.378 335.007 437.818C335.007 439.471 334.473 440.724 333.407 441.578C332.393 442.431 330.74 442.858 328.447 442.858ZM324.607 473.578C325.833 473.631 326.9 473.658 327.807 473.658C335.167 473.658 340.793 472.404 344.687 469.898C348.633 467.338 350.607 463.418 350.607 458.138C350.607 455.151 349.7 452.671 347.887 450.698C346.127 448.724 343.913 447.364 341.247 446.618C343.593 445.818 345.46 444.564 346.847 442.858C348.233 441.098 348.927 439.018 348.927 436.618C348.927 431.818 347.087 428.271 343.407 425.978C339.727 423.684 334.473 422.538 327.647 422.538C324.767 422.538 321.967 422.698 319.247 423.018C316.527 423.284 314.26 423.738 312.447 424.378C311.38 424.751 310.527 425.258 309.887 425.898C309.3 426.484 309.007 427.338 309.007 428.458V465.818C309.007 468.591 310.473 470.538 313.407 471.658C314.473 472.084 315.647 472.404 316.927 472.618C318.207 472.884 319.487 473.098 320.767 473.258C322.1 473.418 323.38 473.524 324.607 473.578ZM364.538 425.898C363.204 427.231 362.538 429.044 362.538 431.338V465.178C362.538 467.471 363.204 469.284 364.538 470.618C365.871 471.951 367.684 472.618 369.978 472.618H393.338C394.778 472.618 395.924 472.191 396.778 471.338C397.684 470.431 398.138 468.964 398.138 466.938C398.138 465.871 397.978 464.858 397.658 463.898C397.391 462.938 397.071 462.164 396.698 461.578H376.138V453.178H390.858C392.298 453.178 393.444 452.751 394.298 451.898C395.151 451.044 395.578 449.604 395.578 447.578C395.578 446.511 395.418 445.524 395.098 444.618C394.831 443.658 394.511 442.884 394.138 442.298H376.138V434.858H393.018C394.458 434.858 395.604 434.431 396.458 433.578C397.364 432.724 397.818 431.284 397.818 429.258C397.818 428.191 397.658 427.178 397.338 426.218C397.071 425.258 396.751 424.484 396.378 423.898H369.978C367.684 423.898 365.871 424.564 364.538 425.898ZM428.742 443.178C429.702 440.404 430.555 437.898 431.302 435.658H431.782C432.422 437.844 433.115 440.324 433.862 443.098C434.661 445.818 435.435 448.618 436.182 451.498H426.262C427.008 448.671 427.835 445.898 428.742 443.178ZM479.458 472.058V456.698H483.698L490.418 467.498C490.898 468.298 491.404 469.044 491.938 469.738C492.471 470.431 493.058 471.018 493.698 471.498C494.338 471.978 495.084 472.351 495.938 472.618C496.791 472.884 497.804 473.018 498.978 473.018C500.738 473.018 502.311 472.538 503.698 471.578C505.138 470.564 506.124 469.124 506.658 467.258C505.591 465.391 504.124 463.311 502.258 461.018C500.391 458.724 498.498 456.271 496.578 453.658C498.924 452.378 500.951 450.564 502.658 448.218C504.364 445.871 505.218 443.044 505.218 439.738C505.218 434.458 503.351 430.271 499.618 427.178C495.884 424.084 490.338 422.538 482.978 422.538C480.258 422.538 477.698 422.698 475.298 423.018C472.898 423.284 470.791 423.738 468.978 424.378C467.911 424.751 467.058 425.258 466.418 425.898C465.831 426.484 465.538 427.338 465.538 428.458V466.138C465.538 467.524 465.698 468.644 466.018 469.498C466.338 470.351 466.791 471.018 467.378 471.498C468.018 471.978 468.791 472.298 469.698 472.458C470.658 472.671 471.751 472.778 472.978 472.778C474.204 472.778 475.431 472.698 476.658 472.538C477.938 472.378 478.871 472.218 479.458 472.058ZM489.298 444.538C488.124 445.551 486.524 446.058 484.498 446.058H479.378V434.058C479.964 433.951 480.498 433.871 480.978 433.818C481.458 433.764 482.098 433.738 482.898 433.738C485.724 433.738 487.778 434.271 489.058 435.338C490.391 436.351 491.058 437.871 491.058 439.898C491.058 441.924 490.471 443.471 489.298 444.538Z" fill="#FEAD55"/>
<rect x="354" y="350" width="280" height="280" fill="white"/>
<defs>
<filter id="filter0_d_1095_802" x="0" y="0" width="721" height="720" filterUnits="userSpaceOnUse" color-interpolation-filters="sRGB">
<feFlood flood-opacity="0" result="BackgroundImageFix"/>
<feColorMatrix in="SourceAlpha" type="matrix" values="0 0 0 0 0 0 0 0 0 0 0 0 0 0 0 0 0 0 127 0" result="hardAlpha"/>
<feMorphology radius="10" operator="dilate" in="SourceAlpha" result="effect1_dropShadow_1095_802"/>
<feOffset dx="10" dy="10"/>
<feGaussianBlur stdDeviation="5"/>
<feComposite in2="hardAlpha" operator="out"/>
<feColorMatrix type="matrix" values="0 0 0 0 0 0 0 0 0 0 0 0 0 0 0 0 0 0 0.25 0"/>
<feBlend mode="normal" in2="BackgroundImageFix" result="effect1_dropShadow_1095_802"/>
<feBlend mode="normal" in="SourceGraphic" in2="effect1_dropShadow_1095_802" result="shape"/>
</filter>
</defs>
</svg>
