<svg width="480" height="448" viewBox="0 0 480 448" fill="none" xmlns="http://www.w3.org/2000/svg">
<path fill-rule="evenodd" clip-rule="evenodd" d="M234.8 5.16126C263.17 -11.6603 291.415 16.6762 296.66 32.4603C347.841 37.133 377.297 62.4692 385.627 74.5531C395.537 68.1163 430.995 73.4679 437.378 102.796C446.312 143.85 420.267 163.45 400.701 170.001C399.431 174.834 396.916 181.426 393.011 188.417C411.887 183.643 450.543 182.988 454.158 218.558C457.523 251.66 431.59 266.982 391.861 279.651C390.897 278.566 389.55 277.713 387.82 277.092C385.084 276.012 381.916 275.472 378.316 275.472C375.796 275.472 373.276 275.796 370.756 276.444C368.308 277.092 366.472 277.776 365.248 278.496C364.744 279.792 364.024 281.664 363.088 284.112C362.622 285.432 362.125 286.856 361.596 288.386C357.4 289.519 353.117 290.66 348.76 291.822L346.713 292.367C342.477 306.354 337.614 318.563 332.352 329.196C332.094 328.506 331.807 327.914 331.493 327.42H303.737V316.08H323.609C325.553 316.08 327.101 315.504 328.253 314.352C329.405 313.2 329.981 311.256 329.981 308.52C329.981 307.08 329.765 305.748 329.333 304.524C328.973 303.228 328.541 302.184 328.037 301.392H303.737V291.348H326.525C328.469 291.348 330.017 290.772 331.169 289.62C332.393 288.468 333.005 286.524 333.005 283.788C333.005 282.348 332.789 280.98 332.357 279.684C331.997 278.388 331.565 277.344 331.061 276.552H295.421C292.325 276.552 289.877 277.452 288.077 279.252C286.277 281.052 285.377 283.5 285.377 286.596V332.28C285.377 335.376 286.277 337.824 288.077 339.624C289.877 341.424 292.325 342.324 295.421 342.324H325.201C299.671 384.907 267.888 396.214 251.938 395.705C250.211 396.916 244.362 402.554 234.784 415.417C204.646 476.499 142.185 432.72 132.581 421.018C122.976 409.315 139.529 373.123 162.213 372.581C153.167 369.78 158.895 354.589 164.942 343.567C168.681 343.281 172.172 342.615 175.416 341.568C179.88 340.128 183.696 337.968 186.864 335.088C190.104 332.136 192.588 328.536 194.316 324.288C196.044 319.968 196.908 314.928 196.908 309.168C196.908 303.264 196.008 298.152 194.208 293.832C192.408 289.512 189.852 285.948 186.54 283.14C183.3 280.26 179.376 278.136 174.768 276.768C170.232 275.4 165.156 274.716 159.54 274.716C156.804 274.716 153.708 274.896 150.252 275.256C146.796 275.544 143.52 276.192 140.424 277.2C138.984 277.704 137.832 278.388 136.968 279.252C136.176 280.044 135.78 281.196 135.78 282.708V325.453C124.397 323.032 110.317 319.889 94.4888 316.08H109.444C111.388 316.08 112.936 315.504 114.088 314.352C115.24 313.2 115.816 311.256 115.816 308.52C115.816 307.08 115.6 305.748 115.168 304.524C114.808 303.228 114.376 302.184 113.872 301.392H89.5722V291.348H112.36C114.304 291.348 115.852 290.772 117.004 289.62C118.228 288.468 118.84 286.524 118.84 283.788C118.84 282.348 118.624 280.98 118.192 279.684C117.832 278.388 117.4 277.344 116.896 276.552H81.2562C78.1602 276.552 75.7122 277.452 73.9122 279.252C72.1122 281.052 71.2122 283.5 71.2122 286.596V295.822C61.2308 270.271 74.3918 229.386 90.3639 217.074C108.03 203.457 129.108 224.22 137.439 236.304L180.594 227.552C160.828 228.609 121.206 220.338 120.85 178.795C120.494 137.251 178.666 147.892 207.796 158.406C201.826 132.692 209.518 92.1964 225.735 74.5142C204.915 59.9212 195.498 28.4645 234.8 5.16126ZM71.2122 295.822V332.28C71.2122 335.376 72.1122 337.824 73.9122 339.624C75.7122 341.424 78.1602 342.324 81.2562 342.324H112.792C114.736 342.324 116.284 341.748 117.436 340.596C118.66 339.372 119.272 337.392 119.272 334.656C119.272 333.216 119.056 331.848 118.624 330.552C118.264 329.256 117.832 328.212 117.328 327.42H89.5722V316.08H94.4888C94.316 316.038 94.1431 315.997 93.9699 315.955C82.2374 313.128 75.031 305.597 71.2122 295.822ZM135.78 325.453V333.144C135.78 336.888 137.76 339.516 141.72 341.028C143.16 341.604 144.708 342.036 146.364 342.324C148.092 342.684 149.784 342.972 151.44 343.188C153.168 343.404 154.824 343.548 156.408 343.62C157.992 343.692 159.396 343.728 160.62 343.728C162.096 343.728 163.536 343.674 164.942 343.567C166.211 341.254 167.493 339.125 168.657 337.332L162.622 330.809C158.009 329.994 148.608 328.182 135.78 325.453ZM325.201 342.324H326.957C328.901 342.324 330.449 341.748 331.601 340.596C332.825 339.372 333.437 337.392 333.437 334.656C333.437 333.216 333.221 331.848 332.789 330.552C332.654 330.064 332.508 329.613 332.352 329.196C330.039 333.871 327.649 338.241 325.201 342.324ZM361.596 288.386C361.145 289.693 360.67 291.076 360.172 292.536C359.092 295.632 357.94 298.944 356.716 302.472C355.492 306 354.34 309.456 353.26 312.84C352.18 316.152 351.172 319.248 350.236 322.128C349.372 325.008 348.688 327.42 348.184 329.364C347.824 330.732 347.5 331.92 347.212 332.928C346.924 333.936 346.78 334.944 346.78 335.952C346.78 338.184 347.644 339.948 349.372 341.244C351.172 342.468 353.908 343.08 357.58 343.08C359.164 343.08 360.496 342.936 361.576 342.648C362.728 342.432 363.808 342.144 364.816 341.784C365.392 339.624 365.968 337.392 366.544 335.088C367.12 332.784 367.696 330.552 368.272 328.392H387.82L389.764 335.844C390.124 337.068 390.52 338.148 390.952 339.084C391.456 340.02 392.068 340.776 392.788 341.352C393.58 341.928 394.552 342.36 395.704 342.648C396.928 342.936 398.404 343.08 400.132 343.08C402.508 343.08 404.56 342.756 406.288 342.108C408.016 341.532 409.312 340.74 410.176 339.732C409.096 335.772 407.836 331.236 406.396 326.124C404.956 320.94 403.48 315.72 401.968 310.464C400.456 305.136 398.944 299.988 397.432 295.02C395.92 290.052 394.516 285.696 393.22 281.952C392.916 281.095 392.463 280.328 391.861 279.651C382.475 282.644 372.319 285.489 361.596 288.386ZM274.196 113.194C271.399 119.102 264.342 121.624 258.434 118.827C252.526 116.03 250.004 108.973 252.801 103.065C255.598 97.1565 262.655 94.6344 268.563 97.4314C274.471 100.228 276.993 107.285 274.196 113.194ZM329.752 152.591C335.66 155.388 342.717 152.865 345.514 146.957C348.311 141.049 345.789 133.992 339.881 131.195C333.972 128.398 326.915 130.92 324.118 136.828C321.321 142.736 323.844 149.794 329.752 152.591ZM269.496 141.564C272.952 134.262 278.758 137.1 285.115 140.207C285.783 140.534 286.458 140.863 287.136 141.184C304.253 149.288 298.022 155.07 298.022 155.07C294.646 162.204 282.711 165.281 277.006 162.58C269.874 159.203 266.119 148.697 269.496 141.564ZM1.37249 288.432C1.80449 289.8 2.27249 290.88 2.77649 291.672H18.9765V333.576C18.9765 335.448 19.1925 336.96 19.6245 338.112C20.0565 339.264 20.7045 340.164 21.5685 340.812C22.4325 341.46 23.4765 341.892 24.7005 342.108C25.9965 342.396 27.4725 342.54 29.1285 342.54C30.7845 342.54 32.4405 342.432 34.0965 342.216C35.8245 342 37.0845 341.784 37.8765 341.568V291.672H49.8645C51.8805 291.672 53.5005 291.06 54.7245 289.836C56.0205 288.612 56.6685 286.596 56.6685 283.788C56.6685 282.276 56.4525 280.836 56.0205 279.468C55.5885 278.1 55.1205 277.02 54.6165 276.228H7.52849C5.51249 276.228 3.85649 276.84 2.56049 278.064C1.33649 279.288 0.724487 281.304 0.724487 284.112C0.724487 285.624 0.940487 287.064 1.37249 288.432ZM157.488 328.392C156.336 328.248 155.364 328.104 154.572 327.96V290.376C155.652 290.232 156.696 290.124 157.704 290.052C158.784 289.98 159.828 289.944 160.836 289.944C165.876 289.944 169.908 291.6 172.932 294.912C175.956 298.152 177.468 303.012 177.468 309.492C177.468 312.876 177.036 315.792 176.172 318.24C175.38 320.616 174.228 322.56 172.716 324.072C171.276 325.584 169.512 326.7 167.424 327.42C165.408 328.14 163.176 328.5 160.728 328.5C159.72 328.5 158.64 328.464 157.488 328.392ZM235.358 329.148C233.774 329.004 232.478 328.788 231.47 328.5V315.324H240.326C243.566 315.324 245.978 315.828 247.562 316.836C249.146 317.844 249.938 319.536 249.938 321.912C249.938 324.432 248.966 326.304 247.022 327.528C245.15 328.68 242.774 329.256 239.894 329.256C238.454 329.256 236.942 329.22 235.358 329.148ZM239.354 302.148H231.47V289.404C232.262 289.26 233.342 289.152 234.71 289.08C236.15 289.008 237.41 288.972 238.49 288.972C241.73 288.972 244.142 289.548 245.726 290.7C247.382 291.852 248.21 293.4 248.21 295.344C248.21 297.576 247.49 299.268 246.05 300.42C244.682 301.572 242.45 302.148 239.354 302.148ZM234.17 343.62C235.826 343.692 237.266 343.728 238.49 343.728C248.426 343.728 256.022 342.036 261.278 338.652C266.606 335.196 269.27 329.904 269.27 322.776C269.27 318.744 268.046 315.396 265.598 312.732C263.222 310.068 260.234 308.232 256.634 307.224C259.802 306.144 262.322 304.452 264.194 302.148C266.066 299.772 267.002 296.964 267.002 293.724C267.002 287.244 264.518 282.456 259.55 279.36C254.582 276.264 247.49 274.716 238.274 274.716C234.386 274.716 230.606 274.932 226.934 275.364C223.262 275.724 220.202 276.336 217.754 277.2C216.314 277.704 215.162 278.388 214.298 279.252C213.506 280.044 213.11 281.196 213.11 282.708V333.144C213.11 336.888 215.09 339.516 219.05 341.028C220.49 341.604 222.074 342.036 223.802 342.324C225.53 342.684 227.258 342.972 228.986 343.188C230.786 343.404 232.514 343.548 234.17 343.62ZM374.752 302.58C376.048 298.836 377.2 295.452 378.208 292.428H378.856C379.72 295.38 380.656 298.728 381.664 302.472C382.744 306.144 383.788 309.924 384.796 313.812H371.404C372.412 309.996 373.528 306.252 374.752 302.58ZM443.219 341.568V320.832H448.943L458.015 335.412C458.663 336.492 459.347 337.5 460.067 338.436C460.787 339.372 461.579 340.164 462.443 340.812C463.307 341.46 464.315 341.964 465.467 342.324C466.619 342.684 467.987 342.864 469.571 342.864C471.947 342.864 474.071 342.216 475.943 340.92C477.887 339.552 479.219 337.608 479.939 335.088C478.499 332.568 476.519 329.76 473.999 326.664C471.479 323.568 468.923 320.256 466.331 316.728C469.499 315 472.235 312.552 474.539 309.384C476.843 306.216 477.995 302.4 477.995 297.936C477.995 290.808 475.475 285.156 470.435 280.98C465.395 276.804 457.907 274.716 447.971 274.716C444.299 274.716 440.843 274.932 437.603 275.364C434.363 275.724 431.519 276.336 429.071 277.2C427.631 277.704 426.479 278.388 425.615 279.252C424.823 280.044 424.427 281.196 424.427 282.708V333.576C424.427 335.448 424.643 336.96 425.075 338.112C425.507 339.264 426.119 340.164 426.911 340.812C427.775 341.46 428.819 341.892 430.043 342.108C431.339 342.396 432.815 342.54 434.471 342.54C436.127 342.54 437.783 342.432 439.439 342.216C441.167 342 442.427 341.784 443.219 341.568ZM456.503 304.416C454.919 305.784 452.759 306.468 450.023 306.468H443.111V290.268C443.903 290.124 444.623 290.016 445.271 289.944C445.919 289.872 446.783 289.836 447.863 289.836C451.679 289.836 454.451 290.556 456.179 291.996C457.979 293.364 458.879 295.416 458.879 298.152C458.879 300.888 458.087 302.976 456.503 304.416Z" fill="#6255A4"/>
</svg>
