<svg width="206" height="196" viewBox="0 0 206 196" fill="none" xmlns="http://www.w3.org/2000/svg">
<path fill-rule="evenodd" clip-rule="evenodd" d="M96.993 6.97084C109.088 -0.192212 121.121 11.8578 123.353 18.5722C145.166 20.5492 157.715 31.3224 161.263 36.4619C165.488 33.7211 180.6 35.9904 183.314 48.4669C187.113 65.9319 176.008 74.2768 167.667 77.0681C167.124 79.1248 166.051 81.9299 164.385 84.9053C172.432 82.87 188.907 82.5828 190.441 97.7156C192.185 114.932 175.274 120.853 151.772 127.229C151.265 127.162 150.732 127.128 150.172 127.128C149.192 127.128 148.212 127.254 147.232 127.506C146.28 127.758 145.566 128.024 145.09 128.304C145.003 128.526 144.9 128.792 144.781 129.102L144.63 129.142C144.34 130.095 144.044 131.029 143.741 131.944C143.544 132.512 143.336 133.119 143.116 133.764C143.018 134.043 142.919 134.327 142.819 134.615C131.584 165.87 112.672 173.394 104.213 173.129C103.477 173.644 100.983 176.044 96.8974 181.519C84.0392 207.514 57.4268 188.901 53.3357 183.924C49.2445 178.947 56.3077 163.545 65.9759 163.31C62.8252 162.338 63.8827 157.842 65.7826 153.67C67.7771 153.647 69.605 153.368 71.2662 152.832C73.0022 152.272 74.4862 151.432 75.7182 150.312C76.9782 149.164 77.9442 147.764 78.6162 146.112C79.2882 144.432 79.6242 142.472 79.6242 140.232C79.6242 137.936 79.2742 135.948 78.5742 134.268C77.8742 132.588 76.8802 131.202 75.5922 130.11C74.3322 128.99 72.8062 128.164 71.0142 127.632C69.2502 127.1 67.2762 126.834 65.0922 126.834C64.0282 126.834 62.8242 126.904 61.4802 127.044C60.1362 127.156 58.8622 127.408 57.6582 127.8C57.0982 127.996 56.6502 128.262 56.3142 128.598C56.0062 128.906 55.8522 129.354 55.8522 129.942V143.503C53.451 142.999 50.7368 142.414 47.7649 141.75C47.9806 141.308 48.0884 140.718 48.0884 139.98C48.0884 139.42 48.0044 138.902 47.8364 138.426C47.6964 137.922 47.5284 137.516 47.3324 137.208H37.8824V133.302H46.7444C47.5004 133.302 48.1024 133.078 48.5504 132.63C49.0264 132.182 49.2644 131.426 49.2644 130.362C49.2644 129.802 49.1804 129.27 49.0124 128.766C48.8724 128.262 48.7044 127.856 48.5084 127.548H34.6484C33.4444 127.548 32.4924 127.898 31.7924 128.598C31.0924 129.298 30.7424 130.25 30.7424 131.454V136.018C20.8721 126.83 27.2862 103.398 35.3865 97.1631C42.919 91.3655 51.8983 100.195 55.4463 105.335L73.8416 101.601C65.4166 102.056 48.531 98.5452 48.3884 80.87C48.2458 63.1949 73.0369 67.7097 85.4503 72.1766C82.9117 61.2375 86.1986 44.0065 93.1145 36.4799C84.2437 30.2756 80.2371 16.894 96.993 6.97084ZM30.7424 136.018V149.22C30.7424 150.424 31.0924 151.376 31.7924 152.076C32.4924 152.776 33.4444 153.126 34.6484 153.126H46.9124C47.6684 153.126 48.2704 152.902 48.7184 152.454C49.1944 151.978 49.4324 151.208 49.4324 150.144C49.4324 149.584 49.3484 149.052 49.1804 148.548C49.0404 148.044 48.8724 147.638 48.6764 147.33H37.8824V142.92H45.6104C46.3664 142.92 46.9684 142.696 47.4164 142.248C47.5536 142.111 47.6697 141.945 47.7649 141.75C44.4406 141.007 40.7939 140.167 36.902 139.232C34.3777 138.626 32.3453 137.51 30.7424 136.018ZM63.1602 144.98C61.2605 144.614 58.7907 144.12 55.8522 143.503V149.556C55.8522 151.012 56.6222 152.034 58.1622 152.622C58.7222 152.846 59.3242 153.014 59.9682 153.126C60.6402 153.266 61.2982 153.378 61.9422 153.462C62.6142 153.546 63.2582 153.602 63.8742 153.63C64.4902 153.658 65.0362 153.672 65.5122 153.672C65.6027 153.672 65.6928 153.671 65.7826 153.67C66.695 151.667 67.8017 149.739 68.7299 148.312L67.9003 147.416C67.9872 147.389 68.0732 147.36 68.1582 147.33C68.9702 147.05 69.6562 146.616 70.2162 146.028C70.8042 145.44 71.2522 144.684 71.5602 143.76C71.8962 142.808 72.0642 141.674 72.0642 140.358C72.0642 137.838 71.4762 135.948 70.3002 134.688C69.1242 133.4 67.5562 132.756 65.5962 132.756C65.2042 132.756 64.7982 132.77 64.3782 132.798C63.9862 132.826 63.5802 132.868 63.1602 132.924V144.98ZM63.1602 144.98C64.4208 145.223 65.4303 145.409 66.1593 145.537L67.9003 147.416C67.185 147.639 66.403 147.75 65.5542 147.75C65.1622 147.75 64.7422 147.736 64.2942 147.708C63.8462 147.652 63.4682 147.596 63.1602 147.54V144.98ZM142.819 134.615C142.486 135.57 142.137 136.574 141.772 137.628C141.296 139 140.848 140.344 140.428 141.66C140.008 142.948 139.616 144.152 139.252 145.272C138.916 146.392 138.65 147.33 138.454 148.086C138.314 148.618 138.188 149.08 138.076 149.472C137.964 149.864 137.908 150.256 137.908 150.648C137.908 151.516 138.244 152.202 138.916 152.706C139.616 153.182 140.68 153.42 142.108 153.42C142.724 153.42 143.242 153.364 143.662 153.252C144.11 153.168 144.53 153.056 144.922 152.916C145.146 152.076 145.37 151.208 145.594 150.312C145.818 149.416 146.042 148.548 146.266 147.708H153.868L154.624 150.606C154.764 151.082 154.918 151.502 155.086 151.866C155.282 152.23 155.52 152.524 155.8 152.748C156.108 152.972 156.486 153.14 156.934 153.252C157.41 153.364 157.984 153.42 158.656 153.42C159.58 153.42 160.378 153.294 161.05 153.042C161.722 152.818 162.226 152.51 162.562 152.118C162.142 150.578 161.652 148.814 161.092 146.826C160.532 144.81 159.958 142.78 159.37 140.736C158.782 138.664 158.194 136.662 157.606 134.73C157.018 132.798 156.472 131.104 155.968 129.648C155.66 128.78 154.96 128.15 153.868 127.758C153.23 127.506 152.531 127.33 151.772 127.229C149.729 127.783 147.637 128.341 145.503 128.91L144.781 129.102C144.63 129.494 144.453 129.956 144.25 130.488C144.09 130.942 143.92 131.427 143.741 131.944C143.44 132.853 143.132 133.743 142.819 134.615ZM113.732 52.931C112.539 55.4456 109.53 56.5203 107.013 55.3314C104.495 54.1426 103.421 51.1403 104.615 48.6256C105.808 46.111 108.817 45.0363 111.335 46.2252C113.852 47.4141 114.926 50.4164 113.732 52.931ZM137.416 69.6952C139.934 70.8841 142.942 69.8094 144.136 67.2948C145.329 64.7802 144.256 61.7779 141.738 60.589C139.22 59.4001 136.212 60.4748 135.018 62.9894C133.825 65.5041 134.898 68.5063 137.416 69.6952ZM111.733 65.0038C113.208 61.8959 115.682 63.1022 118.392 64.4233L118.392 64.4234C118.677 64.5622 118.964 64.7022 119.253 64.8386C126.547 68.2834 123.89 70.7455 123.89 70.7455C122.45 73.782 117.361 75.0937 114.93 73.9455C111.89 72.5102 110.292 68.0402 111.733 65.0038ZM3.58255 132.168C3.75055 132.7 3.93255 133.12 4.12855 133.428H10.4286V149.724C10.4286 150.452 10.5126 151.04 10.6806 151.488C10.8486 151.936 11.1006 152.286 11.4366 152.538C11.7726 152.79 12.1786 152.958 12.6546 153.042C13.1586 153.154 13.7326 153.21 14.3766 153.21C15.0206 153.21 15.6646 153.168 16.3086 153.084C16.9806 153 17.4706 152.916 17.7786 152.832V133.428H22.4406C23.2246 133.428 23.8546 133.19 24.3306 132.714C24.8346 132.238 25.0866 131.454 25.0866 130.362C25.0866 129.774 25.0026 129.214 24.8346 128.682C24.6666 128.15 24.4846 127.73 24.2886 127.422H5.97655C5.19255 127.422 4.54855 127.66 4.04455 128.136C3.56855 128.612 3.33055 129.396 3.33055 130.488C3.33055 131.076 3.41455 131.636 3.58255 132.168ZM94.5769 148.002C93.9609 147.946 93.4569 147.862 93.0649 147.75V142.626H96.5089C97.7689 142.626 98.7069 142.822 99.3229 143.214C99.9389 143.606 100.247 144.264 100.247 145.188C100.247 146.168 99.8689 146.896 99.1129 147.372C98.3849 147.82 97.4609 148.044 96.3409 148.044C95.7809 148.044 95.1929 148.03 94.5769 148.002ZM96.1309 137.502H93.0649V132.546C93.3729 132.49 93.7929 132.448 94.3249 132.42C94.8849 132.392 95.3749 132.378 95.7949 132.378C97.0549 132.378 97.9929 132.602 98.6089 133.05C99.2529 133.498 99.5749 134.1 99.5749 134.856C99.5749 135.724 99.2949 136.382 98.7349 136.83C98.2029 137.278 97.3349 137.502 96.1309 137.502ZM94.1149 153.63C94.7589 153.658 95.3189 153.672 95.7949 153.672C99.6589 153.672 102.613 153.014 104.657 151.698C106.729 150.354 107.765 148.296 107.765 145.524C107.765 143.956 107.289 142.654 106.337 141.618C105.413 140.582 104.251 139.868 102.851 139.476C104.083 139.056 105.063 138.398 105.791 137.502C106.519 136.578 106.883 135.486 106.883 134.226C106.883 131.706 105.917 129.844 103.985 128.64C102.053 127.436 99.2949 126.834 95.7109 126.834C94.1989 126.834 92.7289 126.918 91.3009 127.086C89.8729 127.226 88.6829 127.464 87.7309 127.8C87.1709 127.996 86.7229 128.262 86.3869 128.598C86.0789 128.906 85.9249 129.354 85.9249 129.942V149.556C85.9249 151.012 86.6949 152.034 88.2349 152.622C88.7949 152.846 89.4109 153.014 90.0829 153.126C90.7549 153.266 91.4269 153.378 92.0989 153.462C92.7989 153.546 93.4709 153.602 94.1149 153.63ZM115.079 128.598C114.379 129.298 114.029 130.25 114.029 131.454V149.22C114.029 150.424 114.379 151.376 115.079 152.076C115.779 152.776 116.731 153.126 117.935 153.126H130.199C130.955 153.126 131.557 152.902 132.005 152.454C132.481 151.978 132.719 151.208 132.719 150.144C132.719 149.584 132.635 149.052 132.467 148.548C132.327 148.044 132.159 147.638 131.963 147.33H121.169V142.92H128.897C129.653 142.92 130.255 142.696 130.703 142.248C131.151 141.8 131.375 141.044 131.375 139.98C131.375 139.42 131.291 138.902 131.123 138.426C130.983 137.922 130.815 137.516 130.619 137.208H121.169V133.302H130.031C130.787 133.302 131.389 133.078 131.837 132.63C132.313 132.182 132.551 131.426 132.551 130.362C132.551 129.802 132.467 129.27 132.299 128.766C132.159 128.262 131.991 127.856 131.795 127.548H117.935C116.731 127.548 115.779 127.898 115.079 128.598ZM148.786 137.67C149.29 136.214 149.738 134.898 150.13 133.722H150.382C150.718 134.87 151.082 136.172 151.474 137.628C151.894 139.056 152.3 140.526 152.692 142.038H147.484C147.876 140.554 148.31 139.098 148.786 137.67ZM175.412 152.832V144.768H177.638L181.166 150.438C181.418 150.858 181.684 151.25 181.964 151.614C182.244 151.978 182.552 152.286 182.888 152.538C183.224 152.79 183.616 152.986 184.064 153.126C184.512 153.266 185.044 153.336 185.66 153.336C186.584 153.336 187.41 153.084 188.138 152.58C188.894 152.048 189.412 151.292 189.692 150.312C189.132 149.332 188.362 148.24 187.382 147.036C186.402 145.832 185.408 144.544 184.4 143.172C185.632 142.5 186.696 141.548 187.592 140.316C188.488 139.084 188.936 137.6 188.936 135.864C188.936 133.092 187.956 130.894 185.996 129.27C184.036 127.646 181.124 126.834 177.26 126.834C175.832 126.834 174.488 126.918 173.228 127.086C171.968 127.226 170.862 127.464 169.91 127.8C169.35 127.996 168.902 128.262 168.566 128.598C168.258 128.906 168.104 129.354 168.104 129.942V149.724C168.104 150.452 168.188 151.04 168.356 151.488C168.524 151.936 168.762 152.286 169.07 152.538C169.406 152.79 169.812 152.958 170.288 153.042C170.792 153.154 171.366 153.21 172.01 153.21C172.654 153.21 173.298 153.168 173.942 153.084C174.614 153 175.104 152.916 175.412 152.832ZM180.578 138.384C179.962 138.916 179.122 139.182 178.058 139.182H175.37V132.882C175.678 132.826 175.958 132.784 176.21 132.756C176.462 132.728 176.798 132.714 177.218 132.714C178.702 132.714 179.78 132.994 180.452 133.554C181.152 134.086 181.502 134.884 181.502 135.948C181.502 137.012 181.194 137.824 180.578 138.384Z" fill="white"/>
</svg>
