<svg width="30" height="51" viewBox="0 0 30 51" fill="none" xmlns="http://www.w3.org/2000/svg">
<path fill-rule="evenodd" clip-rule="evenodd" d="M30 0H0V50.9999L14.9999 31.6512L30 51.0002V0Z" fill="#FEAD55"/>
<path d="M25 13.3612C25 13.5601 24.896 13.7592 24.688 13.9581L20.325 18.1361L21.358 24.2041C21.366 24.2041 21.37 24.3037 21.37 24.4032C21.37 24.6021 21.326 24.7015 21.238 24.801C21.158 24.9005 21.038 25 20.877 25C20.725 25 20.565 25 20.397 24.9005L15 22.0157L9.6034 24.9005C9.4271 25 9.2668 25 9.1226 25C8.9543 25 8.8261 24.9005 8.738 24.801C8.6578 24.7015 8.6178 24.6021 8.6178 24.4032C8.6178 24.4032 8.6258 24.3036 8.6418 24.2041L9.6755 18.1361L5.3005 13.9581C5.1002 13.7592 5 13.5601 5 13.3612C5 13.0627 5.2244 12.8638 5.6731 12.8638L11.7067 11.9686L14.411 6.49738C14.563 6.19895 14.76 6 15 6C15.24 6 15.437 6.19895 15.589 6.49738L18.293 11.9686L24.327 12.8638C24.776 12.8638 25 13.0627 25 13.3612Z" fill="#E67F51"/>
</svg>
