<svg width="933" height="528" viewBox="0 0 933 528" fill="none" xmlns="http://www.w3.org/2000/svg">
<path fill-rule="evenodd" clip-rule="evenodd" d="M0 24.8304C32.7024 1.37346 113.216 -26.3839 173.65 50.2421C230.552 -12.3098 306.095 -10.355 334.546 69.7896C362.997 55.129 380.656 83.4728 373.789 100.088C414.932 62.9123 461.675 75.939 475.792 128.288H477.552C486.835 85.927 532.556 94.2626 548.42 116.703C549.074 97.8076 559.604 65.0982 596.492 85.4275C596.492 -9.37765 688.713 12.1245 705.391 45.3552C744.634 2.35082 801.536 21.8983 806.442 75.6538C846.666 35.5815 878.06 59.0385 888.852 80.5407C898.662 54.1516 916.322 51.2195 933 59.0385V178.288V324.884V611.43C933 639.045 910.614 661.43 883 661.43H50C22.3858 661.43 0 639.045 0 611.43V324.884V178.288V24.8304Z" fill="white"/>
</svg>
