<svg width="560" height="397" viewBox="0 0 560 397" fill="none" xmlns="http://www.w3.org/2000/svg">
<path fill-rule="evenodd" clip-rule="evenodd" d="M0 14.9036C19.6285 0.824369 67.9537 -15.836 104.227 30.156C138.381 -7.3885 183.722 -6.21524 200.799 41.8887C217.876 33.0892 228.475 50.1016 224.353 60.0743C249.048 37.7609 277.104 45.5797 285.577 77H286.634C292.205 51.5746 319.648 56.5778 329.169 70.0471C329.562 58.7055 335.882 39.0729 358.023 51.2748C358.023 -5.6286 413.375 7.27733 423.386 27.2229C446.94 1.411 481.094 13.1437 484.038 45.4085C508.181 21.3565 527.024 35.4357 533.502 48.3417C539.39 32.5026 549.99 30.7427 560 35.4357V77V195V397H50C22.3858 397 0 374.614 0 347V195V77V14.9036Z" fill="white"/>
</svg>
