<svg width="24" height="23" viewBox="0 0 24 23" fill="none" xmlns="http://www.w3.org/2000/svg">
<path fill-rule="evenodd" clip-rule="evenodd" d="M19.2285 0.244385H4.96063V1.89963L0 1.89963V9.66373C0 12.6644 3.34873 15.1336 6.63514 15.3905C7.71402 16.5464 9.6117 17.3861 11.3007 17.7441V19.7734C9.68555 20.2695 6.80051 21.4351 6.63514 22.705H17.7195C17.5525 21.4351 14.3735 20.2679 12.7552 19.7734V17.7441C14.4506 17.3861 16.4334 16.5464 17.5139 15.3905C20.7987 15.1336 24 12.6644 24 9.66373V1.89963H19.2285V0.244385ZM1.5233 3.37087H4.84503V10.0587C4.84503 11.3784 5.1854 12.6339 5.78424 13.7641C3.29896 12.9726 1.5233 10.9337 1.5233 8.54792V3.37087ZM14.5344 11.5277L12.055 10.1614L9.57285 11.5277L10.0468 8.63783L8.03994 6.59245L10.8126 6.17021L12.055 3.54364L13.2947 6.17021L16.0673 6.59245L14.0618 8.63783L14.5344 11.5277ZM18.2187 13.9776C18.8207 12.796 19.1659 11.4892 19.1659 10.1068V3.41399H22.4957V8.52865C22.4957 11.022 20.712 13.1508 18.2187 13.9776Z" fill="white"/>
</svg>
