<svg width="2076" height="1054" viewBox="0 0 2076 1054" fill="none" xmlns="http://www.w3.org/2000/svg">
<path d="M81.2632 77.3639C57.6647 54.5226 109.321 34.421 104.572 70.2458C166.714 70.9121 177.987 109.877 179.756 137.474C180.534 207.745 68.6434 261.853 34.7426 165.232C0.366929 173.937 6.9568 127.901 34.4895 138.794C39.7105 108.107 65.7367 84.5841 81.2632 77.3639Z" fill="#FEAD55" stroke="#E67F51" stroke-width="10"/>
<ellipse cx="5.00544" cy="5.01607" rx="5.00544" ry="5.01607" transform="matrix(0.591414 -0.806368 0.810243 0.586094 94.1465 109.869)" fill="white"/>
<ellipse cx="5.00544" cy="5.01607" rx="5.00544" ry="5.01607" transform="matrix(0.591414 -0.806368 0.810243 0.586094 64.1543 150.763)" fill="white"/>
<path fill-rule="evenodd" clip-rule="evenodd" d="M134.705 118.902C147.269 127.99 147.703 148.653 135.674 165.054C123.645 181.455 103.709 187.383 91.1442 178.295C78.5799 169.206 78.1459 148.543 90.1747 132.142C102.204 115.741 122.14 109.813 134.705 118.902ZM104.803 141.891C106.71 138.919 106.813 135.595 104.958 134.253C102.983 132.824 99.5354 134.184 97.2575 137.29C94.9796 140.396 94.7342 144.072 96.7093 145.5C98.5761 146.851 101.758 145.71 104.025 142.959L119.305 154.737L120.782 152.725L104.803 141.891Z" fill="white"/>
<ellipse cx="3.33582" cy="3.34291" rx="3.33582" ry="3.34291" transform="matrix(0.591414 -0.806368 0.810243 0.586094 95.6465 111.293)" fill="black"/>
<ellipse cx="3.013" cy="3.0194" rx="3.013" ry="3.0194" transform="matrix(0.591414 -0.806368 0.810243 0.586094 65.7051 152.116)" fill="black"/>
<path d="M473.051 733.083C468.18 700.717 521.554 715.754 495.946 741.422C545.015 779.294 530.249 817.091 514.844 840.126C472.649 896.541 350.598 872.383 382.477 775.086C349.805 761.359 383.1 728.667 398.383 753.885C421.237 732.59 456.29 729.501 473.051 733.083Z" fill="#FEAD55" stroke="#E67F51" stroke-width="10"/>
<ellipse cx="5.0252" cy="4.99627" rx="5.0252" ry="4.99627" transform="matrix(0.958382 -0.285488 0.289133 0.957289 463.504 766.704)" fill="white"/>
<ellipse cx="5.0252" cy="4.99627" rx="5.0252" ry="4.99627" transform="matrix(0.958382 -0.285488 0.289133 0.957289 414.71 781.239)" fill="white"/>
<path fill-rule="evenodd" clip-rule="evenodd" d="M490.293 798.268C494.759 813.054 482.515 829.766 462.945 835.595C443.375 841.425 423.891 834.164 419.425 819.378C414.959 804.592 427.203 787.88 446.773 782.051C466.342 776.221 485.827 783.482 490.293 798.268ZM452.479 798.603C455.808 797.382 457.916 794.798 457.257 792.615C456.555 790.29 452.981 789.301 449.275 790.405C445.569 791.509 443.134 794.288 443.836 796.613C444.5 798.809 447.728 799.814 451.209 798.986L456.199 817.545L458.6 816.83L452.479 798.603Z" fill="white"/>
<ellipse cx="3.34899" cy="3.32972" rx="3.34899" ry="3.32972" transform="matrix(0.958382 -0.285488 0.289133 0.957289 463.831 768.738)" fill="black"/>
<ellipse cx="3.0249" cy="3.00748" rx="3.0249" ry="3.00748" transform="matrix(0.958382 -0.285488 0.289133 0.957289 415.121 783.248)" fill="black"/>
<path d="M194.276 930.096C218.653 908.075 235.752 960.492 200.03 953.63C195.624 1015.19 155.782 1024.02 127.938 1024.12C57.2604 1020.67 9.60108 906.496 108.754 878.698C102.072 844.097 147.947 853.397 135.343 880.036C165.874 887.056 187.952 914.27 194.276 930.096Z" fill="#FEAD55" stroke="#E67F51" stroke-width="10"/>
<ellipse cx="5.01405" cy="5.00746" rx="5.01405" ry="5.00746" transform="matrix(0.773614 0.633657 -0.638894 0.769295 160.827 940.913)" fill="white"/>
<ellipse cx="5.01405" cy="5.00746" rx="5.01405" ry="5.00746" transform="matrix(0.773614 0.633657 -0.638894 0.769295 121.528 908.724)" fill="white"/>
<path fill-rule="evenodd" clip-rule="evenodd" d="M149.311 980.577C139.421 992.486 118.626 991.674 102.864 978.764C87.1024 965.854 82.3426 945.734 92.2328 933.825C102.123 921.916 122.918 922.728 138.68 935.638C154.442 948.548 159.201 968.668 149.311 980.577ZM128 949.553C130.873 951.622 134.208 951.925 135.669 950.166C137.223 948.294 136.064 944.794 133.079 942.35C130.095 939.905 126.415 939.441 124.86 941.313C123.39 943.082 124.345 946.305 126.974 948.717L114.216 963.158L116.15 964.742L128 949.553Z" fill="white"/>
<ellipse cx="3.34156" cy="3.33717" rx="3.34156" ry="3.33717" transform="matrix(0.773614 0.633657 -0.638894 0.769295 159.31 942.314)" fill="black"/>
<ellipse cx="3.01819" cy="3.01422" rx="3.01819" ry="3.01422" transform="matrix(0.773614 0.633657 -0.638894 0.769295 120.077 910.179)" fill="black"/>
<path d="M458.282 382.831C482.659 360.811 499.758 413.227 464.035 406.366C459.63 467.928 419.788 476.76 391.944 476.856C321.266 473.403 273.607 359.232 372.76 331.433C366.078 296.833 411.953 306.133 399.349 332.771C429.88 339.792 451.958 367.006 458.282 382.831Z" fill="#FEAD55" stroke="#E67F51" stroke-width="10"/>
<ellipse cx="5.01405" cy="5.00746" rx="5.01405" ry="5.00746" transform="matrix(0.773614 0.633657 -0.638894 0.769295 424.835 393.649)" fill="white"/>
<ellipse cx="5.01405" cy="5.00746" rx="5.01405" ry="5.00746" transform="matrix(0.773614 0.633657 -0.638894 0.769295 385.535 361.459)" fill="white"/>
<path fill-rule="evenodd" clip-rule="evenodd" d="M413.318 433.313C403.428 445.221 382.633 444.41 366.871 431.499C351.109 418.589 346.349 398.469 356.24 386.56C366.13 374.652 386.925 375.463 402.687 388.374C418.448 401.284 423.208 421.404 413.318 433.313ZM392.007 402.288C394.88 404.357 398.215 404.66 399.675 402.902C401.23 401.03 400.071 397.53 397.086 395.085C394.101 392.64 390.421 392.176 388.866 394.048C387.397 395.818 388.352 399.04 390.98 401.453L378.223 415.893L380.157 417.478L392.007 402.288Z" fill="white"/>
<ellipse cx="3.34156" cy="3.33717" rx="3.34156" ry="3.33717" transform="matrix(0.773614 0.633657 -0.638894 0.769295 423.314 395.049)" fill="black"/>
<ellipse cx="3.01819" cy="3.01422" rx="3.01819" ry="3.01422" transform="matrix(0.773614 0.633657 -0.638894 0.769295 384.083 362.915)" fill="black"/>
<path d="M1596.58 797.985C1590.59 765.805 1644.45 779.004 1619.75 805.535C1670.11 841.703 1656.67 879.983 1642.07 903.532C1601.86 961.36 1479.04 941.399 1507.52 843.067C1474.39 830.468 1506.53 796.655 1522.68 821.334C1544.78 799.268 1579.71 794.98 1596.58 797.985Z" fill="#FEAD55" stroke="#E67F51" stroke-width="10"/>
<ellipse cx="5.02451" cy="4.99697" rx="5.02451" ry="4.99697" transform="matrix(0.948022 -0.318206 0.32218 0.946679 1588.21 831.914)" fill="white"/>
<ellipse cx="5.02451" cy="4.99697" rx="5.02451" ry="4.99697" transform="matrix(0.948022 -0.318206 0.32218 0.946679 1539.95 848.113)" fill="white"/>
<path fill-rule="evenodd" clip-rule="evenodd" d="M1616.08 862.541C1621.06 877.165 1609.4 894.286 1590.04 900.783C1570.69 907.28 1550.96 900.691 1545.99 886.067C1541.01 871.443 1552.67 854.321 1572.02 847.825C1591.38 841.328 1611.1 847.916 1616.08 862.541ZM1578.3 864.171C1581.58 862.837 1583.6 860.182 1582.87 858.023C1582.08 855.724 1578.48 854.858 1574.81 856.088C1571.15 857.318 1568.81 860.179 1569.59 862.478C1570.33 864.651 1573.59 865.544 1577.04 864.597L1582.67 882.975L1585.05 882.178L1578.3 864.171Z" fill="white"/>
<ellipse cx="3.34853" cy="3.33018" rx="3.34853" ry="3.33018" transform="matrix(0.948022 -0.318206 0.32218 0.946679 1588.61 833.936)" fill="black"/>
<ellipse cx="3.02448" cy="3.0079" rx="3.02448" ry="3.0079" transform="matrix(0.948022 -0.318206 0.32218 0.946679 1540.43 850.106)" fill="black"/>
<path d="M1464.33 155.206C1493.29 170.809 1449.09 204.11 1443.85 168.353C1383.87 184.502 1362.34 150.053 1353.08 123.976C1333.08 56.5652 1425.93 -25.7342 1485.02 58.0822C1515.71 40.418 1521.98 86.4977 1492.5 83.4543C1495.89 114.395 1477.29 144.063 1464.33 155.206Z" fill="#FEAD55" stroke="#E67F51" stroke-width="10"/>
<ellipse cx="4.99758" cy="5.0239" rx="4.99758" ry="5.0239" transform="matrix(-0.348741 0.937219 -0.938778 -0.344523 1443.02 127.407)" fill="white"/>
<ellipse cx="4.99758" cy="5.0239" rx="4.99758" ry="5.0239" transform="matrix(-0.348741 0.937219 -0.938778 -0.344523 1460.68 79.9529)" fill="white"/>
<path fill-rule="evenodd" clip-rule="evenodd" d="M1401.52 129.675C1386.94 124.324 1380.86 104.557 1387.94 85.525C1395.02 66.4927 1412.58 55.4016 1427.16 60.7524C1441.74 66.1032 1447.82 85.8697 1440.74 104.902C1433.66 123.934 1416.1 135.025 1401.52 129.675ZM1424 99.4728C1422.97 102.848 1423.79 106.075 1425.94 106.865C1428.23 107.706 1431.18 105.466 1432.52 101.862C1433.86 98.258 1433.09 94.6543 1430.79 93.8132C1428.63 93.0182 1425.88 94.9752 1424.45 98.2351L1406.52 91.03L1405.65 93.3656L1424 99.4728Z" fill="white"/>
<ellipse cx="3.33059" cy="3.34813" rx="3.33059" ry="3.34813" transform="matrix(-0.348741 0.937219 -0.938778 -0.344523 1441.19 126.442)" fill="black"/>
<ellipse cx="3.00827" cy="3.02411" rx="3.00827" ry="3.02411" transform="matrix(-0.348741 0.937219 -0.938778 -0.344523 1458.82 79.0698)" fill="black"/>
<path d="M754.418 73.8704C759.115 41.479 805.889 71.1109 773.935 88.3907C809.979 138.667 784.901 170.657 763.482 188.325C706.744 230.322 596.828 172.359 655.511 88.2593C628.187 65.7892 669.537 43.9754 676.88 72.4907C704.931 58.6142 739.4 65.6575 754.418 73.8704Z" fill="#FEAD55" stroke="#E67F51" stroke-width="10"/>
<ellipse cx="740.573" cy="108.344" rx="5.02805" ry="4.9934" fill="white"/>
<ellipse cx="689.631" cy="108.344" rx="5.02805" ry="4.9934" fill="white"/>
<path fill-rule="evenodd" clip-rule="evenodd" d="M752.073 141.227C752.073 156.663 735.511 169.177 715.08 169.177C694.649 169.177 678.086 156.663 678.086 141.227C678.086 125.79 694.649 113.276 715.08 113.276C735.511 113.276 752.073 125.79 752.073 141.227ZM715.758 130.758C719.299 130.538 722.064 128.665 722.064 126.386C722.064 123.959 718.928 121.992 715.059 121.992C711.19 121.992 708.054 123.959 708.054 126.386C708.054 128.68 710.856 130.563 714.431 130.762L713.841 149.963H716.348L715.758 130.758Z" fill="white"/>
<ellipse cx="738.619" cy="108.719" rx="3.35089" ry="3.3278" fill="black"/>
<ellipse cx="687.442" cy="108.397" rx="3.02661" ry="3.00576" fill="black"/>
<path d="M1626.88 686.815C1626.88 704.983 1612.05 719.711 1593.75 719.711C1575.46 719.711 1560.63 704.983 1560.63 686.815C1560.63 668.647 1575.46 653.919 1593.75 653.919C1612.05 653.919 1626.88 668.647 1626.88 686.815Z" fill="#D8DBF6"/>
<path d="M1582.38 640.663C1582.38 647.984 1576.4 653.919 1569.03 653.919C1561.66 653.919 1555.68 647.984 1555.68 640.663C1555.68 633.341 1561.66 627.406 1569.03 627.406C1576.4 627.406 1582.38 633.341 1582.38 640.663Z" fill="#D8DBF6"/>
<path d="M1609.08 631.825C1609.08 639.146 1603.1 645.081 1595.73 645.081C1588.36 645.081 1582.38 639.146 1582.38 631.825C1582.38 624.503 1588.36 618.568 1595.73 618.568C1603.1 618.568 1609.08 624.503 1609.08 631.825Z" fill="#D8DBF6"/>
<path d="M1638.74 644.59C1638.74 651.912 1632.76 657.847 1625.39 657.847C1618.02 657.847 1612.04 651.912 1612.04 644.59C1612.04 637.269 1618.02 631.334 1625.39 631.334C1632.76 631.334 1638.74 637.269 1638.74 644.59Z" fill="#D8DBF6"/>
<path d="M1012.52 1015.84C1012.52 1034.01 997.688 1048.74 979.394 1048.74C961.1 1048.74 946.27 1034.01 946.27 1015.84C946.27 997.673 961.1 982.945 979.394 982.945C997.688 982.945 1012.52 997.673 1012.52 1015.84Z" fill="#D8DBF6"/>
<path d="M968.023 969.688C968.023 977.009 962.047 982.944 954.675 982.944C947.303 982.944 941.326 977.009 941.326 969.688C941.326 962.366 947.303 956.431 954.675 956.431C962.047 956.431 968.023 962.366 968.023 969.688Z" fill="#D8DBF6"/>
<path d="M994.721 960.85C994.721 968.171 988.744 974.107 981.372 974.107C974 974.107 968.023 968.171 968.023 960.85C968.023 953.528 974 947.593 981.372 947.593C988.744 947.593 994.721 953.528 994.721 960.85Z" fill="#D8DBF6"/>
<path d="M1024.38 973.616C1024.38 980.937 1018.41 986.872 1011.04 986.872C1003.66 986.872 997.687 980.937 997.687 973.616C997.687 966.294 1003.66 960.359 1011.04 960.359C1018.41 960.359 1024.38 966.294 1024.38 973.616Z" fill="#D8DBF6"/>
<path d="M203.878 719.915C219.721 710.831 239.979 716.222 249.126 731.956C258.273 747.69 252.845 767.809 237.002 776.893C221.159 785.977 200.9 780.586 191.753 764.852C182.606 749.118 188.034 728.999 203.878 719.915Z" fill="#D8DBF6"/>
<path d="M185.878 781.26C192.262 777.599 200.426 779.772 204.112 786.112C207.798 792.453 205.611 800.561 199.226 804.221C192.842 807.882 184.678 805.71 180.992 799.369C177.306 793.028 179.493 784.921 185.878 781.26Z" fill="#D8DBF6"/>
<path d="M164.823 762.718C171.208 759.057 179.371 761.23 183.058 767.57C186.744 773.911 184.556 782.018 178.172 785.679C171.787 789.34 163.623 787.167 159.937 780.827C156.251 774.486 158.438 766.379 164.823 762.718Z" fill="#D8DBF6"/>
<path d="M161.123 730.823C167.507 727.162 175.671 729.334 179.357 735.675C183.043 742.015 180.856 750.123 174.471 753.784C168.087 757.445 159.923 755.272 156.237 748.932C152.551 742.591 154.738 734.483 161.123 730.823Z" fill="#D8DBF6"/>
<path d="M419.43 957.553C435.273 948.469 455.532 953.86 464.679 969.594C473.826 985.327 468.398 1005.45 452.555 1014.53C436.712 1023.61 416.453 1018.22 407.306 1002.49C398.159 986.756 403.587 966.637 419.43 957.553Z" fill="#D8DBF6"/>
<path d="M401.431 1018.9C407.816 1015.24 415.98 1017.41 419.666 1023.75C423.352 1030.09 421.165 1038.2 414.78 1041.86C408.395 1045.52 400.232 1043.35 396.545 1037.01C392.859 1030.67 395.047 1022.56 401.431 1018.9Z" fill="#D8DBF6"/>
<path d="M380.376 1000.36C386.76 996.695 394.924 998.867 398.61 1005.21C402.296 1011.55 400.109 1019.66 393.724 1023.32C387.34 1026.98 379.176 1024.81 375.49 1018.46C371.804 1012.12 373.991 1004.02 380.376 1000.36Z" fill="#D8DBF6"/>
<path d="M376.676 968.46C383.061 964.8 391.225 966.972 394.911 973.313C398.597 979.653 396.41 987.761 390.025 991.421C383.641 995.082 375.477 992.91 371.791 986.569C368.104 980.229 370.292 972.121 376.676 968.46Z" fill="#D8DBF6"/>
<path d="M310.162 567.902C314.589 585.53 303.788 603.384 286.038 607.781C268.287 612.177 250.309 601.451 245.882 583.823C241.455 566.195 252.256 548.34 270.006 543.944C287.756 539.547 305.735 550.274 310.162 567.902Z" fill="#D8DBF6"/>
<path d="M255.742 533.814C257.526 540.918 253.174 548.113 246.021 549.884C238.868 551.656 231.623 547.334 229.839 540.23C228.055 533.126 232.407 525.931 239.56 524.159C246.713 522.387 253.958 526.71 255.742 533.814Z" fill="#D8DBF6"/>
<path d="M279.492 518.823C281.276 525.927 276.924 533.122 269.771 534.893C262.618 536.665 255.373 532.343 253.589 525.239C251.805 518.135 256.157 510.94 263.31 509.168C270.463 507.396 277.708 511.719 279.492 518.823Z" fill="#D8DBF6"/>
<path d="M311.386 524.08C313.17 531.184 308.817 538.379 301.664 540.151C294.511 541.923 287.266 537.6 285.482 530.496C283.698 523.392 288.051 516.197 295.204 514.426C302.357 512.654 309.602 516.976 311.386 524.08Z" fill="#D8DBF6"/>
<path d="M1212.92 730.909C1217.35 748.537 1206.55 766.392 1188.8 770.788C1171.05 775.185 1153.07 764.459 1148.64 746.831C1144.22 729.202 1155.02 711.348 1172.77 706.952C1190.52 702.555 1208.5 713.281 1212.92 730.909Z" fill="#D8DBF6"/>
<path d="M1158.5 696.821C1160.29 703.925 1155.93 711.12 1148.78 712.892C1141.63 714.664 1134.38 710.341 1132.6 703.237C1130.82 696.134 1135.17 688.938 1142.32 687.167C1149.47 685.395 1156.72 689.718 1158.5 696.821Z" fill="#D8DBF6"/>
<path d="M1182.25 681.831C1184.04 688.934 1179.68 696.129 1172.53 697.901C1165.38 699.673 1158.13 695.35 1156.35 688.247C1154.57 681.143 1158.92 673.948 1166.07 672.176C1173.22 670.404 1180.47 674.727 1182.25 681.831Z" fill="#D8DBF6"/>
<path d="M1214.15 687.088C1215.93 694.192 1211.58 701.387 1204.43 703.159C1197.27 704.93 1190.03 700.608 1188.24 693.504C1186.46 686.4 1190.81 679.205 1197.96 677.433C1205.12 675.662 1212.36 679.984 1214.15 687.088Z" fill="#D8DBF6"/>
<path d="M1760.59 312.24C1747.13 324.545 1726.17 323.684 1713.78 310.317C1701.39 296.95 1702.26 276.139 1715.72 263.834C1729.18 251.53 1750.13 252.391 1762.52 265.758C1774.91 279.124 1774.05 299.935 1760.59 312.24Z" fill="#D8DBF6"/>
<path d="M1764.64 248.471C1759.22 253.429 1750.78 253.082 1745.78 247.696C1740.79 242.309 1741.14 233.923 1746.56 228.964C1751.99 224.005 1760.43 224.352 1765.42 229.739C1770.42 235.126 1770.07 243.512 1764.64 248.471Z" fill="#D8DBF6"/>
<path d="M1789.27 261.992C1783.85 266.951 1775.4 266.604 1770.41 261.217C1765.42 255.83 1765.77 247.444 1771.19 242.485C1776.62 237.527 1785.06 237.874 1790.05 243.26C1795.05 248.647 1794.7 257.034 1789.27 261.992Z" fill="#D8DBF6"/>
<path d="M1799.91 292.312C1794.48 297.271 1786.04 296.924 1781.05 291.537C1776.05 286.15 1776.4 277.764 1781.83 272.805C1787.25 267.847 1795.69 268.194 1800.69 273.58C1805.68 278.967 1805.33 287.353 1799.91 292.312Z" fill="#D8DBF6"/>
<path d="M1439.59 739.24C1426.13 751.545 1405.17 750.684 1392.78 737.317C1380.39 723.95 1381.26 703.139 1394.72 690.834C1408.18 678.53 1429.13 679.391 1441.52 692.758C1453.91 706.124 1453.05 726.935 1439.59 739.24Z" fill="#D8DBF6"/>
<path d="M1443.64 675.471C1438.22 680.429 1429.78 680.082 1424.78 674.696C1419.79 669.309 1420.14 660.923 1425.56 655.964C1430.99 651.005 1439.43 651.352 1444.42 656.739C1449.42 662.126 1449.07 670.512 1443.64 675.471Z" fill="#D8DBF6"/>
<path d="M1468.27 688.992C1462.85 693.951 1454.4 693.604 1449.41 688.217C1444.42 682.83 1444.77 674.444 1450.19 669.485C1455.62 664.527 1464.06 664.874 1469.05 670.26C1474.05 675.647 1473.7 684.034 1468.27 688.992Z" fill="#D8DBF6"/>
<path d="M1478.91 719.312C1473.48 724.271 1465.04 723.924 1460.05 718.537C1455.05 713.15 1455.4 704.764 1460.83 699.805C1466.25 694.847 1474.69 695.194 1479.69 700.58C1484.68 705.967 1484.33 714.353 1478.91 719.312Z" fill="#D8DBF6"/>
<path d="M1572.23 285.229C1574.82 303.213 1562.25 319.883 1544.14 322.462C1526.03 325.041 1509.25 312.552 1506.65 294.568C1504.05 276.584 1516.63 259.915 1534.74 257.336C1552.84 254.757 1569.63 267.245 1572.23 285.229Z" fill="#D8DBF6"/>
<path d="M1521.59 245.816C1522.63 253.063 1517.56 259.781 1510.27 260.82C1502.97 261.86 1496.21 256.827 1495.16 249.58C1494.11 242.332 1499.18 235.615 1506.48 234.576C1513.77 233.536 1520.54 238.569 1521.59 245.816Z" fill="#D8DBF6"/>
<path d="M1546.75 233.304C1547.8 240.552 1542.73 247.269 1535.43 248.308C1528.13 249.348 1521.37 244.315 1520.32 237.068C1519.28 229.821 1524.34 223.103 1531.64 222.064C1538.94 221.024 1545.7 226.057 1546.75 233.304Z" fill="#D8DBF6"/>
<path d="M1577.94 241.759C1578.98 249.006 1573.92 255.724 1566.62 256.763C1559.32 257.802 1552.56 252.77 1551.51 245.523C1550.46 238.275 1555.53 231.558 1562.83 230.518C1570.13 229.479 1576.89 234.512 1577.94 241.759Z" fill="#D8DBF6"/>
<path d="M1211.13 60.6311C1222.97 74.4836 1221.26 95.2428 1207.31 106.998C1193.36 118.753 1172.45 117.053 1160.62 103.201C1148.78 89.3481 1150.49 68.5889 1164.44 56.8337C1178.39 45.0784 1199.29 46.7786 1211.13 60.6311Z" fill="#D8DBF6"/>
<path d="M1147.13 54.0326C1151.9 59.6149 1151.21 67.9806 1145.59 72.7178C1139.97 77.4549 1131.55 76.7698 1126.78 71.1875C1122.01 65.6051 1122.7 57.2395 1128.32 52.5023C1133.94 47.7651 1142.36 48.4502 1147.13 54.0326Z" fill="#D8DBF6"/>
<path d="M1161.73 30.1393C1166.5 35.7216 1165.81 44.0873 1160.19 48.8245C1154.57 53.5616 1146.15 52.8765 1141.38 47.2941C1136.61 41.7118 1137.3 33.3462 1142.92 28.609C1148.54 23.8718 1156.96 24.5569 1161.73 30.1393Z" fill="#D8DBF6"/>
<path d="M1192.67 20.8118C1197.44 26.3941 1196.75 34.7598 1191.13 39.4969C1185.5 44.2341 1177.08 43.549 1172.31 37.9666C1167.54 32.3843 1168.23 24.0186 1173.85 19.2815C1179.47 14.5443 1187.9 15.2294 1192.67 20.8118Z" fill="#D8DBF6"/>
<path d="M507.447 563.653C523.29 554.569 543.549 559.96 552.696 575.694C561.843 591.428 556.414 611.547 540.571 620.631C524.728 629.715 504.47 624.324 495.323 608.59C486.176 592.856 491.604 572.737 507.447 563.653Z" fill="#D8DBF6"/>
<path d="M489.447 624.998C495.832 621.337 503.995 623.51 507.682 629.85C511.368 636.191 509.18 644.298 502.796 647.959C496.411 651.62 488.247 649.447 484.561 643.107C480.875 636.766 483.062 628.659 489.447 624.998Z" fill="#D8DBF6"/>
<path d="M468.392 606.456C474.777 602.795 482.941 604.967 486.627 611.308C490.313 617.648 488.125 625.756 481.741 629.417C475.356 633.077 467.192 630.905 463.506 624.564C459.82 618.224 462.008 610.116 468.392 606.456Z" fill="#D8DBF6"/>
<path d="M464.692 574.56C471.077 570.9 479.241 573.072 482.927 579.413C486.613 585.753 484.425 593.861 478.041 597.521C471.656 601.182 463.492 599.01 459.806 592.669C456.12 586.329 458.308 578.221 464.692 574.56Z" fill="#D8DBF6"/>
<path d="M990.526 171.36C1005.75 181.432 1009.87 201.854 999.73 216.975C989.588 232.095 969.024 236.188 953.799 226.116C938.573 216.044 934.452 195.621 944.594 180.501C954.736 165.38 975.3 161.288 990.526 171.36Z" fill="#D8DBF6"/>
<path d="M927.181 182.55C933.316 186.609 934.977 194.839 930.89 200.932C926.803 207.026 918.516 208.675 912.38 204.616C906.244 200.557 904.584 192.327 908.671 186.234C912.758 180.14 921.045 178.491 927.181 182.55Z" fill="#D8DBF6"/>
<path d="M934.575 155.585C940.711 159.643 942.371 167.873 938.284 173.967C934.197 180.06 925.91 181.709 919.775 177.651C913.639 173.592 911.978 165.362 916.065 159.268C920.152 153.175 928.439 151.526 934.575 155.585Z" fill="#D8DBF6"/>
<path d="M961.718 138.144C967.853 142.203 969.514 150.433 965.427 156.526C961.34 162.619 953.053 164.269 946.917 160.21C940.782 156.151 939.121 147.921 943.208 141.828C947.295 135.734 955.582 134.085 961.718 138.144Z" fill="#D8DBF6"/>
<path d="M1651.61 462.596C1644.86 479.484 1625.61 487.743 1608.6 481.044C1591.6 474.345 1583.28 455.224 1590.03 438.336C1596.77 421.448 1616.03 413.189 1633.03 419.888C1650.04 426.587 1658.35 445.708 1651.61 462.596Z" fill="#D8DBF6"/>
<path d="M1627.38 403.401C1624.67 410.207 1616.91 413.535 1610.05 410.836C1603.2 408.136 1599.85 400.43 1602.57 393.625C1605.29 386.819 1613.05 383.491 1619.9 386.191C1626.75 388.89 1630.1 396.596 1627.38 403.401Z" fill="#D8DBF6"/>
<path d="M1655.48 404.963C1652.76 411.768 1645 415.097 1638.15 412.397C1631.3 409.697 1627.95 401.992 1630.66 395.186C1633.38 388.381 1641.14 385.052 1647.99 387.752C1654.85 390.452 1658.2 398.157 1655.48 404.963Z" fill="#D8DBF6"/>
<path d="M1678.31 427.691C1675.6 434.497 1667.84 437.825 1660.98 435.126C1654.13 432.426 1650.78 424.721 1653.5 417.915C1656.22 411.11 1663.98 407.781 1670.83 410.481C1677.68 413.18 1681.03 420.886 1678.31 427.691Z" fill="#D8DBF6"/>
<path d="M949.513 770.987C942.767 787.875 923.513 796.134 906.508 789.435C889.503 782.736 881.187 763.615 887.932 746.727C894.678 729.839 913.932 721.58 930.937 728.279C947.942 734.978 956.259 754.099 949.513 770.987Z" fill="#D8DBF6"/>
<path d="M925.288 711.792C922.57 718.598 914.811 721.926 907.958 719.227C901.106 716.527 897.754 708.821 900.472 702.016C903.191 695.21 910.95 691.882 917.803 694.582C924.655 697.281 928.007 704.987 925.288 711.792Z" fill="#D8DBF6"/>
<path d="M953.386 713.354C950.668 720.159 942.909 723.488 936.056 720.788C929.203 718.088 925.852 710.383 928.57 703.577C931.288 696.772 939.047 693.443 945.9 696.143C952.753 698.843 956.104 706.548 953.386 713.354Z" fill="#D8DBF6"/>
<path d="M976.219 736.082C973.501 742.888 965.742 746.216 958.889 743.517C952.036 740.817 948.685 733.111 951.403 726.306C954.121 719.5 961.88 716.172 968.733 718.872C975.586 721.571 978.938 729.277 976.219 736.082Z" fill="#D8DBF6"/>
<path d="M519.982 194.865C527.344 211.497 519.735 230.907 502.987 238.217C486.24 245.528 466.696 237.972 459.334 221.339C451.973 204.707 459.581 185.298 476.329 177.987C493.077 170.676 512.621 178.233 519.982 194.865Z" fill="#D8DBF6"/>
<path d="M460.548 170.395C463.515 177.098 460.448 184.919 453.699 187.866C446.95 190.812 439.074 187.767 436.108 181.064C433.141 174.361 436.207 166.54 442.957 163.594C449.706 160.647 457.582 163.693 460.548 170.395Z" fill="#D8DBF6"/>
<path d="M481.408 151.635C484.374 158.338 481.308 166.16 474.559 169.106C467.81 172.052 459.934 169.007 456.967 162.304C454.001 155.602 457.067 147.78 463.816 144.834C470.565 141.888 478.441 144.933 481.408 151.635Z" fill="#D8DBF6"/>
<path d="M513.737 151.468C516.703 158.17 513.637 165.992 506.888 168.938C500.139 171.884 492.263 168.839 489.296 162.137C486.33 155.434 489.396 147.612 496.145 144.666C502.894 141.72 510.77 144.765 513.737 151.468Z" fill="#D8DBF6"/>
<path d="M204.681 306.482C222.578 310.249 234.011 327.71 230.219 345.483C226.426 363.257 208.843 374.611 190.947 370.845C173.05 367.078 161.616 349.617 165.409 331.844C169.202 314.07 186.784 302.716 204.681 306.482Z" fill="#D8DBF6"/>
<path d="M149.993 340.143C157.205 341.661 161.812 348.697 160.284 355.86C158.756 363.022 151.67 367.598 144.458 366.08C137.246 364.562 132.638 357.526 134.167 350.363C135.695 343.201 142.781 338.625 149.993 340.143Z" fill="#D8DBF6"/>
<path d="M146.822 312.373C154.034 313.891 158.641 320.928 157.113 328.09C155.585 335.253 148.499 339.828 141.287 338.311C134.075 336.793 129.467 329.756 130.996 322.594C132.524 315.431 139.61 310.855 146.822 312.373Z" fill="#D8DBF6"/>
<path d="M165.545 286.201C172.758 287.718 177.365 294.755 175.837 301.917C174.308 309.08 167.223 313.656 160.011 312.138C152.799 310.62 148.191 303.583 149.719 296.421C151.248 289.259 158.333 284.683 165.545 286.201Z" fill="#D8DBF6"/>
<path d="M356.634 100.482C361.061 118.11 350.261 135.965 332.51 140.361C314.76 144.758 296.782 134.031 292.355 116.403C287.928 98.7752 298.728 80.9208 316.479 76.5243C334.229 72.1278 352.207 82.854 356.634 100.482Z" fill="#D8DBF6"/>
<path d="M302.215 66.3944C303.999 73.4982 299.647 80.6933 292.493 82.465C285.34 84.2368 278.095 79.9142 276.311 72.8104C274.527 65.7066 278.88 58.5115 286.033 56.7398C293.186 54.968 300.431 59.2906 302.215 66.3944Z" fill="#D8DBF6"/>
<path d="M325.965 51.4033C327.749 58.5071 323.397 65.7022 316.243 67.4739C309.09 69.2457 301.845 64.9231 300.061 57.8193C298.277 50.7155 302.63 43.5204 309.783 41.7487C316.936 39.9769 324.181 44.2995 325.965 51.4033Z" fill="#D8DBF6"/>
<path d="M357.859 56.6606C359.643 63.7645 355.29 70.9595 348.137 72.7313C340.984 74.503 333.739 70.1805 331.955 63.0766C330.171 55.9728 334.523 48.7777 341.676 47.006C348.83 45.2343 356.075 49.5568 357.859 56.6606Z" fill="#D8DBF6"/>
<path d="M2011.59 670.24C1998.13 682.545 1977.17 681.684 1964.78 668.317C1952.39 654.95 1953.26 634.139 1966.72 621.834C1980.18 609.53 2001.13 610.391 2013.52 623.758C2025.91 637.124 2025.05 657.935 2011.59 670.24Z" fill="#D8DBF6"/>
<path d="M2015.64 606.471C2010.22 611.429 2001.78 611.082 1996.78 605.696C1991.79 600.309 1992.14 591.923 1997.56 586.964C2002.99 582.005 2011.43 582.352 2016.42 587.739C2021.42 593.126 2021.07 601.512 2015.64 606.471Z" fill="#D8DBF6"/>
<path d="M2040.27 619.992C2034.85 624.951 2026.4 624.604 2021.41 619.217C2016.42 613.83 2016.77 605.444 2022.19 600.485C2027.62 595.527 2036.06 595.874 2041.05 601.26C2046.05 606.647 2045.7 615.034 2040.27 619.992Z" fill="#D8DBF6"/>
<path d="M2050.91 650.312C2045.48 655.271 2037.04 654.924 2032.05 649.537C2027.05 644.15 2027.4 635.764 2032.83 630.805C2038.25 625.847 2046.69 626.194 2051.69 631.58C2056.68 636.967 2056.33 645.354 2050.91 650.312Z" fill="#D8DBF6"/>
<path d="M1272.44 244.26C1284.27 258.113 1282.56 278.872 1268.61 290.627C1254.66 302.382 1233.76 300.682 1221.92 286.83C1210.09 272.977 1211.8 252.218 1225.75 240.463C1239.7 228.707 1260.6 230.408 1272.44 244.26Z" fill="#D8DBF6"/>
<path d="M1208.44 237.662C1213.21 243.244 1212.52 251.61 1206.9 256.347C1201.28 261.084 1192.85 260.399 1188.08 254.816C1183.31 249.234 1184 240.868 1189.63 236.131C1195.25 231.394 1203.67 232.079 1208.44 237.662Z" fill="#D8DBF6"/>
<path d="M1223.04 213.768C1227.81 219.351 1227.12 227.716 1221.5 232.454C1215.88 237.191 1207.45 236.506 1202.68 230.923C1197.91 225.341 1198.6 216.975 1204.22 212.238C1209.84 207.501 1218.27 208.186 1223.04 213.768Z" fill="#D8DBF6"/>
<path d="M1253.97 204.441C1258.74 210.023 1258.05 218.389 1252.43 223.126C1246.81 227.863 1238.39 227.178 1233.62 221.596C1228.85 216.013 1229.54 207.648 1235.16 202.91C1240.78 198.173 1249.2 198.858 1253.97 204.441Z" fill="#D8DBF6"/>
<path d="M690.451 761.167C683.706 778.055 664.452 786.314 647.447 779.615C630.442 772.916 622.125 753.795 628.871 736.907C635.617 720.019 654.87 711.76 671.875 718.459C688.88 725.158 697.197 744.279 690.451 761.167Z" fill="#D8DBF6"/>
<path d="M666.228 701.972C663.509 708.778 655.751 712.106 648.898 709.407C642.045 706.707 638.693 699.002 641.412 692.196C644.13 685.391 651.889 682.062 658.742 684.762C665.595 687.461 668.946 695.167 666.228 701.972Z" fill="#D8DBF6"/>
<path d="M694.325 703.534C691.606 710.339 683.847 713.668 676.994 710.968C670.142 708.268 666.79 700.563 669.509 693.757C672.227 686.952 679.986 683.623 686.839 686.323C693.691 689.023 697.043 696.728 694.325 703.534Z" fill="#D8DBF6"/>
<path d="M717.158 726.262C714.439 733.068 706.68 736.396 699.827 733.697C692.975 730.997 689.623 723.292 692.342 716.486C695.06 709.681 702.819 706.352 709.672 709.052C716.524 711.751 719.876 719.457 717.158 726.262Z" fill="#D8DBF6"/>
<path d="M81.9876 432.202C99.8842 435.968 111.318 453.43 107.525 471.203C103.733 488.976 86.15 500.331 68.2534 496.565C50.3567 492.798 38.9231 475.337 42.7157 457.564C46.5083 439.79 64.0909 428.435 81.9876 432.202Z" fill="#D8DBF6"/>
<path d="M27.2994 465.863C34.5114 467.38 39.119 474.417 37.5906 481.58C36.0623 488.742 28.9768 493.318 21.7647 491.8C14.5526 490.282 9.94504 483.245 11.4734 476.083C13.0018 468.921 20.0873 464.345 27.2994 465.863Z" fill="#D8DBF6"/>
<path d="M24.1275 438.093C31.3396 439.611 35.9471 446.648 34.4188 453.81C32.8904 460.973 25.8049 465.548 18.5928 464.03C11.3807 462.513 6.77316 455.476 8.30152 448.314C9.82988 441.151 16.9154 436.575 24.1275 438.093Z" fill="#D8DBF6"/>
<path d="M42.8521 411.92C50.0642 413.438 54.6717 420.475 53.1434 427.637C51.615 434.8 44.5295 439.376 37.3174 437.858C30.1053 436.34 25.4978 429.303 27.0261 422.141C28.5545 414.978 35.64 410.403 42.8521 411.92Z" fill="#D8DBF6"/>
<g filter="url(#filter0_d_210_2805)">
<path d="M728.139 298C726.539 298 725.272 297.533 724.339 296.6C723.406 295.667 722.939 294.533 722.939 293.2C722.939 292.133 723.339 291.133 724.139 290.2C724.939 289.267 725.939 288.8 727.139 288.8H766.539L804.739 408.2L845.139 288.8H872.739V430.2H855.139V305.4L815.939 422C815.272 424 814.206 425.867 812.739 427.6C811.406 429.333 809.272 430.2 806.339 430.2H794.739L754.139 305.4V430.2H739.939V315.2C739.939 310.267 739.139 306.2 737.539 303C736.072 299.667 732.939 298 728.139 298ZM933.155 430.2V341.4C933.155 339.133 932.288 337 930.555 335C928.821 332.867 926.421 331.8 923.355 331.8H903.155C901.821 331.8 900.621 332.2 899.555 333C898.621 333.8 898.155 334.8 898.155 336C898.155 337.333 898.621 338.533 899.555 339.6C900.621 340.533 902.021 341 903.755 341C904.955 341 906.288 341.2 907.755 341.6C909.221 342 910.488 342.467 911.555 343C913.555 344.333 914.755 346.133 915.155 348.4C915.555 350.667 915.755 354.133 915.755 358.8V430.2H933.155ZM909.355 300.4C909.355 296.933 910.555 293.933 912.955 291.4C915.488 288.867 918.555 287.6 922.155 287.6C925.621 287.6 928.621 288.867 931.155 291.4C933.688 293.933 934.955 296.933 934.955 300.4C934.955 304 933.688 307.067 931.155 309.6C928.621 312 925.621 313.2 922.155 313.2C918.555 313.2 915.488 312 912.955 309.6C910.555 307.067 909.355 304 909.355 300.4ZM1031.71 334V349.4C1028.24 347.267 1024.04 345.333 1019.11 343.6C1014.17 341.867 1009.31 341 1004.51 341C1000.11 341 995.974 341.867 992.108 343.6C988.374 345.2 986.441 348.2 986.308 352.6C986.174 354.2 986.374 355.8 986.908 357.4C987.441 359 988.308 360.333 989.508 361.4C992.841 364.467 996.441 366.8 1000.31 368.4C1004.31 370 1008.31 371.533 1012.31 373C1016.31 374.6 1020.17 376.533 1023.91 378.8C1027.64 380.933 1031.04 384.067 1034.11 388.2C1035.31 390.067 1036.24 392.067 1036.91 394.2C1037.71 396.2 1038.11 398.6 1038.11 401.4C1038.11 407 1036.91 411.8 1034.51 415.8C1032.24 419.667 1029.31 422.8 1025.71 425.2C1021.97 427.733 1017.84 429.533 1013.31 430.6C1008.77 431.667 1004.24 432.2 999.708 432.2C994.908 432.2 990.241 431.867 985.708 431.2C981.308 430.533 977.308 429.533 973.708 428.2C971.174 427.4 969.508 426.067 968.708 424.2C967.908 422.333 967.641 420.533 967.908 418.8C968.308 417.067 969.108 415.667 970.308 414.6C971.641 413.533 973.174 413.267 974.908 413.8C976.241 414.467 977.708 415.2 979.308 416C980.908 416.667 982.641 417.333 984.508 418C986.374 418.667 988.441 419.2 990.708 419.6C992.974 420 995.441 420.2 998.108 420.2C1004.11 420.2 1009.44 419.267 1014.11 417.4C1018.77 415.4 1021.11 411.267 1021.11 405C1021.11 401.8 1020.04 399 1017.91 396.6C1015.91 394.067 1013.04 391.933 1009.31 390.2C1006.64 389.133 1003.64 388 1000.31 386.8C997.108 385.467 993.841 384 990.508 382.4C987.041 380.8 983.774 379.067 980.708 377.2C977.774 375.2 975.374 372.933 973.508 370.4C970.974 367.333 969.508 363.733 969.108 359.6C968.841 355.467 969.574 351.267 971.308 347C973.708 341 977.774 336.667 983.508 334C989.241 331.2 995.708 329.733 1002.91 329.6C1004.64 329.6 1006.77 329.733 1009.31 330C1011.97 330.133 1014.71 330.4 1017.51 330.8C1020.31 331.2 1022.97 331.733 1025.51 332.4C1028.04 332.933 1030.11 333.467 1031.71 334ZM1127.65 334V349.4C1124.18 347.267 1119.98 345.333 1115.05 343.6C1110.11 341.867 1105.25 341 1100.45 341C1096.05 341 1091.91 341.867 1088.05 343.6C1084.31 345.2 1082.38 348.2 1082.25 352.6C1082.11 354.2 1082.31 355.8 1082.85 357.4C1083.38 359 1084.25 360.333 1085.45 361.4C1088.78 364.467 1092.38 366.8 1096.25 368.4C1100.25 370 1104.25 371.533 1108.25 373C1112.25 374.6 1116.11 376.533 1119.85 378.8C1123.58 380.933 1126.98 384.067 1130.05 388.2C1131.25 390.067 1132.18 392.067 1132.85 394.2C1133.65 396.2 1134.05 398.6 1134.05 401.4C1134.05 407 1132.85 411.8 1130.45 415.8C1128.18 419.667 1125.25 422.8 1121.65 425.2C1117.91 427.733 1113.78 429.533 1109.25 430.6C1104.71 431.667 1100.18 432.2 1095.65 432.2C1090.85 432.2 1086.18 431.867 1081.65 431.2C1077.25 430.533 1073.25 429.533 1069.65 428.2C1067.11 427.4 1065.45 426.067 1064.65 424.2C1063.85 422.333 1063.58 420.533 1063.85 418.8C1064.25 417.067 1065.05 415.667 1066.25 414.6C1067.58 413.533 1069.11 413.267 1070.85 413.8C1072.18 414.467 1073.65 415.2 1075.25 416C1076.85 416.667 1078.58 417.333 1080.45 418C1082.31 418.667 1084.38 419.2 1086.65 419.6C1088.91 420 1091.38 420.2 1094.05 420.2C1100.05 420.2 1105.38 419.267 1110.05 417.4C1114.71 415.4 1117.05 411.267 1117.05 405C1117.05 401.8 1115.98 399 1113.85 396.6C1111.85 394.067 1108.98 391.933 1105.25 390.2C1102.58 389.133 1099.58 388 1096.25 386.8C1093.05 385.467 1089.78 384 1086.45 382.4C1082.98 380.8 1079.71 379.067 1076.65 377.2C1073.71 375.2 1071.31 372.933 1069.45 370.4C1066.91 367.333 1065.45 363.733 1065.05 359.6C1064.78 355.467 1065.51 351.267 1067.25 347C1069.65 341 1073.71 336.667 1079.45 334C1085.18 331.2 1091.65 329.733 1098.85 329.6C1100.58 329.6 1102.71 329.733 1105.25 330C1107.91 330.133 1110.65 330.4 1113.45 330.8C1116.25 331.2 1118.91 331.733 1121.45 332.4C1123.98 332.933 1126.05 333.467 1127.65 334ZM1186.98 430.2V341.4C1186.98 339.133 1186.12 337 1184.38 335C1182.65 332.867 1180.25 331.8 1177.18 331.8H1156.98C1155.65 331.8 1154.45 332.2 1153.38 333C1152.45 333.8 1151.98 334.8 1151.98 336C1151.98 337.333 1152.45 338.533 1153.38 339.6C1154.45 340.533 1155.85 341 1157.58 341C1158.78 341 1160.12 341.2 1161.58 341.6C1163.05 342 1164.32 342.467 1165.38 343C1167.38 344.333 1168.58 346.133 1168.98 348.4C1169.38 350.667 1169.58 354.133 1169.58 358.8V430.2H1186.98ZM1163.18 300.4C1163.18 296.933 1164.38 293.933 1166.78 291.4C1169.32 288.867 1172.38 287.6 1175.98 287.6C1179.45 287.6 1182.45 288.867 1184.98 291.4C1187.52 293.933 1188.78 296.933 1188.78 300.4C1188.78 304 1187.52 307.067 1184.98 309.6C1182.45 312 1179.45 313.2 1175.98 313.2C1172.38 313.2 1169.32 312 1166.78 309.6C1164.38 307.067 1163.18 304 1163.18 300.4ZM1270.34 432.2C1255.94 432.2 1244.14 427.867 1234.94 419.2C1225.87 410.533 1221.34 398 1221.34 381.6C1221.34 374.667 1222.34 368.067 1224.34 361.8C1226.34 355.533 1229.34 350 1233.34 345.2C1237.34 340.533 1242.34 336.8 1248.34 334C1254.47 331.2 1261.67 329.8 1269.94 329.8C1285.14 329.8 1297.14 334.533 1305.94 344C1314.87 353.333 1319.34 365.8 1319.34 381.4C1319.34 396.733 1314.94 409.067 1306.14 418.4C1297.47 427.6 1285.54 432.2 1270.34 432.2ZM1240.14 381.6C1240.14 386.667 1240.67 391.6 1241.74 396.4C1242.8 401.2 1244.54 405.4 1246.94 409C1249.34 412.733 1252.47 415.733 1256.34 418C1260.2 420.133 1264.94 421.2 1270.54 421.2C1275.74 421.2 1280.2 420.067 1283.94 417.8C1287.67 415.533 1290.74 412.533 1293.14 408.8C1295.54 405.2 1297.27 401 1298.34 396.2C1299.54 391.4 1300.14 386.467 1300.14 381.4C1300.14 376.467 1299.6 371.6 1298.54 366.8C1297.47 361.867 1295.74 357.467 1293.34 353.6C1290.94 349.867 1287.8 346.8 1283.94 344.4C1280.07 342 1275.34 340.8 1269.74 340.8C1264.27 340.8 1259.67 341.933 1255.94 344.2C1252.2 346.467 1249.14 349.533 1246.74 353.4C1244.34 357.133 1242.6 361.467 1241.54 366.4C1240.6 371.333 1240.14 376.4 1240.14 381.6ZM1371.8 341.2V355.6C1372.47 353.6 1373.73 351.2 1375.6 348.4C1377.6 345.467 1380.13 342.667 1383.2 340C1386.13 337.333 1389.67 335.067 1393.8 333.2C1397.93 331.2 1402.6 330.133 1407.8 330C1417 329.867 1424.33 332.333 1429.8 337.4C1435.4 342.467 1438.2 348.533 1438.2 355.6V430.2H1421V365C1421 359.8 1419.73 355.067 1417.2 350.8C1414.67 346.4 1409.8 344.267 1402.6 344.4C1399.13 344.533 1395.53 345.733 1391.8 348C1388.2 350.267 1384.87 353.133 1381.8 356.6C1378.87 360.067 1376.4 363.933 1374.4 368.2C1372.53 372.333 1371.6 376.467 1371.6 380.6V430.2H1354.4V358C1354.4 356.267 1354.33 354.667 1354.2 353.2C1354.2 351.733 1354.07 350.4 1353.8 349.2C1353.53 348 1353.07 346.867 1352.4 345.8C1351.87 344.733 1351.07 343.8 1350 343C1348.93 342.333 1347.67 341.8 1346.2 341.4C1344.73 341 1343.4 340.8 1342.2 340.8C1340.47 340.8 1339.07 340.333 1338 339.4C1337.07 338.467 1336.6 337.333 1336.6 336C1336.6 334.8 1337.07 333.8 1338 333C1339.07 332.2 1340.27 331.8 1341.6 331.8H1362C1365.07 331.8 1367.47 332.867 1369.2 335C1370.93 337 1371.8 339.067 1371.8 341.2ZM748.863 622.6C744.863 625.133 739.396 627.267 732.463 629C725.529 630.867 718.263 631.933 710.663 632.2C699.196 632.6 688.863 630.867 679.663 627C670.463 623.267 662.596 618 656.063 611.2C649.663 604.4 644.729 596.4 641.262 587.2C637.796 578 636.063 568.067 636.063 557.4C636.063 547 637.596 537.467 640.663 528.8C643.729 520.133 648.129 512.667 653.863 506.4C659.596 500.267 666.529 495.467 674.663 492C682.929 488.533 692.196 486.8 702.463 486.8C709.663 486.8 716.196 487.8 722.063 489.8C728.063 491.8 733.129 494.333 737.263 497.4C741.529 500.467 744.796 503.933 747.063 507.8C749.463 511.533 750.663 515.267 750.663 519H730.063C730.063 517 729.396 514.867 728.062 512.6C726.863 510.333 725.063 508.2 722.663 506.2C720.263 504.2 717.263 502.533 713.663 501.2C710.196 499.867 706.196 499.2 701.663 499.2C697.663 499.2 693.063 500.067 687.863 501.8C682.663 503.4 677.663 506.267 672.863 510.4C668.196 514.533 664.263 520.2 661.063 527.4C657.863 534.467 656.263 543.4 656.263 554.2C656.263 562.867 657.396 571.2 659.663 579.2C662.063 587.067 665.529 594 670.063 600C674.729 606 680.396 610.8 687.063 614.4C693.729 618 701.463 619.8 710.263 619.8C716.129 619.8 722.129 619.133 728.263 617.8C734.396 616.467 740.396 614.4 746.263 611.6C747.596 611.067 748.796 611.133 749.863 611.8C750.929 612.333 751.663 613.267 752.063 614.6C752.463 615.8 752.396 617.2 751.863 618.8C751.463 620.267 750.463 621.533 748.863 622.6ZM822.016 632.2C807.616 632.2 795.816 627.867 786.616 619.2C777.549 610.533 773.016 598 773.016 581.6C773.016 574.667 774.016 568.067 776.016 561.8C778.016 555.533 781.016 550 785.016 545.2C789.016 540.533 794.016 536.8 800.016 534C806.149 531.2 813.349 529.8 821.616 529.8C836.816 529.8 848.816 534.533 857.616 544C866.549 553.333 871.016 565.8 871.016 581.4C871.016 596.733 866.616 609.067 857.816 618.4C849.149 627.6 837.216 632.2 822.016 632.2ZM791.816 581.6C791.816 586.667 792.349 591.6 793.416 596.4C794.482 601.2 796.216 605.4 798.616 609C801.016 612.733 804.149 615.733 808.016 618C811.882 620.133 816.616 621.2 822.216 621.2C827.416 621.2 831.882 620.067 835.616 617.8C839.349 615.533 842.416 612.533 844.816 608.8C847.216 605.2 848.949 601 850.016 596.2C851.216 591.4 851.816 586.467 851.816 581.4C851.816 576.467 851.282 571.6 850.216 566.8C849.149 561.867 847.416 557.467 845.016 553.6C842.616 549.867 839.482 546.8 835.616 544.4C831.749 542 827.016 540.8 821.416 540.8C815.949 540.8 811.349 541.933 807.616 544.2C803.882 546.467 800.816 549.533 798.416 553.4C796.016 557.133 794.282 561.467 793.216 566.4C792.282 571.333 791.816 576.4 791.816 581.6ZM901.278 543C900.211 542.333 898.945 541.867 897.478 541.6C896.011 541.2 894.678 541 893.478 541C891.745 541 890.345 540.533 889.278 539.6C888.345 538.533 887.878 537.333 887.878 536C887.878 534.8 888.345 533.8 889.278 533C890.345 532.2 891.545 531.8 892.878 531.8H913.078C916.145 531.8 918.545 532.867 920.278 535C922.011 537 922.878 539.067 922.878 541.2V553C923.145 551.667 923.878 549.733 925.078 547.2C926.411 544.533 928.211 541.933 930.478 539.4C932.878 536.867 935.811 534.667 939.278 532.8C942.878 530.8 947.145 529.8 952.078 529.8C960.345 529.8 966.745 531.933 971.278 536.2C975.945 540.467 978.678 545.733 979.478 552C979.878 550.533 980.611 548.6 981.678 546.2C982.878 543.667 984.678 541.2 987.078 538.8C989.345 536.4 992.278 534.333 995.878 532.6C999.611 530.733 1004.28 529.8 1009.88 529.8C1019.08 529.8 1025.94 532.867 1030.48 539C1035.14 545.133 1037.48 553.333 1037.48 563.6V630.2H1020.28V568.6C1020.28 561.933 1019.14 556.2 1016.88 551.4C1014.74 546.467 1010.54 544 1004.28 544C1000.28 544 996.745 545.267 993.678 547.8C990.611 550.333 988.078 553.4 986.078 557C984.078 560.6 982.545 564.467 981.478 568.6C980.545 572.6 980.078 576.067 980.078 579V630.2H962.878V563C962.878 558.2 961.745 553.8 959.478 549.8C957.345 545.8 953.278 543.8 947.278 543.8C944.345 543.8 941.411 544.867 938.478 547C935.678 549.133 933.078 551.867 930.678 555.2C928.411 558.667 926.545 562.6 925.078 567C923.611 571.267 922.878 575.667 922.878 580.2V630.2H905.678V558C905.678 556.267 905.611 554.667 905.478 553.2C905.478 551.733 905.345 550.4 905.078 549.2C904.811 548 904.345 546.867 903.678 545.8C903.145 544.733 902.345 543.8 901.278 543ZM1094.24 569.6V586.6C1094.24 589.533 1094.64 592.933 1095.44 596.8C1096.24 600.667 1097.64 604.4 1099.64 608C1101.51 611.467 1104.04 614.4 1107.24 616.8C1110.57 619.2 1114.64 620.4 1119.44 620.4C1124.64 620.4 1128.91 619.2 1132.24 616.8C1135.71 614.267 1138.51 611 1140.64 607C1142.64 603.133 1144.04 598.867 1144.84 594.2C1145.77 589.4 1146.24 584.8 1146.24 580.4C1146.24 576.4 1145.77 572.133 1144.84 567.6C1144.04 562.933 1142.57 558.667 1140.44 554.8C1138.44 550.933 1135.64 547.667 1132.04 545C1128.57 542.333 1124.24 541 1119.04 541C1113.04 541 1107.51 543.533 1102.44 548.6C1097.37 553.533 1094.64 560.533 1094.24 569.6ZM1094.04 541V545.2C1094.31 544.267 1095.17 542.933 1096.64 541.2C1098.11 539.467 1100.04 537.733 1102.44 536C1104.71 534.4 1107.37 533 1110.44 531.8C1113.64 530.467 1117.17 529.8 1121.04 529.8C1133.84 529.8 1144.24 534.267 1152.24 543.2C1160.24 552.133 1164.24 564.4 1164.24 580C1164.24 586.8 1163.44 593.333 1161.84 599.6C1160.37 605.867 1157.97 611.467 1154.64 616.4C1151.31 621.2 1146.91 625 1141.44 627.8C1136.11 630.733 1129.57 632.2 1121.84 632.2C1115.04 632.2 1109.24 630.6 1104.44 627.4C1099.64 624.333 1096.24 621 1094.24 617.4V666.6H1076.84V558C1076.84 556.267 1076.77 554.667 1076.64 553.2C1076.64 551.733 1076.51 550.4 1076.24 549.2C1075.97 548 1075.51 546.867 1074.84 545.8C1074.31 544.733 1073.51 543.8 1072.44 543C1071.37 542.333 1070.11 541.867 1068.64 541.6C1067.17 541.2 1065.84 541 1064.64 541C1062.91 541 1061.51 540.533 1060.44 539.6C1059.51 538.533 1059.04 537.333 1059.04 536C1059.04 534.8 1059.51 533.8 1060.44 533C1061.51 532.2 1062.71 531.8 1064.04 531.8H1084.24C1087.31 531.8 1089.71 532.867 1091.44 535C1093.17 537 1094.04 539 1094.04 541ZM1216.55 495.6V630.2H1199.15V512C1199.15 510.4 1199.09 508.867 1198.95 507.4C1198.95 505.933 1198.82 504.6 1198.55 503.4C1198.29 502.2 1197.82 501.067 1197.15 500C1196.62 498.933 1195.82 498 1194.75 497.2C1193.69 496.533 1192.42 496 1190.95 495.6C1189.49 495.067 1188.15 494.8 1186.95 494.8C1185.22 494.8 1183.82 494.4 1182.75 493.6C1181.82 492.667 1181.35 491.533 1181.35 490.2C1181.35 489 1181.82 488 1182.75 487.2C1183.82 486.4 1185.02 486 1186.35 486H1206.75C1209.82 486 1212.22 487.067 1213.95 489.2C1215.69 491.2 1216.55 493.333 1216.55 495.6ZM1302.46 630.4C1295.39 630.267 1288.79 628.867 1282.66 626.2C1276.53 623.667 1271.19 620.067 1266.66 615.4C1261.99 610.733 1258.33 605.067 1255.66 598.4C1253.13 591.733 1251.86 584.133 1251.86 575.6C1251.86 567.867 1253.06 561.067 1255.46 555.2C1257.86 549.2 1261.26 544.2 1265.66 540.2C1269.93 536.2 1274.99 533.2 1280.86 531.2C1286.86 529.067 1293.39 528 1300.46 528C1305.66 528 1310.79 528.933 1315.86 530.8C1321.06 532.667 1325.73 535.4 1329.86 539C1333.86 542.6 1337.13 547 1339.66 552.2C1342.19 557.4 1343.46 563.267 1343.46 569.8V581.8H1270.46C1271.39 592.467 1274.93 601.133 1281.06 607.8C1287.33 614.333 1296.06 618.133 1307.26 619.2C1309.26 619.467 1312.99 619.4 1318.46 619C1324.06 618.467 1329.73 617 1335.46 614.6C1336.79 614.067 1337.93 614.133 1338.86 614.8C1339.93 615.333 1340.66 616.2 1341.06 617.4C1341.46 618.467 1341.46 619.667 1341.06 621C1340.66 622.333 1339.73 623.333 1338.26 624C1333.33 626.4 1328.06 628.133 1322.46 629.2C1316.99 630.4 1310.33 630.8 1302.46 630.4ZM1299.86 538.2C1296.39 538.2 1292.99 538.867 1289.66 540.2C1286.46 541.4 1283.53 543.267 1280.86 545.8C1278.06 548.333 1275.73 551.6 1273.86 555.6C1271.99 559.6 1270.86 564.333 1270.46 569.8H1325.46C1325.33 563.8 1324.53 558.8 1323.06 554.8C1321.59 550.667 1319.66 547.4 1317.26 545C1314.86 542.6 1312.13 540.867 1309.06 539.8C1306.13 538.733 1303.06 538.2 1299.86 538.2ZM1425.34 619.2V630.6C1422.94 631.133 1419.94 631.533 1416.34 631.8C1412.87 632.067 1410.14 632.2 1408.14 632.2C1401.6 632.2 1396.4 631.533 1392.54 630.2C1388.67 629 1385.67 627.133 1383.54 624.6C1381.54 622.067 1380.2 619 1379.54 615.4C1379 611.667 1378.74 607.4 1378.74 602.6V543.6H1362.74V531.8H1378.74V515.2L1395.74 499.2V531.8H1423.34V543.6H1395.94V606.6C1395.94 609.667 1396.27 612.133 1396.94 614C1397.6 615.867 1398.74 617.2 1400.34 618C1402.47 619.2 1405.8 620 1410.34 620.4C1415 620.8 1420 620.4 1425.34 619.2ZM1497.46 630.4C1490.39 630.267 1483.79 628.867 1477.66 626.2C1471.53 623.667 1466.19 620.067 1461.66 615.4C1456.99 610.733 1453.33 605.067 1450.66 598.4C1448.13 591.733 1446.86 584.133 1446.86 575.6C1446.86 567.867 1448.06 561.067 1450.46 555.2C1452.86 549.2 1456.26 544.2 1460.66 540.2C1464.93 536.2 1469.99 533.2 1475.86 531.2C1481.86 529.067 1488.39 528 1495.46 528C1500.66 528 1505.79 528.933 1510.86 530.8C1516.06 532.667 1520.73 535.4 1524.86 539C1528.86 542.6 1532.13 547 1534.66 552.2C1537.19 557.4 1538.46 563.267 1538.46 569.8V581.8H1465.46C1466.39 592.467 1469.93 601.133 1476.06 607.8C1482.33 614.333 1491.06 618.133 1502.26 619.2C1504.26 619.467 1507.99 619.4 1513.46 619C1519.06 618.467 1524.73 617 1530.46 614.6C1531.79 614.067 1532.93 614.133 1533.86 614.8C1534.93 615.333 1535.66 616.2 1536.06 617.4C1536.46 618.467 1536.46 619.667 1536.06 621C1535.66 622.333 1534.73 623.333 1533.26 624C1528.33 626.4 1523.06 628.133 1517.46 629.2C1511.99 630.4 1505.33 630.8 1497.46 630.4ZM1494.86 538.2C1491.39 538.2 1487.99 538.867 1484.66 540.2C1481.46 541.4 1478.53 543.267 1475.86 545.8C1473.06 548.333 1470.73 551.6 1468.86 555.6C1466.99 559.6 1465.86 564.333 1465.46 569.8H1520.46C1520.33 563.8 1519.53 558.8 1518.06 554.8C1516.59 550.667 1514.66 547.4 1512.26 545C1509.86 542.6 1507.13 540.867 1504.06 539.8C1501.13 538.733 1498.06 538.2 1494.86 538.2Z" fill="#6255A4"/>
</g>
<path d="M2035.61 249.031C2045.82 217.717 2086.54 254.844 2052.23 266.659C2078.86 322.457 2048.74 349.989 2024.69 363.938C1961.8 396.128 1864.08 320.447 1936.16 246.864C1913.27 220.064 1957.58 205.316 1959.84 234.789C1989.74 225.698 2022.31 238.4 2035.61 249.031Z" fill="#FEAD55" stroke="#E67F51" stroke-width="10"/>
<ellipse cx="4.99909" cy="5.02239" rx="4.99909" ry="5.02239" transform="matrix(0.985955 0.16701 -0.172054 0.985088 2012.01 275.105)" fill="white"/>
<ellipse cx="4.99909" cy="5.02239" rx="4.99909" ry="5.02239" transform="matrix(0.985955 0.16701 -0.172054 0.985088 1962.07 266.646)" fill="white"/>
<path fill-rule="evenodd" clip-rule="evenodd" d="M2021.66 315.377C2018.98 330.672 2000.58 340.321 1980.55 336.928C1960.53 333.536 1946.46 318.386 1949.13 303.092C1951.8 287.797 1970.2 278.148 1990.23 281.541C2010.26 284.933 2024.33 300.082 2021.66 315.377ZM1987.87 298.975C1991.38 299.345 1994.41 297.948 1994.81 295.69C1995.23 293.285 1992.49 290.815 1988.7 290.173C1984.91 289.531 1981.49 290.959 1981.07 293.363C1980.68 295.636 1983.1 297.967 1986.57 298.758L1982.67 317.684L1985.12 318.1L1987.87 298.975Z" fill="white"/>
<ellipse cx="3.3316" cy="3.34712" rx="3.3316" ry="3.34712" transform="matrix(0.985955 0.16701 -0.172054 0.985088 2011.38 277.082)" fill="black"/>
<ellipse cx="3.00918" cy="3.02321" rx="3.00918" ry="3.02321" transform="matrix(0.985955 0.16701 -0.172054 0.985088 1961.53 268.637)" fill="black"/>
<path d="M1839.27 650.908C1866.46 632.419 1876.15 686.671 1841.71 675.004C1828.84 735.383 1788.15 738.7 1760.56 734.998C1691.03 721.942 1659.6 602.354 1761.66 588.337C1759.82 553.153 1803.98 568.619 1787.81 593.287C1817.08 604.404 1835.19 634.37 1839.27 650.908Z" fill="#FEAD55" stroke="#E67F51" stroke-width="10"/>
<ellipse cx="5.0093" cy="5.01221" rx="5.0093" ry="5.01221" transform="matrix(0.679341 0.733823 -0.738486 0.674269 1804.64 657.064)" fill="white"/>
<ellipse cx="5.0093" cy="5.01221" rx="5.0093" ry="5.01221" transform="matrix(0.679341 0.733823 -0.738486 0.674269 1770.17 619.82)" fill="white"/>
<path fill-rule="evenodd" clip-rule="evenodd" d="M1787.75 694.781C1776.31 705.229 1755.82 701.59 1742 686.653C1728.17 671.716 1726.23 651.138 1737.68 640.69C1749.12 630.243 1769.61 633.882 1783.43 648.819C1797.26 663.755 1799.2 684.334 1787.75 694.781ZM1770.93 661.146C1773.49 663.587 1776.75 664.341 1778.44 662.799C1780.24 661.156 1779.58 657.532 1776.96 654.703C1774.34 651.874 1770.76 650.913 1768.96 652.555C1767.26 654.108 1767.76 657.431 1770.03 660.179L1755.4 672.743L1757.1 674.576L1770.93 661.146Z" fill="white"/>
<ellipse cx="3.3384" cy="3.34034" rx="3.3384" ry="3.34034" transform="matrix(0.679341 0.733823 -0.738486 0.674269 1802.94 658.243)" fill="black"/>
<ellipse cx="3.01533" cy="3.01708" rx="3.01533" ry="3.01708" transform="matrix(0.679341 0.733823 -0.738486 0.674269 1768.52 621.064)" fill="black"/>
<path d="M1883.95 112.903C1888.38 130.531 1877.58 148.385 1859.82 152.782C1842.07 157.178 1824.1 146.452 1819.67 128.824C1815.24 111.196 1826.04 93.3413 1843.79 88.9448C1861.54 84.5483 1879.52 95.2746 1883.95 112.903Z" fill="#D8DBF6"/>
<path d="M1829.53 78.815C1831.31 85.9189 1826.96 93.114 1819.81 94.8857C1812.65 96.6574 1805.41 92.3349 1803.63 85.231C1801.84 78.1272 1806.19 70.9321 1813.35 69.1604C1820.5 67.3887 1827.75 71.7112 1829.53 78.815Z" fill="#D8DBF6"/>
<path d="M1853.28 63.8238C1855.06 70.9277 1850.71 78.1227 1843.56 79.8945C1836.4 81.6662 1829.16 77.3437 1827.38 70.2398C1825.59 63.136 1829.94 55.9409 1837.1 54.1692C1844.25 52.3975 1851.5 56.72 1853.28 63.8238Z" fill="#D8DBF6"/>
<path d="M1885.17 69.0813C1886.96 76.1851 1882.6 83.3802 1875.45 85.1519C1868.3 86.9236 1861.05 82.6011 1859.27 75.4973C1857.49 68.3934 1861.84 61.1984 1868.99 59.4266C1876.14 57.6549 1883.39 61.9774 1885.17 69.0813Z" fill="#D8DBF6"/>
<path d="M1878.2 493.938C1878.2 512.106 1863.37 526.834 1845.08 526.834C1826.78 526.834 1811.95 512.106 1811.95 493.938C1811.95 475.77 1826.78 461.042 1845.08 461.042C1863.37 461.042 1878.2 475.77 1878.2 493.938Z" fill="#D8DBF6"/>
<path d="M1833.71 447.785C1833.71 455.107 1827.73 461.042 1820.36 461.042C1812.99 461.042 1807.01 455.107 1807.01 447.785C1807.01 440.464 1812.99 434.528 1820.36 434.528C1827.73 434.528 1833.71 440.464 1833.71 447.785Z" fill="#D8DBF6"/>
<path d="M1860.4 438.947C1860.4 446.269 1854.43 452.204 1847.05 452.204C1839.68 452.204 1833.71 446.269 1833.71 438.947C1833.71 431.626 1839.68 425.691 1847.05 425.691C1854.43 425.691 1860.4 431.626 1860.4 438.947Z" fill="#D8DBF6"/>
<path d="M1890.07 451.713C1890.07 459.034 1884.09 464.97 1876.72 464.97C1869.35 464.97 1863.37 459.034 1863.37 451.713C1863.37 444.392 1869.35 438.456 1876.72 438.456C1884.09 438.456 1890.07 444.392 1890.07 451.713Z" fill="#D8DBF6"/>
<path d="M1988.19 847.247C1988.19 865.415 1973.36 880.143 1955.07 880.143C1936.77 880.143 1921.94 865.415 1921.94 847.247C1921.94 829.079 1936.77 814.351 1955.07 814.351C1973.36 814.351 1988.19 829.079 1988.19 847.247Z" fill="#D8DBF6"/>
<path d="M1943.7 801.094C1943.7 808.416 1937.72 814.351 1930.35 814.351C1922.98 814.351 1917 808.416 1917 801.094C1917 793.773 1922.98 787.838 1930.35 787.838C1937.72 787.838 1943.7 793.773 1943.7 801.094Z" fill="#D8DBF6"/>
<path d="M1970.39 792.257C1970.39 799.578 1964.42 805.513 1957.05 805.513C1949.67 805.513 1943.7 799.578 1943.7 792.257C1943.7 784.935 1949.67 779 1957.05 779C1964.42 779 1970.39 784.935 1970.39 792.257Z" fill="#D8DBF6"/>
<path d="M2000.06 805.022C2000.06 812.344 1994.08 818.279 1986.71 818.279C1979.34 818.279 1973.36 812.344 1973.36 805.022C1973.36 797.701 1979.34 791.766 1986.71 791.766C1994.08 791.766 2000.06 797.701 2000.06 805.022Z" fill="#D8DBF6"/>
<path d="M1812.93 976.131C1812.93 994.299 1798.1 1009.03 1779.81 1009.03C1761.52 1009.03 1746.69 994.299 1746.69 976.131C1746.69 957.963 1761.52 943.235 1779.81 943.235C1798.1 943.235 1812.93 957.963 1812.93 976.131Z" fill="#D8DBF6"/>
<path d="M1768.44 929.979C1768.44 937.3 1762.46 943.235 1755.09 943.235C1747.72 943.235 1741.74 937.3 1741.74 929.979C1741.74 922.657 1747.72 916.722 1755.09 916.722C1762.46 916.722 1768.44 922.657 1768.44 929.979Z" fill="#D8DBF6"/>
<path d="M1795.14 921.141C1795.14 928.462 1789.16 934.398 1781.79 934.398C1774.42 934.398 1768.44 928.462 1768.44 921.141C1768.44 913.819 1774.42 907.884 1781.79 907.884C1789.16 907.884 1795.14 913.819 1795.14 921.141Z" fill="#D8DBF6"/>
<path d="M1824.8 933.907C1824.8 941.228 1818.82 947.163 1811.45 947.163C1804.08 947.163 1798.1 941.228 1798.1 933.907C1798.1 926.585 1804.08 920.65 1811.45 920.65C1818.82 920.65 1824.8 926.585 1824.8 933.907Z" fill="#D8DBF6"/>
<defs>
<filter id="filter0_d_210_2805" x="636.062" y="287.6" width="922.396" height="399" filterUnits="userSpaceOnUse" color-interpolation-filters="sRGB">
<feFlood flood-opacity="0" result="BackgroundImageFix"/>
<feColorMatrix in="SourceAlpha" type="matrix" values="0 0 0 0 0 0 0 0 0 0 0 0 0 0 0 0 0 0 127 0" result="hardAlpha"/>
<feOffset dx="10" dy="10"/>
<feGaussianBlur stdDeviation="5"/>
<feComposite in2="hardAlpha" operator="out"/>
<feColorMatrix type="matrix" values="0 0 0 0 0 0 0 0 0 0 0 0 0 0 0 0 0 0 0.25 0"/>
<feBlend mode="normal" in2="BackgroundImageFix" result="effect1_dropShadow_210_2805"/>
<feBlend mode="normal" in="SourceGraphic" in2="effect1_dropShadow_210_2805" result="shape"/>
</filter>
</defs>
</svg>
