<svg width="1811" height="1072" viewBox="0 0 1811 1072" fill="none" xmlns="http://www.w3.org/2000/svg">
<g filter="url(#filter0_d_210_2805)">
<path d="M613.139 314.689C611.539 314.689 610.272 314.223 609.339 313.289C608.406 312.356 607.939 311.223 607.939 309.889C607.939 308.823 608.339 307.823 609.139 306.889C609.939 305.956 610.939 305.489 612.139 305.489H651.539L689.739 424.889L730.139 305.489H757.739V446.889H740.139V322.089L700.939 438.689C700.272 440.689 699.206 442.556 697.739 444.289C696.406 446.023 694.272 446.889 691.339 446.889H679.739L639.139 322.089V446.889H624.939V331.889C624.939 326.956 624.139 322.889 622.539 319.689C621.072 316.356 617.939 314.689 613.139 314.689ZM818.155 446.889V358.089C818.155 355.823 817.288 353.689 815.555 351.689C813.821 349.556 811.421 348.489 808.355 348.489H788.155C786.821 348.489 785.621 348.889 784.555 349.689C783.621 350.489 783.155 351.489 783.155 352.689C783.155 354.023 783.621 355.223 784.555 356.289C785.621 357.223 787.021 357.689 788.755 357.689C789.955 357.689 791.288 357.889 792.755 358.289C794.221 358.689 795.488 359.156 796.555 359.689C798.555 361.023 799.755 362.823 800.155 365.089C800.555 367.356 800.755 370.823 800.755 375.489V446.889H818.155ZM794.355 317.089C794.355 313.623 795.555 310.623 797.955 308.089C800.488 305.556 803.555 304.289 807.155 304.289C810.621 304.289 813.621 305.556 816.155 308.089C818.688 310.623 819.955 313.623 819.955 317.089C819.955 320.689 818.688 323.756 816.155 326.289C813.621 328.689 810.621 329.889 807.155 329.889C803.555 329.889 800.488 328.689 797.955 326.289C795.555 323.756 794.355 320.689 794.355 317.089ZM916.708 350.689V366.089C913.241 363.956 909.041 362.023 904.108 360.289C899.174 358.556 894.308 357.689 889.508 357.689C885.108 357.689 880.974 358.556 877.108 360.289C873.374 361.889 871.441 364.889 871.308 369.289C871.174 370.889 871.374 372.489 871.908 374.089C872.441 375.689 873.308 377.023 874.508 378.089C877.841 381.156 881.441 383.489 885.308 385.089C889.308 386.689 893.308 388.223 897.308 389.689C901.308 391.289 905.174 393.223 908.908 395.489C912.641 397.623 916.041 400.756 919.108 404.889C920.308 406.756 921.241 408.756 921.908 410.889C922.708 412.889 923.108 415.289 923.108 418.089C923.108 423.689 921.908 428.489 919.508 432.489C917.241 436.356 914.308 439.489 910.708 441.889C906.974 444.423 902.841 446.223 898.308 447.289C893.774 448.356 889.241 448.889 884.708 448.889C879.908 448.889 875.241 448.556 870.708 447.889C866.308 447.223 862.308 446.223 858.708 444.889C856.174 444.089 854.508 442.756 853.708 440.889C852.908 439.023 852.641 437.223 852.908 435.489C853.308 433.756 854.108 432.356 855.308 431.289C856.641 430.223 858.174 429.956 859.908 430.489C861.241 431.156 862.708 431.889 864.308 432.689C865.908 433.356 867.641 434.023 869.508 434.689C871.374 435.356 873.441 435.889 875.708 436.289C877.974 436.689 880.441 436.889 883.108 436.889C889.108 436.889 894.441 435.956 899.108 434.089C903.774 432.089 906.108 427.956 906.108 421.689C906.108 418.489 905.041 415.689 902.908 413.289C900.908 410.756 898.041 408.623 894.308 406.889C891.641 405.823 888.641 404.689 885.308 403.489C882.108 402.156 878.841 400.689 875.508 399.089C872.041 397.489 868.774 395.756 865.708 393.889C862.774 391.889 860.374 389.623 858.508 387.089C855.974 384.023 854.508 380.423 854.108 376.289C853.841 372.156 854.574 367.956 856.308 363.689C858.708 357.689 862.774 353.356 868.508 350.689C874.241 347.889 880.708 346.423 887.908 346.289C889.641 346.289 891.774 346.423 894.308 346.689C896.974 346.823 899.708 347.089 902.508 347.489C905.308 347.889 907.974 348.423 910.508 349.089C913.041 349.623 915.108 350.156 916.708 350.689ZM1012.65 350.689V366.089C1009.18 363.956 1004.98 362.023 1000.05 360.289C995.112 358.556 990.245 357.689 985.445 357.689C981.045 357.689 976.912 358.556 973.045 360.289C969.312 361.889 967.379 364.889 967.245 369.289C967.112 370.889 967.312 372.489 967.845 374.089C968.379 375.689 969.245 377.023 970.445 378.089C973.779 381.156 977.379 383.489 981.245 385.089C985.245 386.689 989.245 388.223 993.245 389.689C997.245 391.289 1001.11 393.223 1004.85 395.489C1008.58 397.623 1011.98 400.756 1015.05 404.889C1016.25 406.756 1017.18 408.756 1017.85 410.889C1018.65 412.889 1019.05 415.289 1019.05 418.089C1019.05 423.689 1017.85 428.489 1015.45 432.489C1013.18 436.356 1010.25 439.489 1006.65 441.889C1002.91 444.423 998.779 446.223 994.245 447.289C989.712 448.356 985.179 448.889 980.645 448.889C975.845 448.889 971.179 448.556 966.645 447.889C962.245 447.223 958.245 446.223 954.645 444.889C952.112 444.089 950.445 442.756 949.645 440.889C948.845 439.023 948.579 437.223 948.845 435.489C949.245 433.756 950.045 432.356 951.245 431.289C952.579 430.223 954.112 429.956 955.845 430.489C957.179 431.156 958.645 431.889 960.245 432.689C961.845 433.356 963.579 434.023 965.445 434.689C967.312 435.356 969.379 435.889 971.645 436.289C973.912 436.689 976.379 436.889 979.045 436.889C985.045 436.889 990.379 435.956 995.045 434.089C999.712 432.089 1002.05 427.956 1002.05 421.689C1002.05 418.489 1000.98 415.689 998.845 413.289C996.845 410.756 993.979 408.623 990.245 406.889C987.579 405.823 984.579 404.689 981.245 403.489C978.045 402.156 974.779 400.689 971.445 399.089C967.979 397.489 964.712 395.756 961.645 393.889C958.712 391.889 956.312 389.623 954.445 387.089C951.912 384.023 950.445 380.423 950.045 376.289C949.779 372.156 950.512 367.956 952.245 363.689C954.645 357.689 958.712 353.356 964.445 350.689C970.179 347.889 976.645 346.423 983.845 346.289C985.579 346.289 987.712 346.423 990.245 346.689C992.912 346.823 995.645 347.089 998.445 347.489C1001.25 347.889 1003.91 348.423 1006.45 349.089C1008.98 349.623 1011.05 350.156 1012.65 350.689ZM1071.98 446.889V358.089C1071.98 355.823 1071.12 353.689 1069.38 351.689C1067.65 349.556 1065.25 348.489 1062.18 348.489H1041.98C1040.65 348.489 1039.45 348.889 1038.38 349.689C1037.45 350.489 1036.98 351.489 1036.98 352.689C1036.98 354.023 1037.45 355.223 1038.38 356.289C1039.45 357.223 1040.85 357.689 1042.58 357.689C1043.78 357.689 1045.12 357.889 1046.58 358.289C1048.05 358.689 1049.32 359.156 1050.38 359.689C1052.38 361.023 1053.58 362.823 1053.98 365.089C1054.38 367.356 1054.58 370.823 1054.58 375.489V446.889H1071.98ZM1048.18 317.089C1048.18 313.623 1049.38 310.623 1051.78 308.089C1054.32 305.556 1057.38 304.289 1060.98 304.289C1064.45 304.289 1067.45 305.556 1069.98 308.089C1072.52 310.623 1073.78 313.623 1073.78 317.089C1073.78 320.689 1072.52 323.756 1069.98 326.289C1067.45 328.689 1064.45 329.889 1060.98 329.889C1057.38 329.889 1054.32 328.689 1051.78 326.289C1049.38 323.756 1048.18 320.689 1048.18 317.089ZM1155.34 448.889C1140.94 448.889 1129.14 444.556 1119.94 435.889C1110.87 427.223 1106.34 414.689 1106.34 398.289C1106.34 391.356 1107.34 384.756 1109.34 378.489C1111.34 372.223 1114.34 366.689 1118.34 361.889C1122.34 357.223 1127.34 353.489 1133.34 350.689C1139.47 347.889 1146.67 346.489 1154.94 346.489C1170.14 346.489 1182.14 351.223 1190.94 360.689C1199.87 370.023 1204.34 382.489 1204.34 398.089C1204.34 413.423 1199.94 425.756 1191.14 435.089C1182.47 444.289 1170.54 448.889 1155.34 448.889ZM1125.14 398.289C1125.14 403.356 1125.67 408.289 1126.74 413.089C1127.8 417.889 1129.54 422.089 1131.94 425.689C1134.34 429.423 1137.47 432.423 1141.34 434.689C1145.2 436.823 1149.94 437.889 1155.54 437.889C1160.74 437.889 1165.2 436.756 1168.94 434.489C1172.67 432.223 1175.74 429.223 1178.14 425.489C1180.54 421.889 1182.27 417.689 1183.34 412.889C1184.54 408.089 1185.14 403.156 1185.14 398.089C1185.14 393.156 1184.6 388.289 1183.54 383.489C1182.47 378.556 1180.74 374.156 1178.34 370.289C1175.94 366.556 1172.8 363.489 1168.94 361.089C1165.07 358.689 1160.34 357.489 1154.74 357.489C1149.27 357.489 1144.67 358.623 1140.94 360.889C1137.2 363.156 1134.14 366.223 1131.74 370.089C1129.34 373.823 1127.6 378.156 1126.54 383.089C1125.6 388.023 1125.14 393.089 1125.14 398.289ZM1256.8 357.889V372.289C1257.47 370.289 1258.73 367.889 1260.6 365.089C1262.6 362.156 1265.13 359.356 1268.2 356.689C1271.13 354.023 1274.67 351.756 1278.8 349.889C1282.93 347.889 1287.6 346.823 1292.8 346.689C1302 346.556 1309.33 349.023 1314.8 354.089C1320.4 359.156 1323.2 365.223 1323.2 372.289V446.889H1306V381.689C1306 376.489 1304.73 371.756 1302.2 367.489C1299.67 363.089 1294.8 360.956 1287.6 361.089C1284.13 361.223 1280.53 362.423 1276.8 364.689C1273.2 366.956 1269.87 369.823 1266.8 373.289C1263.87 376.756 1261.4 380.623 1259.4 384.889C1257.53 389.023 1256.6 393.156 1256.6 397.289V446.889H1239.4V374.689C1239.4 372.956 1239.33 371.356 1239.2 369.889C1239.2 368.423 1239.07 367.089 1238.8 365.889C1238.53 364.689 1238.07 363.556 1237.4 362.489C1236.87 361.423 1236.07 360.489 1235 359.689C1233.93 359.023 1232.67 358.489 1231.2 358.089C1229.73 357.689 1228.4 357.489 1227.2 357.489C1225.47 357.489 1224.07 357.023 1223 356.089C1222.07 355.156 1221.6 354.023 1221.6 352.689C1221.6 351.489 1222.07 350.489 1223 349.689C1224.07 348.889 1225.27 348.489 1226.6 348.489H1247C1250.07 348.489 1252.47 349.556 1254.2 351.689C1255.93 353.689 1256.8 355.756 1256.8 357.889ZM633.863 639.289C629.863 641.823 624.396 643.956 617.463 645.689C610.529 647.556 603.263 648.623 595.663 648.889C584.196 649.289 573.863 647.556 564.663 643.689C555.463 639.956 547.596 634.689 541.063 627.889C534.663 621.089 529.729 613.089 526.262 603.889C522.796 594.689 521.063 584.756 521.063 574.089C521.063 563.689 522.596 554.156 525.663 545.489C528.729 536.823 533.129 529.356 538.863 523.089C544.596 516.956 551.529 512.156 559.663 508.689C567.929 505.223 577.196 503.489 587.463 503.489C594.663 503.489 601.196 504.489 607.063 506.489C613.063 508.489 618.129 511.023 622.263 514.089C626.529 517.156 629.796 520.623 632.063 524.489C634.463 528.223 635.663 531.956 635.663 535.689H615.063C615.063 533.689 614.396 531.556 613.062 529.289C611.863 527.023 610.063 524.889 607.663 522.889C605.263 520.889 602.263 519.223 598.663 517.889C595.196 516.556 591.196 515.889 586.663 515.889C582.663 515.889 578.063 516.756 572.863 518.489C567.663 520.089 562.663 522.956 557.863 527.089C553.196 531.223 549.263 536.889 546.063 544.089C542.863 551.156 541.263 560.089 541.263 570.889C541.263 579.556 542.396 587.889 544.663 595.889C547.063 603.756 550.529 610.689 555.063 616.689C559.729 622.689 565.396 627.489 572.063 631.089C578.729 634.689 586.463 636.489 595.263 636.489C601.129 636.489 607.129 635.823 613.263 634.489C619.396 633.156 625.396 631.089 631.263 628.289C632.596 627.756 633.796 627.823 634.863 628.489C635.929 629.023 636.663 629.956 637.063 631.289C637.463 632.489 637.396 633.889 636.863 635.489C636.463 636.956 635.463 638.223 633.863 639.289ZM707.016 648.889C692.616 648.889 680.816 644.556 671.616 635.889C662.549 627.223 658.016 614.689 658.016 598.289C658.016 591.356 659.016 584.756 661.016 578.489C663.016 572.223 666.016 566.689 670.016 561.889C674.016 557.223 679.016 553.489 685.016 550.689C691.149 547.889 698.349 546.489 706.616 546.489C721.816 546.489 733.816 551.223 742.616 560.689C751.549 570.023 756.016 582.489 756.016 598.089C756.016 613.423 751.616 625.756 742.816 635.089C734.149 644.289 722.216 648.889 707.016 648.889ZM676.816 598.289C676.816 603.356 677.349 608.289 678.416 613.089C679.482 617.889 681.216 622.089 683.616 625.689C686.016 629.423 689.149 632.423 693.016 634.689C696.882 636.823 701.616 637.889 707.216 637.889C712.416 637.889 716.882 636.756 720.616 634.489C724.349 632.223 727.416 629.223 729.816 625.489C732.216 621.889 733.949 617.689 735.016 612.889C736.216 608.089 736.816 603.156 736.816 598.089C736.816 593.156 736.282 588.289 735.216 583.489C734.149 578.556 732.416 574.156 730.016 570.289C727.616 566.556 724.482 563.489 720.616 561.089C716.749 558.689 712.016 557.489 706.416 557.489C700.949 557.489 696.349 558.623 692.616 560.889C688.882 563.156 685.816 566.223 683.416 570.089C681.016 573.823 679.282 578.156 678.216 583.089C677.282 588.023 676.816 593.089 676.816 598.289ZM786.278 559.689C785.211 559.023 783.945 558.556 782.478 558.289C781.011 557.889 779.678 557.689 778.478 557.689C776.745 557.689 775.345 557.223 774.278 556.289C773.345 555.223 772.878 554.023 772.878 552.689C772.878 551.489 773.345 550.489 774.278 549.689C775.345 548.889 776.545 548.489 777.878 548.489H798.078C801.145 548.489 803.545 549.556 805.278 551.689C807.011 553.689 807.878 555.756 807.878 557.889V569.689C808.145 568.356 808.878 566.423 810.078 563.889C811.411 561.223 813.211 558.623 815.478 556.089C817.878 553.556 820.811 551.356 824.278 549.489C827.878 547.489 832.145 546.489 837.078 546.489C845.345 546.489 851.745 548.623 856.278 552.889C860.945 557.156 863.678 562.423 864.478 568.689C864.878 567.223 865.611 565.289 866.678 562.889C867.878 560.356 869.678 557.889 872.078 555.489C874.345 553.089 877.278 551.023 880.878 549.289C884.611 547.423 889.278 546.489 894.878 546.489C904.078 546.489 910.945 549.556 915.478 555.689C920.145 561.823 922.478 570.023 922.478 580.289V646.889H905.278V585.289C905.278 578.623 904.145 572.889 901.878 568.089C899.745 563.156 895.545 560.689 889.278 560.689C885.278 560.689 881.745 561.956 878.678 564.489C875.611 567.023 873.078 570.089 871.078 573.689C869.078 577.289 867.545 581.156 866.478 585.289C865.545 589.289 865.078 592.756 865.078 595.689V646.889H847.878V579.689C847.878 574.889 846.745 570.489 844.478 566.489C842.345 562.489 838.278 560.489 832.278 560.489C829.345 560.489 826.411 561.556 823.478 563.689C820.678 565.823 818.078 568.556 815.678 571.889C813.411 575.356 811.545 579.289 810.078 583.689C808.611 587.956 807.878 592.356 807.878 596.889V646.889H790.678V574.689C790.678 572.956 790.611 571.356 790.478 569.889C790.478 568.423 790.345 567.089 790.078 565.889C789.811 564.689 789.345 563.556 788.678 562.489C788.145 561.423 787.345 560.489 786.278 559.689ZM979.239 586.289V603.289C979.239 606.223 979.639 609.623 980.439 613.489C981.239 617.356 982.639 621.089 984.639 624.689C986.506 628.156 989.039 631.089 992.239 633.489C995.572 635.889 999.639 637.089 1004.44 637.089C1009.64 637.089 1013.91 635.889 1017.24 633.489C1020.71 630.956 1023.51 627.689 1025.64 623.689C1027.64 619.823 1029.04 615.556 1029.84 610.889C1030.77 606.089 1031.24 601.489 1031.24 597.089C1031.24 593.089 1030.77 588.823 1029.84 584.289C1029.04 579.623 1027.57 575.356 1025.44 571.489C1023.44 567.623 1020.64 564.356 1017.04 561.689C1013.57 559.023 1009.24 557.689 1004.04 557.689C998.039 557.689 992.506 560.223 987.439 565.289C982.372 570.223 979.639 577.223 979.239 586.289ZM979.039 557.689V561.889C979.306 560.956 980.172 559.623 981.639 557.889C983.106 556.156 985.039 554.423 987.439 552.689C989.706 551.089 992.372 549.689 995.439 548.489C998.639 547.156 1002.17 546.489 1006.04 546.489C1018.84 546.489 1029.24 550.956 1037.24 559.889C1045.24 568.823 1049.24 581.089 1049.24 596.689C1049.24 603.489 1048.44 610.023 1046.84 616.289C1045.37 622.556 1042.97 628.156 1039.64 633.089C1036.31 637.889 1031.91 641.689 1026.44 644.489C1021.11 647.423 1014.57 648.889 1006.84 648.889C1000.04 648.889 994.239 647.289 989.439 644.089C984.639 641.023 981.239 637.689 979.239 634.089V683.289H961.839V574.689C961.839 572.956 961.772 571.356 961.639 569.889C961.639 568.423 961.506 567.089 961.239 565.889C960.972 564.689 960.506 563.556 959.839 562.489C959.306 561.423 958.506 560.489 957.439 559.689C956.372 559.023 955.106 558.556 953.639 558.289C952.172 557.889 950.839 557.689 949.639 557.689C947.906 557.689 946.506 557.223 945.439 556.289C944.506 555.223 944.039 554.023 944.039 552.689C944.039 551.489 944.506 550.489 945.439 549.689C946.506 548.889 947.706 548.489 949.039 548.489H969.239C972.306 548.489 974.706 549.556 976.439 551.689C978.172 553.689 979.039 555.689 979.039 557.689ZM1101.55 512.289V646.889H1084.15V528.689C1084.15 527.089 1084.09 525.556 1083.95 524.089C1083.95 522.623 1083.82 521.289 1083.55 520.089C1083.29 518.889 1082.82 517.756 1082.15 516.689C1081.62 515.623 1080.82 514.689 1079.75 513.889C1078.69 513.223 1077.42 512.689 1075.95 512.289C1074.49 511.756 1073.15 511.489 1071.95 511.489C1070.22 511.489 1068.82 511.089 1067.75 510.289C1066.82 509.356 1066.35 508.223 1066.35 506.889C1066.35 505.689 1066.82 504.689 1067.75 503.889C1068.82 503.089 1070.02 502.689 1071.35 502.689H1091.75C1094.82 502.689 1097.22 503.756 1098.95 505.889C1100.69 507.889 1101.55 510.023 1101.55 512.289ZM1187.46 647.089C1180.39 646.956 1173.79 645.556 1167.66 642.889C1161.53 640.356 1156.19 636.756 1151.66 632.089C1146.99 627.423 1143.33 621.756 1140.66 615.089C1138.13 608.423 1136.86 600.823 1136.86 592.289C1136.86 584.556 1138.06 577.756 1140.46 571.889C1142.86 565.889 1146.26 560.889 1150.66 556.889C1154.93 552.889 1159.99 549.889 1165.86 547.889C1171.86 545.756 1178.39 544.689 1185.46 544.689C1190.66 544.689 1195.79 545.623 1200.86 547.489C1206.06 549.356 1210.73 552.089 1214.86 555.689C1218.86 559.289 1222.13 563.689 1224.66 568.889C1227.19 574.089 1228.46 579.956 1228.46 586.489V598.489H1155.46C1156.39 609.156 1159.93 617.823 1166.06 624.489C1172.33 631.023 1181.06 634.823 1192.26 635.889C1194.26 636.156 1197.99 636.089 1203.46 635.689C1209.06 635.156 1214.73 633.689 1220.46 631.289C1221.79 630.756 1222.93 630.823 1223.86 631.489C1224.93 632.023 1225.66 632.889 1226.06 634.089C1226.46 635.156 1226.46 636.356 1226.06 637.689C1225.66 639.023 1224.73 640.023 1223.26 640.689C1218.33 643.089 1213.06 644.823 1207.46 645.889C1201.99 647.089 1195.33 647.489 1187.46 647.089ZM1184.86 554.889C1181.39 554.889 1177.99 555.556 1174.66 556.889C1171.46 558.089 1168.53 559.956 1165.86 562.489C1163.06 565.023 1160.73 568.289 1158.86 572.289C1156.99 576.289 1155.86 581.023 1155.46 586.489H1210.46C1210.33 580.489 1209.53 575.489 1208.06 571.489C1206.59 567.356 1204.66 564.089 1202.26 561.689C1199.86 559.289 1197.13 557.556 1194.06 556.489C1191.13 555.423 1188.06 554.889 1184.86 554.889ZM1310.34 635.889V647.289C1307.94 647.823 1304.94 648.223 1301.34 648.489C1297.87 648.756 1295.14 648.889 1293.14 648.889C1286.6 648.889 1281.4 648.223 1277.54 646.889C1273.67 645.689 1270.67 643.823 1268.54 641.289C1266.54 638.756 1265.2 635.689 1264.54 632.089C1264 628.356 1263.74 624.089 1263.74 619.289V560.289H1247.74V548.489H1263.74V531.889L1280.74 515.889V548.489H1308.34V560.289H1280.94V623.289C1280.94 626.356 1281.27 628.823 1281.94 630.689C1282.6 632.556 1283.74 633.889 1285.34 634.689C1287.47 635.889 1290.8 636.689 1295.34 637.089C1300 637.489 1305 637.089 1310.34 635.889ZM1382.46 647.089C1375.39 646.956 1368.79 645.556 1362.66 642.889C1356.53 640.356 1351.19 636.756 1346.66 632.089C1341.99 627.423 1338.33 621.756 1335.66 615.089C1333.13 608.423 1331.86 600.823 1331.86 592.289C1331.86 584.556 1333.06 577.756 1335.46 571.889C1337.86 565.889 1341.26 560.889 1345.66 556.889C1349.93 552.889 1354.99 549.889 1360.86 547.889C1366.86 545.756 1373.39 544.689 1380.46 544.689C1385.66 544.689 1390.79 545.623 1395.86 547.489C1401.06 549.356 1405.73 552.089 1409.86 555.689C1413.86 559.289 1417.13 563.689 1419.66 568.889C1422.19 574.089 1423.46 579.956 1423.46 586.489V598.489H1350.46C1351.39 609.156 1354.93 617.823 1361.06 624.489C1367.33 631.023 1376.06 634.823 1387.26 635.889C1389.26 636.156 1392.99 636.089 1398.46 635.689C1404.06 635.156 1409.73 633.689 1415.46 631.289C1416.79 630.756 1417.93 630.823 1418.86 631.489C1419.93 632.023 1420.66 632.889 1421.06 634.089C1421.46 635.156 1421.46 636.356 1421.06 637.689C1420.66 639.023 1419.73 640.023 1418.26 640.689C1413.33 643.089 1408.06 644.823 1402.46 645.889C1396.99 647.089 1390.33 647.489 1382.46 647.089ZM1379.86 554.889C1376.39 554.889 1372.99 555.556 1369.66 556.889C1366.46 558.089 1363.53 559.956 1360.86 562.489C1358.06 565.023 1355.73 568.289 1353.86 572.289C1351.99 576.289 1350.86 581.023 1350.46 586.489H1405.46C1405.33 580.489 1404.53 575.489 1403.06 571.489C1401.59 567.356 1399.66 564.089 1397.26 561.689C1394.86 559.289 1392.13 557.556 1389.06 556.489C1386.13 555.423 1383.06 554.889 1379.86 554.889Z" fill="#6255A4"/>
</g>
<path d="M103.184 77.7956C79.3181 54.535 131.56 34.0644 126.758 70.5469C189.604 71.2254 201.004 110.906 202.794 139.009C203.581 210.57 90.4214 265.672 56.1362 167.277C21.3706 176.141 28.0352 129.26 55.8801 140.354C61.1603 109.103 87.4817 85.1484 103.184 77.7956Z" fill="#FEAD55" stroke="#E67F51" stroke-width="10"/>
<circle cx="123.317" cy="109.781" r="5.08507" transform="rotate(-53.9313 123.317 109.781)" fill="white"/>
<circle cx="92.985" cy="151.425" r="5.08507" transform="rotate(-53.9313 92.985 151.425)" fill="white"/>
<path fill-rule="evenodd" clip-rule="evenodd" d="M157.232 120.096C169.939 129.351 170.378 150.394 158.212 167.096C146.047 183.798 125.884 189.834 113.178 180.579C100.471 171.324 100.032 150.281 112.197 133.579C124.362 116.877 144.525 110.841 157.232 120.096ZM126.991 143.508C128.919 140.481 129.024 137.096 127.148 135.729C125.15 134.274 121.664 135.659 119.36 138.822C117.056 141.984 116.808 145.728 118.806 147.183C120.693 148.558 123.912 147.397 126.204 144.595L141.658 156.589L143.151 154.54L126.991 143.508Z" fill="white"/>
<circle cx="122.464" cy="111.603" r="3.38889" transform="rotate(-53.9313 122.464 111.603)" fill="black"/>
<circle cx="91.7255" cy="153.248" r="3.06093" transform="rotate(-53.9313 91.7255 153.248)" fill="black"/>
<path d="M433.417 695.552C428.49 662.592 482.47 677.904 456.571 704.044C506.197 742.612 491.264 781.102 475.684 804.56C433.01 862.01 309.576 837.41 341.816 738.326C308.773 724.347 342.446 691.055 357.902 716.736C381.016 695.05 416.466 691.905 433.417 695.552Z" fill="#FEAD55" stroke="#E67F51" stroke-width="10"/>
<circle cx="430.092" cy="733.2" r="5.08507" transform="rotate(-16.6967 430.092 733.2)" fill="white"/>
<circle cx="380.745" cy="748.002" r="5.08507" transform="rotate(-16.6967 380.745 748.002)" fill="white"/>
<path fill-rule="evenodd" clip-rule="evenodd" d="M450.853 761.933C455.37 776.991 442.987 794.01 423.195 799.946C403.404 805.883 383.698 798.489 379.182 783.431C374.665 768.374 387.048 751.355 406.84 745.419C426.631 739.482 446.337 746.876 450.853 761.933ZM412.611 762.275C415.977 761.032 418.109 758.4 417.442 756.177C416.732 753.81 413.118 752.802 409.371 753.926C405.623 755.051 403.16 757.881 403.87 760.248C404.541 762.485 407.806 763.508 411.326 762.664L416.373 781.565L418.801 780.836L412.611 762.275Z" fill="white"/>
<circle cx="428.31" cy="734.134" r="3.38889" transform="rotate(-16.6967 428.31 734.134)" fill="black"/>
<circle cx="378.639" cy="748.691" r="3.06093" transform="rotate(-16.6967 378.639 748.691)" fill="black"/>
<path d="M173.478 672.182C198.131 649.757 215.425 703.135 179.297 696.148C174.842 758.84 134.548 767.835 106.388 767.932C34.9086 764.416 -13.2912 648.149 86.9865 619.84C80.2281 584.604 126.624 594.075 113.876 621.203C144.754 628.352 167.082 656.065 173.478 672.182Z" fill="#FEAD55" stroke="#E67F51" stroke-width="10"/>
<circle cx="140.34" cy="690.356" r="5.08507" transform="rotate(39.5148 140.34 690.356)" fill="white"/>
<circle cx="100.595" cy="657.575" r="5.08507" transform="rotate(39.5148 100.595 657.575)" fill="white"/>
<path fill-rule="evenodd" clip-rule="evenodd" d="M128.005 723.589C118.003 735.717 96.9721 734.89 81.0316 721.743C65.0911 708.596 60.2774 688.107 70.2797 675.979C80.2821 663.852 101.313 664.678 117.253 677.825C133.194 690.973 138.008 711.462 128.005 723.589ZM106.454 691.996C109.359 694.103 112.732 694.411 114.209 692.62C115.781 690.714 114.609 687.15 111.59 684.66C108.572 682.17 104.85 681.698 103.277 683.604C101.791 685.406 102.757 688.688 105.416 691.145L92.5141 705.85L94.4703 707.464L106.454 691.996Z" fill="white"/>
<circle cx="138.572" cy="689.394" r="3.38889" transform="rotate(39.5148 138.572 689.394)" fill="black"/>
<circle cx="98.8513" cy="656.208" r="3.06093" transform="rotate(39.5148 98.8513 656.208)" fill="black"/>
<path d="M484.478 388.871C509.131 366.446 526.425 419.824 490.297 412.837C485.842 475.529 445.548 484.524 417.388 484.621C345.909 481.105 297.709 364.838 397.987 336.529C391.228 301.294 437.624 310.764 424.876 337.892C455.754 345.041 478.082 372.755 484.478 388.871Z" fill="#FEAD55" stroke="#E67F51" stroke-width="10"/>
<circle cx="451.34" cy="407.045" r="5.08507" transform="rotate(39.5148 451.34 407.045)" fill="white"/>
<circle cx="411.595" cy="374.265" r="5.08507" transform="rotate(39.5148 411.595 374.265)" fill="white"/>
<path fill-rule="evenodd" clip-rule="evenodd" d="M439.005 440.279C429.003 452.406 407.972 451.579 392.032 438.432C376.091 425.285 371.277 404.796 381.28 392.668C391.282 380.541 412.313 381.367 428.253 394.515C444.194 407.662 449.008 428.151 439.005 440.279ZM417.454 408.685C420.359 410.792 423.732 411.1 425.209 409.309C426.781 407.403 425.609 403.839 422.59 401.349C419.572 398.86 415.85 398.387 414.277 400.293C412.791 402.095 413.757 405.378 416.416 407.834L403.514 422.539L405.47 424.153L417.454 408.685Z" fill="white"/>
<circle cx="449.572" cy="406.083" r="3.38889" transform="rotate(39.5148 449.572 406.083)" fill="black"/>
<circle cx="409.851" cy="372.898" r="3.06093" transform="rotate(39.5148 409.851 372.898)" fill="black"/>
<path d="M1498.69 907.646C1492.63 874.875 1547.11 888.316 1522.13 915.334C1573.05 952.166 1559.46 991.149 1544.7 1015.13C1504.03 1074.02 1379.82 1053.69 1408.62 953.556C1375.12 940.726 1407.62 906.291 1423.95 931.423C1446.3 908.952 1481.63 904.586 1498.69 907.646Z" fill="#FEAD55" stroke="#E67F51" stroke-width="10"/>
<circle cx="1496.67" cy="945.387" r="5.08507" transform="rotate(-18.6743 1496.67 945.387)" fill="white"/>
<circle cx="1447.86" cy="961.883" r="5.08507" transform="rotate(-18.6743 1447.86 961.883)" fill="white"/>
<path fill-rule="evenodd" clip-rule="evenodd" d="M1518.41 973.386C1523.44 988.279 1511.65 1005.72 1492.08 1012.33C1472.5 1018.95 1452.55 1012.24 1447.52 997.345C1442.49 982.452 1454.28 965.016 1473.85 958.4C1493.43 951.784 1513.37 958.494 1518.41 973.386ZM1480.2 975.047C1483.52 973.689 1485.56 970.985 1484.82 968.786C1484.03 966.445 1480.38 965.563 1476.67 966.816C1472.97 968.068 1470.6 970.982 1471.39 973.323C1472.14 975.536 1475.44 976.445 1478.93 975.481L1484.63 994.196L1487.03 993.384L1480.2 975.047Z" fill="white"/>
<circle cx="1494.92" cy="946.382" r="3.38889" transform="rotate(-18.6743 1494.92 946.382)" fill="black"/>
<circle cx="1445.78" cy="962.643" r="3.06093" transform="rotate(-18.6743 1445.78 962.643)" fill="black"/>
<path d="M1501.93 157.066C1531.23 172.956 1486.52 206.868 1481.22 170.455C1420.56 186.901 1398.79 151.819 1389.43 125.263C1369.2 56.6153 1463.1 -27.1949 1522.86 58.1601C1553.9 40.1717 1560.24 87.0972 1530.43 83.998C1533.85 115.507 1515.04 145.719 1501.93 157.066Z" fill="#FEAD55" stroke="#E67F51" stroke-width="10"/>
<circle cx="1473.86" cy="131.765" r="5.08507" transform="rotate(110.281 1473.86 131.765)" fill="white"/>
<circle cx="1491.71" cy="83.4395" r="5.08507" transform="rotate(110.281 1491.71 83.4395)" fill="white"/>
<path fill-rule="evenodd" clip-rule="evenodd" d="M1438.41 131.067C1423.67 125.618 1417.52 105.488 1424.68 86.1066C1431.85 66.7249 1449.61 55.4302 1464.35 60.8793C1479.1 66.3283 1485.24 86.4576 1478.08 105.839C1470.92 125.221 1453.16 136.516 1438.41 131.067ZM1461.14 100.311C1460.11 103.748 1460.93 107.034 1463.11 107.838C1465.43 108.695 1468.41 106.414 1469.76 102.744C1471.12 99.0734 1470.34 95.4036 1468.02 94.547C1465.83 93.7374 1463.05 95.7304 1461.61 99.0502L1443.47 91.7128L1442.59 94.0913L1461.14 100.311Z" fill="white"/>
<circle cx="1474.18" cy="129.779" r="3.38889" transform="rotate(110.281 1474.18 129.779)" fill="black"/>
<circle cx="1492.43" cy="81.3432" r="3.06093" transform="rotate(110.281 1492.43 81.3432)" fill="black"/>
<path d="M1766.48 618.422C1793.97 599.594 1803.78 654.841 1768.95 642.961C1755.93 704.448 1714.78 707.825 1686.88 704.056C1616.56 690.76 1584.77 568.977 1687.99 554.703C1686.13 518.873 1730.79 534.623 1714.44 559.744C1744.04 571.064 1762.35 601.581 1766.48 618.422Z" fill="#FEAD55" stroke="#E67F51" stroke-width="10"/>
<circle cx="1731.16" cy="631.876" r="5.08507" transform="rotate(47.4053 1731.16 631.876)" fill="white"/>
<circle cx="1696.29" cy="593.949" r="5.08507" transform="rotate(47.4053 1696.29 593.949)" fill="white"/>
<path fill-rule="evenodd" clip-rule="evenodd" d="M1714.38 663.101C1702.8 673.741 1682.09 670.035 1668.1 654.824C1654.12 639.612 1652.16 618.656 1663.73 608.017C1675.31 597.377 1696.02 601.083 1710.01 616.294C1723.99 631.505 1725.95 652.461 1714.38 663.101ZM1697.37 628.848C1699.96 631.334 1703.25 632.102 1704.96 630.531C1706.78 628.858 1706.11 625.167 1703.46 622.287C1700.81 619.406 1697.19 618.427 1695.37 620.1C1693.65 621.681 1694.16 625.064 1696.46 627.863L1681.66 640.658L1683.37 642.524L1697.37 628.848Z" fill="white"/>
<circle cx="1729.54" cy="630.68" r="3.38889" transform="rotate(47.4053 1729.54 630.68)" fill="black"/>
<circle cx="1694.75" cy="592.356" r="3.06093" transform="rotate(47.4053 1694.75 592.356)" fill="black"/>
<path d="M783.971 74.2382C788.721 41.2522 836.026 71.4281 803.709 89.0251C840.161 140.224 814.799 172.801 793.137 190.794C735.756 233.562 624.594 174.535 683.942 88.8913C656.309 66.0087 698.127 43.7945 705.554 72.8332C733.923 58.702 768.782 65.8746 783.971 74.2382Z" fill="#FEAD55" stroke="#E67F51" stroke-width="10"/>
<circle cx="769.97" cy="109.344" r="5.08507" fill="white"/>
<circle cx="718.45" cy="109.344" r="5.08507" fill="white"/>
<path fill-rule="evenodd" clip-rule="evenodd" d="M781.6 142.831C781.6 158.551 764.849 171.294 744.187 171.294C723.524 171.294 706.773 158.551 706.773 142.831C706.773 127.11 723.524 114.367 744.187 114.367C764.849 114.367 781.6 127.11 781.6 142.831ZM744.872 132.17C748.453 131.947 751.251 130.039 751.251 127.718C751.251 125.246 748.079 123.243 744.166 123.243C740.254 123.243 737.082 125.246 737.082 127.718C737.082 130.053 739.915 131.971 743.529 132.174L742.933 151.728H745.468L744.872 132.17Z" fill="white"/>
<circle cx="767.994" cy="109.727" r="3.38889" fill="black"/>
<circle cx="716.236" cy="109.399" r="3.06093" fill="black"/>
<path d="M1648.37 330.814C1616.28 339.818 1624.73 284.349 1653.9 306.78C1685.97 252.727 1726.02 262.736 1751.24 275.264C1813.57 310.429 1804.58 435.97 1702.25 416.356C1692.5 450.886 1655.27 421.634 1678.82 403.092C1654.41 382.868 1646.87 348.087 1648.37 330.814Z" fill="#FEAD55" stroke="#E67F51" stroke-width="10"/>
<circle cx="1686.14" cy="329.41" r="5.08507" transform="rotate(-113.871 1686.14 329.41)" fill="white"/>
<circle cx="1706.98" cy="376.523" r="5.08507" transform="rotate(-113.871 1706.98 376.523)" fill="white"/>
<path fill-rule="evenodd" clip-rule="evenodd" d="M1712.05 305.224C1726.43 298.862 1744.86 309.023 1753.22 327.918C1761.58 346.813 1756.71 367.288 1742.33 373.65C1727.96 380.011 1709.52 369.851 1701.16 350.956C1692.8 332.06 1697.68 311.586 1712.05 305.224ZM1717.17 343.124C1715.51 339.94 1712.63 338.153 1710.51 339.092C1708.25 340.093 1707.7 343.804 1709.29 347.382C1710.87 350.96 1713.99 353.05 1716.25 352.05C1718.38 351.105 1718.99 347.738 1717.71 344.35L1735.84 336.983L1734.81 334.664L1717.17 343.124Z" fill="white"/>
<circle cx="1687.29" cy="331.062" r="3.38889" transform="rotate(-113.871 1687.29 331.062)" fill="black"/>
<circle cx="1707.93" cy="378.526" r="3.06093" transform="rotate(-113.871 1707.93 378.526)" fill="black"/>
<path d="M1542 748.189C1542 766.691 1527 781.689 1508.5 781.689C1490 781.689 1475 766.691 1475 748.189C1475 729.688 1490 714.689 1508.5 714.689C1527 714.689 1542 729.688 1542 748.189Z" fill="#D8DBF6"/>
<path d="M1497 701.189C1497 708.645 1490.95 714.689 1483.5 714.689C1476.04 714.689 1470 708.645 1470 701.189C1470 693.733 1476.04 687.689 1483.5 687.689C1490.95 687.689 1497 693.733 1497 701.189Z" fill="#D8DBF6"/>
<path d="M1524 692.189C1524 699.645 1517.95 705.689 1510.5 705.689C1503.04 705.689 1497 699.645 1497 692.189C1497 684.733 1503.04 678.689 1510.5 678.689C1517.95 678.689 1524 684.733 1524 692.189Z" fill="#D8DBF6"/>
<path d="M1554 705.189C1554 712.645 1547.95 718.689 1540.5 718.689C1533.04 718.689 1527 712.645 1527 705.189C1527 697.733 1533.04 691.689 1540.5 691.689C1547.95 691.689 1554 697.733 1554 705.189Z" fill="#D8DBF6"/>
<path d="M1182.19 951.831C1198.21 942.581 1218.7 948.071 1227.95 964.093C1237.2 980.116 1231.71 1000.6 1215.69 1009.86C1199.66 1019.11 1179.18 1013.62 1169.93 997.593C1160.68 981.571 1166.16 961.082 1182.19 951.831Z" fill="#D8DBF6"/>
<path d="M1163.98 1014.3C1170.44 1010.57 1178.7 1012.79 1182.43 1019.24C1186.15 1025.7 1183.94 1033.96 1177.48 1037.69C1171.03 1041.41 1162.77 1039.2 1159.04 1032.74C1155.32 1026.29 1157.53 1018.03 1163.98 1014.3Z" fill="#D8DBF6"/>
<path d="M1142.69 995.42C1149.15 991.692 1157.4 993.904 1161.13 1000.36C1164.86 1006.82 1162.65 1015.07 1156.19 1018.8C1149.73 1022.53 1141.48 1020.32 1137.75 1013.86C1134.02 1007.4 1136.23 999.148 1142.69 995.42Z" fill="#D8DBF6"/>
<path d="M1138.95 962.939C1145.41 959.211 1153.66 961.424 1157.39 967.88C1161.12 974.337 1158.91 982.594 1152.45 986.322C1145.99 990.05 1137.74 987.837 1134.01 981.38C1130.28 974.924 1132.49 966.667 1138.95 962.939Z" fill="#D8DBF6"/>
<path d="M334.679 577.338C339.156 595.29 328.233 613.472 310.281 617.949C292.33 622.426 274.147 611.503 269.67 593.552C265.193 575.6 276.116 557.418 294.068 552.941C312.019 548.463 330.202 559.387 334.679 577.338Z" fill="#D8DBF6"/>
<path d="M279.642 542.625C281.446 549.859 277.045 557.186 269.81 558.99C262.576 560.795 255.249 556.393 253.445 549.159C251.64 541.924 256.042 534.597 263.276 532.793C270.511 530.989 277.838 535.391 279.642 542.625Z" fill="#D8DBF6"/>
<path d="M303.662 527.358C305.466 534.593 301.064 541.92 293.83 543.724C286.596 545.528 279.268 541.126 277.464 533.892C275.66 526.658 280.062 519.331 287.296 517.527C294.53 515.722 301.857 520.124 303.662 527.358Z" fill="#D8DBF6"/>
<path d="M335.917 532.712C337.721 539.947 333.319 547.274 326.085 549.078C318.85 550.882 311.523 546.48 309.719 539.246C307.915 532.012 312.317 524.685 319.551 522.88C326.785 521.076 334.112 525.478 335.917 532.712Z" fill="#D8DBF6"/>
<path d="M578.679 967.028C583.156 984.979 572.233 1003.16 554.281 1007.64C536.33 1012.12 518.147 1001.19 513.67 983.241C509.193 965.289 520.116 947.107 538.068 942.63C556.019 938.153 574.202 949.076 578.679 967.028Z" fill="#D8DBF6"/>
<path d="M523.642 932.314C525.446 939.548 521.045 946.875 513.81 948.68C506.576 950.484 499.249 946.082 497.445 938.848C495.64 931.614 500.042 924.286 507.276 922.482C514.511 920.678 521.838 925.08 523.642 932.314Z" fill="#D8DBF6"/>
<path d="M547.662 917.048C549.466 924.282 545.064 931.609 537.83 933.413C530.596 935.218 523.268 930.816 521.464 923.582C519.66 916.347 524.062 909.02 531.296 907.216C538.53 905.412 545.857 909.814 547.662 917.048Z" fill="#D8DBF6"/>
<path d="M579.917 922.402C581.721 929.636 577.319 936.963 570.085 938.767C562.85 940.572 555.523 936.17 553.719 928.935C551.915 921.701 556.317 914.374 563.551 912.57C570.785 910.766 578.112 915.167 579.917 922.402Z" fill="#D8DBF6"/>
<path d="M1750.41 1040.04C1736.8 1052.57 1715.6 1051.7 1703.07 1038.08C1690.54 1024.47 1691.42 1003.28 1705.03 990.749C1718.64 978.218 1739.84 979.095 1752.37 992.707C1764.9 1006.32 1764.02 1027.51 1750.41 1040.04Z" fill="#D8DBF6"/>
<path d="M1754.51 975.103C1749.03 980.153 1740.49 979.8 1735.44 974.314C1730.39 968.829 1730.74 960.288 1736.23 955.239C1741.71 950.189 1750.25 950.542 1755.3 956.028C1760.35 961.513 1760 970.054 1754.51 975.103Z" fill="#D8DBF6"/>
<path d="M1779.42 988.873C1773.93 993.922 1765.39 993.569 1760.34 988.084C1755.3 982.598 1755.65 974.058 1761.13 969.008C1766.62 963.958 1775.16 964.312 1780.21 969.797C1785.26 975.283 1784.91 983.823 1779.42 988.873Z" fill="#D8DBF6"/>
<path d="M1790.17 1019.75C1784.69 1024.8 1776.15 1024.45 1771.1 1018.96C1766.05 1013.47 1766.4 1004.93 1771.89 999.885C1777.37 994.835 1785.91 995.188 1790.96 1000.67C1796.01 1006.16 1795.66 1014.7 1790.17 1019.75Z" fill="#D8DBF6"/>
<path d="M1427.41 503.732C1413.8 516.263 1392.6 515.386 1380.07 501.774C1367.54 488.162 1368.42 466.969 1382.03 454.438C1395.64 441.908 1416.84 442.785 1429.37 456.397C1441.9 470.009 1441.02 491.202 1427.41 503.732Z" fill="#D8DBF6"/>
<path d="M1431.51 438.793C1426.03 443.842 1417.49 443.489 1412.44 438.003C1407.39 432.518 1407.74 423.977 1413.23 418.928C1418.71 413.878 1427.25 414.232 1432.3 419.717C1437.35 425.203 1437 433.743 1431.51 438.793Z" fill="#D8DBF6"/>
<path d="M1456.42 452.562C1450.93 457.612 1442.39 457.258 1437.34 451.773C1432.3 446.287 1432.65 437.747 1438.13 432.697C1443.62 427.648 1452.16 428.001 1457.21 433.487C1462.26 438.972 1461.91 447.512 1456.42 452.562Z" fill="#D8DBF6"/>
<path d="M1467.17 483.439C1461.69 488.488 1453.15 488.135 1448.1 482.649C1443.05 477.164 1443.4 468.623 1448.89 463.574C1454.37 458.524 1462.91 458.878 1467.96 464.363C1473.01 469.849 1472.66 478.389 1467.17 483.439Z" fill="#D8DBF6"/>
<path d="M1738.14 123.189C1740.76 141.503 1728.05 158.479 1709.73 161.105C1691.42 163.731 1674.44 151.014 1671.81 132.7C1669.19 114.385 1681.91 97.4098 1700.22 94.7835C1718.53 92.1571 1735.51 104.875 1738.14 123.189Z" fill="#D8DBF6"/>
<path d="M1686.92 83.0526C1687.98 90.433 1682.85 97.2739 1675.47 98.3323C1668.09 99.3907 1661.25 94.2657 1660.19 86.8853C1659.14 79.505 1664.26 72.6641 1671.64 71.6057C1679.02 70.5473 1685.86 75.6723 1686.92 83.0526Z" fill="#D8DBF6"/>
<path d="M1712.37 70.3111C1713.43 77.6914 1708.3 84.5323 1700.92 85.5907C1693.54 86.6491 1686.7 81.5241 1685.64 74.1438C1684.58 66.7634 1689.71 59.9225 1697.09 58.8641C1704.47 57.8057 1711.31 62.9307 1712.37 70.3111Z" fill="#D8DBF6"/>
<path d="M1743.91 78.9208C1744.97 86.3012 1739.84 93.1421 1732.46 94.2005C1725.08 95.2589 1718.24 90.1339 1717.18 82.7536C1716.13 75.3732 1721.25 68.5323 1728.63 67.4739C1736.01 66.4155 1742.85 71.5405 1743.91 78.9208Z" fill="#D8DBF6"/>
<path d="M1245.87 60.7557C1257.84 74.8625 1256.11 96.0028 1242 107.974C1227.89 119.945 1206.75 118.213 1194.78 104.107C1182.81 89.9998 1184.54 68.8596 1198.65 56.8886C1212.75 44.9175 1233.9 46.6489 1245.87 60.7557Z" fill="#D8DBF6"/>
<path d="M1181.14 54.0361C1185.97 59.7209 1185.27 68.2401 1179.59 73.0643C1173.9 77.8884 1165.38 77.1907 1160.56 71.5059C1155.73 65.8211 1156.43 57.3019 1162.12 52.4777C1167.8 47.6536 1176.32 48.3513 1181.14 54.0361Z" fill="#D8DBF6"/>
<path d="M1195.91 29.7042C1200.73 35.389 1200.03 43.9082 1194.35 48.7323C1188.67 53.5565 1180.15 52.8588 1175.32 47.1739C1170.5 41.4891 1171.2 32.9699 1176.88 28.1458C1182.57 23.3216 1191.08 24.0193 1195.91 29.7042Z" fill="#D8DBF6"/>
<path d="M1227.19 20.2054C1232.02 25.8902 1231.32 34.4094 1225.64 39.2335C1219.95 44.0577 1211.43 43.36 1206.61 37.6751C1201.78 31.9903 1202.48 23.4711 1208.17 18.647C1213.85 13.8228 1222.37 14.5205 1227.19 20.2054Z" fill="#D8DBF6"/>
<path d="M777.189 465.832C793.211 456.581 813.7 462.071 822.95 478.093C832.201 494.116 826.711 514.605 810.689 523.855C794.666 533.106 774.178 527.616 764.927 511.593C755.676 495.571 761.166 475.082 777.189 465.832Z" fill="#D8DBF6"/>
<path d="M758.985 528.303C765.442 524.575 773.699 526.787 777.427 533.244C781.155 539.701 778.942 547.958 772.485 551.685C766.028 555.413 757.772 553.201 754.044 546.744C750.316 540.287 752.528 532.031 758.985 528.303Z" fill="#D8DBF6"/>
<path d="M737.691 509.42C744.148 505.692 752.405 507.904 756.133 514.361C759.861 520.818 757.648 529.075 751.191 532.803C744.734 536.531 736.478 534.318 732.75 527.861C729.022 521.404 731.234 513.148 737.691 509.42Z" fill="#D8DBF6"/>
<path d="M733.95 476.939C740.407 473.211 748.664 475.424 752.391 481.881C756.119 488.338 753.907 496.594 747.45 500.322C740.993 504.05 732.737 501.838 729.009 495.381C725.281 488.924 727.493 480.667 733.95 476.939Z" fill="#D8DBF6"/>
<path d="M1022.76 173.517C1038.16 183.774 1042.32 204.571 1032.07 219.969C1021.81 235.367 1001.01 239.535 985.614 229.278C970.216 219.021 966.048 198.224 976.305 182.826C986.562 167.428 1007.36 163.26 1022.76 173.517Z" fill="#D8DBF6"/>
<path d="M958.694 184.913C964.899 189.046 966.579 197.427 962.445 203.632C958.312 209.838 949.931 211.517 943.726 207.384C937.521 203.25 935.841 194.869 939.974 188.664C944.108 182.459 952.489 180.779 958.694 184.913Z" fill="#D8DBF6"/>
<path d="M966.173 157.452C972.378 161.585 974.057 169.967 969.924 176.172C965.791 182.377 957.41 184.057 951.204 179.923C944.999 175.79 943.32 167.409 947.453 161.203C951.586 154.998 959.967 153.319 966.173 157.452Z" fill="#D8DBF6"/>
<path d="M993.623 139.691C999.828 143.825 1001.51 152.206 997.374 158.411C993.241 164.616 984.86 166.296 978.654 162.162C972.449 158.029 970.77 149.648 974.903 143.443C979.036 137.237 987.418 135.558 993.623 139.691Z" fill="#D8DBF6"/>
<path d="M135.279 1006.15C128.457 1023.35 108.984 1031.76 91.7866 1024.94C74.5888 1018.12 66.1777 998.644 72.9999 981.446C79.8221 964.248 99.2941 955.837 116.492 962.66C133.69 969.482 142.101 988.954 135.279 1006.15Z" fill="#D8DBF6"/>
<path d="M110.781 945.87C108.031 952.801 100.184 956.19 93.254 953.441C86.3235 950.692 82.934 942.845 85.6832 935.914C88.4324 928.984 96.2794 925.594 103.21 928.344C110.14 931.093 113.53 938.94 110.781 945.87Z" fill="#D8DBF6"/>
<path d="M139.197 947.46C136.447 954.391 128.6 957.78 121.67 955.031C114.74 952.282 111.35 944.435 114.099 937.505C116.848 930.574 124.695 927.185 131.626 929.934C138.556 932.683 141.946 940.53 139.197 947.46Z" fill="#D8DBF6"/>
<path d="M162.288 970.606C159.539 977.537 151.692 980.926 144.762 978.177C137.831 975.428 134.442 967.581 137.191 960.651C139.94 953.72 147.787 950.331 154.718 953.08C161.648 955.829 165.038 963.676 162.288 970.606Z" fill="#D8DBF6"/>
<path d="M926.279 986.841C919.457 1004.04 899.984 1012.45 882.787 1005.63C865.589 998.805 857.178 979.333 864 962.136C870.822 944.938 890.294 936.527 907.492 943.349C924.69 950.171 933.101 969.643 926.279 986.841Z" fill="#D8DBF6"/>
<path d="M901.781 926.56C899.031 933.49 891.184 936.88 884.254 934.13C877.324 931.381 873.934 923.534 876.683 916.604C879.432 909.673 887.279 906.284 894.21 909.033C901.14 911.782 904.53 919.629 901.781 926.56Z" fill="#D8DBF6"/>
<path d="M930.197 928.15C927.447 935.08 919.6 938.47 912.67 935.72C905.74 932.971 902.35 925.124 905.099 918.194C907.848 911.263 915.695 907.874 922.626 910.623C929.556 913.372 932.946 921.219 930.197 928.15Z" fill="#D8DBF6"/>
<path d="M953.288 951.296C950.539 958.226 942.692 961.616 935.762 958.866C928.831 956.117 925.442 948.27 928.191 941.34C930.94 934.409 938.787 931.02 945.718 933.769C952.648 936.518 956.038 944.365 953.288 951.296Z" fill="#D8DBF6"/>
<path d="M546.88 197.454C554.325 214.391 546.63 234.157 529.692 241.602C512.755 249.047 492.989 241.352 485.544 224.414C478.099 207.477 485.794 187.711 502.732 180.266C519.669 172.821 539.435 180.516 546.88 197.454Z" fill="#D8DBF6"/>
<path d="M486.771 172.535C489.771 179.36 486.67 187.326 479.845 190.326C473.019 193.326 465.054 190.225 462.053 183.399C459.053 176.574 462.154 168.608 468.98 165.608C475.805 162.608 483.771 165.709 486.771 172.535Z" fill="#D8DBF6"/>
<path d="M507.868 153.431C510.868 160.256 507.767 168.222 500.941 171.222C494.116 174.222 486.15 171.121 483.15 164.295C480.15 157.47 483.251 149.505 490.077 146.504C496.902 143.504 504.867 146.605 507.868 153.431Z" fill="#D8DBF6"/>
<path d="M540.563 153.26C543.563 160.085 540.462 168.051 533.637 171.051C526.811 174.051 518.846 170.95 515.845 164.125C512.845 157.299 515.946 149.334 522.772 146.333C529.597 143.333 537.563 146.434 540.563 153.26Z" fill="#D8DBF6"/>
<path d="M228.002 311.12C246.102 314.955 257.665 332.737 253.829 350.837C249.994 368.937 232.212 380.5 214.112 376.664C196.012 372.829 184.449 355.047 188.285 336.947C192.12 318.847 209.902 307.284 228.002 311.12Z" fill="#D8DBF6"/>
<path d="M172.694 345.398C179.988 346.944 184.647 354.11 183.102 361.404C181.556 368.698 174.39 373.358 167.096 371.812C159.802 370.266 155.143 363.1 156.688 355.806C158.234 348.513 165.4 343.853 172.694 345.398Z" fill="#D8DBF6"/>
<path d="M169.487 317.119C176.781 318.665 181.44 325.831 179.895 333.125C178.349 340.419 171.183 345.078 163.889 343.533C156.595 341.987 151.936 334.821 153.481 327.527C155.027 320.233 162.193 315.574 169.487 317.119Z" fill="#D8DBF6"/>
<path d="M188.423 290.466C195.717 292.012 200.377 299.178 198.831 306.471C197.286 313.765 190.12 318.425 182.826 316.879C175.532 315.334 170.872 308.168 172.418 300.874C173.964 293.58 181.129 288.92 188.423 290.466Z" fill="#D8DBF6"/>
<path d="M1700 858.5C1700 877.002 1685 892 1666.5 892C1648 892 1633 877.002 1633 858.5C1633 839.998 1648 825 1666.5 825C1685 825 1700 839.998 1700 858.5Z" fill="#D8DBF6"/>
<path d="M1655 811.5C1655 818.956 1648.96 825 1641.5 825C1634.04 825 1628 818.956 1628 811.5C1628 804.044 1634.04 798 1641.5 798C1648.96 798 1655 804.044 1655 811.5Z" fill="#D8DBF6"/>
<path d="M1682 802.5C1682 809.956 1675.96 816 1668.5 816C1661.04 816 1655 809.956 1655 802.5C1655 795.044 1661.04 789 1668.5 789C1675.96 789 1682 795.044 1682 802.5Z" fill="#D8DBF6"/>
<path d="M1712 815.5C1712 822.956 1705.96 829 1698.5 829C1691.04 829 1685 822.956 1685 815.5C1685 808.044 1691.04 802 1698.5 802C1705.96 802 1712 808.044 1712 815.5Z" fill="#D8DBF6"/>
<path d="M381.679 101.338C386.156 119.29 375.233 137.472 357.281 141.949C339.33 146.427 321.147 135.503 316.67 117.552C312.193 99.6 323.116 81.4179 341.068 76.9406C359.019 72.4634 377.202 83.3866 381.679 101.338Z" fill="#D8DBF6"/>
<path d="M326.642 66.6248C328.446 73.859 324.045 81.1862 316.81 82.9904C309.576 84.7947 302.249 80.3928 300.445 73.1586C298.64 65.9243 303.042 58.5972 310.276 56.7929C317.511 54.9887 324.838 59.3905 326.642 66.6248Z" fill="#D8DBF6"/>
<path d="M350.662 51.3585C352.466 58.5927 348.064 65.9199 340.83 67.7241C333.596 69.5284 326.268 65.1265 324.464 57.8923C322.66 50.658 327.062 43.3309 334.296 41.5266C341.53 39.7224 348.857 44.1243 350.662 51.3585Z" fill="#D8DBF6"/>
<path d="M382.917 56.7124C384.721 63.9466 380.319 71.2738 373.085 73.078C365.85 74.8823 358.523 70.4804 356.719 63.2462C354.915 56.0119 359.317 48.6848 366.551 46.8805C373.785 45.0763 381.112 49.4781 382.917 56.7124Z" fill="#D8DBF6"/>
<path d="M359.679 1011.34C364.156 1029.29 353.233 1047.47 335.281 1051.95C317.33 1056.43 299.147 1045.5 294.67 1027.55C290.193 1009.6 301.116 991.418 319.068 986.941C337.019 982.463 355.202 993.387 359.679 1011.34Z" fill="#D8DBF6"/>
<path d="M304.642 976.625C306.446 983.859 302.045 991.186 294.81 992.99C287.576 994.795 280.249 990.393 278.445 983.159C276.64 975.924 281.042 968.597 288.276 966.793C295.511 964.989 302.838 969.391 304.642 976.625Z" fill="#D8DBF6"/>
<path d="M328.662 961.359C330.466 968.593 326.064 975.92 318.83 977.724C311.596 979.528 304.268 975.127 302.464 967.892C300.66 960.658 305.062 953.331 312.296 951.527C319.53 949.722 326.857 954.124 328.662 961.359Z" fill="#D8DBF6"/>
<path d="M360.917 966.712C362.721 973.947 358.319 981.274 351.085 983.078C343.85 984.882 336.523 980.48 334.719 973.246C332.915 966.012 337.317 958.685 344.551 956.881C351.785 955.076 359.112 959.478 360.917 966.712Z" fill="#D8DBF6"/>
<path d="M1427.41 503.732C1413.8 516.263 1392.6 515.386 1380.07 501.774C1367.54 488.162 1368.42 466.969 1382.03 454.438C1395.64 441.908 1416.84 442.785 1429.37 456.397C1441.9 470.009 1441.02 491.202 1427.41 503.732Z" fill="#D8DBF6"/>
<path d="M1431.51 438.793C1426.03 443.842 1417.49 443.489 1412.44 438.003C1407.39 432.518 1407.74 423.977 1413.22 418.928C1418.71 413.878 1427.25 414.232 1432.3 419.717C1437.35 425.203 1437 433.743 1431.51 438.793Z" fill="#D8DBF6"/>
<path d="M1456.42 452.562C1450.93 457.612 1442.39 457.258 1437.34 451.773C1432.29 446.287 1432.65 437.747 1438.13 432.697C1443.62 427.648 1452.16 428.001 1457.21 433.487C1462.26 438.972 1461.9 447.512 1456.42 452.562Z" fill="#D8DBF6"/>
<path d="M1467.17 483.439C1461.69 488.488 1453.15 488.135 1448.1 482.649C1443.05 477.164 1443.4 468.623 1448.89 463.574C1454.37 458.524 1462.91 458.878 1467.96 464.363C1473.01 469.849 1472.66 478.389 1467.17 483.439Z" fill="#D8DBF6"/>
<path d="M1307.87 247.756C1319.84 261.863 1318.11 283.003 1304 294.974C1289.89 306.945 1268.75 305.213 1256.78 291.107C1244.81 277 1246.54 255.86 1260.65 243.889C1274.75 231.918 1295.9 233.649 1307.87 247.756Z" fill="#D8DBF6"/>
<path d="M1243.14 241.036C1247.97 246.721 1247.27 255.24 1241.59 260.064C1235.9 264.888 1227.38 264.191 1222.56 258.506C1217.73 252.821 1218.43 244.302 1224.12 239.478C1229.8 234.654 1238.32 235.351 1243.14 241.036Z" fill="#D8DBF6"/>
<path d="M1257.91 216.704C1262.73 222.389 1262.03 230.908 1256.35 235.732C1250.67 240.556 1242.15 239.859 1237.32 234.174C1232.5 228.489 1233.2 219.97 1238.88 215.146C1244.57 210.322 1253.08 211.019 1257.91 216.704Z" fill="#D8DBF6"/>
<path d="M1289.19 207.205C1294.02 212.89 1293.32 221.409 1287.64 226.234C1281.95 231.058 1273.43 230.36 1268.61 224.675C1263.78 218.99 1264.48 210.471 1270.17 205.647C1275.85 200.823 1284.37 201.521 1289.19 207.205Z" fill="#D8DBF6"/>
<path d="M713.279 1027.15C706.457 1044.35 686.984 1052.76 669.787 1045.94C652.589 1039.12 644.178 1019.64 651 1002.45C657.822 985.248 677.294 976.837 694.492 983.66C711.69 990.482 720.101 1009.95 713.279 1027.15Z" fill="#D8DBF6"/>
<path d="M688.781 966.87C686.031 973.801 678.184 977.19 671.254 974.441C664.324 971.692 660.934 963.845 663.683 956.914C666.432 949.984 674.279 946.594 681.21 949.344C688.14 952.093 691.53 959.94 688.781 966.87Z" fill="#D8DBF6"/>
<path d="M717.197 968.46C714.447 975.391 706.6 978.78 699.67 976.031C692.74 973.282 689.35 965.435 692.099 958.505C694.848 951.574 702.695 948.185 709.626 950.934C716.556 953.683 719.946 961.53 717.197 968.46Z" fill="#D8DBF6"/>
<path d="M740.288 991.606C737.539 998.537 729.692 1001.93 722.762 999.177C715.831 996.428 712.442 988.581 715.191 981.651C717.94 974.72 725.787 971.331 732.718 974.08C739.648 976.829 743.038 984.676 740.288 991.606Z" fill="#D8DBF6"/>
<path d="M103.917 439.148C122.017 442.983 133.58 460.765 129.744 478.865C125.909 496.964 108.127 508.528 90.0271 504.692C71.9275 500.856 60.3643 483.074 64.1999 464.975C68.0355 446.875 85.8175 435.312 103.917 439.148Z" fill="#D8DBF6"/>
<path d="M48.6088 473.426C55.9027 474.972 60.5625 482.138 59.0168 489.432C57.4711 496.726 50.3053 501.385 43.0114 499.84C35.7175 498.294 31.0577 491.128 32.6034 483.834C34.1491 476.54 41.315 471.881 48.6088 473.426Z" fill="#D8DBF6"/>
<path d="M45.4018 445.147C52.6957 446.693 57.3555 453.859 55.8098 461.152C54.2641 468.446 47.0982 473.106 39.8044 471.56C32.5105 470.015 27.8507 462.849 29.3964 455.555C30.9421 448.261 38.1079 443.601 45.4018 445.147Z" fill="#D8DBF6"/>
<path d="M64.3383 418.494C71.6322 420.04 76.292 427.205 74.7463 434.499C73.2006 441.793 66.0348 446.453 58.7409 444.907C51.447 443.362 46.7872 436.196 48.3329 428.902C49.8786 421.608 57.0445 416.948 64.3383 418.494Z" fill="#D8DBF6"/>
<defs>
<filter id="filter0_d_210_2805" x="521.062" y="304.289" width="922.396" height="399" filterUnits="userSpaceOnUse" color-interpolation-filters="sRGB">
<feFlood flood-opacity="0" result="BackgroundImageFix"/>
<feColorMatrix in="SourceAlpha" type="matrix" values="0 0 0 0 0 0 0 0 0 0 0 0 0 0 0 0 0 0 127 0" result="hardAlpha"/>
<feOffset dx="10" dy="10"/>
<feGaussianBlur stdDeviation="5"/>
<feComposite in2="hardAlpha" operator="out"/>
<feColorMatrix type="matrix" values="0 0 0 0 0 0 0 0 0 0 0 0 0 0 0 0 0 0 0.25 0"/>
<feBlend mode="normal" in2="BackgroundImageFix" result="effect1_dropShadow_210_2805"/>
<feBlend mode="normal" in="SourceGraphic" in2="effect1_dropShadow_210_2805" result="shape"/>
</filter>
</defs>
</svg>
