<svg width="312" height="278" viewBox="0 0 312 278" fill="none" xmlns="http://www.w3.org/2000/svg">
<g filter="url(#filter0_i_1191_803)">
<path d="M42 78.5L47 41L128.5 68.5L119 103C105.333 107.833 78.4 120.5 72 122.5C65.6 124.5 59.8333 119.167 59 117.5L42 78.5Z" fill="#9D4338"/>
<rect x="44" y="36.4189" width="66.8619" height="66.8619" rx="9" transform="rotate(-22.3444 44 36.4189)" fill="#CD5445"/>
</g>
<g filter="url(#filter1_i_1191_803)">
<path d="M223 93.5L228 56L309.5 83.5L300 118C286.333 122.833 259.4 135.5 253 137.5C246.6 139.5 240.833 134.167 240 132.5L223 93.5Z" fill="#9D4338"/>
<rect x="224.5" y="51.4189" width="66.8619" height="66.8619" rx="9" transform="rotate(-22.3444 224.5 51.4189)" fill="#CD5445"/>
</g>
<g filter="url(#filter2_i_1191_803)">
<path d="M149 123.5L154 86L235.5 113.5L226 148C212.333 152.833 185.4 165.5 179 167.5C172.6 169.5 166.833 164.167 166 162.5L149 123.5Z" fill="#37A25D"/>
<rect x="150.5" y="81.4189" width="66.8619" height="66.8619" rx="9" transform="rotate(-22.3444 150.5 81.4189)" fill="#44BD6F"/>
</g>
<g filter="url(#filter3_i_1191_803)">
<path d="M75 154.5L80 117L161.5 144.5L152 179C138.333 183.833 111.4 196.5 105 198.5C98.6 200.5 92.8333 195.167 92 193.5L75 154.5Z" fill="#B39224"/>
<rect x="77" y="112.419" width="66.8619" height="66.8619" rx="9" transform="rotate(-22.3444 77 112.419)" fill="#E2B726"/>
</g>
<g filter="url(#filter4_i_1191_803)">
<path d="M0 190.5L5 153L86.5 180.5L77 215C63.3333 219.833 36.4 232.5 30 234.5C23.6 236.5 17.8333 231.167 17 229.5L0 190.5Z" fill="#3381AD"/>
<rect x="1.5" y="148.419" width="66.8619" height="66.8619" rx="9" transform="rotate(-22.3444 1.5 148.419)" fill="#3996CB"/>
</g>
<g filter="url(#filter5_i_1191_803)">
<path d="M106 233.5L111 196L192.5 223.5L183 258C169.333 262.833 142.4 275.5 136 277.5C129.6 279.5 123.833 274.167 123 272.5L106 233.5Z" fill="#9D4338"/>
<rect x="108" y="191.419" width="66.8619" height="66.8619" rx="9" transform="rotate(-22.3444 108 191.419)" fill="#CD5445"/>
</g>
<path d="M71.2344 49.1851C70.7903 48.8501 70.3065 48.3477 69.7829 47.678C69.2592 47.0083 68.8405 46.2538 68.5268 45.4145C67.9442 43.8558 67.8656 42.6098 68.2911 41.6764C68.7565 40.7281 69.5488 40.0448 70.6678 39.6265L96.8056 29.8565C97.2497 30.1916 97.7335 30.694 98.2571 31.3637C98.7808 32.0334 99.1994 32.7879 99.5132 33.6272C100.096 35.1859 100.154 36.4394 99.6889 37.3877C99.2635 38.3211 98.4912 38.9969 97.3722 39.4152L90.7178 41.9025L101.07 69.5989C100.676 69.8831 100.021 70.2645 99.1066 70.7429C98.2322 71.2064 97.3354 71.6099 96.4162 71.9535C95.497 72.2971 94.6478 72.5234 93.8687 72.6324C93.1444 72.7665 92.4753 72.7433 91.8613 72.5629C91.2472 72.3825 90.7008 72.0173 90.222 71.4675C89.7432 70.9177 89.3095 70.1232 88.9211 69.0841L80.2268 45.8239L71.2344 49.1851Z" fill="white"/>
<path d="M46.7455 176.191C47.3648 176.142 48.129 175.993 49.0381 175.744C49.9323 175.455 50.7791 175.162 51.5784 174.863C53.177 174.265 54.3764 173.452 55.1765 172.425C56.0016 171.342 56.1527 170.101 55.6299 168.702C55.1369 167.383 54.3462 166.608 53.2578 166.378C52.1694 166.147 50.726 166.367 48.9275 167.04L44.0117 168.877L46.7455 176.191ZM41.2779 161.563L45.6542 159.928C47.3727 159.285 48.4922 158.502 49.0125 157.579C49.5728 156.641 49.6214 155.552 49.1583 154.313C48.7549 153.234 47.9742 152.547 46.8159 152.251C45.6976 151.94 44.2393 152.121 42.4408 152.793C41.8413 153.017 41.1494 153.299 40.365 153.637C39.6206 153.961 39.0435 154.245 38.6338 154.489L41.2779 161.563ZM53.8017 183.187C53.1223 183.441 52.3155 183.72 51.3814 184.024C50.4472 184.327 49.4581 184.606 48.4142 184.859C47.4102 185.098 46.3912 185.297 45.3574 185.455C44.3384 185.654 43.3695 185.743 42.4507 185.722C39.9389 185.704 38.2945 184.656 37.5177 182.578L27.0531 154.582C26.7394 153.743 26.7202 153.021 26.9955 152.417C27.2958 151.758 27.7934 151.14 28.4881 150.561C29.6677 149.573 31.2393 148.599 33.2028 147.637C35.1515 146.636 37.2049 145.731 39.363 144.925C44.4787 143.012 48.7365 142.4 52.1365 143.088C55.5365 143.776 57.9088 145.918 59.2533 149.515C59.9255 151.314 59.9886 153.066 59.4424 154.774C58.8814 156.441 57.8336 157.903 56.2992 159.16C58.5066 158.972 60.5462 159.372 62.4178 160.357C64.3294 161.328 65.7034 162.933 66.54 165.171C68.0189 169.127 67.6382 172.618 65.3978 175.641C63.1824 178.61 59.317 181.126 53.8017 183.187Z" fill="white"/>
<path d="M150.873 223.802C151.343 223.717 151.912 223.595 152.582 223.436C153.236 223.237 153.843 223.033 154.402 222.824C155.761 222.316 156.925 221.653 157.895 220.835C158.905 220.002 159.652 219.017 160.138 217.879C160.664 216.726 160.9 215.408 160.846 213.925C160.818 212.386 160.453 210.678 159.751 208.8C158.406 205.203 156.559 202.819 154.208 201.648C151.842 200.437 149.26 200.354 146.463 201.4C145.903 201.609 145.331 201.846 144.747 202.11C144.202 202.359 143.645 202.635 143.075 202.939L150.873 223.802ZM157.502 231.299C156.823 231.553 156.036 231.825 155.142 232.113C154.247 232.402 153.298 232.666 152.294 232.904C151.33 233.128 150.331 233.319 149.297 233.478C148.318 233.662 147.37 233.743 146.451 233.722C143.939 233.704 142.295 232.656 141.518 230.578L131.053 202.582C130.739 201.743 130.72 201.021 130.996 200.417C131.296 199.758 131.793 199.14 132.488 198.561C133.998 197.359 135.682 196.32 137.54 195.443C139.384 194.526 141.065 193.784 142.584 193.216C145.701 192.051 148.661 191.377 151.462 191.195C154.304 190.999 156.923 191.364 159.319 192.29C161.74 193.161 163.898 194.609 165.794 196.634C167.689 198.658 169.249 201.309 170.474 204.586C171.669 207.784 172.235 210.761 172.173 213.517C172.095 216.234 171.463 218.747 170.277 221.058C169.116 223.314 167.446 225.305 165.267 227.03C163.088 228.756 160.499 230.179 157.502 231.299Z" fill="white"/>
<path d="M102.86 121.74C102.217 120.022 102.209 118.476 102.835 117.103C103.46 115.731 104.633 114.723 106.351 114.081L126.134 106.686C126.578 107.021 127.035 107.511 127.503 108.156C128.012 108.786 128.416 109.5 128.715 110.299C129.282 111.818 129.346 113.024 128.906 113.918C128.505 114.796 127.765 115.437 126.686 115.84L114.037 120.568L116.121 126.144L129.61 121.102C130.054 121.437 130.51 121.927 130.979 122.572C131.473 123.161 131.869 123.856 132.168 124.655C132.735 126.174 132.819 127.372 132.418 128.251C132.018 129.129 131.278 129.77 130.199 130.174L119.169 134.297L121.521 140.591L136.928 134.833C137.372 135.168 137.829 135.657 138.298 136.302C138.806 136.932 139.21 137.646 139.509 138.446C140.076 139.964 140.148 141.191 139.722 142.124C139.322 143.002 138.582 143.643 137.503 144.047L119.998 150.59C118.279 151.232 116.734 151.241 115.361 150.615C113.988 149.989 112.981 148.817 112.338 147.099L102.86 121.74Z" fill="white"/>
<path d="M180.913 84.3533C181.443 83.6997 182.32 82.9391 183.544 82.0715C184.809 81.1889 186.14 80.4862 187.539 79.9633C189.537 79.2164 191.408 78.8588 193.151 78.8907C194.918 78.8676 196.254 79.3933 197.156 80.468C198.653 82.2773 200.336 84.4039 202.206 86.8479C204.076 89.2918 205.983 91.8356 207.928 94.4794C209.858 97.0832 211.76 99.6745 213.635 102.253C215.495 104.792 217.136 107.049 218.557 109.023C218.286 109.761 217.731 110.47 216.892 111.148C216.067 111.866 214.995 112.472 213.676 112.965C212.717 113.323 211.868 113.55 211.129 113.644C210.429 113.723 209.8 113.685 209.241 113.53C208.722 113.359 208.225 113.067 207.751 112.652C207.317 112.222 206.874 111.704 206.42 111.1L203.795 107.366L192.944 111.422C193.072 112.741 193.216 114.099 193.374 115.498C193.532 116.896 193.676 118.255 193.804 119.573C193.319 119.982 192.779 120.366 192.185 120.725C191.645 121.109 190.936 121.465 190.056 121.794C188.018 122.556 186.372 122.784 185.119 122.478C183.891 122.117 183.046 121.317 182.582 120.078C182.373 119.518 182.244 118.929 182.195 118.31C182.146 117.69 182.079 116.964 181.995 116.13C181.871 114.946 181.751 113.465 181.633 111.687C181.555 109.895 181.472 107.967 181.384 105.904C181.281 103.802 181.204 101.644 181.151 99.4322C181.099 97.2199 181.051 95.1425 181.008 93.1998C180.95 91.2173 180.907 89.4569 180.879 87.9188C180.891 86.3658 180.902 85.1773 180.913 84.3533ZM190.997 89.3977C191.065 91.2854 191.128 93.4029 191.185 95.75C191.268 98.0422 191.425 100.352 191.657 102.679L199.091 99.9007C197.725 97.9517 196.361 96.0701 194.999 94.2559C193.663 92.3868 192.449 90.7226 191.357 89.2633L190.997 89.3977Z" fill="white"/>
<path d="M264.394 77.8449L268.697 89.3551C268.302 89.6393 267.647 90.0207 266.733 90.4991C265.859 90.9626 264.962 91.3661 264.042 91.7097C263.123 92.0533 262.274 92.2796 261.495 92.3887C260.771 92.5227 260.102 92.4995 259.488 92.3191C258.913 92.1237 258.387 91.7511 257.908 91.2013C257.429 90.6515 256.996 89.857 256.607 88.8179L246.053 60.582C245.739 59.7427 245.72 59.021 245.996 58.4171C246.296 57.7582 246.793 57.1395 247.488 56.561C248.668 55.5735 250.119 54.6437 251.843 53.7716C253.552 52.8596 255.426 52.0226 257.464 51.2608C262.979 49.1992 267.569 48.8046 271.233 50.0769C274.897 51.3492 277.468 53.9637 278.947 57.9203C279.874 60.3982 280.026 62.7554 279.404 64.992C278.783 67.2285 277.772 69.155 276.372 70.7715C278.543 72.1921 280.649 73.5002 282.69 74.6958C284.731 75.8915 286.413 77.0394 287.735 78.1394C287.858 79.6876 287.522 81.0431 286.727 82.2058C285.957 83.3135 284.912 84.1139 283.593 84.6069C282.714 84.9356 281.917 85.1195 281.203 85.1587C280.489 85.1979 279.825 85.1273 279.211 84.9468C278.597 84.7664 277.993 84.4911 277.399 84.1209C276.805 83.7508 276.216 83.3331 275.632 82.8681L267.572 76.6573L264.394 77.8449ZM265.191 68.46C266.71 67.8923 267.767 67.0645 268.362 65.9765C268.942 64.8485 268.949 63.5252 268.381 62.0065C267.814 60.4878 266.888 59.5355 265.605 59.1496C264.347 58.7088 262.659 58.8843 260.541 59.676C259.941 59.9001 259.469 60.0993 259.125 60.2738C258.78 60.4482 258.403 60.6575 257.993 60.9018L261.354 69.8941L265.191 68.46Z" fill="white"/>
<defs>
<filter id="filter0_i_1191_803" x="37" y="13.7432" width="91.5171" height="113.199" filterUnits="userSpaceOnUse" color-interpolation-filters="sRGB">
<feFlood flood-opacity="0" result="BackgroundImageFix"/>
<feBlend mode="normal" in="SourceGraphic" in2="BackgroundImageFix" result="shape"/>
<feColorMatrix in="SourceAlpha" type="matrix" values="0 0 0 0 0 0 0 0 0 0 0 0 0 0 0 0 0 0 127 0" result="hardAlpha"/>
<feOffset dx="-5" dy="4"/>
<feGaussianBlur stdDeviation="15"/>
<feComposite in2="hardAlpha" operator="arithmetic" k2="-1" k3="1"/>
<feColorMatrix type="matrix" values="0 0 0 0 0 0 0 0 0 0 0 0 0 0 0 0 0 0 0.25 0"/>
<feBlend mode="normal" in2="shape" result="effect1_innerShadow_1191_803"/>
</filter>
<filter id="filter1_i_1191_803" x="218" y="28.7432" width="91.5" height="113.199" filterUnits="userSpaceOnUse" color-interpolation-filters="sRGB">
<feFlood flood-opacity="0" result="BackgroundImageFix"/>
<feBlend mode="normal" in="SourceGraphic" in2="BackgroundImageFix" result="shape"/>
<feColorMatrix in="SourceAlpha" type="matrix" values="0 0 0 0 0 0 0 0 0 0 0 0 0 0 0 0 0 0 127 0" result="hardAlpha"/>
<feOffset dx="-5" dy="4"/>
<feGaussianBlur stdDeviation="15"/>
<feComposite in2="hardAlpha" operator="arithmetic" k2="-1" k3="1"/>
<feColorMatrix type="matrix" values="0 0 0 0 0 0 0 0 0 0 0 0 0 0 0 0 0 0 0.25 0"/>
<feBlend mode="normal" in2="shape" result="effect1_innerShadow_1191_803"/>
</filter>
<filter id="filter2_i_1191_803" x="144" y="58.7432" width="91.5" height="113.199" filterUnits="userSpaceOnUse" color-interpolation-filters="sRGB">
<feFlood flood-opacity="0" result="BackgroundImageFix"/>
<feBlend mode="normal" in="SourceGraphic" in2="BackgroundImageFix" result="shape"/>
<feColorMatrix in="SourceAlpha" type="matrix" values="0 0 0 0 0 0 0 0 0 0 0 0 0 0 0 0 0 0 127 0" result="hardAlpha"/>
<feOffset dx="-5" dy="4"/>
<feGaussianBlur stdDeviation="15"/>
<feComposite in2="hardAlpha" operator="arithmetic" k2="-1" k3="1"/>
<feColorMatrix type="matrix" values="0 0 0 0 0 0 0 0 0 0 0 0 0 0 0 0 0 0 0.25 0"/>
<feBlend mode="normal" in2="shape" result="effect1_innerShadow_1191_803"/>
</filter>
<filter id="filter3_i_1191_803" x="70" y="89.7432" width="91.5171" height="113.199" filterUnits="userSpaceOnUse" color-interpolation-filters="sRGB">
<feFlood flood-opacity="0" result="BackgroundImageFix"/>
<feBlend mode="normal" in="SourceGraphic" in2="BackgroundImageFix" result="shape"/>
<feColorMatrix in="SourceAlpha" type="matrix" values="0 0 0 0 0 0 0 0 0 0 0 0 0 0 0 0 0 0 127 0" result="hardAlpha"/>
<feOffset dx="-5" dy="4"/>
<feGaussianBlur stdDeviation="15"/>
<feComposite in2="hardAlpha" operator="arithmetic" k2="-1" k3="1"/>
<feColorMatrix type="matrix" values="0 0 0 0 0 0 0 0 0 0 0 0 0 0 0 0 0 0 0.25 0"/>
<feBlend mode="normal" in2="shape" result="effect1_innerShadow_1191_803"/>
</filter>
<filter id="filter4_i_1191_803" x="-5" y="125.743" width="91.5" height="113.199" filterUnits="userSpaceOnUse" color-interpolation-filters="sRGB">
<feFlood flood-opacity="0" result="BackgroundImageFix"/>
<feBlend mode="normal" in="SourceGraphic" in2="BackgroundImageFix" result="shape"/>
<feColorMatrix in="SourceAlpha" type="matrix" values="0 0 0 0 0 0 0 0 0 0 0 0 0 0 0 0 0 0 127 0" result="hardAlpha"/>
<feOffset dx="-5" dy="4"/>
<feGaussianBlur stdDeviation="15"/>
<feComposite in2="hardAlpha" operator="arithmetic" k2="-1" k3="1"/>
<feColorMatrix type="matrix" values="0 0 0 0 0 0 0 0 0 0 0 0 0 0 0 0 0 0 0.25 0"/>
<feBlend mode="normal" in2="shape" result="effect1_innerShadow_1191_803"/>
</filter>
<filter id="filter5_i_1191_803" x="101" y="168.743" width="91.5171" height="113.199" filterUnits="userSpaceOnUse" color-interpolation-filters="sRGB">
<feFlood flood-opacity="0" result="BackgroundImageFix"/>
<feBlend mode="normal" in="SourceGraphic" in2="BackgroundImageFix" result="shape"/>
<feColorMatrix in="SourceAlpha" type="matrix" values="0 0 0 0 0 0 0 0 0 0 0 0 0 0 0 0 0 0 127 0" result="hardAlpha"/>
<feOffset dx="-5" dy="4"/>
<feGaussianBlur stdDeviation="15"/>
<feComposite in2="hardAlpha" operator="arithmetic" k2="-1" k3="1"/>
<feColorMatrix type="matrix" values="0 0 0 0 0 0 0 0 0 0 0 0 0 0 0 0 0 0 0.25 0"/>
<feBlend mode="normal" in2="shape" result="effect1_innerShadow_1191_803"/>
</filter>
</defs>
</svg>
