<svg width="4" height="16" viewBox="0 0 4 16" fill="none" xmlns="http://www.w3.org/2000/svg">
<path d="M2 3.99997C0.9 3.99997 0 3.09997 0 1.99997C0 0.899965 0.9 -3.47724e-05 2 -3.47724e-05C3.1 -3.47724e-05 4 0.899965 4 1.99997C4 3.09997 3.1 3.99997 2 3.99997ZM2 5.99997C3.1 5.99997 4 6.89997 4 7.99997C4 9.09997 3.1 9.99997 2 9.99997C0.9 9.99997 0 9.09997 0 7.99997C0 6.89997 0.9 5.99997 2 5.99997ZM2 12C3.1 12 4 12.9 4 14C4 15.1 3.1 16 2 16C0.9 16 0 15.1 0 14C0 12.9 0.9 12 2 12Z" fill="#8E8E8E"/>
</svg>
