<svg width="3170" height="189" viewBox="0 0 3170 189" fill="none" xmlns="http://www.w3.org/2000/svg">
<path d="M0.109375 85.625L75.1094 5L150.109 0.3125V85.625H187.609V115.625H150.109V135.312L165.109 138.242V185H60.1094V138.242L75.1094 135.312V115.625H0.109375V85.625ZM43.2344 85.625H75.1094V48.125L43.2344 85.625ZM295.422 188.398C286.516 188.398 277.922 187.617 269.641 186.055C261.359 184.492 253.586 182.109 246.32 178.906C239.055 175.625 232.414 171.445 226.398 166.367C220.461 161.211 215.344 155.117 211.047 148.086C206.75 140.977 203.43 132.852 201.086 123.711C198.742 114.57 197.57 104.297 197.57 92.8906C197.57 77.3438 200.07 63.9062 205.07 52.5781C210.07 41.1719 216.945 31.7578 225.695 24.3359C234.445 16.9141 244.758 11.4063 256.633 7.8125C268.586 4.14063 281.516 2.30469 295.422 2.30469C304.328 2.30469 312.922 3.04687 321.203 4.53125C329.562 6.01563 337.375 8.35938 344.641 11.5625C351.906 14.6875 358.508 18.6719 364.445 23.5156C370.461 28.3594 375.617 34.1406 379.914 40.8594C384.211 47.5781 387.531 55.2734 389.875 63.9453C392.219 72.5391 393.391 82.1875 393.391 92.8906C393.391 109.766 390.812 124.258 385.656 136.367C380.578 148.398 373.586 158.281 364.68 166.016C355.852 173.75 345.461 179.414 333.508 183.008C321.633 186.602 308.938 188.398 295.422 188.398ZM295.422 55.8594C291.594 55.8594 288.352 56.5234 285.695 57.8516C283.117 59.1016 280.969 60.7812 279.25 62.8906C277.609 65 276.32 67.3828 275.383 70.0391C274.523 72.6953 273.859 75.3906 273.391 78.125C273 80.8594 272.766 83.5156 272.688 86.0938C272.609 88.6719 272.57 90.9375 272.57 92.8906C272.57 94.8438 272.609 97.1094 272.688 99.6875C272.766 102.266 273 104.961 273.391 107.773C273.859 110.508 274.523 113.242 275.383 115.977C276.32 118.711 277.609 121.172 279.25 123.359C280.969 125.469 283.117 127.188 285.695 128.516C288.352 129.844 291.594 130.508 295.422 130.508C299.25 130.508 302.453 129.844 305.031 128.516C307.688 127.188 309.836 125.469 311.477 123.359C313.195 121.172 314.523 118.711 315.461 115.977C316.398 113.242 317.062 110.508 317.453 107.773C317.922 104.961 318.195 102.266 318.273 99.6875C318.352 97.1094 318.391 94.8438 318.391 92.8906C318.391 90.9375 318.352 88.6719 318.273 86.0938C318.195 83.5156 317.922 80.8594 317.453 78.125C317.062 75.3906 316.398 72.6953 315.461 70.0391C314.523 67.3828 313.195 65 311.477 62.8906C309.836 60.7812 307.688 59.1016 305.031 57.8516C302.453 56.5234 299.25 55.8594 295.422 55.8594ZM403 85.625L478 5L553 0.3125V85.625H590.5V115.625H553V135.312L568 138.242V185H463V138.242L478 135.312V115.625H403V85.625ZM446.125 85.625H478V48.125L446.125 85.625ZM678.391 5H780.461C793.742 5 805.266 5.625 815.031 6.875C824.797 8.04688 833.117 9.76563 839.992 12.0312C846.867 14.2969 852.453 17.0703 856.75 20.3516C861.125 23.6328 864.523 27.3047 866.945 31.3672C869.445 35.4297 871.125 39.8828 871.984 44.7266C872.922 49.5703 873.391 54.7266 873.391 60.1953C873.391 65.8203 872.844 71.0938 871.75 76.0156C870.734 80.9375 868.82 85.4688 866.008 89.6094C863.195 93.6719 859.289 97.3438 854.289 100.625C849.367 103.906 843 106.68 835.188 108.945C827.453 111.133 818.078 112.852 807.062 114.102C796.125 115.273 783.234 115.859 768.391 115.859V131.211L783.391 134.141V185H678.391V134.141L693.391 131.211V58.7891L678.391 55.8594V5ZM768.391 83.6328C772.922 83.6328 777.023 83.3984 780.695 82.9297C784.445 82.4609 787.609 81.4844 790.188 80C792.844 78.4375 794.875 76.2109 796.281 73.3203C797.688 70.4297 798.391 66.5234 798.391 61.6016C798.391 56.8359 797.688 53.0469 796.281 50.2344C794.875 47.3438 792.844 45.1562 790.188 43.6719C787.609 42.1875 784.445 41.2109 780.695 40.7422C777.023 40.2734 772.922 40.0391 768.391 40.0391V83.6328ZM988.938 185L983.078 157.227H937.023L931.164 185H868.469V130.625L882.062 127.93L914.523 20H1005.46L1038.16 127.93L1051.63 130.625V185H988.938ZM944.172 120.195H975.93L959.992 55.3906L944.172 120.195ZM1062.88 100.273C1062.88 85.5859 1065.11 72.9297 1069.56 62.3047C1074.02 51.6016 1080.34 42.8125 1088.55 35.9375C1096.75 28.9844 1106.63 23.8672 1118.2 20.5859C1129.84 17.2266 1142.8 15.5469 1157.1 15.5469C1165.77 15.5469 1173.59 15.9766 1180.54 16.8359C1187.57 17.6953 1193.86 18.7891 1199.41 20.1172C1205.03 21.4453 1209.95 22.9297 1214.17 24.5703C1218.47 26.1328 1222.26 27.6562 1225.54 29.1406V80.1172H1192.38C1190.58 77.5391 1188.78 75.3125 1186.98 73.4375C1185.27 71.4844 1183.39 69.9219 1181.36 68.75C1179.33 67.5 1177.06 66.5625 1174.56 65.9375C1172.06 65.3125 1169.13 65 1165.77 65C1161.71 65 1157.73 65.625 1153.82 66.875C1149.99 68.0469 1146.55 70.0391 1143.51 72.8516C1140.54 75.5859 1138.12 79.2188 1136.24 83.75C1134.45 88.2031 1133.55 93.7109 1133.55 100.273C1133.55 107.93 1134.29 114.219 1135.77 119.141C1137.26 123.984 1139.41 127.852 1142.22 130.742C1145.03 133.555 1148.47 135.508 1152.53 136.602C1156.67 137.695 1161.4 138.242 1166.71 138.242C1169.52 138.242 1172.41 138.047 1175.38 137.656C1178.43 137.266 1181.71 136.523 1185.23 135.43V122.07H1161.67V93.2422H1230.23V171.055C1224.45 173.477 1218.31 175.742 1211.83 177.852C1205.34 179.961 1198.82 181.797 1192.26 183.359C1185.77 184.922 1179.41 185.938 1173.16 186.406C1166.91 186.875 1161.12 187.109 1155.81 187.109C1142.77 187.109 1130.58 185.547 1119.25 182.422C1107.92 179.297 1098.08 174.102 1089.72 166.836C1081.36 159.57 1074.8 150.43 1070.03 139.414C1065.27 128.32 1062.88 115.273 1062.88 100.273ZM1332.06 92.5391L1364.52 85.625V119.023L1332.06 111.992V137.891C1336.75 137.891 1341.28 137.578 1345.66 136.953C1350.03 136.25 1354.09 135.312 1357.84 134.141C1361.59 132.969 1365.03 131.602 1368.16 130.039C1371.28 128.477 1373.98 126.797 1376.24 125H1392.3V185H1247.45V138.242L1261.52 135.547V69.1016L1247.45 66.4062V20H1392.3V80H1376.24C1373.98 78.2812 1371.28 76.6406 1368.16 75.0781C1365.03 73.5156 1361.59 72.1484 1357.84 70.9766C1354.09 69.8047 1350.03 68.8672 1345.66 68.1641C1341.28 67.4609 1336.75 67.1094 1332.06 67.1094V92.5391ZM1545.11 97.2266V131.211L1560.11 134.023V185H1485.11V134.141L1500.11 131.211V58.7891L1485.11 55.8594V5H1575.11L1635.11 97.2266V59.0234L1620.11 55.8594V5H1695.11V55.8594L1680.11 58.7891V131.211L1695.11 134.141V185H1604.99L1545.11 97.2266ZM1809.84 187.109C1796.09 187.109 1783.2 185.664 1771.16 182.773C1759.21 179.805 1748.78 174.766 1739.88 167.656C1731.05 160.469 1724.05 151.328 1718.9 140.234C1713.82 129.141 1711.28 115.82 1711.28 100.273C1711.28 85.0391 1713.82 72.0703 1718.9 61.3672C1724.05 50.5859 1731.09 41.8359 1739.99 35.1172C1748.9 28.3203 1759.33 23.3594 1771.28 20.2344C1783.23 17.1094 1796.09 15.5469 1809.84 15.5469C1823.51 15.5469 1836.32 17.1094 1848.27 20.2344C1860.3 23.3594 1870.77 28.3203 1879.68 35.1172C1888.66 41.8359 1895.73 50.5859 1900.89 61.3672C1906.05 72.0703 1908.62 85.0391 1908.62 100.273C1908.62 110.586 1907.45 119.961 1905.11 128.398C1902.77 136.758 1899.45 144.219 1895.15 150.781C1890.93 157.266 1885.81 162.891 1879.8 167.656C1873.86 172.344 1867.22 176.25 1859.88 179.375C1852.53 182.422 1844.64 184.453 1836.2 185.469C1827.77 186.562 1818.98 187.109 1809.84 187.109ZM1809.84 65.4688C1805.23 65.4688 1801.32 66.0547 1798.12 67.2266C1794.99 68.3984 1792.38 69.9219 1790.27 71.7969C1788.23 73.6719 1786.63 75.8203 1785.46 78.2422C1784.29 80.6641 1783.43 83.1641 1782.88 85.7422C1782.41 88.2422 1782.1 90.7422 1781.95 93.2422C1781.87 95.6641 1781.83 97.8125 1781.83 99.6875C1781.83 101.484 1781.87 103.633 1781.95 106.133C1782.02 108.555 1782.3 111.133 1782.77 113.867C1783.23 116.523 1784.02 119.18 1785.11 121.836C1786.2 124.492 1787.77 126.875 1789.8 128.984C1791.91 131.094 1794.56 132.812 1797.77 134.141C1801.05 135.391 1805.07 136.016 1809.84 136.016C1814.52 136.016 1818.47 135.391 1821.67 134.141C1824.95 132.891 1827.61 131.25 1829.64 129.219C1831.75 127.109 1833.39 124.766 1834.56 122.188C1835.73 119.609 1836.55 117.031 1837.02 114.453C1837.57 111.797 1837.88 109.219 1837.96 106.719C1838.12 104.219 1838.2 102.07 1838.2 100.273C1838.2 98.3984 1838.12 96.25 1837.96 93.8281C1837.88 91.3281 1837.57 88.7891 1837.02 86.2109C1836.55 83.6328 1835.73 81.1328 1834.56 78.7109C1833.39 76.2109 1831.75 73.9844 1829.64 72.0312C1827.61 70.0781 1824.95 68.5156 1821.67 67.3438C1818.47 66.0938 1814.52 65.4688 1809.84 65.4688ZM1964.99 63.5938C1960.93 63.5938 1957.34 64.1406 1954.21 65.2344C1951.09 66.3281 1948.47 67.6953 1946.36 69.3359C1944.25 70.9766 1942.65 72.7734 1941.55 74.7266C1940.46 76.6016 1939.91 78.3594 1939.91 80H1920.34V20H2080.19V80H2060.62C2060.62 78.3594 2060.07 76.6016 2058.98 74.7266C2057.88 72.7734 2056.28 70.9766 2054.17 69.3359C2052.06 67.6953 2049.45 66.3281 2046.32 65.2344C2043.2 64.1406 2039.6 63.5938 2035.54 63.5938V135.547L2049.6 138.242V185H1950.93V138.242L1964.99 135.547V63.5938ZM2260.19 81.9922L2292.06 74.375V115.859L2260.19 108.242V131.211L2275.19 134.609V185H2170.19V134.141L2185.19 131.211V59.0234L2170.19 56.0938V5H2315.15V65H2295.46C2293.59 63.2812 2291.44 61.5234 2289.02 59.7266C2286.67 57.9297 2284.02 56.3281 2281.05 54.9219C2278.16 53.4375 2274.95 52.2656 2271.44 51.4062C2268 50.4688 2264.25 50 2260.19 50V81.9922ZM2422.26 187.109C2408.51 187.109 2395.62 185.664 2383.59 182.773C2371.63 179.805 2361.2 174.766 2352.3 167.656C2343.47 160.469 2336.48 151.328 2331.32 140.234C2326.24 129.141 2323.7 115.82 2323.7 100.273C2323.7 85.0391 2326.24 72.0703 2331.32 61.3672C2336.48 50.5859 2343.51 41.8359 2352.41 35.1172C2361.32 28.3203 2371.75 23.3594 2383.7 20.2344C2395.66 17.1094 2408.51 15.5469 2422.26 15.5469C2435.93 15.5469 2448.74 17.1094 2460.7 20.2344C2472.73 23.3594 2483.2 28.3203 2492.1 35.1172C2501.09 41.8359 2508.16 50.5859 2513.31 61.3672C2518.47 72.0703 2521.05 85.0391 2521.05 100.273C2521.05 110.586 2519.88 119.961 2517.53 128.398C2515.19 136.758 2511.87 144.219 2507.57 150.781C2503.35 157.266 2498.23 162.891 2492.22 167.656C2486.28 172.344 2479.64 176.25 2472.3 179.375C2464.95 182.422 2457.06 184.453 2448.62 185.469C2440.19 186.562 2431.4 187.109 2422.26 187.109ZM2422.26 65.4688C2417.65 65.4688 2413.74 66.0547 2410.54 67.2266C2407.41 68.3984 2404.8 69.9219 2402.69 71.7969C2400.66 73.6719 2399.05 75.8203 2397.88 78.2422C2396.71 80.6641 2395.85 83.1641 2395.3 85.7422C2394.84 88.2422 2394.52 90.7422 2394.37 93.2422C2394.29 95.6641 2394.25 97.8125 2394.25 99.6875C2394.25 101.484 2394.29 103.633 2394.37 106.133C2394.45 108.555 2394.72 111.133 2395.19 113.867C2395.66 116.523 2396.44 119.18 2397.53 121.836C2398.62 124.492 2400.19 126.875 2402.22 128.984C2404.33 131.094 2406.98 132.812 2410.19 134.141C2413.47 135.391 2417.49 136.016 2422.26 136.016C2426.95 136.016 2430.89 135.391 2434.09 134.141C2437.38 132.891 2440.03 131.25 2442.06 129.219C2444.17 127.109 2445.81 124.766 2446.98 122.188C2448.16 119.609 2448.98 117.031 2449.45 114.453C2449.99 111.797 2450.3 109.219 2450.38 106.719C2450.54 104.219 2450.62 102.07 2450.62 100.273C2450.62 98.3984 2450.54 96.25 2450.38 93.8281C2450.3 91.3281 2449.99 88.7891 2449.45 86.2109C2448.98 83.6328 2448.16 81.1328 2446.98 78.7109C2445.81 76.2109 2444.17 73.9844 2442.06 72.0312C2440.03 70.0781 2437.38 68.5156 2434.09 67.3438C2430.89 66.0938 2426.95 65.4688 2422.26 65.4688ZM2719.56 68.8672C2719.48 71.2109 2719.45 73.5156 2719.45 75.7812C2719.45 77.9688 2719.45 80.0781 2719.45 82.1094V100.273C2719.45 115.898 2717.3 129.297 2713 140.469C2708.7 151.562 2702.88 160.664 2695.54 167.773C2688.2 174.883 2679.56 179.883 2669.64 182.773C2659.8 185.664 2649.33 187.109 2638.23 187.109C2625.42 187.109 2613.43 185.664 2602.26 182.773C2591.16 179.883 2581.48 174.883 2573.2 167.773C2564.99 160.586 2558.51 151.445 2553.74 140.352C2549.05 129.258 2546.71 115.898 2546.71 100.273V68.8672L2532.65 66.1719V20H2624.17V66.1719L2610.11 68.8672V82.8125C2610.11 84.6875 2610.11 86.6016 2610.11 88.5547C2610.11 90.4297 2610.11 92.1875 2610.11 93.8281C2610.19 95.4688 2610.23 96.9141 2610.23 98.1641C2610.23 99.3359 2610.23 100.117 2610.23 100.508C2610.23 102.305 2610.27 104.414 2610.34 106.836C2610.42 109.18 2610.73 111.641 2611.28 114.219C2611.83 116.719 2612.65 119.219 2613.74 121.719C2614.91 124.141 2616.52 126.328 2618.55 128.281C2620.66 130.234 2623.27 131.836 2626.4 133.086C2629.6 134.258 2633.55 134.844 2638.23 134.844C2642.92 134.844 2646.87 134.258 2650.07 133.086C2653.35 131.836 2656.01 130.234 2658.04 128.281C2660.15 126.25 2661.79 123.984 2662.96 121.484C2664.13 118.984 2664.95 116.484 2665.42 113.984C2665.97 111.406 2666.28 108.945 2666.36 106.602C2666.52 104.18 2666.59 102.07 2666.59 100.273C2666.59 99.7266 2666.59 98.8672 2666.59 97.6953C2666.59 96.4453 2666.55 95.0391 2666.48 93.4766C2666.48 91.8359 2666.48 90.1172 2666.48 88.3203C2666.48 86.4453 2666.48 84.6094 2666.48 82.8125V68.8672L2652.41 66.1719V20H2733.74V66.1719L2719.56 68.8672ZM2808.39 98.3984V135.547L2822.57 138.125V185H2752.02V138.242L2766.09 135.547V68.8672L2752.02 66.1719V20H2836.63L2893 108.945V69.1016L2878.94 66.1719V20H2949.37V66.1719L2935.3 68.8672V135.547L2949.37 138.242V185H2864.76L2808.39 98.3984ZM3100.07 20C3110.7 22.2656 3120.27 25.4688 3128.78 29.6094C3137.3 33.75 3144.52 39.0625 3150.46 45.5469C3156.48 51.9531 3161.09 59.6875 3164.29 68.75C3167.49 77.7344 3169.09 88.2422 3169.09 100.273C3169.09 110.82 3167.84 120.273 3165.34 128.633C3162.92 136.914 3159.41 144.219 3154.8 150.547C3150.27 156.797 3144.68 162.109 3138.04 166.484C3131.4 170.859 3123.9 174.414 3115.54 177.148C3107.26 179.883 3098.12 181.875 3088.12 183.125C3078.2 184.375 3067.61 185 3056.36 185H2971.75V138.242L2985.81 135.547V64.8828L2971.75 62.1875V20H3100.07ZM3067.14 135.547C3072.38 135.547 3076.79 135.156 3080.38 134.375C3083.98 133.594 3086.91 132.5 3089.17 131.094C3091.52 129.688 3093.31 127.93 3094.56 125.82C3095.89 123.711 3096.83 121.367 3097.38 118.789C3098 116.211 3098.35 113.359 3098.43 110.234C3098.51 107.109 3098.55 103.789 3098.55 100.273C3098.55 96.7578 3098.51 93.4375 3098.43 90.3125C3098.35 87.1875 3098 84.3359 3097.38 81.7578C3096.83 79.1016 3095.89 76.7578 3094.56 74.7266C3093.31 72.6172 3091.52 70.8594 3089.17 69.4531C3086.91 67.9688 3083.98 66.8359 3080.38 66.0547C3076.79 65.2734 3072.38 64.8828 3067.14 64.8828H3056.36V135.547H3067.14Z" fill="black"/>
</svg>
