<svg width="3058" height="1761" viewBox="0 0 3058 1761" fill="none" xmlns="http://www.w3.org/2000/svg">
<path d="M713.217 420.773C1143.22 482.772 1128.72 333.772 1461.72 180.773C2958.72 -440.727 3226.72 717.273 2972.22 1112.77C2717.72 1508.27 1461.72 2115.27 543.717 1493.77C-472.783 1211.27 147.717 439.272 713.217 420.773Z" fill="#A2A4BD" stroke="black"/>
<path d="M1029.61 805.138C978.407 852.338 1022.96 882.472 1051.64 891.638C1063.88 862.796 1083.89 838.765 1107.17 819.138C1102.65 794.805 1080.81 757.938 1029.61 805.138Z" fill="white"/>
<path fill-rule="evenodd" clip-rule="evenodd" d="M2150.61 509.578C2125.83 486.398 2090.97 459.563 2048.11 436.503C2085.27 428.341 2157.81 431.531 2150.61 509.578Z" fill="white"/>
<path d="M1094.61 1054.64C1087.41 1083.84 1114.27 1094.14 1128.61 1095.64C1151.77 1100.47 1197.31 1103.54 1194.11 1077.14C1190.11 1044.14 1116.11 1031.14 1094.61 1054.64Z" fill="#181616"/>
<path fill-rule="evenodd" clip-rule="evenodd" d="M1021.61 1077.14C1004.11 1063.14 970.306 1031.44 1039.11 946.638C1040.09 926.64 1044.56 908.333 1051.64 891.638C1063.88 862.796 1083.89 838.765 1107.17 819.138C1152.36 781.047 1209.85 759.542 1246.61 751.638C1454.11 468.138 1677.61 368.638 1870.61 383.138C1938.31 388.225 1998.55 409.841 2048.11 436.503C2090.97 459.563 2125.83 486.398 2150.61 509.578C2162.51 520.717 2172.09 531.012 2179.11 539.638C2200.11 534.805 2246.61 531.238 2264.61 555.638C2357.01 792.838 2098.47 925.472 1957.65 962.138C1957.47 968.907 1956.81 976.386 1955.61 984.638C1935.61 1121.64 1593.61 1133.64 1441.61 1133.64C1365.24 1181.59 1302.01 1192.39 1243.22 1184.82C1257.22 1141.37 1263.22 1054.64 1150.72 1031.27C1060.72 1012.58 1027.14 1054.06 1021.61 1077.14Z" fill="white"/>
<path d="M1021.61 1077.14C1033.44 1117.64 1051.64 1159.64 1125.11 1149.14C1117.51 1138.34 1124.27 1108.97 1128.61 1095.64C1114.27 1094.14 1087.41 1083.84 1094.61 1054.64C1116.11 1031.14 1190.11 1044.14 1194.11 1077.14C1197.31 1103.54 1151.77 1100.47 1128.61 1095.64C1124.27 1108.97 1117.51 1138.34 1125.11 1149.14C1164.27 1165.66 1202.69 1179.61 1243.22 1184.82C1257.22 1141.37 1263.22 1054.64 1150.72 1031.27C1060.72 1012.58 1027.14 1054.06 1021.61 1077.14Z" fill="#EAEAEA"/>
<path d="M1021.61 1077.14C1004.11 1063.14 970.306 1031.44 1039.11 946.638C1040.09 926.64 1044.56 908.333 1051.64 891.638M1021.61 1077.14C1033.44 1117.64 1051.64 1159.64 1125.11 1149.14M1021.61 1077.14C1027.14 1054.06 1060.72 1012.58 1150.72 1031.27C1263.22 1054.64 1257.22 1141.37 1243.22 1184.82M1125.11 1149.14C1117.51 1138.34 1124.27 1108.97 1128.61 1095.64M1125.11 1149.14C1164.27 1165.66 1202.69 1179.61 1243.22 1184.82M1656.61 928.638C1679.11 933.638 1801.11 933.638 1823.61 928.638C1844.75 923.939 1960.39 856.536 1957.65 962.138M1957.65 962.138C1957.47 968.907 1956.81 976.386 1955.61 984.638C1935.61 1121.64 1593.61 1133.64 1441.61 1133.64C1365.24 1181.59 1302.01 1192.39 1243.22 1184.82M1957.65 962.138C2098.47 925.472 2357.01 792.838 2264.61 555.638C2246.61 531.238 2200.11 534.805 2179.11 539.638M2179.11 539.638C2172.09 531.012 2162.51 520.717 2150.61 509.578M2179.11 539.638C2191.61 554.138 2211.21 596.238 2189.61 648.638M2048.11 436.503C1998.55 409.841 1938.31 388.225 1870.61 383.138C1677.61 368.638 1454.11 468.138 1246.61 751.638C1209.85 759.542 1152.36 781.047 1107.17 819.138M2048.11 436.503C2090.97 459.563 2125.83 486.398 2150.61 509.578M2048.11 436.503C2085.27 428.341 2157.81 431.531 2150.61 509.578M1051.64 891.638C1022.96 882.472 978.407 852.338 1029.61 805.138C1080.81 757.938 1102.65 794.805 1107.17 819.138M1051.64 891.638C1063.88 862.796 1083.89 838.765 1107.17 819.138M1422.61 890.138C1435.11 865.972 1470.61 832.138 1512.61 890.138C1554.61 948.138 1465.11 954.138 1465.11 954.138M1128.61 1095.64C1114.27 1094.14 1087.41 1083.84 1094.61 1054.64C1116.11 1031.14 1190.11 1044.14 1194.11 1077.14C1197.31 1103.54 1151.77 1100.47 1128.61 1095.64ZM1290.72 772.772C1319.22 774.183 1379.82 785.431 1394.22 819.138" stroke="black" stroke-width="4"/>
<path d="M1073.42 993.936C1062.22 975.773 1089.72 971.773 1105.59 975.773C1125.22 985.273 1112.74 997.951 1105.59 1003.47C1102.02 1006.99 1090.58 1010 1073.42 993.936Z" fill="black"/>
<path d="M1260.6 1050.58C1243.44 1039.04 1236.07 1008.52 1278.62 1024.98C1303.07 1038.03 1304.79 1072.67 1260.6 1050.58Z" fill="black"/>
<path d="M1073.42 993.936C1062.22 975.773 1089.72 971.773 1105.59 975.773C1125.22 985.273 1112.74 997.951 1105.59 1003.47C1102.02 1006.99 1090.58 1010 1073.42 993.936Z" stroke="black"/>
<path d="M1260.6 1050.58C1243.44 1039.04 1236.07 1008.52 1278.62 1024.98C1303.07 1038.03 1304.79 1072.67 1260.6 1050.58Z" stroke="black"/>
</svg>
