<svg width="24" height="25" viewBox="0 0 24 25" fill="none" xmlns="http://www.w3.org/2000/svg">
<path d="M21.1429 11.673H19.4286V7.10153C19.4286 5.84439 18.4 4.81581 17.1429 4.81581H12.5714V3.10153C12.5714 1.52438 11.2914 0.244385 9.71428 0.244385C8.13714 0.244385 6.85714 1.52438 6.85714 3.10153V4.81581H2.28571C1.02857 4.81581 0.0114286 5.84439 0.0114286 7.10153V11.4444H1.71429C3.41714 11.4444 4.8 12.8272 4.8 14.5301C4.8 16.233 3.41714 17.6158 1.71429 17.6158H0V21.9587C0 23.2158 1.02857 24.2444 2.28571 24.2444H6.62857V22.5301C6.62857 20.8272 8.01143 19.4444 9.71428 19.4444C11.4171 19.4444 12.8 20.8272 12.8 22.5301V24.2444H17.1429C18.4 24.2444 19.4286 23.2158 19.4286 21.9587V17.3872H21.1429C22.72 17.3872 24 16.1072 24 14.5301C24 12.953 22.72 11.673 21.1429 11.673Z" fill="white"/>
</svg>
