<svg width="32" height="33" viewBox="0 0 32 33" fill="none" xmlns="http://www.w3.org/2000/svg">
<path d="M31.9998 16.7165C31.9998 15.614 31.8931 14.4759 31.7153 13.4089H16.3154V19.704H25.1357C24.78 21.7312 23.6063 23.5095 21.8636 24.6476L27.1273 28.7376C30.2215 25.8568 31.9998 21.6601 31.9998 16.7165Z" fill="#4280EF"/>
<path d="M16.3157 32.6497C20.7258 32.6497 24.4246 31.1915 27.1276 28.7019L21.8639 24.6475C20.4057 25.6433 18.5208 26.2123 16.3157 26.2123C12.0479 26.2123 8.45575 23.3315 7.13983 19.4905L1.73389 23.6516C4.50799 29.1643 10.1273 32.6497 16.3157 32.6497Z" fill="#34A353"/>
<path d="M7.13976 19.455C6.46402 17.4278 6.46402 15.2227 7.13976 13.1955L1.73382 8.99878C-0.577938 13.6223 -0.577938 19.0638 1.73382 23.6517L7.13976 19.455Z" fill="#F6B704"/>
<path d="M16.3157 6.47353C18.6275 6.43796 20.9037 7.3271 22.5752 8.92755L27.2343 4.23291C24.2824 1.4588 20.3702 -0.0349447 16.3157 0.000620719C10.1273 0.000620719 4.50799 3.48603 1.73389 8.99868L7.13983 13.1954C8.45575 9.31876 12.0479 6.47353 16.3157 6.47353Z" fill="#E54335"/>
</svg>
