<svg width="24" height="26" viewBox="0 0 24 26" fill="none" xmlns="http://www.w3.org/2000/svg">
<path d="M23.4464 10.2685L12.8078 0.480995C12.4619 0.162809 12.0065 -0.00938872 11.5366 0.000395215C11.0668 0.0101792 10.6189 0.201187 10.2866 0.533495L0.502125 10.318L0 10.8201V25.2444H9.42857V16.2444H14.5714V25.2444H24V10.7779L23.4464 10.2685ZM11.5735 1.71432C11.5886 1.71432 11.5792 1.71758 11.5728 1.72396C11.5661 1.71758 11.5584 1.71432 11.5735 1.71432ZM22.2857 23.5302H16.2857V16.2444C16.2857 15.7898 16.1051 15.3538 15.7836 15.0323C15.4621 14.7108 15.0261 14.5302 14.5714 14.5302H9.42857C8.97392 14.5302 8.53788 14.7108 8.21639 15.0323C7.8949 15.3538 7.71429 15.7898 7.71429 16.2444V23.5302H1.71429V11.5302L11.5735 1.74566L11.5748 1.74378L22.2857 11.5302V23.5302Z" fill="white"/>
<path d="M22.2857 23.5302H16.2857V16.2444C16.2857 15.7898 16.1051 15.3538 15.7836 15.0323C15.4621 14.7108 15.0261 14.5302 14.5714 14.5302H9.42857C8.97392 14.5302 8.53788 14.7108 8.21639 15.0323C7.8949 15.3538 7.71429 15.7898 7.71429 16.2444V23.5302H1.71429V11.5302L11.5735 1.74566L11.5748 1.74378L22.2857 11.5302V23.5302Z" fill="white"/>
</svg>
