<svg width="27" height="27" viewBox="0 0 27 27" fill="none" xmlns="http://www.w3.org/2000/svg">
<path d="M13.3333 0C5.97333 0 0 5.97333 0 13.3333C0 20.6933 5.97333 26.6667 13.3333 26.6667C20.6933 26.6667 26.6667 20.6933 26.6667 13.3333C26.6667 5.97333 20.6933 0 13.3333 0ZM14.6667 22.6667H12V20H14.6667V22.6667ZM17.4267 12.3333L16.2267 13.56C15.2667 14.5333 14.6667 15.3333 14.6667 17.3333H12V16.6667C12 15.2 12.6 13.8667 13.56 12.8933L15.2133 11.2133C15.7067 10.7333 16 10.0667 16 9.33333C16 7.86667 14.8 6.66667 13.3333 6.66667C11.8667 6.66667 10.6667 7.86667 10.6667 9.33333H8C8 6.38667 10.3867 4 13.3333 4C16.28 4 18.6667 6.38667 18.6667 9.33333C18.6667 10.5067 18.1867 11.5733 17.4267 12.3333Z" fill="white"/>
</svg>
