<svg width="353" height="353" viewBox="0 0 353 353" fill="none" xmlns="http://www.w3.org/2000/svg">
<path d="M293.542 22.0625H118.476C116.249 22.0887 114.03 22.3475 111.857 22.8346C108.458 22.3539 105.031 22.096 101.598 22.0625C83.4189 22.0203 65.8777 28.7601 52.4041 40.9641C38.9304 53.168 30.493 69.9587 28.7415 88.0531C26.9899 106.148 32.0503 124.245 42.9331 138.806C53.8159 153.368 69.7386 163.347 87.5881 166.792V300.05C87.6172 308.233 90.8807 316.072 96.667 321.859C102.453 327.645 110.293 330.908 118.476 330.937H293.542C297.598 330.937 301.614 330.139 305.362 328.586C309.109 327.034 312.514 324.759 315.382 321.891C318.25 319.023 320.526 315.618 322.078 311.87C323.63 308.123 324.429 304.106 324.429 300.05V52.95C324.429 44.7581 321.175 36.9017 315.382 31.1092C309.59 25.3167 301.733 22.0625 293.542 22.0625ZM49.1994 95.0893C49.1994 84.6994 52.2818 74.543 58.0564 65.9056C63.831 57.2682 72.0383 50.5381 81.6395 46.5671C91.2406 42.5961 101.804 41.5627 111.993 43.5977C122.181 45.6328 131.537 50.6447 138.876 57.9992C146.216 65.3537 151.208 74.7202 153.221 84.9132C155.235 95.1061 154.179 105.667 150.188 115.26C146.197 124.853 139.45 133.046 130.8 138.802C122.151 144.559 111.988 147.62 101.598 147.598C94.7075 147.598 87.8848 146.239 81.5203 143.599C75.1558 140.959 69.3746 137.089 64.5075 132.212C59.6404 127.335 55.783 121.545 53.1563 115.175C50.5295 108.805 49.1849 101.98 49.1994 95.0893ZM303.801 300.05C303.801 302.771 302.72 305.38 300.796 307.304C298.872 309.228 296.262 310.309 293.542 310.309H118.476C115.755 310.309 113.145 309.228 111.221 307.304C109.297 305.38 108.217 302.771 108.217 300.05V167.675C125.603 166.071 141.823 158.235 153.886 145.612C154.765 145.719 155.654 145.719 156.533 145.612H255.815C258.36 145.612 260.801 144.601 262.601 142.802C264.401 141.002 265.412 138.561 265.412 136.015C265.412 133.47 264.401 131.029 262.601 129.229C260.801 127.429 258.36 126.418 255.815 126.418H167.565C174.39 112.57 176.637 96.91 173.98 81.7013C171.322 66.4925 163.899 52.5222 152.783 41.8084H293.983C296.704 41.8084 299.313 42.8893 301.237 44.8132C303.161 46.7371 304.242 49.3466 304.242 52.0675L303.801 300.05Z" fill="#6255A4"/>
<path d="M49.1994 95.0893C49.1994 84.6994 52.2818 74.543 58.0564 65.9056C63.831 57.2682 72.0383 50.5381 81.6395 46.5671C91.2406 42.5961 101.804 41.5627 111.993 43.5977C122.181 45.6328 131.537 50.6447 138.876 57.9992C146.216 65.3537 151.208 74.7202 153.221 84.9132C155.235 95.1061 154.179 105.667 150.188 115.26C146.197 124.853 139.45 133.046 130.8 138.802C122.151 144.559 111.988 147.62 101.598 147.598C94.7075 147.598 87.8848 146.239 81.5203 143.599C75.1558 140.959 69.3746 137.089 64.5075 132.212C59.6404 127.335 55.783 121.545 53.1563 115.175C50.5295 108.805 49.1849 101.98 49.1994 95.0893Z" fill="#BEB6EB"/>
<path d="M303.801 300.05C303.801 302.771 302.72 305.38 300.796 307.304C298.872 309.228 296.262 310.309 293.542 310.309H118.476C115.755 310.309 113.145 309.228 111.221 307.304C109.297 305.38 108.217 302.771 108.217 300.05V167.675C125.603 166.071 141.823 158.235 153.886 145.612C154.765 145.719 155.654 145.719 156.533 145.612H255.815C258.36 145.612 260.801 144.601 262.601 142.802C264.401 141.002 265.412 138.561 265.412 136.015C265.412 133.47 264.401 131.029 262.601 129.229C260.801 127.429 258.36 126.418 255.815 126.418H167.565C174.39 112.57 176.637 96.91 173.98 81.7013C171.322 66.4925 163.899 52.5222 152.783 41.8084H293.983C296.704 41.8084 299.313 42.8893 301.237 44.8132C303.161 46.7371 304.242 49.3466 304.242 52.0675L303.801 300.05Z" fill="#EFECFF"/>
<path d="M134.581 70.7103C133.635 69.7362 132.504 68.9618 131.253 68.4331C130.002 67.9043 128.658 67.6318 127.301 67.6318C125.943 67.6318 124.599 67.9043 123.348 68.4331C122.098 68.9618 120.966 69.7362 120.02 70.7103L93.1037 97.7368L83.1756 88.2499C82.3185 87.0456 81.2114 86.0408 79.9299 85.3041C78.6484 84.5675 77.2228 84.1164 75.7508 83.9819C74.2788 83.8474 72.7951 84.0326 71.4013 84.5247C70.0075 85.0169 68.7365 85.8044 67.6753 86.8334C66.6142 87.8624 65.7879 89.1086 65.2531 90.4866C64.7183 91.8646 64.4876 93.3419 64.5768 94.8173C64.6659 96.2928 65.0729 97.7315 65.7698 99.0351C66.4667 100.339 67.437 101.476 68.6144 102.37L85.8231 119.579C86.7811 120.53 87.9173 121.282 89.1666 121.793C90.416 122.305 91.7539 122.564 93.1037 122.557C95.8142 122.493 98.406 121.432 100.384 119.579L134.581 85.2715C135.555 84.3256 136.33 83.1938 136.858 81.9432C137.387 80.6926 137.66 79.3487 137.66 77.9909C137.66 76.6331 137.387 75.2891 136.858 74.0385C136.33 72.7879 135.555 71.6562 134.581 70.7103Z" fill="#6255A4"/>
<path d="M255.484 166.903H156.203C153.657 166.903 151.216 167.914 149.416 169.714C147.616 171.514 146.605 173.955 146.605 176.5C146.605 179.045 147.616 181.486 149.416 183.286C151.216 185.086 153.657 186.097 156.203 186.097H255.484C258.029 186.097 260.47 185.086 262.27 183.286C264.07 181.486 265.081 179.045 265.081 176.5C265.081 173.955 264.07 171.514 262.27 169.714C260.47 167.914 258.029 166.903 255.484 166.903Z" fill="#6255A4"/>
<path d="M255.484 206.505H156.203C153.657 206.505 151.216 207.516 149.416 209.316C147.616 211.116 146.605 213.557 146.605 216.102C146.605 218.648 147.616 221.089 149.416 222.888C151.216 224.688 153.657 225.699 156.203 225.699H255.484C258.029 225.699 260.47 224.688 262.27 222.888C264.07 221.089 265.081 218.648 265.081 216.102C265.081 213.557 264.07 211.116 262.27 209.316C260.47 207.516 258.029 206.505 255.484 206.505Z" fill="#6255A4"/>
</svg>
