<svg width="401" height="401" viewBox="0 0 401 401" fill="none" xmlns="http://www.w3.org/2000/svg">
<path fill-rule="evenodd" clip-rule="evenodd" d="M40.4149 128.614V126.81C40.4149 116.368 46.7322 106.356 57.9743 98.9717C69.2179 91.5892 84.4669 87.4414 100.367 87.4414C157.609 87.4414 243.391 87.4414 300.633 87.4414C316.533 87.4414 331.782 91.5892 343.026 98.9717C354.268 106.356 360.585 116.368 360.585 126.81V128.614C358.315 128.442 356.021 128.354 353.713 128.354C272.528 128.354 128.472 128.354 47.2867 128.354C44.9794 128.354 42.6846 128.442 40.4149 128.614Z" fill="#BEB6EB"/>
<path fill-rule="evenodd" clip-rule="evenodd" d="M80.2783 89.7175V87.9835C80.2783 77.5418 86.5941 67.5293 97.8377 60.1453C109.081 52.7628 124.33 48.615 140.231 48.615C177.024 48.615 223.976 48.615 260.769 48.615C276.67 48.615 291.919 52.7628 303.162 60.1453C314.406 67.5293 320.722 77.5418 320.722 87.9835V89.7175C314.332 88.2247 307.544 87.4415 300.633 87.4415C243.391 87.4415 157.609 87.4415 100.367 87.4415C93.4565 87.4415 86.6677 88.2247 80.2783 89.7175Z" fill="#8777D6"/>
<path d="M71.3216 82.443C74.1834 64.8726 90.9988 51.0992 107.086 45.0404C117.491 41.1196 128.704 39.2854 139.821 39.218C180.273 39.135 220.727 39.135 261.179 39.218C290.011 39.3935 321.959 51.6428 328.997 79.1222C329.265 80.1686 329.484 81.2275 329.656 82.2942C348.281 87.9881 364.149 99.5576 368.859 117.949C369.55 120.641 369.918 123.414 369.976 126.193C386.949 135.843 399.275 154.05 399.471 174.905C399.604 218.517 399.604 262.13 399.471 305.744C399.197 334.929 373.837 361.5 343.431 361.782C248.144 362.084 152.856 362.084 57.5686 361.782C28.5055 361.512 1.81548 336.508 1.52883 305.742C1.39412 262.13 1.39412 218.517 1.52883 174.905C1.71523 154.919 13.6058 136.047 31.0243 126.121C31.0524 124.551 31.1026 124.158 31.206 123.157C33.1248 104.688 50.5652 90.1403 67.2223 83.8669C68.5757 83.3562 69.9416 82.8816 71.3216 82.443ZM345.291 137.734C248.797 137.518 152.303 137.518 55.8095 137.734C37.1755 138.946 20.5105 155.184 20.3257 175.021C20.191 218.634 19.9216 262.249 20.3273 305.86C20.6249 325.05 37.1332 342.669 57.4511 342.983C152.812 343.867 248.188 343.867 343.549 342.983C362.855 342.684 380.358 326.121 380.673 305.86C381.083 262.171 381.083 218.476 380.673 174.787C380.383 156.081 364.747 138.99 345.291 137.734ZM301.171 96.8414C234.242 96.6049 167.314 96.8399 100.385 96.8399C94.3243 96.8618 88.2874 97.5212 82.382 98.8777C82.382 98.8777 82.0546 98.9357 81.5424 98.9843C73.9798 100.809 66.8041 103.893 60.6419 108.591C57.0752 111.309 53.886 114.658 51.8434 118.672L51.7024 118.956H54.9104C55.7907 118.904 56.6773 118.873 57.5686 118.865C152.856 118.569 248.144 118.569 343.431 118.865C344.305 118.873 345.175 118.904 346.044 118.956H349.298C344.103 108.325 332.565 101.901 319.368 98.895C318.762 98.8558 318.143 98.7681 317.517 98.6287C315.115 98.1149 314.888 98.0961 313.712 97.9019C309.585 97.2205 305.408 96.8868 301.229 96.843L301.171 96.8414ZM308.04 78.3218C308.309 78.339 308.466 78.3484 308.466 78.3484C299.777 63.9563 279.793 58.1292 261.103 58.0149C220.589 57.9319 180.076 57.769 139.562 58.0165C121.298 58.2029 101.4 63.9203 92.5919 78.2513C92.5919 78.2513 95.5007 78.126 98.2434 78.068C98.5113 78.0633 98.7792 78.0571 99.0454 78.0539H99.0721L99.3384 78.0492L99.4355 78.0477H99.4449L99.6532 78.0461L99.8349 78.0445H99.9571L100.414 78.043C128.417 77.9459 156.42 77.9302 184.422 77.9443C223.153 77.9318 261.884 77.9647 300.614 78.043L301.043 78.0445C301.247 78.0445 301.45 78.0477 301.655 78.0492L302.06 78.0539C302.235 78.0555 302.415 78.0602 302.6 78.0649C304.404 78.1041 306.221 78.1886 308.04 78.3218Z" fill="#6255A4"/>
<path d="M345.291 137.734C248.797 137.518 152.303 137.518 55.8095 137.734C37.1755 138.946 20.5105 155.184 20.3257 175.021C20.191 218.634 19.9216 262.249 20.3273 305.86C20.6249 325.05 37.1332 342.669 57.4511 342.983C152.812 343.867 248.188 343.867 343.549 342.983C362.855 342.684 380.358 326.121 380.673 305.86C381.083 262.171 381.083 218.476 380.673 174.787C380.383 156.081 364.747 138.99 345.291 137.734Z" fill="#EFECFF"/>
<path fill-rule="evenodd" clip-rule="evenodd" d="M272.254 241.165L155.322 311.148V171.183L272.254 241.165Z" fill="#BEB6EB"/>
<path d="M156.139 161.819C157.543 161.996 158.885 162.425 160.148 163.118L277.082 233.1C279.044 234.38 279.439 234.964 280.152 236.07C282.613 239.884 281.796 245.462 278.252 248.401C277.76 248.81 277.616 248.882 277.082 249.229L160.148 319.213C158.121 320.324 157.432 320.397 156.139 320.51C151.461 320.919 146.753 317.324 146.03 312.559C145.934 311.936 145.947 311.776 145.923 311.148V171.183C146.005 169.007 146.216 168.65 146.583 167.725C148.05 164.015 151.929 161.611 156.139 161.819ZM164.72 294.571L253.954 241.165L164.72 187.76C164.72 223.363 164.72 258.968 164.72 294.571Z" fill="#6255A4"/>
</svg>
