<svg width="1920" height="1080" viewBox="0 0 1920 1080" fill="none" xmlns="http://www.w3.org/2000/svg">
<path fill-rule="evenodd" clip-rule="evenodd" d="M3 17C3 20.749 5.29227 23.9627 8.55169 25.3158C8.19109 26.8184 8.00011 28.3869 8.00011 30.0001C8.00011 41.0458 16.9544 50.0002 28.0002 50.0002C39.0459 50.0002 48.0003 41.0458 48.0003 30.0001C48.0003 28.3869 47.8093 26.8183 47.4486 25.3157C50.7079 23.9624 53 20.7489 53 17C53 12.0295 48.9705 8 44 8C40.913 8 38.1889 9.55421 36.5677 11.9228C33.9708 10.6899 31.0661 10 28.0002 10C24.9342 10 22.0293 10.6899 19.4324 11.923C17.8112 9.55427 15.0871 8 12 8C7.02945 8 3 12.0295 3 17Z" fill="#8F84CE" fill-opacity="0.3"/>
<path fill-rule="evenodd" clip-rule="evenodd" d="M153 17C153 20.749 155.292 23.9627 158.552 25.3158C158.191 26.8184 158 28.3869 158 30.0001C158 41.0458 166.954 50.0002 178 50.0002C189.046 50.0002 198 41.0458 198 30.0001C198 28.3869 197.809 26.8183 197.449 25.3157C200.708 23.9624 203 20.7489 203 17C203 12.0295 198.971 8 194 8C190.913 8 188.189 9.55421 186.568 11.9228C183.971 10.6899 181.066 10 178 10C174.934 10 172.029 10.6899 169.432 11.923C167.811 9.55427 165.087 8 162 8C157.029 8 153 12.0295 153 17Z" fill="#8F84CE" fill-opacity="0.3"/>
<path fill-rule="evenodd" clip-rule="evenodd" d="M303 17C303 20.749 305.292 23.9627 308.552 25.3158C308.191 26.8184 308 28.3869 308 30.0001C308 41.0458 316.954 50.0002 328 50.0002C339.046 50.0002 348 41.0458 348 30.0001C348 28.3869 347.809 26.8183 347.449 25.3157C350.708 23.9624 353 20.7489 353 17C353 12.0295 348.971 8 344 8C340.913 8 338.189 9.55421 336.568 11.9228C333.971 10.6899 331.066 10 328 10C324.934 10 322.029 10.6899 319.432 11.923C317.811 9.55427 315.087 8 312 8C307.029 8 303 12.0295 303 17Z" fill="#8F84CE" fill-opacity="0.3"/>
<path fill-rule="evenodd" clip-rule="evenodd" d="M453 17C453 20.749 455.292 23.9627 458.552 25.3158C458.191 26.8184 458 28.3869 458 30.0001C458 41.0458 466.954 50.0002 478 50.0002C489.046 50.0002 498 41.0458 498 30.0001C498 28.3869 497.809 26.8183 497.449 25.3157C500.708 23.9624 503 20.7489 503 17C503 12.0295 498.971 8 494 8C490.913 8 488.189 9.55421 486.568 11.9228C483.971 10.6899 481.066 10 478 10C474.934 10 472.029 10.6899 469.432 11.923C467.811 9.55427 465.087 8 462 8C457.029 8 453 12.0295 453 17Z" fill="#8F84CE" fill-opacity="0.3"/>
<path fill-rule="evenodd" clip-rule="evenodd" d="M603 17C603 20.749 605.292 23.9627 608.552 25.3158C608.191 26.8184 608 28.3869 608 30.0001C608 41.0458 616.954 50.0002 628 50.0002C639.046 50.0002 648 41.0458 648 30.0001C648 28.3869 647.809 26.8183 647.449 25.3157C650.708 23.9624 653 20.7489 653 17C653 12.0295 648.971 8 644 8C640.913 8 638.189 9.55421 636.568 11.9228C633.971 10.6899 631.066 10 628 10C624.934 10 622.029 10.6899 619.432 11.923C617.811 9.55427 615.087 8 612 8C607.029 8 603 12.0295 603 17Z" fill="#8F84CE" fill-opacity="0.3"/>
<path fill-rule="evenodd" clip-rule="evenodd" d="M753 17C753 20.749 755.292 23.9627 758.552 25.3158C758.191 26.8184 758 28.3869 758 30.0001C758 41.0458 766.954 50.0002 778 50.0002C789.046 50.0002 798 41.0458 798 30.0001C798 28.3869 797.809 26.8183 797.449 25.3157C800.708 23.9624 803 20.7489 803 17C803 12.0295 798.971 8 794 8C790.913 8 788.189 9.55421 786.568 11.9228C783.971 10.6899 781.066 10 778 10C774.934 10 772.029 10.6899 769.432 11.923C767.811 9.55427 765.087 8 762 8C757.029 8 753 12.0295 753 17Z" fill="#8F84CE" fill-opacity="0.3"/>
<path fill-rule="evenodd" clip-rule="evenodd" d="M903 17C903 20.749 905.292 23.9627 908.552 25.3158C908.191 26.8184 908 28.3869 908 30.0001C908 41.0458 916.954 50.0002 928 50.0002C939.046 50.0002 948 41.0458 948 30.0001C948 28.3869 947.809 26.8183 947.449 25.3157C950.708 23.9624 953 20.7489 953 17C953 12.0295 948.971 8 944 8C940.913 8 938.189 9.55421 936.568 11.9228C933.971 10.6899 931.066 10 928 10C924.934 10 922.029 10.6899 919.432 11.923C917.811 9.55427 915.087 8 912 8C907.029 8 903 12.0295 903 17Z" fill="#8F84CE" fill-opacity="0.3"/>
<path fill-rule="evenodd" clip-rule="evenodd" d="M1053 17C1053 20.749 1055.29 23.9627 1058.55 25.3158C1058.19 26.8184 1058 28.3869 1058 30.0001C1058 41.0458 1066.95 50.0002 1078 50.0002C1089.05 50.0002 1098 41.0458 1098 30.0001C1098 28.3869 1097.81 26.8183 1097.45 25.3157C1100.71 23.9624 1103 20.7489 1103 17C1103 12.0295 1098.97 8 1094 8C1090.91 8 1088.19 9.55421 1086.57 11.9228C1083.97 10.6899 1081.07 10 1078 10C1074.93 10 1072.03 10.6899 1069.43 11.923C1067.81 9.55427 1065.09 8 1062 8C1057.03 8 1053 12.0295 1053 17Z" fill="#8F84CE" fill-opacity="0.3"/>
<path fill-rule="evenodd" clip-rule="evenodd" d="M1203 17C1203 20.749 1205.29 23.9627 1208.55 25.3158C1208.19 26.8184 1208 28.3869 1208 30.0001C1208 41.0458 1216.95 50.0002 1228 50.0002C1239.05 50.0002 1248 41.0458 1248 30.0001C1248 28.3869 1247.81 26.8183 1247.45 25.3157C1250.71 23.9624 1253 20.7489 1253 17C1253 12.0295 1248.97 8 1244 8C1240.91 8 1238.19 9.55421 1236.57 11.9228C1233.97 10.6899 1231.07 10 1228 10C1224.93 10 1222.03 10.6899 1219.43 11.923C1217.81 9.55427 1215.09 8 1212 8C1207.03 8 1203 12.0295 1203 17Z" fill="#8F84CE" fill-opacity="0.3"/>
<path fill-rule="evenodd" clip-rule="evenodd" d="M1353 17C1353 20.749 1355.29 23.9627 1358.55 25.3158C1358.19 26.8184 1358 28.3869 1358 30.0001C1358 41.0458 1366.95 50.0002 1378 50.0002C1389.05 50.0002 1398 41.0458 1398 30.0001C1398 28.3869 1397.81 26.8183 1397.45 25.3157C1400.71 23.9624 1403 20.7489 1403 17C1403 12.0295 1398.97 8 1394 8C1390.91 8 1388.19 9.55421 1386.57 11.9228C1383.97 10.6899 1381.07 10 1378 10C1374.93 10 1372.03 10.6899 1369.43 11.923C1367.81 9.55427 1365.09 8 1362 8C1357.03 8 1353 12.0295 1353 17Z" fill="#8F84CE" fill-opacity="0.3"/>
<path fill-rule="evenodd" clip-rule="evenodd" d="M1503 17C1503 20.749 1505.29 23.9627 1508.55 25.3158C1508.19 26.8184 1508 28.3869 1508 30.0001C1508 41.0458 1516.95 50.0002 1528 50.0002C1539.05 50.0002 1548 41.0458 1548 30.0001C1548 28.3869 1547.81 26.8183 1547.45 25.3157C1550.71 23.9624 1553 20.7489 1553 17C1553 12.0295 1548.97 8 1544 8C1540.91 8 1538.19 9.55421 1536.57 11.9228C1533.97 10.6899 1531.07 10 1528 10C1524.93 10 1522.03 10.6899 1519.43 11.923C1517.81 9.55427 1515.09 8 1512 8C1507.03 8 1503 12.0295 1503 17Z" fill="#8F84CE" fill-opacity="0.3"/>
<path fill-rule="evenodd" clip-rule="evenodd" d="M1653 17C1653 20.749 1655.29 23.9627 1658.55 25.3158C1658.19 26.8184 1658 28.3869 1658 30.0001C1658 41.0458 1666.95 50.0002 1678 50.0002C1689.05 50.0002 1698 41.0458 1698 30.0001C1698 28.3869 1697.81 26.8183 1697.45 25.3157C1700.71 23.9624 1703 20.7489 1703 17C1703 12.0295 1698.97 8 1694 8C1690.91 8 1688.19 9.55421 1686.57 11.9228C1683.97 10.6899 1681.07 10 1678 10C1674.93 10 1672.03 10.6899 1669.43 11.923C1667.81 9.55427 1665.09 8 1662 8C1657.03 8 1653 12.0295 1653 17Z" fill="#8F84CE" fill-opacity="0.3"/>
<path fill-rule="evenodd" clip-rule="evenodd" d="M1803 17C1803 20.749 1805.29 23.9627 1808.55 25.3158C1808.19 26.8184 1808 28.3869 1808 30.0001C1808 41.0458 1816.95 50.0002 1828 50.0002C1839.05 50.0002 1848 41.0458 1848 30.0001C1848 28.3869 1847.81 26.8183 1847.45 25.3157C1850.71 23.9624 1853 20.7489 1853 17C1853 12.0295 1848.97 8 1844 8C1840.91 8 1838.19 9.55421 1836.57 11.9228C1833.97 10.6899 1831.07 10 1828 10C1824.93 10 1822.03 10.6899 1819.43 11.923C1817.81 9.55427 1815.09 8 1812 8C1807.03 8 1803 12.0295 1803 17Z" fill="#8F84CE" fill-opacity="0.3"/>
<path fill-rule="evenodd" clip-rule="evenodd" d="M66 109C66 112.749 68.2923 115.963 71.5517 117.316C71.1911 118.819 71.0001 120.387 71.0001 122C71.0001 133.046 79.9544 142 91.0002 142C102.046 142 111 133.046 111 122C111 120.387 110.809 118.818 110.449 117.316C113.708 115.963 116 112.749 116 109C116 104.03 111.971 100 107 100C103.913 100 101.189 101.554 99.5677 103.923C96.9708 102.69 94.0661 102 91.0002 102C87.9342 102 85.0293 102.69 82.4324 103.923C80.8112 101.554 78.0871 100 75 100C70.0295 100 66 104.03 66 109Z" fill="#8F84CE" fill-opacity="0.3"/>
<path fill-rule="evenodd" clip-rule="evenodd" d="M216 109C216 112.749 218.292 115.963 221.552 117.316C221.191 118.819 221 120.387 221 122C221 133.046 229.954 142 241 142C252.046 142 261 133.046 261 122C261 120.387 260.809 118.818 260.449 117.316C263.708 115.963 266 112.749 266 109C266 104.03 261.971 100 257 100C253.913 100 251.189 101.554 249.568 103.923C246.971 102.69 244.066 102 241 102C237.934 102 235.029 102.69 232.432 103.923C230.811 101.554 228.087 100 225 100C220.029 100 216 104.03 216 109Z" fill="#8F84CE" fill-opacity="0.3"/>
<path fill-rule="evenodd" clip-rule="evenodd" d="M366 109C366 112.749 368.292 115.963 371.552 117.316C371.191 118.819 371 120.387 371 122C371 133.046 379.954 142 391 142C402.046 142 411 133.046 411 122C411 120.387 410.809 118.818 410.449 117.316C413.708 115.963 416 112.749 416 109C416 104.03 411.971 100 407 100C403.913 100 401.189 101.554 399.568 103.923C396.971 102.69 394.066 102 391 102C387.934 102 385.029 102.69 382.432 103.923C380.811 101.554 378.087 100 375 100C370.029 100 366 104.03 366 109Z" fill="#8F84CE" fill-opacity="0.3"/>
<path fill-rule="evenodd" clip-rule="evenodd" d="M516 109C516 112.749 518.292 115.963 521.552 117.316C521.191 118.819 521 120.387 521 122C521 133.046 529.954 142 541 142C552.046 142 561 133.046 561 122C561 120.387 560.809 118.818 560.449 117.316C563.708 115.963 566 112.749 566 109C566 104.03 561.971 100 557 100C553.913 100 551.189 101.554 549.568 103.923C546.971 102.69 544.066 102 541 102C537.934 102 535.029 102.69 532.432 103.923C530.811 101.554 528.087 100 525 100C520.029 100 516 104.03 516 109Z" fill="#8F84CE" fill-opacity="0.3"/>
<path fill-rule="evenodd" clip-rule="evenodd" d="M666 109C666 112.749 668.292 115.963 671.552 117.316C671.191 118.819 671 120.387 671 122C671 133.046 679.954 142 691 142C702.046 142 711 133.046 711 122C711 120.387 710.809 118.818 710.449 117.316C713.708 115.963 716 112.749 716 109C716 104.03 711.971 100 707 100C703.913 100 701.189 101.554 699.568 103.923C696.971 102.69 694.066 102 691 102C687.934 102 685.029 102.69 682.432 103.923C680.811 101.554 678.087 100 675 100C670.029 100 666 104.03 666 109Z" fill="#8F84CE" fill-opacity="0.3"/>
<path fill-rule="evenodd" clip-rule="evenodd" d="M816 109C816 112.749 818.292 115.963 821.552 117.316C821.191 118.819 821 120.387 821 122C821 133.046 829.954 142 841 142C852.046 142 861 133.046 861 122C861 120.387 860.809 118.818 860.449 117.316C863.708 115.963 866 112.749 866 109C866 104.03 861.971 100 857 100C853.913 100 851.189 101.554 849.568 103.923C846.971 102.69 844.066 102 841 102C837.934 102 835.029 102.69 832.432 103.923C830.811 101.554 828.087 100 825 100C820.029 100 816 104.03 816 109Z" fill="#8F84CE" fill-opacity="0.3"/>
<path fill-rule="evenodd" clip-rule="evenodd" d="M966 109C966 112.749 968.292 115.963 971.552 117.316C971.191 118.819 971 120.387 971 122C971 133.046 979.954 142 991 142C1002.05 142 1011 133.046 1011 122C1011 120.387 1010.81 118.818 1010.45 117.316C1013.71 115.963 1016 112.749 1016 109C1016 104.03 1011.97 100 1007 100C1003.91 100 1001.19 101.554 999.568 103.923C996.971 102.69 994.066 102 991 102C987.934 102 985.029 102.69 982.432 103.923C980.811 101.554 978.087 100 975 100C970.029 100 966 104.03 966 109Z" fill="#8F84CE" fill-opacity="0.3"/>
<path fill-rule="evenodd" clip-rule="evenodd" d="M1116 109C1116 112.749 1118.29 115.963 1121.55 117.316C1121.19 118.819 1121 120.387 1121 122C1121 133.046 1129.95 142 1141 142C1152.05 142 1161 133.046 1161 122C1161 120.387 1160.81 118.818 1160.45 117.316C1163.71 115.963 1166 112.749 1166 109C1166 104.03 1161.97 100 1157 100C1153.91 100 1151.19 101.554 1149.57 103.923C1146.97 102.69 1144.07 102 1141 102C1137.93 102 1135.03 102.69 1132.43 103.923C1130.81 101.554 1128.09 100 1125 100C1120.03 100 1116 104.03 1116 109Z" fill="#8F84CE" fill-opacity="0.3"/>
<path fill-rule="evenodd" clip-rule="evenodd" d="M1266 109C1266 112.749 1268.29 115.963 1271.55 117.316C1271.19 118.819 1271 120.387 1271 122C1271 133.046 1279.95 142 1291 142C1302.05 142 1311 133.046 1311 122C1311 120.387 1310.81 118.818 1310.45 117.316C1313.71 115.963 1316 112.749 1316 109C1316 104.03 1311.97 100 1307 100C1303.91 100 1301.19 101.554 1299.57 103.923C1296.97 102.69 1294.07 102 1291 102C1287.93 102 1285.03 102.69 1282.43 103.923C1280.81 101.554 1278.09 100 1275 100C1270.03 100 1266 104.03 1266 109Z" fill="#8F84CE" fill-opacity="0.3"/>
<path fill-rule="evenodd" clip-rule="evenodd" d="M1416 109C1416 112.749 1418.29 115.963 1421.55 117.316C1421.19 118.819 1421 120.387 1421 122C1421 133.046 1429.95 142 1441 142C1452.05 142 1461 133.046 1461 122C1461 120.387 1460.81 118.818 1460.45 117.316C1463.71 115.963 1466 112.749 1466 109C1466 104.03 1461.97 100 1457 100C1453.91 100 1451.19 101.554 1449.57 103.923C1446.97 102.69 1444.07 102 1441 102C1437.93 102 1435.03 102.69 1432.43 103.923C1430.81 101.554 1428.09 100 1425 100C1420.03 100 1416 104.03 1416 109Z" fill="#8F84CE" fill-opacity="0.3"/>
<path fill-rule="evenodd" clip-rule="evenodd" d="M1566 109C1566 112.749 1568.29 115.963 1571.55 117.316C1571.19 118.819 1571 120.387 1571 122C1571 133.046 1579.95 142 1591 142C1602.05 142 1611 133.046 1611 122C1611 120.387 1610.81 118.818 1610.45 117.316C1613.71 115.963 1616 112.749 1616 109C1616 104.03 1611.97 100 1607 100C1603.91 100 1601.19 101.554 1599.57 103.923C1596.97 102.69 1594.07 102 1591 102C1587.93 102 1585.03 102.69 1582.43 103.923C1580.81 101.554 1578.09 100 1575 100C1570.03 100 1566 104.03 1566 109Z" fill="#8F84CE" fill-opacity="0.3"/>
<path fill-rule="evenodd" clip-rule="evenodd" d="M1716 109C1716 112.749 1718.29 115.963 1721.55 117.316C1721.19 118.819 1721 120.387 1721 122C1721 133.046 1729.95 142 1741 142C1752.05 142 1761 133.046 1761 122C1761 120.387 1760.81 118.818 1760.45 117.316C1763.71 115.963 1766 112.749 1766 109C1766 104.03 1761.97 100 1757 100C1753.91 100 1751.19 101.554 1749.57 103.923C1746.97 102.69 1744.07 102 1741 102C1737.93 102 1735.03 102.69 1732.43 103.923C1730.81 101.554 1728.09 100 1725 100C1720.03 100 1716 104.03 1716 109Z" fill="#8F84CE" fill-opacity="0.3"/>
<path fill-rule="evenodd" clip-rule="evenodd" d="M1866 109C1866 112.749 1868.29 115.963 1871.55 117.316C1871.19 118.819 1871 120.387 1871 122C1871 133.046 1879.95 142 1891 142C1902.05 142 1911 133.046 1911 122C1911 120.387 1910.81 118.818 1910.45 117.316C1913.71 115.963 1916 112.749 1916 109C1916 104.03 1911.97 100 1907 100C1903.91 100 1901.19 101.554 1899.57 103.923C1896.97 102.69 1894.07 102 1891 102C1887.93 102 1885.03 102.69 1882.43 103.923C1880.81 101.554 1878.09 100 1875 100C1870.03 100 1866 104.03 1866 109Z" fill="#8F84CE" fill-opacity="0.3"/>
<path fill-rule="evenodd" clip-rule="evenodd" d="M3 201C3 204.749 5.29227 207.963 8.55169 209.316C8.19109 210.819 8.00011 212.387 8.00011 214C8.00011 225.046 16.9544 234 28.0002 234C39.0459 234 48.0003 225.046 48.0003 214C48.0003 212.387 47.8093 210.819 47.4486 209.316C50.7079 207.963 53 204.749 53 201C53 196.03 48.9705 192 44 192C40.913 192 38.1889 193.555 36.5677 195.923C33.9708 194.69 31.0661 194 28.0002 194C24.9342 194 22.0293 194.69 19.4324 195.923C17.8112 193.555 15.0871 192 12 192C7.02945 192 3 196.03 3 201Z" fill="#8F84CE" fill-opacity="0.3"/>
<path fill-rule="evenodd" clip-rule="evenodd" d="M153 201C153 204.749 155.292 207.963 158.552 209.316C158.191 210.819 158 212.387 158 214C158 225.046 166.954 234 178 234C189.046 234 198 225.046 198 214C198 212.387 197.809 210.819 197.449 209.316C200.708 207.963 203 204.749 203 201C203 196.03 198.971 192 194 192C190.913 192 188.189 193.555 186.568 195.923C183.971 194.69 181.066 194 178 194C174.934 194 172.029 194.69 169.432 195.923C167.811 193.555 165.087 192 162 192C157.029 192 153 196.03 153 201Z" fill="#8F84CE" fill-opacity="0.3"/>
<path fill-rule="evenodd" clip-rule="evenodd" d="M303 201C303 204.749 305.292 207.963 308.552 209.316C308.191 210.819 308 212.387 308 214C308 225.046 316.954 234 328 234C339.046 234 348 225.046 348 214C348 212.387 347.809 210.819 347.449 209.316C350.708 207.963 353 204.749 353 201C353 196.03 348.971 192 344 192C340.913 192 338.189 193.555 336.568 195.923C333.971 194.69 331.066 194 328 194C324.934 194 322.029 194.69 319.432 195.923C317.811 193.555 315.087 192 312 192C307.029 192 303 196.03 303 201Z" fill="#8F84CE" fill-opacity="0.3"/>
<path fill-rule="evenodd" clip-rule="evenodd" d="M453 201C453 204.749 455.292 207.963 458.552 209.316C458.191 210.819 458 212.387 458 214C458 225.046 466.954 234 478 234C489.046 234 498 225.046 498 214C498 212.387 497.809 210.819 497.449 209.316C500.708 207.963 503 204.749 503 201C503 196.03 498.971 192 494 192C490.913 192 488.189 193.555 486.568 195.923C483.971 194.69 481.066 194 478 194C474.934 194 472.029 194.69 469.432 195.923C467.811 193.555 465.087 192 462 192C457.029 192 453 196.03 453 201Z" fill="#8F84CE" fill-opacity="0.3"/>
<path fill-rule="evenodd" clip-rule="evenodd" d="M603 201C603 204.749 605.292 207.963 608.552 209.316C608.191 210.819 608 212.387 608 214C608 225.046 616.954 234 628 234C639.046 234 648 225.046 648 214C648 212.387 647.809 210.819 647.449 209.316C650.708 207.963 653 204.749 653 201C653 196.03 648.971 192 644 192C640.913 192 638.189 193.555 636.568 195.923C633.971 194.69 631.066 194 628 194C624.934 194 622.029 194.69 619.432 195.923C617.811 193.555 615.087 192 612 192C607.029 192 603 196.03 603 201Z" fill="#8F84CE" fill-opacity="0.3"/>
<path fill-rule="evenodd" clip-rule="evenodd" d="M753 201C753 204.749 755.292 207.963 758.552 209.316C758.191 210.819 758 212.387 758 214C758 225.046 766.954 234 778 234C789.046 234 798 225.046 798 214C798 212.387 797.809 210.819 797.449 209.316C800.708 207.963 803 204.749 803 201C803 196.03 798.971 192 794 192C790.913 192 788.189 193.555 786.568 195.923C783.971 194.69 781.066 194 778 194C774.934 194 772.029 194.69 769.432 195.923C767.811 193.555 765.087 192 762 192C757.029 192 753 196.03 753 201Z" fill="#8F84CE" fill-opacity="0.3"/>
<path fill-rule="evenodd" clip-rule="evenodd" d="M903 201C903 204.749 905.292 207.963 908.552 209.316C908.191 210.819 908 212.387 908 214C908 225.046 916.954 234 928 234C939.046 234 948 225.046 948 214C948 212.387 947.809 210.819 947.449 209.316C950.708 207.963 953 204.749 953 201C953 196.03 948.971 192 944 192C940.913 192 938.189 193.555 936.568 195.923C933.971 194.69 931.066 194 928 194C924.934 194 922.029 194.69 919.432 195.923C917.811 193.555 915.087 192 912 192C907.029 192 903 196.03 903 201Z" fill="#8F84CE" fill-opacity="0.3"/>
<path fill-rule="evenodd" clip-rule="evenodd" d="M1053 201C1053 204.749 1055.29 207.963 1058.55 209.316C1058.19 210.819 1058 212.387 1058 214C1058 225.046 1066.95 234 1078 234C1089.05 234 1098 225.046 1098 214C1098 212.387 1097.81 210.819 1097.45 209.316C1100.71 207.963 1103 204.749 1103 201C1103 196.03 1098.97 192 1094 192C1090.91 192 1088.19 193.555 1086.57 195.923C1083.97 194.69 1081.07 194 1078 194C1074.93 194 1072.03 194.69 1069.43 195.923C1067.81 193.555 1065.09 192 1062 192C1057.03 192 1053 196.03 1053 201Z" fill="#8F84CE" fill-opacity="0.3"/>
<path fill-rule="evenodd" clip-rule="evenodd" d="M1203 201C1203 204.749 1205.29 207.963 1208.55 209.316C1208.19 210.819 1208 212.387 1208 214C1208 225.046 1216.95 234 1228 234C1239.05 234 1248 225.046 1248 214C1248 212.387 1247.81 210.819 1247.45 209.316C1250.71 207.963 1253 204.749 1253 201C1253 196.03 1248.97 192 1244 192C1240.91 192 1238.19 193.555 1236.57 195.923C1233.97 194.69 1231.07 194 1228 194C1224.93 194 1222.03 194.69 1219.43 195.923C1217.81 193.555 1215.09 192 1212 192C1207.03 192 1203 196.03 1203 201Z" fill="#8F84CE" fill-opacity="0.3"/>
<path fill-rule="evenodd" clip-rule="evenodd" d="M1353 201C1353 204.749 1355.29 207.963 1358.55 209.316C1358.19 210.819 1358 212.387 1358 214C1358 225.046 1366.95 234 1378 234C1389.05 234 1398 225.046 1398 214C1398 212.387 1397.81 210.819 1397.45 209.316C1400.71 207.963 1403 204.749 1403 201C1403 196.03 1398.97 192 1394 192C1390.91 192 1388.19 193.555 1386.57 195.923C1383.97 194.69 1381.07 194 1378 194C1374.93 194 1372.03 194.69 1369.43 195.923C1367.81 193.555 1365.09 192 1362 192C1357.03 192 1353 196.03 1353 201Z" fill="#8F84CE" fill-opacity="0.3"/>
<path fill-rule="evenodd" clip-rule="evenodd" d="M1503 201C1503 204.749 1505.29 207.963 1508.55 209.316C1508.19 210.819 1508 212.387 1508 214C1508 225.046 1516.95 234 1528 234C1539.05 234 1548 225.046 1548 214C1548 212.387 1547.81 210.819 1547.45 209.316C1550.71 207.963 1553 204.749 1553 201C1553 196.03 1548.97 192 1544 192C1540.91 192 1538.19 193.555 1536.57 195.923C1533.97 194.69 1531.07 194 1528 194C1524.93 194 1522.03 194.69 1519.43 195.923C1517.81 193.555 1515.09 192 1512 192C1507.03 192 1503 196.03 1503 201Z" fill="#8F84CE" fill-opacity="0.3"/>
<path fill-rule="evenodd" clip-rule="evenodd" d="M1653 201C1653 204.749 1655.29 207.963 1658.55 209.316C1658.19 210.819 1658 212.387 1658 214C1658 225.046 1666.95 234 1678 234C1689.05 234 1698 225.046 1698 214C1698 212.387 1697.81 210.819 1697.45 209.316C1700.71 207.963 1703 204.749 1703 201C1703 196.03 1698.97 192 1694 192C1690.91 192 1688.19 193.555 1686.57 195.923C1683.97 194.69 1681.07 194 1678 194C1674.93 194 1672.03 194.69 1669.43 195.923C1667.81 193.555 1665.09 192 1662 192C1657.03 192 1653 196.03 1653 201Z" fill="#8F84CE" fill-opacity="0.3"/>
<path fill-rule="evenodd" clip-rule="evenodd" d="M1803 201C1803 204.749 1805.29 207.963 1808.55 209.316C1808.19 210.819 1808 212.387 1808 214C1808 225.046 1816.95 234 1828 234C1839.05 234 1848 225.046 1848 214C1848 212.387 1847.81 210.819 1847.45 209.316C1850.71 207.963 1853 204.749 1853 201C1853 196.03 1848.97 192 1844 192C1840.91 192 1838.19 193.555 1836.57 195.923C1833.97 194.69 1831.07 194 1828 194C1824.93 194 1822.03 194.69 1819.43 195.923C1817.81 193.555 1815.09 192 1812 192C1807.03 192 1803 196.03 1803 201Z" fill="#8F84CE" fill-opacity="0.3"/>
<path fill-rule="evenodd" clip-rule="evenodd" d="M66 293C66 296.75 68.2923 299.963 71.5517 301.316C71.1911 302.819 71.0001 304.387 71.0001 306.001C71.0001 317.046 79.9544 326.001 91.0002 326.001C102.046 326.001 111 317.046 111 306.001C111 304.387 110.809 302.819 110.449 301.316C113.708 299.963 116 296.749 116 293C116 288.03 111.971 284 107 284C103.913 284 101.189 285.555 99.5677 287.923C96.9708 286.69 94.0661 286 91.0002 286C87.9342 286 85.0293 286.69 82.4324 287.923C80.8112 285.555 78.0871 284 75 284C70.0295 284 66 288.03 66 293Z" fill="#8F84CE" fill-opacity="0.3"/>
<path fill-rule="evenodd" clip-rule="evenodd" d="M216 293C216 296.75 218.292 299.963 221.552 301.316C221.191 302.819 221 304.387 221 306.001C221 317.046 229.954 326.001 241 326.001C252.046 326.001 261 317.046 261 306.001C261 304.387 260.809 302.819 260.449 301.316C263.708 299.963 266 296.749 266 293C266 288.03 261.971 284 257 284C253.913 284 251.189 285.555 249.568 287.923C246.971 286.69 244.066 286 241 286C237.934 286 235.029 286.69 232.432 287.923C230.811 285.555 228.087 284 225 284C220.029 284 216 288.03 216 293Z" fill="#8F84CE" fill-opacity="0.3"/>
<path fill-rule="evenodd" clip-rule="evenodd" d="M366 293C366 296.75 368.292 299.963 371.552 301.316C371.191 302.819 371 304.387 371 306.001C371 317.046 379.954 326.001 391 326.001C402.046 326.001 411 317.046 411 306.001C411 304.387 410.809 302.819 410.449 301.316C413.708 299.963 416 296.749 416 293C416 288.03 411.971 284 407 284C403.913 284 401.189 285.555 399.568 287.923C396.971 286.69 394.066 286 391 286C387.934 286 385.029 286.69 382.432 287.923C380.811 285.555 378.087 284 375 284C370.029 284 366 288.03 366 293Z" fill="#8F84CE" fill-opacity="0.3"/>
<path fill-rule="evenodd" clip-rule="evenodd" d="M516 293C516 296.75 518.292 299.963 521.552 301.316C521.191 302.819 521 304.387 521 306.001C521 317.046 529.954 326.001 541 326.001C552.046 326.001 561 317.046 561 306.001C561 304.387 560.809 302.819 560.449 301.316C563.708 299.963 566 296.749 566 293C566 288.03 561.971 284 557 284C553.913 284 551.189 285.555 549.568 287.923C546.971 286.69 544.066 286 541 286C537.934 286 535.029 286.69 532.432 287.923C530.811 285.555 528.087 284 525 284C520.029 284 516 288.03 516 293Z" fill="#8F84CE" fill-opacity="0.3"/>
<path fill-rule="evenodd" clip-rule="evenodd" d="M666 293C666 296.75 668.292 299.963 671.552 301.316C671.191 302.819 671 304.387 671 306.001C671 317.046 679.954 326.001 691 326.001C702.046 326.001 711 317.046 711 306.001C711 304.387 710.809 302.819 710.449 301.316C713.708 299.963 716 296.749 716 293C716 288.03 711.971 284 707 284C703.913 284 701.189 285.555 699.568 287.923C696.971 286.69 694.066 286 691 286C687.934 286 685.029 286.69 682.432 287.923C680.811 285.555 678.087 284 675 284C670.029 284 666 288.03 666 293Z" fill="#8F84CE" fill-opacity="0.3"/>
<path fill-rule="evenodd" clip-rule="evenodd" d="M816 293C816 296.75 818.292 299.963 821.552 301.316C821.191 302.819 821 304.387 821 306.001C821 317.046 829.954 326.001 841 326.001C852.046 326.001 861 317.046 861 306.001C861 304.387 860.809 302.819 860.449 301.316C863.708 299.963 866 296.749 866 293C866 288.03 861.971 284 857 284C853.913 284 851.189 285.555 849.568 287.923C846.971 286.69 844.066 286 841 286C837.934 286 835.029 286.69 832.432 287.923C830.811 285.555 828.087 284 825 284C820.029 284 816 288.03 816 293Z" fill="#8F84CE" fill-opacity="0.3"/>
<path fill-rule="evenodd" clip-rule="evenodd" d="M966 293C966 296.75 968.292 299.963 971.552 301.316C971.191 302.819 971 304.387 971 306.001C971 317.046 979.954 326.001 991 326.001C1002.05 326.001 1011 317.046 1011 306.001C1011 304.387 1010.81 302.819 1010.45 301.316C1013.71 299.963 1016 296.749 1016 293C1016 288.03 1011.97 284 1007 284C1003.91 284 1001.19 285.555 999.568 287.923C996.971 286.69 994.066 286 991 286C987.934 286 985.029 286.69 982.432 287.923C980.811 285.555 978.087 284 975 284C970.029 284 966 288.03 966 293Z" fill="#8F84CE" fill-opacity="0.3"/>
<path fill-rule="evenodd" clip-rule="evenodd" d="M1116 293C1116 296.75 1118.29 299.963 1121.55 301.316C1121.19 302.819 1121 304.387 1121 306.001C1121 317.046 1129.95 326.001 1141 326.001C1152.05 326.001 1161 317.046 1161 306.001C1161 304.387 1160.81 302.819 1160.45 301.316C1163.71 299.963 1166 296.749 1166 293C1166 288.03 1161.97 284 1157 284C1153.91 284 1151.19 285.555 1149.57 287.923C1146.97 286.69 1144.07 286 1141 286C1137.93 286 1135.03 286.69 1132.43 287.923C1130.81 285.555 1128.09 284 1125 284C1120.03 284 1116 288.03 1116 293Z" fill="#8F84CE" fill-opacity="0.3"/>
<path fill-rule="evenodd" clip-rule="evenodd" d="M1266 293C1266 296.75 1268.29 299.963 1271.55 301.316C1271.19 302.819 1271 304.387 1271 306.001C1271 317.046 1279.95 326.001 1291 326.001C1302.05 326.001 1311 317.046 1311 306.001C1311 304.387 1310.81 302.819 1310.45 301.316C1313.71 299.963 1316 296.749 1316 293C1316 288.03 1311.97 284 1307 284C1303.91 284 1301.19 285.555 1299.57 287.923C1296.97 286.69 1294.07 286 1291 286C1287.93 286 1285.03 286.69 1282.43 287.923C1280.81 285.555 1278.09 284 1275 284C1270.03 284 1266 288.03 1266 293Z" fill="#8F84CE" fill-opacity="0.3"/>
<path fill-rule="evenodd" clip-rule="evenodd" d="M1416 293C1416 296.75 1418.29 299.963 1421.55 301.316C1421.19 302.819 1421 304.387 1421 306.001C1421 317.046 1429.95 326.001 1441 326.001C1452.05 326.001 1461 317.046 1461 306.001C1461 304.387 1460.81 302.819 1460.45 301.316C1463.71 299.963 1466 296.749 1466 293C1466 288.03 1461.97 284 1457 284C1453.91 284 1451.19 285.555 1449.57 287.923C1446.97 286.69 1444.07 286 1441 286C1437.93 286 1435.03 286.69 1432.43 287.923C1430.81 285.555 1428.09 284 1425 284C1420.03 284 1416 288.03 1416 293Z" fill="#8F84CE" fill-opacity="0.3"/>
<path fill-rule="evenodd" clip-rule="evenodd" d="M1566 293C1566 296.75 1568.29 299.963 1571.55 301.316C1571.19 302.819 1571 304.387 1571 306.001C1571 317.046 1579.95 326.001 1591 326.001C1602.05 326.001 1611 317.046 1611 306.001C1611 304.387 1610.81 302.819 1610.45 301.316C1613.71 299.963 1616 296.749 1616 293C1616 288.03 1611.97 284 1607 284C1603.91 284 1601.19 285.555 1599.57 287.923C1596.97 286.69 1594.07 286 1591 286C1587.93 286 1585.03 286.69 1582.43 287.923C1580.81 285.555 1578.09 284 1575 284C1570.03 284 1566 288.03 1566 293Z" fill="#8F84CE" fill-opacity="0.3"/>
<path fill-rule="evenodd" clip-rule="evenodd" d="M1716 293C1716 296.75 1718.29 299.963 1721.55 301.316C1721.19 302.819 1721 304.387 1721 306.001C1721 317.046 1729.95 326.001 1741 326.001C1752.05 326.001 1761 317.046 1761 306.001C1761 304.387 1760.81 302.819 1760.45 301.316C1763.71 299.963 1766 296.749 1766 293C1766 288.03 1761.97 284 1757 284C1753.91 284 1751.19 285.555 1749.57 287.923C1746.97 286.69 1744.07 286 1741 286C1737.93 286 1735.03 286.69 1732.43 287.923C1730.81 285.555 1728.09 284 1725 284C1720.03 284 1716 288.03 1716 293Z" fill="#8F84CE" fill-opacity="0.3"/>
<path fill-rule="evenodd" clip-rule="evenodd" d="M1866 293C1866 296.75 1868.29 299.963 1871.55 301.316C1871.19 302.819 1871 304.387 1871 306.001C1871 317.046 1879.95 326.001 1891 326.001C1902.05 326.001 1911 317.046 1911 306.001C1911 304.387 1910.81 302.819 1910.45 301.316C1913.71 299.963 1916 296.749 1916 293C1916 288.03 1911.97 284 1907 284C1903.91 284 1901.19 285.555 1899.57 287.923C1896.97 286.69 1894.07 286 1891 286C1887.93 286 1885.03 286.69 1882.43 287.923C1880.81 285.555 1878.09 284 1875 284C1870.03 284 1866 288.03 1866 293Z" fill="#8F84CE" fill-opacity="0.3"/>
<path fill-rule="evenodd" clip-rule="evenodd" d="M3 385.001C3 388.75 5.29227 391.963 8.55169 393.316C8.19109 394.819 8.00011 396.388 8.00011 398.001C8.00011 409.046 16.9544 418.001 28.0002 418.001C39.0459 418.001 48.0003 409.046 48.0003 398.001C48.0003 396.387 47.8093 394.819 47.4486 393.316C50.7079 391.963 53 388.75 53 385.001C53 380.03 48.9705 376.001 44 376.001C40.913 376.001 38.1889 377.555 36.5677 379.923C33.9708 378.69 31.0661 378.001 28.0002 378.001C24.9342 378.001 22.0293 378.691 19.4324 379.924C17.8112 377.555 15.0871 376.001 12 376.001C7.02945 376.001 3 380.03 3 385.001Z" fill="#8F84CE" fill-opacity="0.3"/>
<path fill-rule="evenodd" clip-rule="evenodd" d="M153 385.001C153 388.75 155.292 391.963 158.552 393.316C158.191 394.819 158 396.388 158 398.001C158 409.046 166.954 418.001 178 418.001C189.046 418.001 198 409.046 198 398.001C198 396.387 197.809 394.819 197.449 393.316C200.708 391.963 203 388.75 203 385.001C203 380.03 198.971 376.001 194 376.001C190.913 376.001 188.189 377.555 186.568 379.923C183.971 378.69 181.066 378.001 178 378.001C174.934 378.001 172.029 378.691 169.432 379.924C167.811 377.555 165.087 376.001 162 376.001C157.029 376.001 153 380.03 153 385.001Z" fill="#8F84CE" fill-opacity="0.3"/>
<path fill-rule="evenodd" clip-rule="evenodd" d="M303 385.001C303 388.75 305.292 391.963 308.552 393.316C308.191 394.819 308 396.388 308 398.001C308 409.046 316.954 418.001 328 418.001C339.046 418.001 348 409.046 348 398.001C348 396.387 347.809 394.819 347.449 393.316C350.708 391.963 353 388.75 353 385.001C353 380.03 348.971 376.001 344 376.001C340.913 376.001 338.189 377.555 336.568 379.923C333.971 378.69 331.066 378.001 328 378.001C324.934 378.001 322.029 378.691 319.432 379.924C317.811 377.555 315.087 376.001 312 376.001C307.029 376.001 303 380.03 303 385.001Z" fill="#8F84CE" fill-opacity="0.3"/>
<path fill-rule="evenodd" clip-rule="evenodd" d="M453 385.001C453 388.75 455.292 391.963 458.552 393.316C458.191 394.819 458 396.388 458 398.001C458 409.046 466.954 418.001 478 418.001C489.046 418.001 498 409.046 498 398.001C498 396.387 497.809 394.819 497.449 393.316C500.708 391.963 503 388.75 503 385.001C503 380.03 498.971 376.001 494 376.001C490.913 376.001 488.189 377.555 486.568 379.923C483.971 378.69 481.066 378.001 478 378.001C474.934 378.001 472.029 378.691 469.432 379.924C467.811 377.555 465.087 376.001 462 376.001C457.029 376.001 453 380.03 453 385.001Z" fill="#8F84CE" fill-opacity="0.3"/>
<path fill-rule="evenodd" clip-rule="evenodd" d="M603 385.001C603 388.75 605.292 391.963 608.552 393.316C608.191 394.819 608 396.388 608 398.001C608 409.046 616.954 418.001 628 418.001C639.046 418.001 648 409.046 648 398.001C648 396.387 647.809 394.819 647.449 393.316C650.708 391.963 653 388.75 653 385.001C653 380.03 648.971 376.001 644 376.001C640.913 376.001 638.189 377.555 636.568 379.923C633.971 378.69 631.066 378.001 628 378.001C624.934 378.001 622.029 378.691 619.432 379.924C617.811 377.555 615.087 376.001 612 376.001C607.029 376.001 603 380.03 603 385.001Z" fill="#8F84CE" fill-opacity="0.3"/>
<path fill-rule="evenodd" clip-rule="evenodd" d="M753 385.001C753 388.75 755.292 391.963 758.552 393.316C758.191 394.819 758 396.388 758 398.001C758 409.046 766.954 418.001 778 418.001C789.046 418.001 798 409.046 798 398.001C798 396.387 797.809 394.819 797.449 393.316C800.708 391.963 803 388.75 803 385.001C803 380.03 798.971 376.001 794 376.001C790.913 376.001 788.189 377.555 786.568 379.923C783.971 378.69 781.066 378.001 778 378.001C774.934 378.001 772.029 378.691 769.432 379.924C767.811 377.555 765.087 376.001 762 376.001C757.029 376.001 753 380.03 753 385.001Z" fill="#8F84CE" fill-opacity="0.3"/>
<path fill-rule="evenodd" clip-rule="evenodd" d="M903 385.001C903 388.75 905.292 391.963 908.552 393.316C908.191 394.819 908 396.388 908 398.001C908 409.046 916.954 418.001 928 418.001C939.046 418.001 948 409.046 948 398.001C948 396.387 947.809 394.819 947.449 393.316C950.708 391.963 953 388.75 953 385.001C953 380.03 948.971 376.001 944 376.001C940.913 376.001 938.189 377.555 936.568 379.923C933.971 378.69 931.066 378.001 928 378.001C924.934 378.001 922.029 378.691 919.432 379.924C917.811 377.555 915.087 376.001 912 376.001C907.029 376.001 903 380.03 903 385.001Z" fill="#8F84CE" fill-opacity="0.3"/>
<path fill-rule="evenodd" clip-rule="evenodd" d="M1053 385.001C1053 388.75 1055.29 391.963 1058.55 393.316C1058.19 394.819 1058 396.388 1058 398.001C1058 409.046 1066.95 418.001 1078 418.001C1089.05 418.001 1098 409.046 1098 398.001C1098 396.387 1097.81 394.819 1097.45 393.316C1100.71 391.963 1103 388.75 1103 385.001C1103 380.03 1098.97 376.001 1094 376.001C1090.91 376.001 1088.19 377.555 1086.57 379.923C1083.97 378.69 1081.07 378.001 1078 378.001C1074.93 378.001 1072.03 378.691 1069.43 379.924C1067.81 377.555 1065.09 376.001 1062 376.001C1057.03 376.001 1053 380.03 1053 385.001Z" fill="#8F84CE" fill-opacity="0.3"/>
<path fill-rule="evenodd" clip-rule="evenodd" d="M1203 385.001C1203 388.75 1205.29 391.963 1208.55 393.316C1208.19 394.819 1208 396.388 1208 398.001C1208 409.046 1216.95 418.001 1228 418.001C1239.05 418.001 1248 409.046 1248 398.001C1248 396.387 1247.81 394.819 1247.45 393.316C1250.71 391.963 1253 388.75 1253 385.001C1253 380.03 1248.97 376.001 1244 376.001C1240.91 376.001 1238.19 377.555 1236.57 379.923C1233.97 378.69 1231.07 378.001 1228 378.001C1224.93 378.001 1222.03 378.691 1219.43 379.924C1217.81 377.555 1215.09 376.001 1212 376.001C1207.03 376.001 1203 380.03 1203 385.001Z" fill="#8F84CE" fill-opacity="0.3"/>
<path fill-rule="evenodd" clip-rule="evenodd" d="M1353 385.001C1353 388.75 1355.29 391.963 1358.55 393.316C1358.19 394.819 1358 396.388 1358 398.001C1358 409.046 1366.95 418.001 1378 418.001C1389.05 418.001 1398 409.046 1398 398.001C1398 396.387 1397.81 394.819 1397.45 393.316C1400.71 391.963 1403 388.75 1403 385.001C1403 380.03 1398.97 376.001 1394 376.001C1390.91 376.001 1388.19 377.555 1386.57 379.923C1383.97 378.69 1381.07 378.001 1378 378.001C1374.93 378.001 1372.03 378.691 1369.43 379.924C1367.81 377.555 1365.09 376.001 1362 376.001C1357.03 376.001 1353 380.03 1353 385.001Z" fill="#8F84CE" fill-opacity="0.3"/>
<path fill-rule="evenodd" clip-rule="evenodd" d="M1503 385.001C1503 388.75 1505.29 391.963 1508.55 393.316C1508.19 394.819 1508 396.388 1508 398.001C1508 409.046 1516.95 418.001 1528 418.001C1539.05 418.001 1548 409.046 1548 398.001C1548 396.387 1547.81 394.819 1547.45 393.316C1550.71 391.963 1553 388.75 1553 385.001C1553 380.03 1548.97 376.001 1544 376.001C1540.91 376.001 1538.19 377.555 1536.57 379.923C1533.97 378.69 1531.07 378.001 1528 378.001C1524.93 378.001 1522.03 378.691 1519.43 379.924C1517.81 377.555 1515.09 376.001 1512 376.001C1507.03 376.001 1503 380.03 1503 385.001Z" fill="#8F84CE" fill-opacity="0.3"/>
<path fill-rule="evenodd" clip-rule="evenodd" d="M1653 385.001C1653 388.75 1655.29 391.963 1658.55 393.316C1658.19 394.819 1658 396.388 1658 398.001C1658 409.046 1666.95 418.001 1678 418.001C1689.05 418.001 1698 409.046 1698 398.001C1698 396.387 1697.81 394.819 1697.45 393.316C1700.71 391.963 1703 388.75 1703 385.001C1703 380.03 1698.97 376.001 1694 376.001C1690.91 376.001 1688.19 377.555 1686.57 379.923C1683.97 378.69 1681.07 378.001 1678 378.001C1674.93 378.001 1672.03 378.691 1669.43 379.924C1667.81 377.555 1665.09 376.001 1662 376.001C1657.03 376.001 1653 380.03 1653 385.001Z" fill="#8F84CE" fill-opacity="0.3"/>
<path fill-rule="evenodd" clip-rule="evenodd" d="M1803 385.001C1803 388.75 1805.29 391.963 1808.55 393.316C1808.19 394.819 1808 396.388 1808 398.001C1808 409.046 1816.95 418.001 1828 418.001C1839.05 418.001 1848 409.046 1848 398.001C1848 396.387 1847.81 394.819 1847.45 393.316C1850.71 391.963 1853 388.75 1853 385.001C1853 380.03 1848.97 376.001 1844 376.001C1840.91 376.001 1838.19 377.555 1836.57 379.923C1833.97 378.69 1831.07 378.001 1828 378.001C1824.93 378.001 1822.03 378.691 1819.43 379.924C1817.81 377.555 1815.09 376.001 1812 376.001C1807.03 376.001 1803 380.03 1803 385.001Z" fill="#8F84CE" fill-opacity="0.3"/>
<path fill-rule="evenodd" clip-rule="evenodd" d="M66 477.001C66 480.75 68.2923 483.963 71.5517 485.317C71.1911 486.819 71.0001 488.388 71.0001 490.001C71.0001 501.047 79.9544 510.001 91.0002 510.001C102.046 510.001 111 501.047 111 490.001C111 488.388 110.809 486.819 110.449 485.316C113.708 483.963 116 480.75 116 477.001C116 472.03 111.971 468.001 107 468.001C103.913 468.001 101.189 469.555 99.5677 471.924C96.9708 470.691 94.0661 470.001 91.0002 470.001C87.9342 470.001 85.0293 470.691 82.4324 471.924C80.8112 469.555 78.0871 468.001 75 468.001C70.0295 468.001 66 472.03 66 477.001Z" fill="#8F84CE" fill-opacity="0.3"/>
<path fill-rule="evenodd" clip-rule="evenodd" d="M216 477.001C216 480.75 218.292 483.963 221.552 485.317C221.191 486.819 221 488.388 221 490.001C221 501.047 229.954 510.001 241 510.001C252.046 510.001 261 501.047 261 490.001C261 488.388 260.809 486.819 260.449 485.316C263.708 483.963 266 480.75 266 477.001C266 472.03 261.971 468.001 257 468.001C253.913 468.001 251.189 469.555 249.568 471.924C246.971 470.691 244.066 470.001 241 470.001C237.934 470.001 235.029 470.691 232.432 471.924C230.811 469.555 228.087 468.001 225 468.001C220.029 468.001 216 472.03 216 477.001Z" fill="#8F84CE" fill-opacity="0.3"/>
<path fill-rule="evenodd" clip-rule="evenodd" d="M366 477.001C366 480.75 368.292 483.963 371.552 485.317C371.191 486.819 371 488.388 371 490.001C371 501.047 379.954 510.001 391 510.001C402.046 510.001 411 501.047 411 490.001C411 488.388 410.809 486.819 410.449 485.316C413.708 483.963 416 480.75 416 477.001C416 472.03 411.971 468.001 407 468.001C403.913 468.001 401.189 469.555 399.568 471.924C396.971 470.691 394.066 470.001 391 470.001C387.934 470.001 385.029 470.691 382.432 471.924C380.811 469.555 378.087 468.001 375 468.001C370.029 468.001 366 472.03 366 477.001Z" fill="#8F84CE" fill-opacity="0.3"/>
<path fill-rule="evenodd" clip-rule="evenodd" d="M516 477.001C516 480.75 518.292 483.963 521.552 485.317C521.191 486.819 521 488.388 521 490.001C521 501.047 529.954 510.001 541 510.001C552.046 510.001 561 501.047 561 490.001C561 488.388 560.809 486.819 560.449 485.316C563.708 483.963 566 480.75 566 477.001C566 472.03 561.971 468.001 557 468.001C553.913 468.001 551.189 469.555 549.568 471.924C546.971 470.691 544.066 470.001 541 470.001C537.934 470.001 535.029 470.691 532.432 471.924C530.811 469.555 528.087 468.001 525 468.001C520.029 468.001 516 472.03 516 477.001Z" fill="#8F84CE" fill-opacity="0.3"/>
<path fill-rule="evenodd" clip-rule="evenodd" d="M666 477.001C666 480.75 668.292 483.963 671.552 485.317C671.191 486.819 671 488.388 671 490.001C671 501.047 679.954 510.001 691 510.001C702.046 510.001 711 501.047 711 490.001C711 488.388 710.809 486.819 710.449 485.316C713.708 483.963 716 480.75 716 477.001C716 472.03 711.971 468.001 707 468.001C703.913 468.001 701.189 469.555 699.568 471.924C696.971 470.691 694.066 470.001 691 470.001C687.934 470.001 685.029 470.691 682.432 471.924C680.811 469.555 678.087 468.001 675 468.001C670.029 468.001 666 472.03 666 477.001Z" fill="#8F84CE" fill-opacity="0.3"/>
<path fill-rule="evenodd" clip-rule="evenodd" d="M816 477.001C816 480.75 818.292 483.963 821.552 485.317C821.191 486.819 821 488.388 821 490.001C821 501.047 829.954 510.001 841 510.001C852.046 510.001 861 501.047 861 490.001C861 488.388 860.809 486.819 860.449 485.316C863.708 483.963 866 480.75 866 477.001C866 472.03 861.971 468.001 857 468.001C853.913 468.001 851.189 469.555 849.568 471.924C846.971 470.691 844.066 470.001 841 470.001C837.934 470.001 835.029 470.691 832.432 471.924C830.811 469.555 828.087 468.001 825 468.001C820.029 468.001 816 472.03 816 477.001Z" fill="#8F84CE" fill-opacity="0.3"/>
<path fill-rule="evenodd" clip-rule="evenodd" d="M966 477.001C966 480.75 968.292 483.963 971.552 485.317C971.191 486.819 971 488.388 971 490.001C971 501.047 979.954 510.001 991 510.001C1002.05 510.001 1011 501.047 1011 490.001C1011 488.388 1010.81 486.819 1010.45 485.316C1013.71 483.963 1016 480.75 1016 477.001C1016 472.03 1011.97 468.001 1007 468.001C1003.91 468.001 1001.19 469.555 999.568 471.924C996.971 470.691 994.066 470.001 991 470.001C987.934 470.001 985.029 470.691 982.432 471.924C980.811 469.555 978.087 468.001 975 468.001C970.029 468.001 966 472.03 966 477.001Z" fill="#8F84CE" fill-opacity="0.3"/>
<path fill-rule="evenodd" clip-rule="evenodd" d="M1116 477.001C1116 480.75 1118.29 483.963 1121.55 485.317C1121.19 486.819 1121 488.388 1121 490.001C1121 501.047 1129.95 510.001 1141 510.001C1152.05 510.001 1161 501.047 1161 490.001C1161 488.388 1160.81 486.819 1160.45 485.316C1163.71 483.963 1166 480.75 1166 477.001C1166 472.03 1161.97 468.001 1157 468.001C1153.91 468.001 1151.19 469.555 1149.57 471.924C1146.97 470.691 1144.07 470.001 1141 470.001C1137.93 470.001 1135.03 470.691 1132.43 471.924C1130.81 469.555 1128.09 468.001 1125 468.001C1120.03 468.001 1116 472.03 1116 477.001Z" fill="#8F84CE" fill-opacity="0.3"/>
<path fill-rule="evenodd" clip-rule="evenodd" d="M1266 477.001C1266 480.75 1268.29 483.963 1271.55 485.317C1271.19 486.819 1271 488.388 1271 490.001C1271 501.047 1279.95 510.001 1291 510.001C1302.05 510.001 1311 501.047 1311 490.001C1311 488.388 1310.81 486.819 1310.45 485.316C1313.71 483.963 1316 480.75 1316 477.001C1316 472.03 1311.97 468.001 1307 468.001C1303.91 468.001 1301.19 469.555 1299.57 471.924C1296.97 470.691 1294.07 470.001 1291 470.001C1287.93 470.001 1285.03 470.691 1282.43 471.924C1280.81 469.555 1278.09 468.001 1275 468.001C1270.03 468.001 1266 472.03 1266 477.001Z" fill="#8F84CE" fill-opacity="0.3"/>
<path fill-rule="evenodd" clip-rule="evenodd" d="M1416 477.001C1416 480.75 1418.29 483.963 1421.55 485.317C1421.19 486.819 1421 488.388 1421 490.001C1421 501.047 1429.95 510.001 1441 510.001C1452.05 510.001 1461 501.047 1461 490.001C1461 488.388 1460.81 486.819 1460.45 485.316C1463.71 483.963 1466 480.75 1466 477.001C1466 472.03 1461.97 468.001 1457 468.001C1453.91 468.001 1451.19 469.555 1449.57 471.924C1446.97 470.691 1444.07 470.001 1441 470.001C1437.93 470.001 1435.03 470.691 1432.43 471.924C1430.81 469.555 1428.09 468.001 1425 468.001C1420.03 468.001 1416 472.03 1416 477.001Z" fill="#8F84CE" fill-opacity="0.3"/>
<path fill-rule="evenodd" clip-rule="evenodd" d="M1566 477.001C1566 480.75 1568.29 483.963 1571.55 485.317C1571.19 486.819 1571 488.388 1571 490.001C1571 501.047 1579.95 510.001 1591 510.001C1602.05 510.001 1611 501.047 1611 490.001C1611 488.388 1610.81 486.819 1610.45 485.316C1613.71 483.963 1616 480.75 1616 477.001C1616 472.03 1611.97 468.001 1607 468.001C1603.91 468.001 1601.19 469.555 1599.57 471.924C1596.97 470.691 1594.07 470.001 1591 470.001C1587.93 470.001 1585.03 470.691 1582.43 471.924C1580.81 469.555 1578.09 468.001 1575 468.001C1570.03 468.001 1566 472.03 1566 477.001Z" fill="#8F84CE" fill-opacity="0.3"/>
<path fill-rule="evenodd" clip-rule="evenodd" d="M1716 477.001C1716 480.75 1718.29 483.963 1721.55 485.317C1721.19 486.819 1721 488.388 1721 490.001C1721 501.047 1729.95 510.001 1741 510.001C1752.05 510.001 1761 501.047 1761 490.001C1761 488.388 1760.81 486.819 1760.45 485.316C1763.71 483.963 1766 480.75 1766 477.001C1766 472.03 1761.97 468.001 1757 468.001C1753.91 468.001 1751.19 469.555 1749.57 471.924C1746.97 470.691 1744.07 470.001 1741 470.001C1737.93 470.001 1735.03 470.691 1732.43 471.924C1730.81 469.555 1728.09 468.001 1725 468.001C1720.03 468.001 1716 472.03 1716 477.001Z" fill="#8F84CE" fill-opacity="0.3"/>
<path fill-rule="evenodd" clip-rule="evenodd" d="M1866 477.001C1866 480.75 1868.29 483.963 1871.55 485.317C1871.19 486.819 1871 488.388 1871 490.001C1871 501.047 1879.95 510.001 1891 510.001C1902.05 510.001 1911 501.047 1911 490.001C1911 488.388 1910.81 486.819 1910.45 485.316C1913.71 483.963 1916 480.75 1916 477.001C1916 472.03 1911.97 468.001 1907 468.001C1903.91 468.001 1901.19 469.555 1899.57 471.924C1896.97 470.691 1894.07 470.001 1891 470.001C1887.93 470.001 1885.03 470.691 1882.43 471.924C1880.81 469.555 1878.09 468.001 1875 468.001C1870.03 468.001 1866 472.03 1866 477.001Z" fill="#8F84CE" fill-opacity="0.3"/>
<path fill-rule="evenodd" clip-rule="evenodd" d="M3 569.001C3 572.75 5.29227 575.964 8.55169 577.317C8.19109 578.819 8.00011 580.388 8.00011 582.001C8.00011 593.047 16.9544 602.001 28.0002 602.001C39.0459 602.001 48.0003 593.047 48.0003 582.001C48.0003 580.388 47.8093 578.819 47.4486 577.317C50.7079 575.963 53 572.75 53 569.001C53 564.03 48.9705 560.001 44 560.001C40.913 560.001 38.1889 561.555 36.5677 563.924C33.9708 562.691 31.0661 562.001 28.0002 562.001C24.9342 562.001 22.0293 562.691 19.4324 563.924C17.8112 561.555 15.0871 560.001 12 560.001C7.02945 560.001 3 564.03 3 569.001Z" fill="#8F84CE" fill-opacity="0.3"/>
<path fill-rule="evenodd" clip-rule="evenodd" d="M153 569.001C153 572.75 155.292 575.964 158.552 577.317C158.191 578.819 158 580.388 158 582.001C158 593.047 166.954 602.001 178 602.001C189.046 602.001 198 593.047 198 582.001C198 580.388 197.809 578.819 197.449 577.317C200.708 575.963 203 572.75 203 569.001C203 564.03 198.971 560.001 194 560.001C190.913 560.001 188.189 561.555 186.568 563.924C183.971 562.691 181.066 562.001 178 562.001C174.934 562.001 172.029 562.691 169.432 563.924C167.811 561.555 165.087 560.001 162 560.001C157.029 560.001 153 564.03 153 569.001Z" fill="#8F84CE" fill-opacity="0.3"/>
<path fill-rule="evenodd" clip-rule="evenodd" d="M303 569.001C303 572.75 305.292 575.964 308.552 577.317C308.191 578.819 308 580.388 308 582.001C308 593.047 316.954 602.001 328 602.001C339.046 602.001 348 593.047 348 582.001C348 580.388 347.809 578.819 347.449 577.317C350.708 575.963 353 572.75 353 569.001C353 564.03 348.971 560.001 344 560.001C340.913 560.001 338.189 561.555 336.568 563.924C333.971 562.691 331.066 562.001 328 562.001C324.934 562.001 322.029 562.691 319.432 563.924C317.811 561.555 315.087 560.001 312 560.001C307.029 560.001 303 564.03 303 569.001Z" fill="#8F84CE" fill-opacity="0.3"/>
<path fill-rule="evenodd" clip-rule="evenodd" d="M453 569.001C453 572.75 455.292 575.964 458.552 577.317C458.191 578.819 458 580.388 458 582.001C458 593.047 466.954 602.001 478 602.001C489.046 602.001 498 593.047 498 582.001C498 580.388 497.809 578.819 497.449 577.317C500.708 575.963 503 572.75 503 569.001C503 564.03 498.971 560.001 494 560.001C490.913 560.001 488.189 561.555 486.568 563.924C483.971 562.691 481.066 562.001 478 562.001C474.934 562.001 472.029 562.691 469.432 563.924C467.811 561.555 465.087 560.001 462 560.001C457.029 560.001 453 564.03 453 569.001Z" fill="#8F84CE" fill-opacity="0.3"/>
<path fill-rule="evenodd" clip-rule="evenodd" d="M603 569.001C603 572.75 605.292 575.964 608.552 577.317C608.191 578.819 608 580.388 608 582.001C608 593.047 616.954 602.001 628 602.001C639.046 602.001 648 593.047 648 582.001C648 580.388 647.809 578.819 647.449 577.317C650.708 575.963 653 572.75 653 569.001C653 564.03 648.971 560.001 644 560.001C640.913 560.001 638.189 561.555 636.568 563.924C633.971 562.691 631.066 562.001 628 562.001C624.934 562.001 622.029 562.691 619.432 563.924C617.811 561.555 615.087 560.001 612 560.001C607.029 560.001 603 564.03 603 569.001Z" fill="#8F84CE" fill-opacity="0.3"/>
<path fill-rule="evenodd" clip-rule="evenodd" d="M753 569.001C753 572.75 755.292 575.964 758.552 577.317C758.191 578.819 758 580.388 758 582.001C758 593.047 766.954 602.001 778 602.001C789.046 602.001 798 593.047 798 582.001C798 580.388 797.809 578.819 797.449 577.317C800.708 575.963 803 572.75 803 569.001C803 564.03 798.971 560.001 794 560.001C790.913 560.001 788.189 561.555 786.568 563.924C783.971 562.691 781.066 562.001 778 562.001C774.934 562.001 772.029 562.691 769.432 563.924C767.811 561.555 765.087 560.001 762 560.001C757.029 560.001 753 564.03 753 569.001Z" fill="#8F84CE" fill-opacity="0.3"/>
<path fill-rule="evenodd" clip-rule="evenodd" d="M903 569.001C903 572.75 905.292 575.964 908.552 577.317C908.191 578.819 908 580.388 908 582.001C908 593.047 916.954 602.001 928 602.001C939.046 602.001 948 593.047 948 582.001C948 580.388 947.809 578.819 947.449 577.317C950.708 575.963 953 572.75 953 569.001C953 564.03 948.971 560.001 944 560.001C940.913 560.001 938.189 561.555 936.568 563.924C933.971 562.691 931.066 562.001 928 562.001C924.934 562.001 922.029 562.691 919.432 563.924C917.811 561.555 915.087 560.001 912 560.001C907.029 560.001 903 564.03 903 569.001Z" fill="#8F84CE" fill-opacity="0.3"/>
<path fill-rule="evenodd" clip-rule="evenodd" d="M1053 569.001C1053 572.75 1055.29 575.964 1058.55 577.317C1058.19 578.819 1058 580.388 1058 582.001C1058 593.047 1066.95 602.001 1078 602.001C1089.05 602.001 1098 593.047 1098 582.001C1098 580.388 1097.81 578.819 1097.45 577.317C1100.71 575.963 1103 572.75 1103 569.001C1103 564.03 1098.97 560.001 1094 560.001C1090.91 560.001 1088.19 561.555 1086.57 563.924C1083.97 562.691 1081.07 562.001 1078 562.001C1074.93 562.001 1072.03 562.691 1069.43 563.924C1067.81 561.555 1065.09 560.001 1062 560.001C1057.03 560.001 1053 564.03 1053 569.001Z" fill="#8F84CE" fill-opacity="0.3"/>
<path fill-rule="evenodd" clip-rule="evenodd" d="M1203 569.001C1203 572.75 1205.29 575.964 1208.55 577.317C1208.19 578.819 1208 580.388 1208 582.001C1208 593.047 1216.95 602.001 1228 602.001C1239.05 602.001 1248 593.047 1248 582.001C1248 580.388 1247.81 578.819 1247.45 577.317C1250.71 575.963 1253 572.75 1253 569.001C1253 564.03 1248.97 560.001 1244 560.001C1240.91 560.001 1238.19 561.555 1236.57 563.924C1233.97 562.691 1231.07 562.001 1228 562.001C1224.93 562.001 1222.03 562.691 1219.43 563.924C1217.81 561.555 1215.09 560.001 1212 560.001C1207.03 560.001 1203 564.03 1203 569.001Z" fill="#8F84CE" fill-opacity="0.3"/>
<path fill-rule="evenodd" clip-rule="evenodd" d="M1353 569.001C1353 572.75 1355.29 575.964 1358.55 577.317C1358.19 578.819 1358 580.388 1358 582.001C1358 593.047 1366.95 602.001 1378 602.001C1389.05 602.001 1398 593.047 1398 582.001C1398 580.388 1397.81 578.819 1397.45 577.317C1400.71 575.963 1403 572.75 1403 569.001C1403 564.03 1398.97 560.001 1394 560.001C1390.91 560.001 1388.19 561.555 1386.57 563.924C1383.97 562.691 1381.07 562.001 1378 562.001C1374.93 562.001 1372.03 562.691 1369.43 563.924C1367.81 561.555 1365.09 560.001 1362 560.001C1357.03 560.001 1353 564.03 1353 569.001Z" fill="#8F84CE" fill-opacity="0.3"/>
<path fill-rule="evenodd" clip-rule="evenodd" d="M1503 569.001C1503 572.75 1505.29 575.964 1508.55 577.317C1508.19 578.819 1508 580.388 1508 582.001C1508 593.047 1516.95 602.001 1528 602.001C1539.05 602.001 1548 593.047 1548 582.001C1548 580.388 1547.81 578.819 1547.45 577.317C1550.71 575.963 1553 572.75 1553 569.001C1553 564.03 1548.97 560.001 1544 560.001C1540.91 560.001 1538.19 561.555 1536.57 563.924C1533.97 562.691 1531.07 562.001 1528 562.001C1524.93 562.001 1522.03 562.691 1519.43 563.924C1517.81 561.555 1515.09 560.001 1512 560.001C1507.03 560.001 1503 564.03 1503 569.001Z" fill="#8F84CE" fill-opacity="0.3"/>
<path fill-rule="evenodd" clip-rule="evenodd" d="M1653 569.001C1653 572.75 1655.29 575.964 1658.55 577.317C1658.19 578.819 1658 580.388 1658 582.001C1658 593.047 1666.95 602.001 1678 602.001C1689.05 602.001 1698 593.047 1698 582.001C1698 580.388 1697.81 578.819 1697.45 577.317C1700.71 575.963 1703 572.75 1703 569.001C1703 564.03 1698.97 560.001 1694 560.001C1690.91 560.001 1688.19 561.555 1686.57 563.924C1683.97 562.691 1681.07 562.001 1678 562.001C1674.93 562.001 1672.03 562.691 1669.43 563.924C1667.81 561.555 1665.09 560.001 1662 560.001C1657.03 560.001 1653 564.03 1653 569.001Z" fill="#8F84CE" fill-opacity="0.3"/>
<path fill-rule="evenodd" clip-rule="evenodd" d="M1803 569.001C1803 572.75 1805.29 575.964 1808.55 577.317C1808.19 578.819 1808 580.388 1808 582.001C1808 593.047 1816.95 602.001 1828 602.001C1839.05 602.001 1848 593.047 1848 582.001C1848 580.388 1847.81 578.819 1847.45 577.317C1850.71 575.963 1853 572.75 1853 569.001C1853 564.03 1848.97 560.001 1844 560.001C1840.91 560.001 1838.19 561.555 1836.57 563.924C1833.97 562.691 1831.07 562.001 1828 562.001C1824.93 562.001 1822.03 562.691 1819.43 563.924C1817.81 561.555 1815.09 560.001 1812 560.001C1807.03 560.001 1803 564.03 1803 569.001Z" fill="#8F84CE" fill-opacity="0.3"/>
<path fill-rule="evenodd" clip-rule="evenodd" d="M66 661.001C66 664.75 68.2923 667.964 71.5517 669.317C71.1911 670.819 71.0001 672.388 71.0001 674.001C71.0001 685.047 79.9544 694.001 91.0002 694.001C102.046 694.001 111 685.047 111 674.001C111 672.388 110.809 670.819 110.449 669.317C113.708 667.964 116 664.75 116 661.001C116 656.031 111.971 652.001 107 652.001C103.913 652.001 101.189 653.555 99.5677 655.924C96.9708 654.691 94.0661 654.001 91.0002 654.001C87.9342 654.001 85.0293 654.691 82.4324 655.924C80.8112 653.555 78.0871 652.001 75 652.001C70.0295 652.001 66 656.031 66 661.001Z" fill="#8F84CE" fill-opacity="0.3"/>
<path fill-rule="evenodd" clip-rule="evenodd" d="M216 661.001C216 664.75 218.292 667.964 221.552 669.317C221.191 670.819 221 672.388 221 674.001C221 685.047 229.954 694.001 241 694.001C252.046 694.001 261 685.047 261 674.001C261 672.388 260.809 670.819 260.449 669.317C263.708 667.964 266 664.75 266 661.001C266 656.031 261.971 652.001 257 652.001C253.913 652.001 251.189 653.555 249.568 655.924C246.971 654.691 244.066 654.001 241 654.001C237.934 654.001 235.029 654.691 232.432 655.924C230.811 653.555 228.087 652.001 225 652.001C220.029 652.001 216 656.031 216 661.001Z" fill="#8F84CE" fill-opacity="0.3"/>
<path fill-rule="evenodd" clip-rule="evenodd" d="M366 661.001C366 664.75 368.292 667.964 371.552 669.317C371.191 670.819 371 672.388 371 674.001C371 685.047 379.954 694.001 391 694.001C402.046 694.001 411 685.047 411 674.001C411 672.388 410.809 670.819 410.449 669.317C413.708 667.964 416 664.75 416 661.001C416 656.031 411.971 652.001 407 652.001C403.913 652.001 401.189 653.555 399.568 655.924C396.971 654.691 394.066 654.001 391 654.001C387.934 654.001 385.029 654.691 382.432 655.924C380.811 653.555 378.087 652.001 375 652.001C370.029 652.001 366 656.031 366 661.001Z" fill="#8F84CE" fill-opacity="0.3"/>
<path fill-rule="evenodd" clip-rule="evenodd" d="M516 661.001C516 664.75 518.292 667.964 521.552 669.317C521.191 670.819 521 672.388 521 674.001C521 685.047 529.954 694.001 541 694.001C552.046 694.001 561 685.047 561 674.001C561 672.388 560.809 670.819 560.449 669.317C563.708 667.964 566 664.75 566 661.001C566 656.031 561.971 652.001 557 652.001C553.913 652.001 551.189 653.555 549.568 655.924C546.971 654.691 544.066 654.001 541 654.001C537.934 654.001 535.029 654.691 532.432 655.924C530.811 653.555 528.087 652.001 525 652.001C520.029 652.001 516 656.031 516 661.001Z" fill="#8F84CE" fill-opacity="0.3"/>
<path fill-rule="evenodd" clip-rule="evenodd" d="M666 661.001C666 664.75 668.292 667.964 671.552 669.317C671.191 670.819 671 672.388 671 674.001C671 685.047 679.954 694.001 691 694.001C702.046 694.001 711 685.047 711 674.001C711 672.388 710.809 670.819 710.449 669.317C713.708 667.964 716 664.75 716 661.001C716 656.031 711.971 652.001 707 652.001C703.913 652.001 701.189 653.555 699.568 655.924C696.971 654.691 694.066 654.001 691 654.001C687.934 654.001 685.029 654.691 682.432 655.924C680.811 653.555 678.087 652.001 675 652.001C670.029 652.001 666 656.031 666 661.001Z" fill="#8F84CE" fill-opacity="0.3"/>
<path fill-rule="evenodd" clip-rule="evenodd" d="M816 661.001C816 664.75 818.292 667.964 821.552 669.317C821.191 670.819 821 672.388 821 674.001C821 685.047 829.954 694.001 841 694.001C852.046 694.001 861 685.047 861 674.001C861 672.388 860.809 670.819 860.449 669.317C863.708 667.964 866 664.75 866 661.001C866 656.031 861.971 652.001 857 652.001C853.913 652.001 851.189 653.555 849.568 655.924C846.971 654.691 844.066 654.001 841 654.001C837.934 654.001 835.029 654.691 832.432 655.924C830.811 653.555 828.087 652.001 825 652.001C820.029 652.001 816 656.031 816 661.001Z" fill="#8F84CE" fill-opacity="0.3"/>
<path fill-rule="evenodd" clip-rule="evenodd" d="M966 661.001C966 664.75 968.292 667.964 971.552 669.317C971.191 670.819 971 672.388 971 674.001C971 685.047 979.954 694.001 991 694.001C1002.05 694.001 1011 685.047 1011 674.001C1011 672.388 1010.81 670.819 1010.45 669.317C1013.71 667.964 1016 664.75 1016 661.001C1016 656.031 1011.97 652.001 1007 652.001C1003.91 652.001 1001.19 653.555 999.568 655.924C996.971 654.691 994.066 654.001 991 654.001C987.934 654.001 985.029 654.691 982.432 655.924C980.811 653.555 978.087 652.001 975 652.001C970.029 652.001 966 656.031 966 661.001Z" fill="#8F84CE" fill-opacity="0.3"/>
<path fill-rule="evenodd" clip-rule="evenodd" d="M1116 661.001C1116 664.75 1118.29 667.964 1121.55 669.317C1121.19 670.819 1121 672.388 1121 674.001C1121 685.047 1129.95 694.001 1141 694.001C1152.05 694.001 1161 685.047 1161 674.001C1161 672.388 1160.81 670.819 1160.45 669.317C1163.71 667.964 1166 664.75 1166 661.001C1166 656.031 1161.97 652.001 1157 652.001C1153.91 652.001 1151.19 653.555 1149.57 655.924C1146.97 654.691 1144.07 654.001 1141 654.001C1137.93 654.001 1135.03 654.691 1132.43 655.924C1130.81 653.555 1128.09 652.001 1125 652.001C1120.03 652.001 1116 656.031 1116 661.001Z" fill="#8F84CE" fill-opacity="0.3"/>
<path fill-rule="evenodd" clip-rule="evenodd" d="M1266 661.001C1266 664.75 1268.29 667.964 1271.55 669.317C1271.19 670.819 1271 672.388 1271 674.001C1271 685.047 1279.95 694.001 1291 694.001C1302.05 694.001 1311 685.047 1311 674.001C1311 672.388 1310.81 670.819 1310.45 669.317C1313.71 667.964 1316 664.75 1316 661.001C1316 656.031 1311.97 652.001 1307 652.001C1303.91 652.001 1301.19 653.555 1299.57 655.924C1296.97 654.691 1294.07 654.001 1291 654.001C1287.93 654.001 1285.03 654.691 1282.43 655.924C1280.81 653.555 1278.09 652.001 1275 652.001C1270.03 652.001 1266 656.031 1266 661.001Z" fill="#8F84CE" fill-opacity="0.3"/>
<path fill-rule="evenodd" clip-rule="evenodd" d="M1416 661.001C1416 664.75 1418.29 667.964 1421.55 669.317C1421.19 670.819 1421 672.388 1421 674.001C1421 685.047 1429.95 694.001 1441 694.001C1452.05 694.001 1461 685.047 1461 674.001C1461 672.388 1460.81 670.819 1460.45 669.317C1463.71 667.964 1466 664.75 1466 661.001C1466 656.031 1461.97 652.001 1457 652.001C1453.91 652.001 1451.19 653.555 1449.57 655.924C1446.97 654.691 1444.07 654.001 1441 654.001C1437.93 654.001 1435.03 654.691 1432.43 655.924C1430.81 653.555 1428.09 652.001 1425 652.001C1420.03 652.001 1416 656.031 1416 661.001Z" fill="#8F84CE" fill-opacity="0.3"/>
<path fill-rule="evenodd" clip-rule="evenodd" d="M1566 661.001C1566 664.75 1568.29 667.964 1571.55 669.317C1571.19 670.819 1571 672.388 1571 674.001C1571 685.047 1579.95 694.001 1591 694.001C1602.05 694.001 1611 685.047 1611 674.001C1611 672.388 1610.81 670.819 1610.45 669.317C1613.71 667.964 1616 664.75 1616 661.001C1616 656.031 1611.97 652.001 1607 652.001C1603.91 652.001 1601.19 653.555 1599.57 655.924C1596.97 654.691 1594.07 654.001 1591 654.001C1587.93 654.001 1585.03 654.691 1582.43 655.924C1580.81 653.555 1578.09 652.001 1575 652.001C1570.03 652.001 1566 656.031 1566 661.001Z" fill="#8F84CE" fill-opacity="0.3"/>
<path fill-rule="evenodd" clip-rule="evenodd" d="M1716 661.001C1716 664.75 1718.29 667.964 1721.55 669.317C1721.19 670.819 1721 672.388 1721 674.001C1721 685.047 1729.95 694.001 1741 694.001C1752.05 694.001 1761 685.047 1761 674.001C1761 672.388 1760.81 670.819 1760.45 669.317C1763.71 667.964 1766 664.75 1766 661.001C1766 656.031 1761.97 652.001 1757 652.001C1753.91 652.001 1751.19 653.555 1749.57 655.924C1746.97 654.691 1744.07 654.001 1741 654.001C1737.93 654.001 1735.03 654.691 1732.43 655.924C1730.81 653.555 1728.09 652.001 1725 652.001C1720.03 652.001 1716 656.031 1716 661.001Z" fill="#8F84CE" fill-opacity="0.3"/>
<path fill-rule="evenodd" clip-rule="evenodd" d="M1866 661.001C1866 664.75 1868.29 667.964 1871.55 669.317C1871.19 670.819 1871 672.388 1871 674.001C1871 685.047 1879.95 694.001 1891 694.001C1902.05 694.001 1911 685.047 1911 674.001C1911 672.388 1910.81 670.819 1910.45 669.317C1913.71 667.964 1916 664.75 1916 661.001C1916 656.031 1911.97 652.001 1907 652.001C1903.91 652.001 1901.19 653.555 1899.57 655.924C1896.97 654.691 1894.07 654.001 1891 654.001C1887.93 654.001 1885.03 654.691 1882.43 655.924C1880.81 653.555 1878.09 652.001 1875 652.001C1870.03 652.001 1866 656.031 1866 661.001Z" fill="#8F84CE" fill-opacity="0.3"/>
<path fill-rule="evenodd" clip-rule="evenodd" d="M3 753.001C3 756.75 5.29227 759.964 8.55169 761.317C8.19109 762.82 8.00011 764.388 8.00011 766.001C8.00011 777.047 16.9544 786.001 28.0002 786.001C39.0459 786.001 48.0003 777.047 48.0003 766.001C48.0003 764.388 47.8093 762.819 47.4486 761.317C50.7079 759.964 53 756.75 53 753.001C53 748.031 48.9705 744.001 44 744.001C40.913 744.001 38.1889 745.555 36.5677 747.924C33.9708 746.691 31.0661 746.001 28.0002 746.001C24.9342 746.001 22.0293 746.691 19.4324 747.924C17.8112 745.555 15.0871 744.001 12 744.001C7.02945 744.001 3 748.031 3 753.001Z" fill="#8F84CE" fill-opacity="0.3"/>
<path fill-rule="evenodd" clip-rule="evenodd" d="M153 753.001C153 756.75 155.292 759.964 158.552 761.317C158.191 762.82 158 764.388 158 766.001C158 777.047 166.954 786.001 178 786.001C189.046 786.001 198 777.047 198 766.001C198 764.388 197.809 762.819 197.449 761.317C200.708 759.964 203 756.75 203 753.001C203 748.031 198.971 744.001 194 744.001C190.913 744.001 188.189 745.555 186.568 747.924C183.971 746.691 181.066 746.001 178 746.001C174.934 746.001 172.029 746.691 169.432 747.924C167.811 745.555 165.087 744.001 162 744.001C157.029 744.001 153 748.031 153 753.001Z" fill="#8F84CE" fill-opacity="0.3"/>
<path fill-rule="evenodd" clip-rule="evenodd" d="M303 753.001C303 756.75 305.292 759.964 308.552 761.317C308.191 762.82 308 764.388 308 766.001C308 777.047 316.954 786.001 328 786.001C339.046 786.001 348 777.047 348 766.001C348 764.388 347.809 762.819 347.449 761.317C350.708 759.964 353 756.75 353 753.001C353 748.031 348.971 744.001 344 744.001C340.913 744.001 338.189 745.555 336.568 747.924C333.971 746.691 331.066 746.001 328 746.001C324.934 746.001 322.029 746.691 319.432 747.924C317.811 745.555 315.087 744.001 312 744.001C307.029 744.001 303 748.031 303 753.001Z" fill="#8F84CE" fill-opacity="0.3"/>
<path fill-rule="evenodd" clip-rule="evenodd" d="M453 753.001C453 756.75 455.292 759.964 458.552 761.317C458.191 762.82 458 764.388 458 766.001C458 777.047 466.954 786.001 478 786.001C489.046 786.001 498 777.047 498 766.001C498 764.388 497.809 762.819 497.449 761.317C500.708 759.964 503 756.75 503 753.001C503 748.031 498.971 744.001 494 744.001C490.913 744.001 488.189 745.555 486.568 747.924C483.971 746.691 481.066 746.001 478 746.001C474.934 746.001 472.029 746.691 469.432 747.924C467.811 745.555 465.087 744.001 462 744.001C457.029 744.001 453 748.031 453 753.001Z" fill="#8F84CE" fill-opacity="0.3"/>
<path fill-rule="evenodd" clip-rule="evenodd" d="M603 753.001C603 756.75 605.292 759.964 608.552 761.317C608.191 762.82 608 764.388 608 766.001C608 777.047 616.954 786.001 628 786.001C639.046 786.001 648 777.047 648 766.001C648 764.388 647.809 762.819 647.449 761.317C650.708 759.964 653 756.75 653 753.001C653 748.031 648.971 744.001 644 744.001C640.913 744.001 638.189 745.555 636.568 747.924C633.971 746.691 631.066 746.001 628 746.001C624.934 746.001 622.029 746.691 619.432 747.924C617.811 745.555 615.087 744.001 612 744.001C607.029 744.001 603 748.031 603 753.001Z" fill="#8F84CE" fill-opacity="0.3"/>
<path fill-rule="evenodd" clip-rule="evenodd" d="M753 753.001C753 756.75 755.292 759.964 758.552 761.317C758.191 762.82 758 764.388 758 766.001C758 777.047 766.954 786.001 778 786.001C789.046 786.001 798 777.047 798 766.001C798 764.388 797.809 762.819 797.449 761.317C800.708 759.964 803 756.75 803 753.001C803 748.031 798.971 744.001 794 744.001C790.913 744.001 788.189 745.555 786.568 747.924C783.971 746.691 781.066 746.001 778 746.001C774.934 746.001 772.029 746.691 769.432 747.924C767.811 745.555 765.087 744.001 762 744.001C757.029 744.001 753 748.031 753 753.001Z" fill="#8F84CE" fill-opacity="0.3"/>
<path fill-rule="evenodd" clip-rule="evenodd" d="M903 753.001C903 756.75 905.292 759.964 908.552 761.317C908.191 762.82 908 764.388 908 766.001C908 777.047 916.954 786.001 928 786.001C939.046 786.001 948 777.047 948 766.001C948 764.388 947.809 762.819 947.449 761.317C950.708 759.964 953 756.75 953 753.001C953 748.031 948.971 744.001 944 744.001C940.913 744.001 938.189 745.555 936.568 747.924C933.971 746.691 931.066 746.001 928 746.001C924.934 746.001 922.029 746.691 919.432 747.924C917.811 745.555 915.087 744.001 912 744.001C907.029 744.001 903 748.031 903 753.001Z" fill="#8F84CE" fill-opacity="0.3"/>
<path fill-rule="evenodd" clip-rule="evenodd" d="M1053 753.001C1053 756.75 1055.29 759.964 1058.55 761.317C1058.19 762.82 1058 764.388 1058 766.001C1058 777.047 1066.95 786.001 1078 786.001C1089.05 786.001 1098 777.047 1098 766.001C1098 764.388 1097.81 762.819 1097.45 761.317C1100.71 759.964 1103 756.75 1103 753.001C1103 748.031 1098.97 744.001 1094 744.001C1090.91 744.001 1088.19 745.555 1086.57 747.924C1083.97 746.691 1081.07 746.001 1078 746.001C1074.93 746.001 1072.03 746.691 1069.43 747.924C1067.81 745.555 1065.09 744.001 1062 744.001C1057.03 744.001 1053 748.031 1053 753.001Z" fill="#8F84CE" fill-opacity="0.3"/>
<path fill-rule="evenodd" clip-rule="evenodd" d="M1203 753.001C1203 756.75 1205.29 759.964 1208.55 761.317C1208.19 762.82 1208 764.388 1208 766.001C1208 777.047 1216.95 786.001 1228 786.001C1239.05 786.001 1248 777.047 1248 766.001C1248 764.388 1247.81 762.819 1247.45 761.317C1250.71 759.964 1253 756.75 1253 753.001C1253 748.031 1248.97 744.001 1244 744.001C1240.91 744.001 1238.19 745.555 1236.57 747.924C1233.97 746.691 1231.07 746.001 1228 746.001C1224.93 746.001 1222.03 746.691 1219.43 747.924C1217.81 745.555 1215.09 744.001 1212 744.001C1207.03 744.001 1203 748.031 1203 753.001Z" fill="#8F84CE" fill-opacity="0.3"/>
<path fill-rule="evenodd" clip-rule="evenodd" d="M1353 753.001C1353 756.75 1355.29 759.964 1358.55 761.317C1358.19 762.82 1358 764.388 1358 766.001C1358 777.047 1366.95 786.001 1378 786.001C1389.05 786.001 1398 777.047 1398 766.001C1398 764.388 1397.81 762.819 1397.45 761.317C1400.71 759.964 1403 756.75 1403 753.001C1403 748.031 1398.97 744.001 1394 744.001C1390.91 744.001 1388.19 745.555 1386.57 747.924C1383.97 746.691 1381.07 746.001 1378 746.001C1374.93 746.001 1372.03 746.691 1369.43 747.924C1367.81 745.555 1365.09 744.001 1362 744.001C1357.03 744.001 1353 748.031 1353 753.001Z" fill="#8F84CE" fill-opacity="0.3"/>
<path fill-rule="evenodd" clip-rule="evenodd" d="M1503 753.001C1503 756.75 1505.29 759.964 1508.55 761.317C1508.19 762.82 1508 764.388 1508 766.001C1508 777.047 1516.95 786.001 1528 786.001C1539.05 786.001 1548 777.047 1548 766.001C1548 764.388 1547.81 762.819 1547.45 761.317C1550.71 759.964 1553 756.75 1553 753.001C1553 748.031 1548.97 744.001 1544 744.001C1540.91 744.001 1538.19 745.555 1536.57 747.924C1533.97 746.691 1531.07 746.001 1528 746.001C1524.93 746.001 1522.03 746.691 1519.43 747.924C1517.81 745.555 1515.09 744.001 1512 744.001C1507.03 744.001 1503 748.031 1503 753.001Z" fill="#8F84CE" fill-opacity="0.3"/>
<path fill-rule="evenodd" clip-rule="evenodd" d="M1653 753.001C1653 756.75 1655.29 759.964 1658.55 761.317C1658.19 762.82 1658 764.388 1658 766.001C1658 777.047 1666.95 786.001 1678 786.001C1689.05 786.001 1698 777.047 1698 766.001C1698 764.388 1697.81 762.819 1697.45 761.317C1700.71 759.964 1703 756.75 1703 753.001C1703 748.031 1698.97 744.001 1694 744.001C1690.91 744.001 1688.19 745.555 1686.57 747.924C1683.97 746.691 1681.07 746.001 1678 746.001C1674.93 746.001 1672.03 746.691 1669.43 747.924C1667.81 745.555 1665.09 744.001 1662 744.001C1657.03 744.001 1653 748.031 1653 753.001Z" fill="#8F84CE" fill-opacity="0.3"/>
<path fill-rule="evenodd" clip-rule="evenodd" d="M1803 753.001C1803 756.75 1805.29 759.964 1808.55 761.317C1808.19 762.82 1808 764.388 1808 766.001C1808 777.047 1816.95 786.001 1828 786.001C1839.05 786.001 1848 777.047 1848 766.001C1848 764.388 1847.81 762.819 1847.45 761.317C1850.71 759.964 1853 756.75 1853 753.001C1853 748.031 1848.97 744.001 1844 744.001C1840.91 744.001 1838.19 745.555 1836.57 747.924C1833.97 746.691 1831.07 746.001 1828 746.001C1824.93 746.001 1822.03 746.691 1819.43 747.924C1817.81 745.555 1815.09 744.001 1812 744.001C1807.03 744.001 1803 748.031 1803 753.001Z" fill="#8F84CE" fill-opacity="0.3"/>
<path fill-rule="evenodd" clip-rule="evenodd" d="M66 845.001C66 848.75 68.2923 851.964 71.5517 853.317C71.1911 854.82 71.0001 856.388 71.0001 858.001C71.0001 869.047 79.9544 878.001 91.0002 878.001C102.046 878.001 111 869.047 111 858.001C111 856.388 110.809 854.82 110.449 853.317C113.708 851.964 116 848.75 116 845.001C116 840.031 111.971 836.001 107 836.001C103.913 836.001 101.189 837.556 99.5677 839.924C96.9708 838.691 94.0661 838.001 91.0002 838.001C87.9342 838.001 85.0293 838.691 82.4324 839.924C80.8112 837.556 78.0871 836.001 75 836.001C70.0295 836.001 66 840.031 66 845.001Z" fill="#8F84CE" fill-opacity="0.3"/>
<path fill-rule="evenodd" clip-rule="evenodd" d="M216 845.001C216 848.75 218.292 851.964 221.552 853.317C221.191 854.82 221 856.388 221 858.001C221 869.047 229.954 878.001 241 878.001C252.046 878.001 261 869.047 261 858.001C261 856.388 260.809 854.82 260.449 853.317C263.708 851.964 266 848.75 266 845.001C266 840.031 261.971 836.001 257 836.001C253.913 836.001 251.189 837.556 249.568 839.924C246.971 838.691 244.066 838.001 241 838.001C237.934 838.001 235.029 838.691 232.432 839.924C230.811 837.556 228.087 836.001 225 836.001C220.029 836.001 216 840.031 216 845.001Z" fill="#8F84CE" fill-opacity="0.3"/>
<path fill-rule="evenodd" clip-rule="evenodd" d="M366 845.001C366 848.75 368.292 851.964 371.552 853.317C371.191 854.82 371 856.388 371 858.001C371 869.047 379.954 878.001 391 878.001C402.046 878.001 411 869.047 411 858.001C411 856.388 410.809 854.82 410.449 853.317C413.708 851.964 416 848.75 416 845.001C416 840.031 411.971 836.001 407 836.001C403.913 836.001 401.189 837.556 399.568 839.924C396.971 838.691 394.066 838.001 391 838.001C387.934 838.001 385.029 838.691 382.432 839.924C380.811 837.556 378.087 836.001 375 836.001C370.029 836.001 366 840.031 366 845.001Z" fill="#8F84CE" fill-opacity="0.3"/>
<path fill-rule="evenodd" clip-rule="evenodd" d="M516 845.001C516 848.75 518.292 851.964 521.552 853.317C521.191 854.82 521 856.388 521 858.001C521 869.047 529.954 878.001 541 878.001C552.046 878.001 561 869.047 561 858.001C561 856.388 560.809 854.82 560.449 853.317C563.708 851.964 566 848.75 566 845.001C566 840.031 561.971 836.001 557 836.001C553.913 836.001 551.189 837.556 549.568 839.924C546.971 838.691 544.066 838.001 541 838.001C537.934 838.001 535.029 838.691 532.432 839.924C530.811 837.556 528.087 836.001 525 836.001C520.029 836.001 516 840.031 516 845.001Z" fill="#8F84CE" fill-opacity="0.3"/>
<path fill-rule="evenodd" clip-rule="evenodd" d="M666 845.001C666 848.75 668.292 851.964 671.552 853.317C671.191 854.82 671 856.388 671 858.001C671 869.047 679.954 878.001 691 878.001C702.046 878.001 711 869.047 711 858.001C711 856.388 710.809 854.82 710.449 853.317C713.708 851.964 716 848.75 716 845.001C716 840.031 711.971 836.001 707 836.001C703.913 836.001 701.189 837.556 699.568 839.924C696.971 838.691 694.066 838.001 691 838.001C687.934 838.001 685.029 838.691 682.432 839.924C680.811 837.556 678.087 836.001 675 836.001C670.029 836.001 666 840.031 666 845.001Z" fill="#8F84CE" fill-opacity="0.3"/>
<path fill-rule="evenodd" clip-rule="evenodd" d="M816 845.001C816 848.75 818.292 851.964 821.552 853.317C821.191 854.82 821 856.388 821 858.001C821 869.047 829.954 878.001 841 878.001C852.046 878.001 861 869.047 861 858.001C861 856.388 860.809 854.82 860.449 853.317C863.708 851.964 866 848.75 866 845.001C866 840.031 861.971 836.001 857 836.001C853.913 836.001 851.189 837.556 849.568 839.924C846.971 838.691 844.066 838.001 841 838.001C837.934 838.001 835.029 838.691 832.432 839.924C830.811 837.556 828.087 836.001 825 836.001C820.029 836.001 816 840.031 816 845.001Z" fill="#8F84CE" fill-opacity="0.3"/>
<path fill-rule="evenodd" clip-rule="evenodd" d="M966 845.001C966 848.75 968.292 851.964 971.552 853.317C971.191 854.82 971 856.388 971 858.001C971 869.047 979.954 878.001 991 878.001C1002.05 878.001 1011 869.047 1011 858.001C1011 856.388 1010.81 854.82 1010.45 853.317C1013.71 851.964 1016 848.75 1016 845.001C1016 840.031 1011.97 836.001 1007 836.001C1003.91 836.001 1001.19 837.556 999.568 839.924C996.971 838.691 994.066 838.001 991 838.001C987.934 838.001 985.029 838.691 982.432 839.924C980.811 837.556 978.087 836.001 975 836.001C970.029 836.001 966 840.031 966 845.001Z" fill="#8F84CE" fill-opacity="0.3"/>
<path fill-rule="evenodd" clip-rule="evenodd" d="M1116 845.001C1116 848.75 1118.29 851.964 1121.55 853.317C1121.19 854.82 1121 856.388 1121 858.001C1121 869.047 1129.95 878.001 1141 878.001C1152.05 878.001 1161 869.047 1161 858.001C1161 856.388 1160.81 854.82 1160.45 853.317C1163.71 851.964 1166 848.75 1166 845.001C1166 840.031 1161.97 836.001 1157 836.001C1153.91 836.001 1151.19 837.556 1149.57 839.924C1146.97 838.691 1144.07 838.001 1141 838.001C1137.93 838.001 1135.03 838.691 1132.43 839.924C1130.81 837.556 1128.09 836.001 1125 836.001C1120.03 836.001 1116 840.031 1116 845.001Z" fill="#8F84CE" fill-opacity="0.3"/>
<path fill-rule="evenodd" clip-rule="evenodd" d="M1266 845.001C1266 848.75 1268.29 851.964 1271.55 853.317C1271.19 854.82 1271 856.388 1271 858.001C1271 869.047 1279.95 878.001 1291 878.001C1302.05 878.001 1311 869.047 1311 858.001C1311 856.388 1310.81 854.82 1310.45 853.317C1313.71 851.964 1316 848.75 1316 845.001C1316 840.031 1311.97 836.001 1307 836.001C1303.91 836.001 1301.19 837.556 1299.57 839.924C1296.97 838.691 1294.07 838.001 1291 838.001C1287.93 838.001 1285.03 838.691 1282.43 839.924C1280.81 837.556 1278.09 836.001 1275 836.001C1270.03 836.001 1266 840.031 1266 845.001Z" fill="#8F84CE" fill-opacity="0.3"/>
<path fill-rule="evenodd" clip-rule="evenodd" d="M1416 845.001C1416 848.75 1418.29 851.964 1421.55 853.317C1421.19 854.82 1421 856.388 1421 858.001C1421 869.047 1429.95 878.001 1441 878.001C1452.05 878.001 1461 869.047 1461 858.001C1461 856.388 1460.81 854.82 1460.45 853.317C1463.71 851.964 1466 848.75 1466 845.001C1466 840.031 1461.97 836.001 1457 836.001C1453.91 836.001 1451.19 837.556 1449.57 839.924C1446.97 838.691 1444.07 838.001 1441 838.001C1437.93 838.001 1435.03 838.691 1432.43 839.924C1430.81 837.556 1428.09 836.001 1425 836.001C1420.03 836.001 1416 840.031 1416 845.001Z" fill="#8F84CE" fill-opacity="0.3"/>
<path fill-rule="evenodd" clip-rule="evenodd" d="M1566 845.001C1566 848.75 1568.29 851.964 1571.55 853.317C1571.19 854.82 1571 856.388 1571 858.001C1571 869.047 1579.95 878.001 1591 878.001C1602.05 878.001 1611 869.047 1611 858.001C1611 856.388 1610.81 854.82 1610.45 853.317C1613.71 851.964 1616 848.75 1616 845.001C1616 840.031 1611.97 836.001 1607 836.001C1603.91 836.001 1601.19 837.556 1599.57 839.924C1596.97 838.691 1594.07 838.001 1591 838.001C1587.93 838.001 1585.03 838.691 1582.43 839.924C1580.81 837.556 1578.09 836.001 1575 836.001C1570.03 836.001 1566 840.031 1566 845.001Z" fill="#8F84CE" fill-opacity="0.3"/>
<path fill-rule="evenodd" clip-rule="evenodd" d="M1716 845.001C1716 848.75 1718.29 851.964 1721.55 853.317C1721.19 854.82 1721 856.388 1721 858.001C1721 869.047 1729.95 878.001 1741 878.001C1752.05 878.001 1761 869.047 1761 858.001C1761 856.388 1760.81 854.82 1760.45 853.317C1763.71 851.964 1766 848.75 1766 845.001C1766 840.031 1761.97 836.001 1757 836.001C1753.91 836.001 1751.19 837.556 1749.57 839.924C1746.97 838.691 1744.07 838.001 1741 838.001C1737.93 838.001 1735.03 838.691 1732.43 839.924C1730.81 837.556 1728.09 836.001 1725 836.001C1720.03 836.001 1716 840.031 1716 845.001Z" fill="#8F84CE" fill-opacity="0.3"/>
<path fill-rule="evenodd" clip-rule="evenodd" d="M1866 845.001C1866 848.75 1868.29 851.964 1871.55 853.317C1871.19 854.82 1871 856.388 1871 858.001C1871 869.047 1879.95 878.001 1891 878.001C1902.05 878.001 1911 869.047 1911 858.001C1911 856.388 1910.81 854.82 1910.45 853.317C1913.71 851.964 1916 848.75 1916 845.001C1916 840.031 1911.97 836.001 1907 836.001C1903.91 836.001 1901.19 837.556 1899.57 839.924C1896.97 838.691 1894.07 838.001 1891 838.001C1887.93 838.001 1885.03 838.691 1882.43 839.924C1880.81 837.556 1878.09 836.001 1875 836.001C1870.03 836.001 1866 840.031 1866 845.001Z" fill="#8F84CE" fill-opacity="0.3"/>
<path fill-rule="evenodd" clip-rule="evenodd" d="M3 937.002C3 940.751 5.29227 943.964 8.55169 945.317C8.19109 946.82 8.00011 948.388 8.00011 950.002C8.00011 961.047 16.9544 970.002 28.0002 970.002C39.0459 970.002 48.0003 961.047 48.0003 950.002C48.0003 948.388 47.8093 946.82 47.4486 945.317C50.7079 943.964 53 940.75 53 937.002C53 932.031 48.9705 928.002 44 928.002C40.913 928.002 38.1889 929.556 36.5677 931.924C33.9708 930.691 31.0661 930.002 28.0002 930.002C24.9342 930.002 22.0293 930.691 19.4324 931.924C17.8112 929.556 15.0871 928.002 12 928.002C7.02945 928.002 3 932.031 3 937.002Z" fill="#8F84CE" fill-opacity="0.3"/>
<path fill-rule="evenodd" clip-rule="evenodd" d="M153 937.002C153 940.751 155.292 943.964 158.552 945.317C158.191 946.82 158 948.388 158 950.002C158 961.047 166.954 970.002 178 970.002C189.046 970.002 198 961.047 198 950.002C198 948.388 197.809 946.82 197.449 945.317C200.708 943.964 203 940.75 203 937.002C203 932.031 198.971 928.002 194 928.002C190.913 928.002 188.189 929.556 186.568 931.924C183.971 930.691 181.066 930.002 178 930.002C174.934 930.002 172.029 930.691 169.432 931.924C167.811 929.556 165.087 928.002 162 928.002C157.029 928.002 153 932.031 153 937.002Z" fill="#8F84CE" fill-opacity="0.3"/>
<path fill-rule="evenodd" clip-rule="evenodd" d="M303 937.002C303 940.751 305.292 943.964 308.552 945.317C308.191 946.82 308 948.388 308 950.002C308 961.047 316.954 970.002 328 970.002C339.046 970.002 348 961.047 348 950.002C348 948.388 347.809 946.82 347.449 945.317C350.708 943.964 353 940.75 353 937.002C353 932.031 348.971 928.002 344 928.002C340.913 928.002 338.189 929.556 336.568 931.924C333.971 930.691 331.066 930.002 328 930.002C324.934 930.002 322.029 930.691 319.432 931.924C317.811 929.556 315.087 928.002 312 928.002C307.029 928.002 303 932.031 303 937.002Z" fill="#8F84CE" fill-opacity="0.3"/>
<path fill-rule="evenodd" clip-rule="evenodd" d="M453 937.002C453 940.751 455.292 943.964 458.552 945.317C458.191 946.82 458 948.388 458 950.002C458 961.047 466.954 970.002 478 970.002C489.046 970.002 498 961.047 498 950.002C498 948.388 497.809 946.82 497.449 945.317C500.708 943.964 503 940.75 503 937.002C503 932.031 498.971 928.002 494 928.002C490.913 928.002 488.189 929.556 486.568 931.924C483.971 930.691 481.066 930.002 478 930.002C474.934 930.002 472.029 930.691 469.432 931.924C467.811 929.556 465.087 928.002 462 928.002C457.029 928.002 453 932.031 453 937.002Z" fill="#8F84CE" fill-opacity="0.3"/>
<path fill-rule="evenodd" clip-rule="evenodd" d="M603 937.002C603 940.751 605.292 943.964 608.552 945.317C608.191 946.82 608 948.388 608 950.002C608 961.047 616.954 970.002 628 970.002C639.046 970.002 648 961.047 648 950.002C648 948.388 647.809 946.82 647.449 945.317C650.708 943.964 653 940.75 653 937.002C653 932.031 648.971 928.002 644 928.002C640.913 928.002 638.189 929.556 636.568 931.924C633.971 930.691 631.066 930.002 628 930.002C624.934 930.002 622.029 930.691 619.432 931.924C617.811 929.556 615.087 928.002 612 928.002C607.029 928.002 603 932.031 603 937.002Z" fill="#8F84CE" fill-opacity="0.3"/>
<path fill-rule="evenodd" clip-rule="evenodd" d="M753 937.002C753 940.751 755.292 943.964 758.552 945.317C758.191 946.82 758 948.388 758 950.002C758 961.047 766.954 970.002 778 970.002C789.046 970.002 798 961.047 798 950.002C798 948.388 797.809 946.82 797.449 945.317C800.708 943.964 803 940.75 803 937.002C803 932.031 798.971 928.002 794 928.002C790.913 928.002 788.189 929.556 786.568 931.924C783.971 930.691 781.066 930.002 778 930.002C774.934 930.002 772.029 930.691 769.432 931.924C767.811 929.556 765.087 928.002 762 928.002C757.029 928.002 753 932.031 753 937.002Z" fill="#8F84CE" fill-opacity="0.3"/>
<path fill-rule="evenodd" clip-rule="evenodd" d="M903 937.002C903 940.751 905.292 943.964 908.552 945.317C908.191 946.82 908 948.388 908 950.002C908 961.047 916.954 970.002 928 970.002C939.046 970.002 948 961.047 948 950.002C948 948.388 947.809 946.82 947.449 945.317C950.708 943.964 953 940.75 953 937.002C953 932.031 948.971 928.002 944 928.002C940.913 928.002 938.189 929.556 936.568 931.924C933.971 930.691 931.066 930.002 928 930.002C924.934 930.002 922.029 930.691 919.432 931.924C917.811 929.556 915.087 928.002 912 928.002C907.029 928.002 903 932.031 903 937.002Z" fill="#8F84CE" fill-opacity="0.3"/>
<path fill-rule="evenodd" clip-rule="evenodd" d="M1053 937.002C1053 940.751 1055.29 943.964 1058.55 945.317C1058.19 946.82 1058 948.388 1058 950.002C1058 961.047 1066.95 970.002 1078 970.002C1089.05 970.002 1098 961.047 1098 950.002C1098 948.388 1097.81 946.82 1097.45 945.317C1100.71 943.964 1103 940.75 1103 937.002C1103 932.031 1098.97 928.002 1094 928.002C1090.91 928.002 1088.19 929.556 1086.57 931.924C1083.97 930.691 1081.07 930.002 1078 930.002C1074.93 930.002 1072.03 930.691 1069.43 931.924C1067.81 929.556 1065.09 928.002 1062 928.002C1057.03 928.002 1053 932.031 1053 937.002Z" fill="#8F84CE" fill-opacity="0.3"/>
<path fill-rule="evenodd" clip-rule="evenodd" d="M1203 937.002C1203 940.751 1205.29 943.964 1208.55 945.317C1208.19 946.82 1208 948.388 1208 950.002C1208 961.047 1216.95 970.002 1228 970.002C1239.05 970.002 1248 961.047 1248 950.002C1248 948.388 1247.81 946.82 1247.45 945.317C1250.71 943.964 1253 940.75 1253 937.002C1253 932.031 1248.97 928.002 1244 928.002C1240.91 928.002 1238.19 929.556 1236.57 931.924C1233.97 930.691 1231.07 930.002 1228 930.002C1224.93 930.002 1222.03 930.691 1219.43 931.924C1217.81 929.556 1215.09 928.002 1212 928.002C1207.03 928.002 1203 932.031 1203 937.002Z" fill="#8F84CE" fill-opacity="0.3"/>
<path fill-rule="evenodd" clip-rule="evenodd" d="M1353 937.002C1353 940.751 1355.29 943.964 1358.55 945.317C1358.19 946.82 1358 948.388 1358 950.002C1358 961.047 1366.95 970.002 1378 970.002C1389.05 970.002 1398 961.047 1398 950.002C1398 948.388 1397.81 946.82 1397.45 945.317C1400.71 943.964 1403 940.75 1403 937.002C1403 932.031 1398.97 928.002 1394 928.002C1390.91 928.002 1388.19 929.556 1386.57 931.924C1383.97 930.691 1381.07 930.002 1378 930.002C1374.93 930.002 1372.03 930.691 1369.43 931.924C1367.81 929.556 1365.09 928.002 1362 928.002C1357.03 928.002 1353 932.031 1353 937.002Z" fill="#8F84CE" fill-opacity="0.3"/>
<path fill-rule="evenodd" clip-rule="evenodd" d="M1503 937.002C1503 940.751 1505.29 943.964 1508.55 945.317C1508.19 946.82 1508 948.388 1508 950.002C1508 961.047 1516.95 970.002 1528 970.002C1539.05 970.002 1548 961.047 1548 950.002C1548 948.388 1547.81 946.82 1547.45 945.317C1550.71 943.964 1553 940.75 1553 937.002C1553 932.031 1548.97 928.002 1544 928.002C1540.91 928.002 1538.19 929.556 1536.57 931.924C1533.97 930.691 1531.07 930.002 1528 930.002C1524.93 930.002 1522.03 930.691 1519.43 931.924C1517.81 929.556 1515.09 928.002 1512 928.002C1507.03 928.002 1503 932.031 1503 937.002Z" fill="#8F84CE" fill-opacity="0.3"/>
<path fill-rule="evenodd" clip-rule="evenodd" d="M1653 937.002C1653 940.751 1655.29 943.964 1658.55 945.317C1658.19 946.82 1658 948.388 1658 950.002C1658 961.047 1666.95 970.002 1678 970.002C1689.05 970.002 1698 961.047 1698 950.002C1698 948.388 1697.81 946.82 1697.45 945.317C1700.71 943.964 1703 940.75 1703 937.002C1703 932.031 1698.97 928.002 1694 928.002C1690.91 928.002 1688.19 929.556 1686.57 931.924C1683.97 930.691 1681.07 930.002 1678 930.002C1674.93 930.002 1672.03 930.691 1669.43 931.924C1667.81 929.556 1665.09 928.002 1662 928.002C1657.03 928.002 1653 932.031 1653 937.002Z" fill="#8F84CE" fill-opacity="0.3"/>
<path fill-rule="evenodd" clip-rule="evenodd" d="M1803 937.002C1803 940.751 1805.29 943.964 1808.55 945.317C1808.19 946.82 1808 948.388 1808 950.002C1808 961.047 1816.95 970.002 1828 970.002C1839.05 970.002 1848 961.047 1848 950.002C1848 948.388 1847.81 946.82 1847.45 945.317C1850.71 943.964 1853 940.75 1853 937.002C1853 932.031 1848.97 928.002 1844 928.002C1840.91 928.002 1838.19 929.556 1836.57 931.924C1833.97 930.691 1831.07 930.002 1828 930.002C1824.93 930.002 1822.03 930.691 1819.43 931.924C1817.81 929.556 1815.09 928.002 1812 928.002C1807.03 928.002 1803 932.031 1803 937.002Z" fill="#8F84CE" fill-opacity="0.3"/>
<path fill-rule="evenodd" clip-rule="evenodd" d="M66 1029C66 1032.75 68.2923 1035.96 71.5517 1037.32C71.1911 1038.82 71.0001 1040.39 71.0001 1042C71.0001 1053.05 79.9544 1062 91.0002 1062C102.046 1062 111 1053.05 111 1042C111 1040.39 110.809 1038.82 110.449 1037.32C113.708 1035.96 116 1032.75 116 1029C116 1024.03 111.971 1020 107 1020C103.913 1020 101.189 1021.56 99.5677 1023.92C96.9708 1022.69 94.0661 1022 91.0002 1022C87.9342 1022 85.0293 1022.69 82.4324 1023.92C80.8112 1021.56 78.0871 1020 75 1020C70.0295 1020 66 1024.03 66 1029Z" fill="#8F84CE" fill-opacity="0.3"/>
<path fill-rule="evenodd" clip-rule="evenodd" d="M216 1029C216 1032.75 218.292 1035.96 221.552 1037.32C221.191 1038.82 221 1040.39 221 1042C221 1053.05 229.954 1062 241 1062C252.046 1062 261 1053.05 261 1042C261 1040.39 260.809 1038.82 260.449 1037.32C263.708 1035.96 266 1032.75 266 1029C266 1024.03 261.971 1020 257 1020C253.913 1020 251.189 1021.56 249.568 1023.92C246.971 1022.69 244.066 1022 241 1022C237.934 1022 235.029 1022.69 232.432 1023.92C230.811 1021.56 228.087 1020 225 1020C220.029 1020 216 1024.03 216 1029Z" fill="#8F84CE" fill-opacity="0.3"/>
<path fill-rule="evenodd" clip-rule="evenodd" d="M366 1029C366 1032.75 368.292 1035.96 371.552 1037.32C371.191 1038.82 371 1040.39 371 1042C371 1053.05 379.954 1062 391 1062C402.046 1062 411 1053.05 411 1042C411 1040.39 410.809 1038.82 410.449 1037.32C413.708 1035.96 416 1032.75 416 1029C416 1024.03 411.971 1020 407 1020C403.913 1020 401.189 1021.56 399.568 1023.92C396.971 1022.69 394.066 1022 391 1022C387.934 1022 385.029 1022.69 382.432 1023.92C380.811 1021.56 378.087 1020 375 1020C370.029 1020 366 1024.03 366 1029Z" fill="#8F84CE" fill-opacity="0.3"/>
<path fill-rule="evenodd" clip-rule="evenodd" d="M516 1029C516 1032.75 518.292 1035.96 521.552 1037.32C521.191 1038.82 521 1040.39 521 1042C521 1053.05 529.954 1062 541 1062C552.046 1062 561 1053.05 561 1042C561 1040.39 560.809 1038.82 560.449 1037.32C563.708 1035.96 566 1032.75 566 1029C566 1024.03 561.971 1020 557 1020C553.913 1020 551.189 1021.56 549.568 1023.92C546.971 1022.69 544.066 1022 541 1022C537.934 1022 535.029 1022.69 532.432 1023.92C530.811 1021.56 528.087 1020 525 1020C520.029 1020 516 1024.03 516 1029Z" fill="#8F84CE" fill-opacity="0.3"/>
<path fill-rule="evenodd" clip-rule="evenodd" d="M666 1029C666 1032.75 668.292 1035.96 671.552 1037.32C671.191 1038.82 671 1040.39 671 1042C671 1053.05 679.954 1062 691 1062C702.046 1062 711 1053.05 711 1042C711 1040.39 710.809 1038.82 710.449 1037.32C713.708 1035.96 716 1032.75 716 1029C716 1024.03 711.971 1020 707 1020C703.913 1020 701.189 1021.56 699.568 1023.92C696.971 1022.69 694.066 1022 691 1022C687.934 1022 685.029 1022.69 682.432 1023.92C680.811 1021.56 678.087 1020 675 1020C670.029 1020 666 1024.03 666 1029Z" fill="#8F84CE" fill-opacity="0.3"/>
<path fill-rule="evenodd" clip-rule="evenodd" d="M816 1029C816 1032.75 818.292 1035.96 821.552 1037.32C821.191 1038.82 821 1040.39 821 1042C821 1053.05 829.954 1062 841 1062C852.046 1062 861 1053.05 861 1042C861 1040.39 860.809 1038.82 860.449 1037.32C863.708 1035.96 866 1032.75 866 1029C866 1024.03 861.971 1020 857 1020C853.913 1020 851.189 1021.56 849.568 1023.92C846.971 1022.69 844.066 1022 841 1022C837.934 1022 835.029 1022.69 832.432 1023.92C830.811 1021.56 828.087 1020 825 1020C820.029 1020 816 1024.03 816 1029Z" fill="#8F84CE" fill-opacity="0.3"/>
<path fill-rule="evenodd" clip-rule="evenodd" d="M966 1029C966 1032.75 968.292 1035.96 971.552 1037.32C971.191 1038.82 971 1040.39 971 1042C971 1053.05 979.954 1062 991 1062C1002.05 1062 1011 1053.05 1011 1042C1011 1040.39 1010.81 1038.82 1010.45 1037.32C1013.71 1035.96 1016 1032.75 1016 1029C1016 1024.03 1011.97 1020 1007 1020C1003.91 1020 1001.19 1021.56 999.568 1023.92C996.971 1022.69 994.066 1022 991 1022C987.934 1022 985.029 1022.69 982.432 1023.92C980.811 1021.56 978.087 1020 975 1020C970.029 1020 966 1024.03 966 1029Z" fill="#8F84CE" fill-opacity="0.3"/>
<path fill-rule="evenodd" clip-rule="evenodd" d="M1116 1029C1116 1032.75 1118.29 1035.96 1121.55 1037.32C1121.19 1038.82 1121 1040.39 1121 1042C1121 1053.05 1129.95 1062 1141 1062C1152.05 1062 1161 1053.05 1161 1042C1161 1040.39 1160.81 1038.82 1160.45 1037.32C1163.71 1035.96 1166 1032.75 1166 1029C1166 1024.03 1161.97 1020 1157 1020C1153.91 1020 1151.19 1021.56 1149.57 1023.92C1146.97 1022.69 1144.07 1022 1141 1022C1137.93 1022 1135.03 1022.69 1132.43 1023.92C1130.81 1021.56 1128.09 1020 1125 1020C1120.03 1020 1116 1024.03 1116 1029Z" fill="#8F84CE" fill-opacity="0.3"/>
<path fill-rule="evenodd" clip-rule="evenodd" d="M1266 1029C1266 1032.75 1268.29 1035.96 1271.55 1037.32C1271.19 1038.82 1271 1040.39 1271 1042C1271 1053.05 1279.95 1062 1291 1062C1302.05 1062 1311 1053.05 1311 1042C1311 1040.39 1310.81 1038.82 1310.45 1037.32C1313.71 1035.96 1316 1032.75 1316 1029C1316 1024.03 1311.97 1020 1307 1020C1303.91 1020 1301.19 1021.56 1299.57 1023.92C1296.97 1022.69 1294.07 1022 1291 1022C1287.93 1022 1285.03 1022.69 1282.43 1023.92C1280.81 1021.56 1278.09 1020 1275 1020C1270.03 1020 1266 1024.03 1266 1029Z" fill="#8F84CE" fill-opacity="0.3"/>
<path fill-rule="evenodd" clip-rule="evenodd" d="M1416 1029C1416 1032.75 1418.29 1035.96 1421.55 1037.32C1421.19 1038.82 1421 1040.39 1421 1042C1421 1053.05 1429.95 1062 1441 1062C1452.05 1062 1461 1053.05 1461 1042C1461 1040.39 1460.81 1038.82 1460.45 1037.32C1463.71 1035.96 1466 1032.75 1466 1029C1466 1024.03 1461.97 1020 1457 1020C1453.91 1020 1451.19 1021.56 1449.57 1023.92C1446.97 1022.69 1444.07 1022 1441 1022C1437.93 1022 1435.03 1022.69 1432.43 1023.92C1430.81 1021.56 1428.09 1020 1425 1020C1420.03 1020 1416 1024.03 1416 1029Z" fill="#8F84CE" fill-opacity="0.3"/>
<path fill-rule="evenodd" clip-rule="evenodd" d="M1566 1029C1566 1032.75 1568.29 1035.96 1571.55 1037.32C1571.19 1038.82 1571 1040.39 1571 1042C1571 1053.05 1579.95 1062 1591 1062C1602.05 1062 1611 1053.05 1611 1042C1611 1040.39 1610.81 1038.82 1610.45 1037.32C1613.71 1035.96 1616 1032.75 1616 1029C1616 1024.03 1611.97 1020 1607 1020C1603.91 1020 1601.19 1021.56 1599.57 1023.92C1596.97 1022.69 1594.07 1022 1591 1022C1587.93 1022 1585.03 1022.69 1582.43 1023.92C1580.81 1021.56 1578.09 1020 1575 1020C1570.03 1020 1566 1024.03 1566 1029Z" fill="#8F84CE" fill-opacity="0.3"/>
<path fill-rule="evenodd" clip-rule="evenodd" d="M1716 1029C1716 1032.75 1718.29 1035.96 1721.55 1037.32C1721.19 1038.82 1721 1040.39 1721 1042C1721 1053.05 1729.95 1062 1741 1062C1752.05 1062 1761 1053.05 1761 1042C1761 1040.39 1760.81 1038.82 1760.45 1037.32C1763.71 1035.96 1766 1032.75 1766 1029C1766 1024.03 1761.97 1020 1757 1020C1753.91 1020 1751.19 1021.56 1749.57 1023.92C1746.97 1022.69 1744.07 1022 1741 1022C1737.93 1022 1735.03 1022.69 1732.43 1023.92C1730.81 1021.56 1728.09 1020 1725 1020C1720.03 1020 1716 1024.03 1716 1029Z" fill="#8F84CE" fill-opacity="0.3"/>
<path fill-rule="evenodd" clip-rule="evenodd" d="M1866 1029C1866 1032.75 1868.29 1035.96 1871.55 1037.32C1871.19 1038.82 1871 1040.39 1871 1042C1871 1053.05 1879.95 1062 1891 1062C1902.05 1062 1911 1053.05 1911 1042C1911 1040.39 1910.81 1038.82 1910.45 1037.32C1913.71 1035.96 1916 1032.75 1916 1029C1916 1024.03 1911.97 1020 1907 1020C1903.91 1020 1901.19 1021.56 1899.57 1023.92C1896.97 1022.69 1894.07 1022 1891 1022C1887.93 1022 1885.03 1022.69 1882.43 1023.92C1880.81 1021.56 1878.09 1020 1875 1020C1870.03 1020 1866 1024.03 1866 1029Z" fill="#8F84CE" fill-opacity="0.3"/>
</svg>
