<svg width="473" height="369" viewBox="0 0 473 369" fill="none" xmlns="http://www.w3.org/2000/svg">
<path d="M18.5285 27.1165C19.5213 11.8637 32.1823 0 47.4673 0H441.36C458.23 0 471.539 14.3438 470.279 31.1664L453.124 260.166C451.99 275.3 439.381 287 424.205 287H32.5625C15.8051 287 2.53541 272.838 3.62379 256.116L18.5285 27.1165Z" fill="#6255A4"/>
<path d="M17.8776 27.1882C18.8343 11.9054 31.5082 0 46.821 0H423.449C440.286 0 453.584 14.2905 452.374 31.084L435.875 260.084C434.782 275.252 422.157 287 406.95 287H32.4859C15.7569 287 2.49731 272.884 3.54248 256.188L17.8776 27.1882Z" fill="#8F84CE"/>
<path d="M45.6137 27H427.614L410.614 260H29.6137L45.6137 27Z" fill="white"/>
<g filter="url(#filter0_i_987_867)">
<path d="M228.614 342H187.114H133.614V369H228.614V342Z" fill="#8F84CE"/>
<path d="M172.114 287L187.114 342H228.614H282.614L270.614 287H172.114Z" fill="#796AC5"/>
<path d="M270.614 287L282.614 342H228.614V369H321.114L300.614 287H270.614Z" fill="#6255A4"/>
</g>
<line x1="60.1138" y1="79.5" x2="342.114" y2="79.5" stroke="#6255A4" stroke-width="5" stroke-linecap="round"/>
<line x1="60.1138" y1="120.5" x2="326.114" y2="120.5" stroke="#6255A4" stroke-width="5" stroke-linecap="round"/>
<line x1="60.1138" y1="99.5" x2="279.114" y2="99.5" stroke="#8F84CE" stroke-width="5" stroke-linecap="round"/>
<mask id="path-8-inside-1_987_867" fill="white">
<path d="M382.326 193.504C379.822 203.069 373.821 211.348 365.509 216.704C357.197 222.06 347.179 224.103 337.433 222.431C327.687 220.758 318.923 215.492 312.873 207.671C306.822 199.85 303.924 190.045 304.753 180.191C305.581 170.338 310.075 161.154 317.346 154.453C324.618 147.752 334.138 144.022 344.026 144C353.914 143.978 363.451 147.666 370.752 154.334C378.053 161.002 382.588 170.167 383.46 180.016L371.633 181.063C371.023 174.174 367.851 167.765 362.745 163.101C357.638 158.437 350.968 155.858 344.052 155.873C337.136 155.888 330.478 158.497 325.392 163.184C320.306 167.871 317.163 174.294 316.584 181.186C316.005 188.077 318.031 194.936 322.263 200.406C326.495 205.875 332.625 209.559 339.441 210.729C346.257 211.899 353.264 210.469 359.078 206.723C364.892 202.977 369.089 197.187 370.84 190.497L382.326 193.504Z"/>
</mask>
<path d="M382.326 193.504C379.822 203.069 373.821 211.348 365.509 216.704C357.197 222.06 347.179 224.103 337.433 222.431C327.687 220.758 318.923 215.492 312.873 207.671C306.822 199.85 303.924 190.045 304.753 180.191C305.581 170.338 310.075 161.154 317.346 154.453C324.618 147.752 334.138 144.022 344.026 144C353.914 143.978 363.451 147.666 370.752 154.334C378.053 161.002 382.588 170.167 383.46 180.016L371.633 181.063C371.023 174.174 367.851 167.765 362.745 163.101C357.638 158.437 350.968 155.858 344.052 155.873C337.136 155.888 330.478 158.497 325.392 163.184C320.306 167.871 317.163 174.294 316.584 181.186C316.005 188.077 318.031 194.936 322.263 200.406C326.495 205.875 332.625 209.559 339.441 210.729C346.257 211.899 353.264 210.469 359.078 206.723C364.892 202.977 369.089 197.187 370.84 190.497L382.326 193.504Z" fill="#8F84CE" stroke="#8F84CE" stroke-width="10" mask="url(#path-8-inside-1_987_867)"/>
<defs>
<filter id="filter0_i_987_867" x="133.614" y="287" width="187.5" height="112" filterUnits="userSpaceOnUse" color-interpolation-filters="sRGB">
<feFlood flood-opacity="0" result="BackgroundImageFix"/>
<feBlend mode="normal" in="SourceGraphic" in2="BackgroundImageFix" result="shape"/>
<feColorMatrix in="SourceAlpha" type="matrix" values="0 0 0 0 0 0 0 0 0 0 0 0 0 0 0 0 0 0 127 0" result="hardAlpha"/>
<feOffset dy="30"/>
<feGaussianBlur stdDeviation="20"/>
<feComposite in2="hardAlpha" operator="arithmetic" k2="-1" k3="1"/>
<feColorMatrix type="matrix" values="0 0 0 0 0 0 0 0 0 0 0 0 0 0 0 0 0 0 0.25 0"/>
<feBlend mode="normal" in2="shape" result="effect1_innerShadow_987_867"/>
</filter>
</defs>
</svg>
