<svg width="516" height="463" viewBox="0 0 516 463" fill="none" xmlns="http://www.w3.org/2000/svg">
<ellipse cx="258" cy="414" rx="258" ry="49" fill="url(#paint0_linear_210_306)"/>
<g filter="url(#filter0_i_210_306)">
<path d="M426.233 443.791C353.069 414.627 171.169 434.475 89.3651 448.044L84.7694 324.708C165.348 318.429 336.708 306.724 377.518 310.126C418.328 313.528 439.254 335.846 444.616 346.58C446.301 339.087 444.983 348.038 426.233 443.791Z" fill="#F6A324"/>
</g>
<path d="M151.404 371.279C109.898 383.703 130.532 278.284 146.037 224.022H364.298C364.298 224.022 385.916 350.762 380.4 371.279H151.404Z" fill="#FFB441"/>
<g filter="url(#filter1_i_210_306)">
<path d="M91.9748 360.35C45.2247 286.62 120.469 228.643 163.935 208.871C172.307 261.325 182.867 367.997 158.14 375.057C127.231 383.881 113.898 381.43 91.9748 360.35Z" fill="#FFB441"/>
</g>
<g filter="url(#filter2_i_210_306)">
<path d="M434.549 344.092C473.134 255.333 379.619 205.755 328.039 192.061C328.11 250.715 335.401 368.83 364 372.057C399.748 376.09 414.055 371.013 434.549 344.092Z" fill="#FFB441"/>
</g>
<g filter="url(#filter3_i_210_306)">
<path d="M403.981 436.68C397.308 400.606 402.574 325.102 477.032 311.682C557.658 341.985 464.045 513.518 403.981 436.68Z" fill="#F3A124"/>
</g>
<g filter="url(#filter4_i_210_306)">
<path d="M464.953 348.116C487.139 358.398 507.701 402.228 459.542 436.318C401.102 465.539 422.379 339.279 464.953 348.116Z" fill="#BC5E28"/>
</g>
<g filter="url(#filter5_i_210_306)">
<path d="M449.976 336.033C449.976 339.918 450.42 343.608 454.305 343.608C458.19 343.608 462.963 339.918 462.963 336.033C462.963 332.148 461.437 329.539 457.552 329.539C453.667 329.539 449.976 332.148 449.976 336.033Z" fill="#FFD96F"/>
</g>
<g filter="url(#filter6_i_210_306)">
<path d="M485.04 355.272C485.928 358.726 486.477 361.174 489.553 360.383C492.629 359.591 496.211 356.08 495.323 352.627C494.434 349.173 492.554 346.605 489.478 347.396C486.401 348.187 484.151 351.819 485.04 355.272Z" fill="#FFD96F"/>
</g>
<g filter="url(#filter7_i_210_306)">
<path d="M490.5 374.711C491.116 377.105 491.496 378.802 493.628 378.254C495.761 377.705 498.243 375.271 497.628 372.878C497.012 370.484 495.708 368.703 493.576 369.252C491.444 369.801 489.884 372.318 490.5 374.711Z" fill="#FFD96F"/>
</g>
<g filter="url(#filter8_i_210_306)">
<path d="M469.969 339.561C471.11 343.274 473.318 345.29 477.032 344.149C480.746 343.008 483.524 339.46 482.383 335.746C481.242 332.033 479.017 329.988 475.303 331.129C471.589 332.27 468.828 335.847 469.969 339.561Z" fill="#FFD96F"/>
</g>
<g filter="url(#filter9_i_210_306)">
<path d="M126.36 441.009C133.033 404.935 127.767 329.431 53.3091 316.011C-27.3171 346.314 66.2959 517.847 126.36 441.009Z" fill="#F3A124"/>
</g>
<g filter="url(#filter10_i_210_306)">
<path d="M65.3879 352.445C43.2021 362.727 22.6397 406.557 70.799 440.647C129.239 469.867 107.962 343.608 65.3879 352.445Z" fill="#BC5E28"/>
</g>
<g filter="url(#filter11_i_210_306)">
<path d="M80.3649 340.362C80.3649 344.247 79.9211 347.937 76.036 347.937C72.151 347.937 67.3782 344.247 67.3782 340.362C67.3782 336.477 68.9043 333.868 72.7893 333.868C76.6744 333.868 80.3649 336.477 80.3649 340.362Z" fill="#FBDA7F"/>
</g>
<g filter="url(#filter12_i_210_306)">
<path d="M45.3015 359.601C44.413 363.055 43.8642 365.503 40.7879 364.712C37.7117 363.92 34.1299 360.409 35.0183 356.956C35.9068 353.502 37.7873 350.934 40.8635 351.725C43.9397 352.517 46.1899 356.148 45.3015 359.601Z" fill="#FBDA7F"/>
</g>
<g filter="url(#filter13_i_210_306)">
<path d="M39.8411 379.04C39.2252 381.434 38.8448 383.131 36.7126 382.583C34.5803 382.034 32.0976 379.6 32.7134 377.207C33.3293 374.813 34.6327 373.032 36.7649 373.581C38.8972 374.129 40.4569 376.647 39.8411 379.04Z" fill="#FBDA7F"/>
</g>
<g filter="url(#filter14_i_210_306)">
<path d="M60.3725 343.889C59.2314 347.603 57.0228 349.619 53.3091 348.478C49.5954 347.337 46.8174 343.789 47.9585 340.075C49.0995 336.361 51.3244 334.316 55.0381 335.457C58.7518 336.599 61.5135 340.176 60.3725 343.889Z" fill="#FBDA7F"/>
</g>
<g filter="url(#filter15_i_210_306)">
<path d="M106.011 51.8889C135.497 16.8778 169.148 35.6238 182.599 47.5709C165.033 74.6247 128.41 129.21 122.442 131.122C114.983 133.512 67.2631 97.8986 106.011 51.8889Z" fill="#FFD99B"/>
</g>
<g filter="url(#filter16_i_210_306)">
<path d="M177.374 50.9972L120.432 133.312C103.716 121.118 75.1412 104.045 102.26 60.9167C123.955 26.414 161.376 39.9276 177.374 50.9972Z" fill="#F8A73E"/>
</g>
<g filter="url(#filter17_i_210_306)">
<path d="M167.803 64.3953L131.847 116.592C122.395 110.769 106.906 93.4715 120.569 70.8655C134.231 48.2594 157.75 57.1328 167.803 64.3953Z" fill="#AF5E27"/>
</g>
<g filter="url(#filter18_i_210_306)">
<path d="M365 14.133C402.049 41.0119 385.784 75.9296 374.84 90.2085C346.587 74.6432 289.499 42.059 287.16 36.2453C284.238 28.9782 316.311 -21.1898 365 14.133Z" fill="#FFD99B"/>
</g>
<g filter="url(#filter19_i_210_306)">
<path d="M371.045 85.2449L284.832 34.3988C295.786 16.8448 310.749 -12.8884 355.724 11.0434C391.704 30.1889 380.93 68.4884 371.045 85.2449Z" fill="#F8A73E"/>
</g>
<g filter="url(#filter20_i_210_306)">
<path d="M356.99 76.6664L302.332 44.5759C307.457 34.7278 323.59 18.03 347.124 30.0232C370.658 42.0164 363.507 66.1158 356.99 76.6664Z" fill="#AF5E27"/>
</g>
<g filter="url(#filter21_i_210_306)">
<path d="M131.796 92.0383C159.527 41.0994 228.489 28.9383 259.504 29.2251C354.373 29.2251 410.929 116.131 396.334 166.467C381.739 216.804 330.656 230.141 281.853 244.769C233.05 259.396 171.261 239.665 158.706 230.141C131.796 209.728 97.1327 155.712 131.796 92.0383Z" fill="#FFB441"/>
</g>
<path d="M160.138 235.605C87.3761 193.195 113.353 126.91 132.302 93.0718L267.125 247.831C267.125 247.831 225.646 263.803 160.138 235.605Z" fill="url(#paint1_linear_210_306)"/>
<g filter="url(#filter22_i_210_306)">
<path d="M207.269 234.713C194.82 199.778 234.401 187.056 255.748 185.062C304.228 185.062 312.607 195.231 312.009 228.133C311.41 261.034 222.83 278.382 207.269 234.713Z" fill="#FCF4A1"/>
</g>
<path d="M258.68 229.95L261.725 243.296" stroke="#442417" stroke-linecap="round"/>
<g filter="url(#filter23_d_210_306)">
<path d="M241.177 240.073C247.48 243.803 263.603 248.082 277.669 235.348" stroke="#442417" stroke-linecap="round"/>
</g>
<g filter="url(#filter24_i_210_306)">
<path d="M237.124 223.393C236.566 213.798 247.058 212.623 254.044 211.254C259.272 210.229 267.873 208.86 271.805 212.282C276.459 216.333 273.836 225.019 271.171 228.299C269.038 230.922 264.487 234.02 259.79 234.941C252.467 235.09 237.682 232.989 237.124 223.393Z" fill="#492D1D"/>
</g>
<path d="M248.979 218.112C249.178 216.231 248.198 213.398 242.682 217.118C235.787 221.769 244.257 228.646 248.979 218.112Z" fill="url(#paint2_radial_210_306)"/>
<g filter="url(#filter25_i_210_306)">
<path d="M210.308 185.603C210.308 193.672 206.778 198.048 202.423 198.048C198.069 198.048 191.91 193.672 191.91 185.603C191.91 177.534 196.097 173.157 200.452 173.157C204.807 173.157 210.308 177.534 210.308 185.603Z" fill="#442210"/>
</g>
<ellipse cx="200.452" cy="178.568" rx="2.62827" ry="2.16446" fill="url(#paint3_radial_210_306)"/>
<g filter="url(#filter26_i_210_306)">
<path d="M312.038 173.698C312.038 181.767 308.508 186.144 304.153 186.144C299.798 186.144 293.64 181.767 293.64 173.698C293.64 165.629 297.827 161.252 302.182 161.252C306.536 161.252 312.038 165.629 312.038 173.698Z" fill="#442210"/>
</g>
<ellipse cx="302.182" cy="166.663" rx="2.62827" ry="2.16446" fill="url(#paint4_radial_210_306)"/>
<g filter="url(#filter27_i_210_306)">
<path d="M158.797 269.339L136.027 271.695C138.854 275.778 213.367 303.757 250.271 317.236L380.218 263.451C377.47 263.058 367.184 261.566 348.026 258.74C280.893 230.08 257.337 269.339 250.271 309.384C222.318 248.768 177.641 257.431 158.797 269.339Z" fill="#FFEDA4"/>
</g>
<g filter="url(#filter28_i_210_306)">
<path d="M165.079 372.198L135.634 271.695L251.841 316.843C251.841 316.843 345.801 275.883 380.218 264.628L377.863 361.991C377.863 361.991 307.851 392.482 284.034 406.354L285.211 416.169C285.211 416.169 281.278 419.912 275.004 421.272C269.985 422.36 262.761 421.316 260.086 420.094L256.945 410.672C255.523 406.406 196.093 383.191 165.079 372.198Z" fill="#3E2623"/>
</g>
<path d="M257.337 408.709L234.96 312.917H232.604L251.056 391.435L257.337 408.709Z" fill="url(#paint5_linear_210_306)"/>
<path d="M282.742 407.497L269.644 310.002L267.299 309.776L278.144 389.701L282.742 407.497Z" fill="url(#paint6_linear_210_306)"/>
<path d="M254.982 397.717C260.217 399.287 272.492 400.7 279.715 393.791C280.584 396.784 281.154 398.691 281.511 399.836C281.569 399.784 281.624 399.731 281.678 399.68C282.041 401.13 282.315 402.417 281.511 399.836C278.21 402.867 268.816 407.87 256.16 404.783C254.589 395.989 254.72 396.408 254.982 397.717Z" fill="url(#paint7_radial_210_306)"/>
<path d="M172.145 265.806C193.738 266.199 229.5 273.5 250.663 312.132" stroke="url(#paint8_linear_210_306)" stroke-width="2" stroke-linecap="round"/>
<path d="M159.19 270.517C168.481 269.47 194.759 272.401 225.538 292.502" stroke="url(#paint9_linear_210_306)" stroke-width="2" stroke-linecap="round"/>
<path d="M251.056 312.917L158.404 275.229" stroke="url(#paint10_linear_210_306)" stroke-width="2" stroke-linecap="round"/>
<path d="M251.056 312.917C276.866 295.172 338.127 260.477 376.685 263.655" stroke="url(#paint11_linear_210_306)" stroke-width="2" stroke-linecap="round"/>
<path d="M258.908 296.428C264.063 282.303 286.671 254.207 335.856 254.824" stroke="url(#paint12_linear_210_306)" stroke-width="2" stroke-linecap="round"/>
<path d="M352.737 260.702C333.5 260.964 290.236 267.062 271.078 289.362" stroke="url(#paint13_linear_210_306)" stroke-width="2" stroke-linecap="round"/>
<defs>
<filter id="filter0_i_210_306" x="84.7694" y="289.518" width="360.383" height="158.526" filterUnits="userSpaceOnUse" color-interpolation-filters="sRGB">
<feFlood flood-opacity="0" result="BackgroundImageFix"/>
<feBlend mode="normal" in="SourceGraphic" in2="BackgroundImageFix" result="shape"/>
<feColorMatrix in="SourceAlpha" type="matrix" values="0 0 0 0 0 0 0 0 0 0 0 0 0 0 0 0 0 0 127 0" result="hardAlpha"/>
<feOffset dy="-20"/>
<feGaussianBlur stdDeviation="10"/>
<feComposite in2="hardAlpha" operator="arithmetic" k2="-1" k3="1"/>
<feColorMatrix type="matrix" values="0 0 0 0 0 0 0 0 0 0 0 0 0 0 0 0 0 0 0.25 0"/>
<feBlend mode="normal" in2="shape" result="effect1_innerShadow_210_306"/>
</filter>
<filter id="filter1_i_210_306" x="77.1937" y="208.871" width="106.318" height="175.992" filterUnits="userSpaceOnUse" color-interpolation-filters="sRGB">
<feFlood flood-opacity="0" result="BackgroundImageFix"/>
<feBlend mode="normal" in="SourceGraphic" in2="BackgroundImageFix" result="shape"/>
<feColorMatrix in="SourceAlpha" type="matrix" values="0 0 0 0 0 0 0 0 0 0 0 0 0 0 0 0 0 0 127 0" result="hardAlpha"/>
<feOffset dx="10" dy="5"/>
<feGaussianBlur stdDeviation="5"/>
<feComposite in2="hardAlpha" operator="arithmetic" k2="-1" k3="1"/>
<feColorMatrix type="matrix" values="0 0 0 0 0 0 0 0 0 0 0 0 0 0 0 0 0 0 0.25 0"/>
<feBlend mode="normal" in2="shape" result="effect1_innerShadow_210_306"/>
</filter>
<filter id="filter2_i_210_306" x="318.039" y="192.061" width="125.603" height="186.222" filterUnits="userSpaceOnUse" color-interpolation-filters="sRGB">
<feFlood flood-opacity="0" result="BackgroundImageFix"/>
<feBlend mode="normal" in="SourceGraphic" in2="BackgroundImageFix" result="shape"/>
<feColorMatrix in="SourceAlpha" type="matrix" values="0 0 0 0 0 0 0 0 0 0 0 0 0 0 0 0 0 0 127 0" result="hardAlpha"/>
<feOffset dx="-10" dy="5"/>
<feGaussianBlur stdDeviation="5"/>
<feComposite in2="hardAlpha" operator="arithmetic" k2="-1" k3="1"/>
<feColorMatrix type="matrix" values="0 0 0 0 0 0 0 0 0 0 0 0 0 0 0 0 0 0 0.25 0"/>
<feBlend mode="normal" in2="shape" result="effect1_innerShadow_210_306"/>
</filter>
<filter id="filter3_i_210_306" x="391.863" y="311.682" width="116.478" height="148.621" filterUnits="userSpaceOnUse" color-interpolation-filters="sRGB">
<feFlood flood-opacity="0" result="BackgroundImageFix"/>
<feBlend mode="normal" in="SourceGraphic" in2="BackgroundImageFix" result="shape"/>
<feColorMatrix in="SourceAlpha" type="matrix" values="0 0 0 0 0 0 0 0 0 0 0 0 0 0 0 0 0 0 127 0" result="hardAlpha"/>
<feOffset dx="-10" dy="4"/>
<feGaussianBlur stdDeviation="5"/>
<feComposite in2="hardAlpha" operator="arithmetic" k2="-1" k3="1"/>
<feColorMatrix type="matrix" values="0 0 0 0 0 0 0 0 0 0 0 0 0 0 0 0 0 0 0.25 0"/>
<feBlend mode="normal" in2="shape" result="effect1_innerShadow_210_306"/>
</filter>
<filter id="filter4_i_210_306" x="413.722" y="347.672" width="75.2012" height="97.0447" filterUnits="userSpaceOnUse" color-interpolation-filters="sRGB">
<feFlood flood-opacity="0" result="BackgroundImageFix"/>
<feBlend mode="normal" in="SourceGraphic" in2="BackgroundImageFix" result="shape"/>
<feColorMatrix in="SourceAlpha" type="matrix" values="0 0 0 0 0 0 0 0 0 0 0 0 0 0 0 0 0 0 127 0" result="hardAlpha"/>
<feOffset dx="-10" dy="4"/>
<feGaussianBlur stdDeviation="5"/>
<feComposite in2="hardAlpha" operator="arithmetic" k2="-1" k3="1"/>
<feColorMatrix type="matrix" values="0 0 0 0 0 0 0 0 0 0 0 0 0 0 0 0 0 0 0.25 0"/>
<feBlend mode="normal" in2="shape" result="effect1_innerShadow_210_306"/>
</filter>
<filter id="filter5_i_210_306" x="448.976" y="329.539" width="13.9868" height="16.0691" filterUnits="userSpaceOnUse" color-interpolation-filters="sRGB">
<feFlood flood-opacity="0" result="BackgroundImageFix"/>
<feBlend mode="normal" in="SourceGraphic" in2="BackgroundImageFix" result="shape"/>
<feColorMatrix in="SourceAlpha" type="matrix" values="0 0 0 0 0 0 0 0 0 0 0 0 0 0 0 0 0 0 127 0" result="hardAlpha"/>
<feOffset dx="-1" dy="2"/>
<feGaussianBlur stdDeviation="1"/>
<feComposite in2="hardAlpha" operator="arithmetic" k2="-1" k3="1"/>
<feColorMatrix type="matrix" values="0 0 0 0 0 0 0 0 0 0 0 0 0 0 0 0 0 0 0.25 0"/>
<feBlend mode="normal" in2="shape" result="effect1_innerShadow_210_306"/>
</filter>
<filter id="filter6_i_210_306" x="483.844" y="347.252" width="11.6166" height="15.2805" filterUnits="userSpaceOnUse" color-interpolation-filters="sRGB">
<feFlood flood-opacity="0" result="BackgroundImageFix"/>
<feBlend mode="normal" in="SourceGraphic" in2="BackgroundImageFix" result="shape"/>
<feColorMatrix in="SourceAlpha" type="matrix" values="0 0 0 0 0 0 0 0 0 0 0 0 0 0 0 0 0 0 127 0" result="hardAlpha"/>
<feOffset dx="-1" dy="2"/>
<feGaussianBlur stdDeviation="1"/>
<feComposite in2="hardAlpha" operator="arithmetic" k2="-1" k3="1"/>
<feColorMatrix type="matrix" values="0 0 0 0 0 0 0 0 0 0 0 0 0 0 0 0 0 0 0.25 0"/>
<feBlend mode="normal" in2="shape" result="effect1_innerShadow_210_306"/>
</filter>
<filter id="filter7_i_210_306" x="489.364" y="369.152" width="8.35876" height="11.2051" filterUnits="userSpaceOnUse" color-interpolation-filters="sRGB">
<feFlood flood-opacity="0" result="BackgroundImageFix"/>
<feBlend mode="normal" in="SourceGraphic" in2="BackgroundImageFix" result="shape"/>
<feColorMatrix in="SourceAlpha" type="matrix" values="0 0 0 0 0 0 0 0 0 0 0 0 0 0 0 0 0 0 127 0" result="hardAlpha"/>
<feOffset dx="-1" dy="2"/>
<feGaussianBlur stdDeviation="1"/>
<feComposite in2="hardAlpha" operator="arithmetic" k2="-1" k3="1"/>
<feColorMatrix type="matrix" values="0 0 0 0 0 0 0 0 0 0 0 0 0 0 0 0 0 0 0.25 0"/>
<feBlend mode="normal" in2="shape" result="effect1_innerShadow_210_306"/>
</filter>
<filter id="filter8_i_210_306" x="468.708" y="330.813" width="13.9335" height="15.6553" filterUnits="userSpaceOnUse" color-interpolation-filters="sRGB">
<feFlood flood-opacity="0" result="BackgroundImageFix"/>
<feBlend mode="normal" in="SourceGraphic" in2="BackgroundImageFix" result="shape"/>
<feColorMatrix in="SourceAlpha" type="matrix" values="0 0 0 0 0 0 0 0 0 0 0 0 0 0 0 0 0 0 127 0" result="hardAlpha"/>
<feOffset dx="-1" dy="2"/>
<feGaussianBlur stdDeviation="1"/>
<feComposite in2="hardAlpha" operator="arithmetic" k2="-1" k3="1"/>
<feColorMatrix type="matrix" values="0 0 0 0 0 0 0 0 0 0 0 0 0 0 0 0 0 0 0.25 0"/>
<feBlend mode="normal" in2="shape" result="effect1_innerShadow_210_306"/>
</filter>
<filter id="filter9_i_210_306" x="12" y="316.011" width="116.478" height="148.621" filterUnits="userSpaceOnUse" color-interpolation-filters="sRGB">
<feFlood flood-opacity="0" result="BackgroundImageFix"/>
<feBlend mode="normal" in="SourceGraphic" in2="BackgroundImageFix" result="shape"/>
<feColorMatrix in="SourceAlpha" type="matrix" values="0 0 0 0 0 0 0 0 0 0 0 0 0 0 0 0 0 0 127 0" result="hardAlpha"/>
<feOffset dx="-10" dy="4"/>
<feGaussianBlur stdDeviation="5"/>
<feComposite in2="hardAlpha" operator="arithmetic" k2="-1" k3="1"/>
<feColorMatrix type="matrix" values="0 0 0 0 0 0 0 0 0 0 0 0 0 0 0 0 0 0 0.25 0"/>
<feBlend mode="normal" in2="shape" result="effect1_innerShadow_210_306"/>
</filter>
<filter id="filter10_i_210_306" x="31.4178" y="352.001" width="75.2012" height="97.0447" filterUnits="userSpaceOnUse" color-interpolation-filters="sRGB">
<feFlood flood-opacity="0" result="BackgroundImageFix"/>
<feBlend mode="normal" in="SourceGraphic" in2="BackgroundImageFix" result="shape"/>
<feColorMatrix in="SourceAlpha" type="matrix" values="0 0 0 0 0 0 0 0 0 0 0 0 0 0 0 0 0 0 127 0" result="hardAlpha"/>
<feOffset dx="-10" dy="4"/>
<feGaussianBlur stdDeviation="5"/>
<feComposite in2="hardAlpha" operator="arithmetic" k2="-1" k3="1"/>
<feColorMatrix type="matrix" values="0 0 0 0 0 0 0 0 0 0 0 0 0 0 0 0 0 0 0.25 0"/>
<feBlend mode="normal" in2="shape" result="effect1_innerShadow_210_306"/>
</filter>
<filter id="filter11_i_210_306" x="66.3782" y="333.868" width="13.9868" height="16.0691" filterUnits="userSpaceOnUse" color-interpolation-filters="sRGB">
<feFlood flood-opacity="0" result="BackgroundImageFix"/>
<feBlend mode="normal" in="SourceGraphic" in2="BackgroundImageFix" result="shape"/>
<feColorMatrix in="SourceAlpha" type="matrix" values="0 0 0 0 0 0 0 0 0 0 0 0 0 0 0 0 0 0 127 0" result="hardAlpha"/>
<feOffset dx="-1" dy="2"/>
<feGaussianBlur stdDeviation="1"/>
<feComposite in2="hardAlpha" operator="arithmetic" k2="-1" k3="1"/>
<feColorMatrix type="matrix" values="0 0 0 0 0 0 0 0 0 0 0 0 0 0 0 0 0 0 0.25 0"/>
<feBlend mode="normal" in2="shape" result="effect1_innerShadow_210_306"/>
</filter>
<filter id="filter12_i_210_306" x="33.8806" y="351.581" width="11.6166" height="15.2805" filterUnits="userSpaceOnUse" color-interpolation-filters="sRGB">
<feFlood flood-opacity="0" result="BackgroundImageFix"/>
<feBlend mode="normal" in="SourceGraphic" in2="BackgroundImageFix" result="shape"/>
<feColorMatrix in="SourceAlpha" type="matrix" values="0 0 0 0 0 0 0 0 0 0 0 0 0 0 0 0 0 0 127 0" result="hardAlpha"/>
<feOffset dx="-1" dy="2"/>
<feGaussianBlur stdDeviation="1"/>
<feComposite in2="hardAlpha" operator="arithmetic" k2="-1" k3="1"/>
<feColorMatrix type="matrix" values="0 0 0 0 0 0 0 0 0 0 0 0 0 0 0 0 0 0 0.25 0"/>
<feBlend mode="normal" in2="shape" result="effect1_innerShadow_210_306"/>
</filter>
<filter id="filter13_i_210_306" x="31.6179" y="373.481" width="8.35876" height="11.2051" filterUnits="userSpaceOnUse" color-interpolation-filters="sRGB">
<feFlood flood-opacity="0" result="BackgroundImageFix"/>
<feBlend mode="normal" in="SourceGraphic" in2="BackgroundImageFix" result="shape"/>
<feColorMatrix in="SourceAlpha" type="matrix" values="0 0 0 0 0 0 0 0 0 0 0 0 0 0 0 0 0 0 127 0" result="hardAlpha"/>
<feOffset dx="-1" dy="2"/>
<feGaussianBlur stdDeviation="1"/>
<feComposite in2="hardAlpha" operator="arithmetic" k2="-1" k3="1"/>
<feColorMatrix type="matrix" values="0 0 0 0 0 0 0 0 0 0 0 0 0 0 0 0 0 0 0.25 0"/>
<feBlend mode="normal" in2="shape" result="effect1_innerShadow_210_306"/>
</filter>
<filter id="filter14_i_210_306" x="46.6992" y="335.142" width="13.9335" height="15.6553" filterUnits="userSpaceOnUse" color-interpolation-filters="sRGB">
<feFlood flood-opacity="0" result="BackgroundImageFix"/>
<feBlend mode="normal" in="SourceGraphic" in2="BackgroundImageFix" result="shape"/>
<feColorMatrix in="SourceAlpha" type="matrix" values="0 0 0 0 0 0 0 0 0 0 0 0 0 0 0 0 0 0 127 0" result="hardAlpha"/>
<feOffset dx="-1" dy="2"/>
<feGaussianBlur stdDeviation="1"/>
<feComposite in2="hardAlpha" operator="arithmetic" k2="-1" k3="1"/>
<feColorMatrix type="matrix" values="0 0 0 0 0 0 0 0 0 0 0 0 0 0 0 0 0 0 0.25 0"/>
<feBlend mode="normal" in2="shape" result="effect1_innerShadow_210_306"/>
</filter>
<filter id="filter15_i_210_306" x="91.0172" y="31.729" width="91.5818" height="103.507" filterUnits="userSpaceOnUse" color-interpolation-filters="sRGB">
<feFlood flood-opacity="0" result="BackgroundImageFix"/>
<feBlend mode="normal" in="SourceGraphic" in2="BackgroundImageFix" result="shape"/>
<feColorMatrix in="SourceAlpha" type="matrix" values="0 0 0 0 0 0 0 0 0 0 0 0 0 0 0 0 0 0 127 0" result="hardAlpha"/>
<feOffset dy="4"/>
<feGaussianBlur stdDeviation="2"/>
<feComposite in2="hardAlpha" operator="arithmetic" k2="-1" k3="1"/>
<feColorMatrix type="matrix" values="0 0 0 0 0 0 0 0 0 0 0 0 0 0 0 0 0 0 0.25 0"/>
<feBlend mode="normal" in2="shape" result="effect1_innerShadow_210_306"/>
</filter>
<filter id="filter16_i_210_306" x="91.0653" y="38.8411" width="86.3091" height="98.4705" filterUnits="userSpaceOnUse" color-interpolation-filters="sRGB">
<feFlood flood-opacity="0" result="BackgroundImageFix"/>
<feBlend mode="normal" in="SourceGraphic" in2="BackgroundImageFix" result="shape"/>
<feColorMatrix in="SourceAlpha" type="matrix" values="0 0 0 0 0 0 0 0 0 0 0 0 0 0 0 0 0 0 127 0" result="hardAlpha"/>
<feOffset dy="4"/>
<feGaussianBlur stdDeviation="2"/>
<feComposite in2="hardAlpha" operator="arithmetic" k2="-1" k3="1"/>
<feColorMatrix type="matrix" values="0 0 0 0 0 0 0 0 0 0 0 0 0 0 0 0 0 0 0.25 0"/>
<feBlend mode="normal" in2="shape" result="effect1_innerShadow_210_306"/>
</filter>
<filter id="filter17_i_210_306" x="115.176" y="56.4119" width="52.6268" height="64.1799" filterUnits="userSpaceOnUse" color-interpolation-filters="sRGB">
<feFlood flood-opacity="0" result="BackgroundImageFix"/>
<feBlend mode="normal" in="SourceGraphic" in2="BackgroundImageFix" result="shape"/>
<feColorMatrix in="SourceAlpha" type="matrix" values="0 0 0 0 0 0 0 0 0 0 0 0 0 0 0 0 0 0 127 0" result="hardAlpha"/>
<feOffset dy="4"/>
<feGaussianBlur stdDeviation="2"/>
<feComposite in2="hardAlpha" operator="arithmetic" k2="-1" k3="1"/>
<feColorMatrix type="matrix" values="0 0 0 0 0 0 0 0 0 0 0 0 0 0 0 0 0 0 0.25 0"/>
<feBlend mode="normal" in2="shape" result="effect1_innerShadow_210_306"/>
</filter>
<filter id="filter18_i_210_306" x="286.976" y="1.65918" width="101.02" height="92.5493" filterUnits="userSpaceOnUse" color-interpolation-filters="sRGB">
<feFlood flood-opacity="0" result="BackgroundImageFix"/>
<feBlend mode="normal" in="SourceGraphic" in2="BackgroundImageFix" result="shape"/>
<feColorMatrix in="SourceAlpha" type="matrix" values="0 0 0 0 0 0 0 0 0 0 0 0 0 0 0 0 0 0 127 0" result="hardAlpha"/>
<feOffset dy="4"/>
<feGaussianBlur stdDeviation="2"/>
<feComposite in2="hardAlpha" operator="arithmetic" k2="-1" k3="1"/>
<feColorMatrix type="matrix" values="0 0 0 0 0 0 0 0 0 0 0 0 0 0 0 0 0 0 0.25 0"/>
<feBlend mode="normal" in2="shape" result="effect1_innerShadow_210_306"/>
</filter>
<filter id="filter19_i_210_306" x="284.832" y="2.0979" width="95.7953" height="87.147" filterUnits="userSpaceOnUse" color-interpolation-filters="sRGB">
<feFlood flood-opacity="0" result="BackgroundImageFix"/>
<feBlend mode="normal" in="SourceGraphic" in2="BackgroundImageFix" result="shape"/>
<feColorMatrix in="SourceAlpha" type="matrix" values="0 0 0 0 0 0 0 0 0 0 0 0 0 0 0 0 0 0 127 0" result="hardAlpha"/>
<feOffset dy="4"/>
<feGaussianBlur stdDeviation="2"/>
<feComposite in2="hardAlpha" operator="arithmetic" k2="-1" k3="1"/>
<feColorMatrix type="matrix" values="0 0 0 0 0 0 0 0 0 0 0 0 0 0 0 0 0 0 0.25 0"/>
<feBlend mode="normal" in2="shape" result="effect1_innerShadow_210_306"/>
</filter>
<filter id="filter20_i_210_306" x="302.332" y="25.8518" width="61.0176" height="54.8147" filterUnits="userSpaceOnUse" color-interpolation-filters="sRGB">
<feFlood flood-opacity="0" result="BackgroundImageFix"/>
<feBlend mode="normal" in="SourceGraphic" in2="BackgroundImageFix" result="shape"/>
<feColorMatrix in="SourceAlpha" type="matrix" values="0 0 0 0 0 0 0 0 0 0 0 0 0 0 0 0 0 0 127 0" result="hardAlpha"/>
<feOffset dy="4"/>
<feGaussianBlur stdDeviation="2"/>
<feComposite in2="hardAlpha" operator="arithmetic" k2="-1" k3="1"/>
<feColorMatrix type="matrix" values="0 0 0 0 0 0 0 0 0 0 0 0 0 0 0 0 0 0 0.25 0"/>
<feBlend mode="normal" in2="shape" result="effect1_innerShadow_210_306"/>
</filter>
<filter id="filter21_i_210_306" x="102.236" y="29.2202" width="296.38" height="230.775" filterUnits="userSpaceOnUse" color-interpolation-filters="sRGB">
<feFlood flood-opacity="0" result="BackgroundImageFix"/>
<feBlend mode="normal" in="SourceGraphic" in2="BackgroundImageFix" result="shape"/>
<feColorMatrix in="SourceAlpha" type="matrix" values="0 0 0 0 0 0 0 0 0 0 0 0 0 0 0 0 0 0 127 0" result="hardAlpha"/>
<feOffset dx="-15" dy="10"/>
<feGaussianBlur stdDeviation="7.5"/>
<feComposite in2="hardAlpha" operator="arithmetic" k2="-1" k3="1"/>
<feColorMatrix type="matrix" values="0 0 0 0 0 0 0 0 0 0 0 0 0 0 0 0 0 0 0.25 0"/>
<feBlend mode="normal" in2="shape" result="effect1_innerShadow_210_306"/>
</filter>
<filter id="filter22_i_210_306" x="200.897" y="185.062" width="111.141" height="79.7561" filterUnits="userSpaceOnUse" color-interpolation-filters="sRGB">
<feFlood flood-opacity="0" result="BackgroundImageFix"/>
<feBlend mode="normal" in="SourceGraphic" in2="BackgroundImageFix" result="shape"/>
<feColorMatrix in="SourceAlpha" type="matrix" values="0 0 0 0 0 0 0 0 0 0 0 0 0 0 0 0 0 0 127 0" result="hardAlpha"/>
<feOffset dx="-10" dy="4"/>
<feGaussianBlur stdDeviation="2"/>
<feComposite in2="hardAlpha" operator="arithmetic" k2="-1" k3="1"/>
<feColorMatrix type="matrix" values="0 0 0 0 0 0 0 0 0 0 0 0 0 0 0 0 0 0 0.25 0"/>
<feBlend mode="normal" in2="shape" result="effect1_innerShadow_210_306"/>
</filter>
<filter id="filter23_d_210_306" x="238.677" y="233.048" width="41.4915" height="13.5376" filterUnits="userSpaceOnUse" color-interpolation-filters="sRGB">
<feFlood flood-opacity="0" result="BackgroundImageFix"/>
<feColorMatrix in="SourceAlpha" type="matrix" values="0 0 0 0 0 0 0 0 0 0 0 0 0 0 0 0 0 0 127 0" result="hardAlpha"/>
<feOffset dy="0.2"/>
<feGaussianBlur stdDeviation="1"/>
<feComposite in2="hardAlpha" operator="out"/>
<feColorMatrix type="matrix" values="0 0 0 0 0 0 0 0 0 0 0 0 0 0 0 0 0 0 0.5 0"/>
<feBlend mode="normal" in2="BackgroundImageFix" result="effect1_dropShadow_210_306"/>
<feBlend mode="normal" in="SourceGraphic" in2="effect1_dropShadow_210_306" result="shape"/>
</filter>
<filter id="filter24_i_210_306" x="233.103" y="210.098" width="41.2574" height="28.8503" filterUnits="userSpaceOnUse" color-interpolation-filters="sRGB">
<feFlood flood-opacity="0" result="BackgroundImageFix"/>
<feBlend mode="normal" in="SourceGraphic" in2="BackgroundImageFix" result="shape"/>
<feColorMatrix in="SourceAlpha" type="matrix" values="0 0 0 0 0 0 0 0 0 0 0 0 0 0 0 0 0 0 127 0" result="hardAlpha"/>
<feOffset dx="-10" dy="4"/>
<feGaussianBlur stdDeviation="2"/>
<feComposite in2="hardAlpha" operator="arithmetic" k2="-1" k3="1"/>
<feColorMatrix type="matrix" values="0 0 0 0 0 0 0 0 0 0 0 0 0 0 0 0 0 0 0.25 0"/>
<feBlend mode="normal" in2="shape" result="effect1_innerShadow_210_306"/>
</filter>
<filter id="filter25_i_210_306" x="187.91" y="173.157" width="22.3979" height="28.8914" filterUnits="userSpaceOnUse" color-interpolation-filters="sRGB">
<feFlood flood-opacity="0" result="BackgroundImageFix"/>
<feBlend mode="normal" in="SourceGraphic" in2="BackgroundImageFix" result="shape"/>
<feColorMatrix in="SourceAlpha" type="matrix" values="0 0 0 0 0 0 0 0 0 0 0 0 0 0 0 0 0 0 127 0" result="hardAlpha"/>
<feOffset dx="-10" dy="4"/>
<feGaussianBlur stdDeviation="2"/>
<feComposite in2="hardAlpha" operator="arithmetic" k2="-1" k3="1"/>
<feColorMatrix type="matrix" values="0 0 0 0 0 0 0 0 0 0 0 0 0 0 0 0 0 0 0.25 0"/>
<feBlend mode="normal" in2="shape" result="effect1_innerShadow_210_306"/>
</filter>
<filter id="filter26_i_210_306" x="289.64" y="161.252" width="22.3979" height="28.8914" filterUnits="userSpaceOnUse" color-interpolation-filters="sRGB">
<feFlood flood-opacity="0" result="BackgroundImageFix"/>
<feBlend mode="normal" in="SourceGraphic" in2="BackgroundImageFix" result="shape"/>
<feColorMatrix in="SourceAlpha" type="matrix" values="0 0 0 0 0 0 0 0 0 0 0 0 0 0 0 0 0 0 127 0" result="hardAlpha"/>
<feOffset dx="-10" dy="4"/>
<feGaussianBlur stdDeviation="2"/>
<feComposite in2="hardAlpha" operator="arithmetic" k2="-1" k3="1"/>
<feColorMatrix type="matrix" values="0 0 0 0 0 0 0 0 0 0 0 0 0 0 0 0 0 0 0.25 0"/>
<feBlend mode="normal" in2="shape" result="effect1_innerShadow_210_306"/>
</filter>
<filter id="filter27_i_210_306" x="135.027" y="248.913" width="245.192" height="71.3225" filterUnits="userSpaceOnUse" color-interpolation-filters="sRGB">
<feFlood flood-opacity="0" result="BackgroundImageFix"/>
<feBlend mode="normal" in="SourceGraphic" in2="BackgroundImageFix" result="shape"/>
<feColorMatrix in="SourceAlpha" type="matrix" values="0 0 0 0 0 0 0 0 0 0 0 0 0 0 0 0 0 0 127 0" result="hardAlpha"/>
<feOffset dx="-1" dy="4"/>
<feGaussianBlur stdDeviation="1.5"/>
<feComposite in2="hardAlpha" operator="arithmetic" k2="-1" k3="1"/>
<feColorMatrix type="matrix" values="0 0 0 0 0 0 0 0 0 0 0 0 0 0 0 0 0 0 0.25 0"/>
<feBlend mode="normal" in2="shape" result="effect1_innerShadow_210_306"/>
</filter>
<filter id="filter28_i_210_306" x="125.634" y="264.628" width="254.584" height="161.1" filterUnits="userSpaceOnUse" color-interpolation-filters="sRGB">
<feFlood flood-opacity="0" result="BackgroundImageFix"/>
<feBlend mode="normal" in="SourceGraphic" in2="BackgroundImageFix" result="shape"/>
<feColorMatrix in="SourceAlpha" type="matrix" values="0 0 0 0 0 0 0 0 0 0 0 0 0 0 0 0 0 0 127 0" result="hardAlpha"/>
<feOffset dx="-10" dy="4"/>
<feGaussianBlur stdDeviation="5"/>
<feComposite in2="hardAlpha" operator="arithmetic" k2="-1" k3="1"/>
<feColorMatrix type="matrix" values="0 0 0 0 0 0 0 0 0 0 0 0 0 0 0 0 0 0 0.5 0"/>
<feBlend mode="normal" in2="shape" result="effect1_innerShadow_210_306"/>
</filter>
<linearGradient id="paint0_linear_210_306" x1="258" y1="365" x2="258" y2="448.247" gradientUnits="userSpaceOnUse">
<stop stop-color="#6255A4" stop-opacity="0"/>
<stop offset="1" stop-color="#554C83"/>
</linearGradient>
<linearGradient id="paint1_linear_210_306" x1="131.824" y1="230.697" x2="174.608" y2="201.838" gradientUnits="userSpaceOnUse">
<stop stop-color="#FFB441"/>
<stop offset="0.0001" stop-color="#FFD99B"/>
<stop offset="1" stop-color="#FFB441"/>
</linearGradient>
<radialGradient id="paint2_radial_210_306" cx="0" cy="0" r="1" gradientUnits="userSpaceOnUse" gradientTransform="translate(244.575 219.533) rotate(53.7311) scale(3.15229 3.78275)">
<stop stop-color="white"/>
<stop offset="0.661458" stop-color="#FCF5BA" stop-opacity="0.338542"/>
<stop offset="1" stop-color="#FBF097" stop-opacity="0"/>
</radialGradient>
<radialGradient id="paint3_radial_210_306" cx="0" cy="0" r="1" gradientUnits="userSpaceOnUse" gradientTransform="translate(200.452 178.568) rotate(90) scale(2.16446 2.62827)">
<stop offset="0.390625" stop-color="#F7F5CC"/>
<stop offset="0.75" stop-color="#E4E3D4" stop-opacity="0.363636"/>
<stop offset="1" stop-color="#D9D9D9" stop-opacity="0"/>
</radialGradient>
<radialGradient id="paint4_radial_210_306" cx="0" cy="0" r="1" gradientUnits="userSpaceOnUse" gradientTransform="translate(302.182 166.663) rotate(90) scale(2.16446 2.62827)">
<stop offset="0.390625" stop-color="#F7F5CC"/>
<stop offset="0.75" stop-color="#E4E3D4" stop-opacity="0.363636"/>
<stop offset="1" stop-color="#D9D9D9" stop-opacity="0"/>
</radialGradient>
<linearGradient id="paint5_linear_210_306" x1="232.212" y1="307.813" x2="252.626" y2="398.894" gradientUnits="userSpaceOnUse">
<stop stop-color="#3A2520"/>
<stop offset="0.375" stop-color="#E49145"/>
<stop offset="1" stop-color="#3A2520"/>
</linearGradient>
<linearGradient id="paint6_linear_210_306" x1="267.397" y1="304.659" x2="278.993" y2="397.276" gradientUnits="userSpaceOnUse">
<stop stop-color="#3A2520"/>
<stop offset="0.286458" stop-color="#E49145"/>
<stop offset="0.776042" stop-color="#865530"/>
<stop offset="1" stop-color="#3A2520"/>
</linearGradient>
<radialGradient id="paint7_radial_210_306" cx="0" cy="0" r="1" gradientUnits="userSpaceOnUse" gradientTransform="translate(268.33 396.539) rotate(82.5686) scale(9.10608 20.7138)">
<stop stop-color="#E08E44"/>
<stop offset="1" stop-color="#E08E44" stop-opacity="0"/>
</radialGradient>
<linearGradient id="paint8_linear_210_306" x1="241.634" y1="292.895" x2="211.404" y2="312.132" gradientUnits="userSpaceOnUse">
<stop stop-color="#3E2623"/>
<stop offset="1" stop-color="#3E2623" stop-opacity="0"/>
</linearGradient>
<linearGradient id="paint9_linear_210_306" x1="238.493" y1="303.887" x2="170.182" y2="275.621" gradientUnits="userSpaceOnUse">
<stop offset="0.415086" stop-color="#3E2623"/>
<stop offset="0.977428" stop-color="#3E2623" stop-opacity="0"/>
</linearGradient>
<linearGradient id="paint10_linear_210_306" x1="245.167" y1="308.991" x2="159.582" y2="275.229" gradientUnits="userSpaceOnUse">
<stop stop-color="#3E2623"/>
<stop offset="1" stop-color="#3E2623" stop-opacity="0"/>
</linearGradient>
<linearGradient id="paint11_linear_210_306" x1="258.908" y1="294.858" x2="355.878" y2="274.05" gradientUnits="userSpaceOnUse">
<stop stop-color="#3E2623"/>
<stop offset="1" stop-color="#3E2623" stop-opacity="0"/>
</linearGradient>
<linearGradient id="paint12_linear_210_306" x1="264.797" y1="287.006" x2="324.078" y2="261.488" gradientUnits="userSpaceOnUse">
<stop stop-color="#3E2623"/>
<stop offset="1" stop-color="#3E2623" stop-opacity="0"/>
</linearGradient>
<linearGradient id="paint13_linear_210_306" x1="261.656" y1="289.362" x2="339.389" y2="283.08" gradientUnits="userSpaceOnUse">
<stop stop-color="#3E2623"/>
<stop offset="1" stop-color="#3E2623" stop-opacity="0"/>
</linearGradient>
</defs>
</svg>
