<svg width="419" height="419" viewBox="0 0 419 419" fill="none" xmlns="http://www.w3.org/2000/svg">
<g clip-path="url(#clip0_778_842)">
<path d="M169.93 311.518C173.257 306.815 177.922 303.221 183.318 301.203C188.715 299.186 194.593 298.838 200.19 300.205C207.016 301.815 213.009 305.886 217.02 311.639C221.032 317.392 222.781 324.423 221.932 331.385C221.083 338.347 217.696 344.751 212.42 349.371C207.143 353.992 200.348 356.504 193.335 356.426C188.748 356.429 184.228 355.329 180.155 353.221C176.082 351.112 172.575 348.056 169.93 344.309V408.424H313.814C318.377 408.418 322.751 406.6 325.975 403.372C329.199 400.143 331.01 395.766 331.01 391.203V247.403H266.568C271.595 243.969 275.391 239.016 277.398 233.269C279.405 227.521 279.519 221.282 277.722 215.465C275.925 209.649 272.313 204.56 267.414 200.946C262.515 197.332 256.587 195.382 250.499 195.382C244.411 195.382 238.484 197.332 233.585 200.946C228.686 204.56 225.073 209.649 223.276 215.465C221.48 221.282 221.593 227.521 223.6 233.269C225.608 239.016 229.403 243.969 234.431 247.403H169.905L169.93 311.518Z" fill="#8F84CE"/>
<path d="M303.884 247.403V391.204C303.884 395.771 302.07 400.151 298.84 403.381C295.611 406.61 291.23 408.425 286.663 408.425H313.814C318.377 408.418 322.751 406.601 325.975 403.372C329.199 400.143 331.01 395.767 331.01 391.204V247.403H303.884Z" fill="#8379BB"/>
<path d="M105.73 247.403C110.682 250.886 114.394 255.857 116.331 261.592C118.267 267.328 118.326 273.532 116.499 279.303C114.672 285.075 111.054 290.115 106.169 293.692C101.285 297.269 95.3888 299.197 89.335 299.197C83.2811 299.197 77.3846 297.269 72.5005 293.692C67.6163 290.115 63.9985 285.075 62.1715 279.303C60.3444 273.532 60.4033 267.328 62.3394 261.592C64.2756 255.857 67.9884 250.886 72.9395 247.403H8.82413V391.204C8.82413 395.771 10.6385 400.151 13.868 403.381C17.0976 406.61 21.4778 408.425 26.045 408.425H169.93V343.974C172.845 348.28 176.889 351.702 181.618 353.865C186.348 356.027 191.581 356.847 196.746 356.234C204.053 355.488 210.791 351.949 215.552 346.355C220.313 340.761 222.729 333.544 222.296 326.211C221.864 318.879 218.616 311.996 213.231 307C207.845 302.005 200.738 299.282 193.394 299.401C188.764 299.401 184.204 300.535 180.114 302.704C176.023 304.873 172.527 308.012 169.93 311.845V247.403H105.73Z" fill="#EFECFF"/>
<path d="M313.797 170.717C308.867 167.252 305.169 162.306 303.24 156.596C301.31 150.887 301.25 144.711 303.067 138.966C304.885 133.22 308.485 128.202 313.347 124.641C318.209 121.079 324.078 119.159 330.105 119.159C336.131 119.159 342.001 121.079 346.863 124.641C351.725 128.202 355.325 133.22 357.143 138.966C358.96 144.711 358.9 150.887 356.97 156.596C355.041 162.306 351.343 167.252 346.412 170.717H410.176V28.492C410.176 23.7513 408.293 19.2049 404.941 15.8528C401.588 12.5006 397.042 10.6174 392.301 10.6174H249.95V74.6658C247.049 70.3819 243.025 66.979 238.319 64.8299C233.613 62.6807 228.406 61.8682 223.268 62.4813C216.078 63.3237 209.483 66.8842 204.833 72.433C200.183 77.9817 197.832 85.0986 198.26 92.3252C198.689 99.5519 201.865 106.341 207.138 111.301C212.411 116.262 219.381 119.018 226.62 119.004C231.226 119.005 235.761 117.877 239.83 115.72C243.898 113.562 247.376 110.44 249.959 106.627V170.717H313.797Z" fill="#EFECFF"/>
<path d="M392.301 10.5754H365.15C367.501 10.5754 369.829 11.0392 372 11.9401C374.171 12.841 376.144 14.1613 377.804 15.8256C379.465 17.4898 380.78 19.4652 381.676 21.6387C382.572 23.8122 383.03 26.141 383.025 28.4919V170.717H410.176V28.4919C410.181 26.141 409.723 23.8122 408.827 21.6387C407.931 19.4652 406.616 17.4898 404.955 15.8256C403.295 14.1613 401.323 12.841 399.151 11.9401C396.98 11.0392 394.652 10.5754 392.301 10.5754Z" fill="#BEB6EB"/>
<path d="M169.93 183.287C166.602 187.991 161.938 191.585 156.541 193.602C151.145 195.62 145.266 195.968 139.669 194.6C132.843 192.99 126.851 188.919 122.839 183.166C118.827 177.413 117.078 170.383 117.927 163.421C118.776 156.459 122.163 150.055 127.439 145.434C132.716 140.814 139.511 138.302 146.524 138.379C151.111 138.377 155.631 139.476 159.704 141.585C163.777 143.694 167.284 146.75 169.93 150.496V86.3811H26.045C21.4792 86.3811 17.1003 88.1943 13.871 91.422C10.6417 94.6498 8.82635 99.0278 8.82413 103.594V247.403H73.2747C68.2464 250.836 64.45 255.789 62.4417 261.536C60.4335 267.284 60.3192 273.523 62.1155 279.341C63.9119 285.158 67.5244 290.247 72.4235 293.861C77.3227 297.476 83.2509 299.426 89.3392 299.426C95.4274 299.426 101.356 297.476 106.255 293.861C111.154 290.247 114.766 285.158 116.563 279.341C118.359 273.523 118.245 267.284 116.237 261.536C114.228 255.789 110.432 250.836 105.404 247.403H169.93V183.287Z" fill="#8F84CE"/>
<path d="M169.93 183.287C166.602 187.991 161.938 191.585 156.541 193.602C151.145 195.62 145.266 195.968 139.669 194.6C132.843 192.99 126.851 188.919 122.839 183.166C118.827 177.413 117.078 170.383 117.927 163.421C118.776 156.459 122.163 150.055 127.439 145.434C132.716 140.814 139.511 138.302 146.524 138.379C151.111 138.377 155.631 139.476 159.704 141.585C163.777 143.694 167.284 146.75 169.93 150.496V86.3811H26.045C21.4792 86.3811 17.1003 88.1943 13.871 91.422C10.6417 94.6498 8.82635 99.0278 8.82413 103.594V247.403H73.2747C68.2464 250.836 64.45 255.789 62.4417 261.536C60.4335 267.284 60.3192 273.523 62.1155 279.341C63.9119 285.158 67.5244 290.247 72.4235 293.861C77.3227 297.476 83.2509 299.426 89.3392 299.426C95.4274 299.426 101.356 297.476 106.255 293.861C111.154 290.247 114.766 285.158 116.563 279.341C118.359 273.523 118.245 267.284 116.237 261.536C114.228 255.789 110.432 250.836 105.404 247.403H169.93V183.287Z" stroke="#6255A4" stroke-width="20" stroke-linecap="round" stroke-linejoin="round"/>
<path d="M313.797 170.717C308.867 167.252 305.169 162.306 303.24 156.596C301.31 150.887 301.25 144.711 303.067 138.966C304.885 133.22 308.485 128.202 313.347 124.641C318.209 121.079 324.078 119.159 330.105 119.159C336.131 119.159 342.001 121.079 346.863 124.641C351.725 128.202 355.325 133.22 357.143 138.966C358.96 144.711 358.9 150.887 356.97 156.596C355.041 162.306 351.343 167.252 346.412 170.717H410.176V28.492C410.176 23.7513 408.293 19.2049 404.941 15.8528C401.588 12.5006 397.042 10.6174 392.301 10.6174H249.95V74.6658C247.049 70.3819 243.025 66.979 238.319 64.8299C233.613 62.6807 228.406 61.8682 223.268 62.4813C216.078 63.3237 209.483 66.8842 204.833 72.433C200.183 77.9817 197.832 85.0986 198.26 92.3252C198.689 99.5519 201.865 106.341 207.138 111.301C212.411 116.262 219.381 119.018 226.62 119.004C231.226 119.005 235.761 117.877 239.83 115.72C243.898 113.562 247.376 110.44 249.959 106.627V170.717H313.797Z" stroke="#6255A4" stroke-width="20" stroke-linecap="round" stroke-linejoin="round"/>
<path d="M169.93 311.518C173.257 306.815 177.922 303.221 183.318 301.203C188.715 299.186 194.593 298.838 200.19 300.205C207.016 301.815 213.009 305.886 217.02 311.639C221.032 317.392 222.781 324.423 221.932 331.385C221.083 338.347 217.696 344.751 212.42 349.371C207.143 353.992 200.348 356.504 193.335 356.426C188.748 356.429 184.228 355.329 180.155 353.221C176.082 351.112 172.575 348.056 169.93 344.309V408.424H313.814C318.377 408.418 322.751 406.6 325.975 403.372C329.199 400.143 331.01 395.766 331.01 391.203V247.403H266.568C271.595 243.969 275.391 239.016 277.398 233.269C279.405 227.521 279.519 221.282 277.722 215.465C275.925 209.649 272.313 204.56 267.414 200.946C262.515 197.332 256.587 195.382 250.499 195.382C244.411 195.382 238.484 197.332 233.585 200.946C228.686 204.56 225.073 209.649 223.276 215.465C221.48 221.282 221.593 227.521 223.6 233.269C225.608 239.016 229.403 243.969 234.431 247.403H169.905L169.93 311.518Z" stroke="#6255A4" stroke-width="20" stroke-linecap="round" stroke-linejoin="round"/>
<path d="M105.73 247.403C110.682 250.886 114.394 255.857 116.331 261.592C118.267 267.328 118.326 273.532 116.499 279.303C114.672 285.075 111.054 290.115 106.169 293.692C101.285 297.269 95.3888 299.197 89.335 299.197C83.2811 299.197 77.3846 297.269 72.5005 293.692C67.6163 290.115 63.9985 285.075 62.1715 279.303C60.3444 273.532 60.4033 267.328 62.3394 261.592C64.2756 255.857 67.9884 250.886 72.9395 247.403H8.82413V391.204C8.82413 395.771 10.6385 400.151 13.868 403.381C17.0976 406.61 21.4778 408.425 26.045 408.425H169.93V343.974C172.845 348.28 176.889 351.702 181.618 353.865C186.348 356.027 191.581 356.847 196.746 356.234C204.053 355.488 210.791 351.949 215.552 346.355C220.313 340.761 222.729 333.544 222.296 326.211C221.864 318.879 218.616 311.996 213.231 307C207.845 302.005 200.738 299.282 193.394 299.401C188.764 299.401 184.204 300.535 180.114 302.704C176.023 304.873 172.527 308.012 169.93 311.845V247.403H105.73Z" stroke="#6255A4" stroke-width="20" stroke-linecap="round" stroke-linejoin="round"/>
</g>
<defs>
<clipPath id="clip0_778_842">
<rect width="419" height="419" fill="white"/>
</clipPath>
</defs>
</svg>
