<svg width="409" height="409" viewBox="0 0 409 409" fill="none" xmlns="http://www.w3.org/2000/svg">
<path d="M204.5 283.141C143.781 283.141 94.3846 233.745 94.3846 173.026V94.3721H110.115V173.026C110.115 225.069 152.453 267.411 204.5 267.411C256.547 267.411 298.885 225.069 298.885 173.026V94.3721H314.615V173.026C314.615 233.745 265.219 283.141 204.5 283.141Z" fill="#6255A4"/>
<path d="M204.525 15.7432C169.838 15.7432 141.602 43.9796 141.602 78.6662V173.051C141.602 207.737 169.838 235.974 204.525 235.974C239.211 235.974 267.448 207.737 267.448 173.051V78.6662C267.448 43.9796 239.211 15.7432 204.525 15.7432ZM251.717 173.051C251.717 199.085 230.559 220.243 204.525 220.243C178.491 220.243 157.333 199.085 157.333 173.051V78.6662C157.333 73.1604 158.276 67.812 160.085 62.9355C166.535 44.609 183.996 31.4739 204.525 31.4739C225.054 31.4739 242.515 44.609 248.964 62.9355C250.773 67.812 251.717 73.1604 251.717 78.6662V173.051Z" fill="#6255A4"/>
<path d="M228.121 102.262V117.993H251.717V141.589H228.121V157.32H251.717V173.051C251.717 199.085 230.559 220.243 204.525 220.243C178.491 220.243 157.333 199.085 157.333 173.051V157.32H180.536V141.589H157.333V117.993H180.536V102.262H157.333V78.6662H180.536V62.9354H160.085C166.535 44.6089 183.996 31.4739 204.525 31.4739C225.054 31.4739 242.515 44.6089 248.964 62.9354H228.121V78.6662H251.717V102.262H228.121Z" fill="#EFECFF"/>
<path d="M306.75 117.968H259.558V133.699H306.75V117.968Z" fill="#6255A4"/>
<path d="M149.442 117.968H102.25V133.699H149.442V117.968Z" fill="#6255A4"/>
<path d="M259.189 62.9355H228.121V78.6663H259.189V62.9355Z" fill="#6255A4"/>
<path d="M259.189 102.262H228.121V117.993H259.189V102.262Z" fill="#6255A4"/>
<path d="M259.189 141.589H228.121V157.32H259.189V141.589Z" fill="#6255A4"/>
<path d="M180.536 62.9355H149.467V78.6663H180.536V62.9355Z" fill="#6255A4"/>
<path d="M180.536 102.262H149.467V117.993H180.536V102.262Z" fill="#6255A4"/>
<path d="M180.536 141.589H149.467V157.32H180.536V141.589Z" fill="#6255A4"/>
<path d="M212.365 275.276H196.635V385.391H212.365V275.276Z" fill="#6255A4"/>
<path d="M259.558 377.526H149.442V393.257H259.558V377.526Z" fill="#6255A4"/>
</svg>
