<svg width="1482" height="1659" viewBox="0 0 1482 1659" fill="none" xmlns="http://www.w3.org/2000/svg">
<g filter="url(#filter0_i_937_888)">
<path d="M545 1659L583.969 1451C668.295 1458.74 877.705 1474.23 1040.74 1474.23C1124.55 1557.43 1183.83 1583.77 1203 1586.53V1659H545Z" fill="#5F646A"/>
</g>
<g filter="url(#filter1_i_937_888)">
<path d="M306.661 906.05L350.878 974.746C361.739 1005.79 367.053 1067.78 301.424 1067.31C235.796 1066.84 151.123 1027.14 116.99 1007.35C98.3725 1005.21 57.4131 999.429 42.5187 993.375C27.6244 987.32 36.3127 981.149 42.5187 978.821H98.9543C78.7849 973.387 34.8388 959.958 20.4099 949.712C5.98105 939.466 17.113 933.412 24.4826 931.665L98.9543 936.322C77.0395 934.188 27.6244 928.987 5.28287 925.261C-10.0769 907.098 11.6828 902.945 24.4826 903.139L110.009 910.707C93.5241 906.632 54.3877 897.434 29.7189 893.242C15.29 878.339 29.525 872.672 38.4461 871.702L192.626 893.242L146.663 829.786C144.529 819.113 145.266 800.329 165.281 810.575C182.037 830.601 266.516 882.569 306.661 906.05Z" fill="url(#paint0_linear_937_888)"/>
</g>
<path d="M735.305 522.453L723.083 455.237L863.117 364.597C864.305 371.387 871.468 404.418 890.615 482.226C840.916 527.036 766.367 527.715 735.305 522.453Z" fill="#4D2C1F"/>
<g filter="url(#filter2_i_937_888)">
<path d="M708.046 464.795C589.934 502.707 615.897 301.965 643.643 196.854L800.397 168.906L880.597 229.056V310.471C908.143 196.854 941.355 280.7 941.355 310.471C933.456 377.911 907.33 374.671 885.458 368.19L875.942 414.366C860.55 423.682 813.035 453.129 708.046 464.795Z" fill="#683A27"/>
</g>
<g filter="url(#filter3_i_937_888)">
<path d="M616.855 148.633C587.692 88.362 637.513 78.9649 666.069 81.8002C673.36 -43.9682 777.862 4.63864 796.697 36.2323C862.315 -9.33557 887.833 38.055 898.77 60.5351C973.623 43.523 980.59 99.6224 974.716 129.799C979.375 124.128 993.916 123.844 1014.82 168.076C1035.72 212.307 991.526 235.517 966.818 241.592C1004.49 292.021 931.579 349.741 931.579 333.944C931.579 299.871 927.326 259.82 907.883 266.503C892.329 271.85 889.916 300.75 879.327 310.248H866.568C871.024 295.869 872.765 264.194 844.088 252.529C791.229 262.25 798.52 240.985 777.862 202.708C749.306 237.947 738.37 233.694 726.218 233.694C698.878 233.694 686.118 211.214 681.865 192.986C676.6 203.113 661.451 222.636 642.981 219.72C619.893 216.074 600.45 201.492 616.855 148.633Z" fill="#1A1A1A"/>
</g>
<g filter="url(#filter4_i_937_888)">
<path d="M682.346 396.168C715.427 403.083 746.058 400.643 762.802 396.168C756.54 405.66 739.36 425.374 720.737 428.303C697.457 431.964 692.965 412.846 682.346 396.168Z" fill="#D65454"/>
</g>
<path d="M714.77 310.621C714.479 325.757 707.12 338.311 698.144 348.747C691.143 356.886 709.52 356.886 723.083 364.597" stroke="#845F3C" stroke-opacity="0.58" stroke-width="10" stroke-linecap="round"/>
<path d="M681.328 302.982C681.328 317.044 676.54 324.878 670.634 324.878C664.729 324.878 659.941 317.044 659.941 302.982C659.941 288.92 664.729 280.067 670.634 280.067C676.54 280.067 681.328 288.92 681.328 302.982Z" fill="black"/>
<g filter="url(#filter5_i_937_888)">
<path d="M420.101 1011.97C433.137 613.97 622.768 547.059 715.955 563.354C756.692 624.459 620.222 1253.85 470.514 1250.79C350.746 1248.35 275.315 1126.2 252.57 1065.44L336.081 961.05C344.568 956.976 373.254 961.457 420.101 1011.97Z" fill="#F59AA8"/>
</g>
<path d="M781.134 302.982C781.134 317.044 776.346 324.878 770.44 324.878C764.534 324.878 759.747 317.044 759.747 302.982C759.747 288.92 764.534 280.067 770.44 280.067C776.346 280.067 781.134 288.92 781.134 302.982Z" fill="black"/>
<g filter="url(#filter6_i_937_888)">
<path d="M893 476C803.598 533.183 772.902 522.019 740 509.5C732.815 505.462 725.016 517.945 666.927 573.189C510.927 1093.53 552.905 1421.85 571.058 1511.5C872.393 1550.75 1089.55 1495.14 1160.45 1462.43L1139.5 617C1104.14 584.895 993.294 503.138 893 476Z" fill="#F4A8B4"/>
</g>
<g filter="url(#filter7_i_937_888)">
<path d="M1133.63 609.362C1311.03 794.324 1383.73 1095.34 1397.91 1222.73C1380.42 1381.56 1262.39 1540.71 1206.02 1604.19C1129.35 1604.37 1066.3 1530.18 1044.36 1493.06L1129.22 1287.99C1080.63 1172.81 976.745 920.905 949.952 834.767C916.461 727.093 956.62 594.717 1133.63 609.362Z" fill="#F59AA8"/>
</g>
<defs>
<filter id="filter0_i_937_888" x="545" y="1451" width="658" height="258" filterUnits="userSpaceOnUse" color-interpolation-filters="sRGB">
<feFlood flood-opacity="0" result="BackgroundImageFix"/>
<feBlend mode="normal" in="SourceGraphic" in2="BackgroundImageFix" result="shape"/>
<feColorMatrix in="SourceAlpha" type="matrix" values="0 0 0 0 0 0 0 0 0 0 0 0 0 0 0 0 0 0 127 0" result="hardAlpha"/>
<feOffset dy="50"/>
<feGaussianBlur stdDeviation="50"/>
<feComposite in2="hardAlpha" operator="arithmetic" k2="-1" k3="1"/>
<feColorMatrix type="matrix" values="0 0 0 0 0 0 0 0 0 0 0 0 0 0 0 0 0 0 0.25 0"/>
<feBlend mode="normal" in2="shape" result="effect1_innerShadow_937_888"/>
</filter>
<filter id="filter1_i_937_888" x="0" y="807.613" width="367.468" height="263.699" filterUnits="userSpaceOnUse" color-interpolation-filters="sRGB">
<feFlood flood-opacity="0" result="BackgroundImageFix"/>
<feBlend mode="normal" in="SourceGraphic" in2="BackgroundImageFix" result="shape"/>
<feColorMatrix in="SourceAlpha" type="matrix" values="0 0 0 0 0 0 0 0 0 0 0 0 0 0 0 0 0 0 127 0" result="hardAlpha"/>
<feOffset dx="10" dy="4"/>
<feGaussianBlur stdDeviation="25"/>
<feComposite in2="hardAlpha" operator="arithmetic" k2="-1" k3="1"/>
<feColorMatrix type="matrix" values="0 0 0 0 0.555 0 0 0 0 0.3552 0 0 0 0 0.0555 0 0 0 0.25 0"/>
<feBlend mode="normal" in2="shape" result="effect1_innerShadow_937_888"/>
</filter>
<filter id="filter2_i_937_888" x="570.153" y="168.906" width="371.202" height="304.589" filterUnits="userSpaceOnUse" color-interpolation-filters="sRGB">
<feFlood flood-opacity="0" result="BackgroundImageFix"/>
<feBlend mode="normal" in="SourceGraphic" in2="BackgroundImageFix" result="shape"/>
<feColorMatrix in="SourceAlpha" type="matrix" values="0 0 0 0 0 0 0 0 0 0 0 0 0 0 0 0 0 0 127 0" result="hardAlpha"/>
<feOffset dx="-50" dy="4"/>
<feGaussianBlur stdDeviation="25"/>
<feComposite in2="hardAlpha" operator="arithmetic" k2="-1" k3="1"/>
<feColorMatrix type="matrix" values="0 0 0 0 0 0 0 0 0 0 0 0 0 0 0 0 0 0 0.25 0"/>
<feBlend mode="normal" in2="shape" result="effect1_innerShadow_937_888"/>
</filter>
<filter id="filter3_i_937_888" x="608.001" y="0" width="412.269" height="340.6" filterUnits="userSpaceOnUse" color-interpolation-filters="sRGB">
<feFlood flood-opacity="0" result="BackgroundImageFix"/>
<feBlend mode="normal" in="SourceGraphic" in2="BackgroundImageFix" result="shape"/>
<feColorMatrix in="SourceAlpha" type="matrix" values="0 0 0 0 0 0 0 0 0 0 0 0 0 0 0 0 0 0 127 0" result="hardAlpha"/>
<feOffset dy="4"/>
<feGaussianBlur stdDeviation="25"/>
<feComposite in2="hardAlpha" operator="arithmetic" k2="-1" k3="1"/>
<feColorMatrix type="matrix" values="0 0 0 0 0 0 0 0 0 0 0 0 0 0 0 0 0 0 1 0"/>
<feBlend mode="normal" in2="shape" result="effect1_innerShadow_937_888"/>
</filter>
<filter id="filter4_i_937_888" x="682.346" y="396.168" width="80.4558" height="36.5898" filterUnits="userSpaceOnUse" color-interpolation-filters="sRGB">
<feFlood flood-opacity="0" result="BackgroundImageFix"/>
<feBlend mode="normal" in="SourceGraphic" in2="BackgroundImageFix" result="shape"/>
<feColorMatrix in="SourceAlpha" type="matrix" values="0 0 0 0 0 0 0 0 0 0 0 0 0 0 0 0 0 0 127 0" result="hardAlpha"/>
<feOffset dy="4"/>
<feGaussianBlur stdDeviation="5"/>
<feComposite in2="hardAlpha" operator="arithmetic" k2="-1" k3="1"/>
<feColorMatrix type="matrix" values="0 0 0 0 0 0 0 0 0 0 0 0 0 0 0 0 0 0 0.25 0"/>
<feBlend mode="normal" in2="shape" result="effect1_innerShadow_937_888"/>
</filter>
<filter id="filter5_i_937_888" x="202.57" y="561.153" width="520.679" height="709.65" filterUnits="userSpaceOnUse" color-interpolation-filters="sRGB">
<feFlood flood-opacity="0" result="BackgroundImageFix"/>
<feBlend mode="normal" in="SourceGraphic" in2="BackgroundImageFix" result="shape"/>
<feColorMatrix in="SourceAlpha" type="matrix" values="0 0 0 0 0 0 0 0 0 0 0 0 0 0 0 0 0 0 127 0" result="hardAlpha"/>
<feOffset dx="-50" dy="20"/>
<feGaussianBlur stdDeviation="50"/>
<feComposite in2="hardAlpha" operator="arithmetic" k2="-1" k3="1"/>
<feColorMatrix type="matrix" values="0 0 0 0 0.413333 0 0 0 0 0.0843889 0 0 0 0 0.0843889 0 0 0 0.25 0"/>
<feBlend mode="normal" in2="shape" result="effect1_innerShadow_937_888"/>
</filter>
<filter id="filter6_i_937_888" x="502" y="476" width="658.455" height="1069" filterUnits="userSpaceOnUse" color-interpolation-filters="sRGB">
<feFlood flood-opacity="0" result="BackgroundImageFix"/>
<feBlend mode="normal" in="SourceGraphic" in2="BackgroundImageFix" result="shape"/>
<feColorMatrix in="SourceAlpha" type="matrix" values="0 0 0 0 0 0 0 0 0 0 0 0 0 0 0 0 0 0 127 0" result="hardAlpha"/>
<feOffset dx="-50" dy="20"/>
<feGaussianBlur stdDeviation="50"/>
<feComposite in2="hardAlpha" operator="arithmetic" k2="-1" k3="1"/>
<feColorMatrix type="matrix" values="0 0 0 0 0.505 0 0 0 0 0.0673333 0 0 0 0 0.0673333 0 0 0 0.25 0"/>
<feBlend mode="normal" in2="shape" result="effect1_innerShadow_937_888"/>
</filter>
<filter id="filter7_i_937_888" x="889.181" y="608.246" width="508.725" height="1015.94" filterUnits="userSpaceOnUse" color-interpolation-filters="sRGB">
<feFlood flood-opacity="0" result="BackgroundImageFix"/>
<feBlend mode="normal" in="SourceGraphic" in2="BackgroundImageFix" result="shape"/>
<feColorMatrix in="SourceAlpha" type="matrix" values="0 0 0 0 0 0 0 0 0 0 0 0 0 0 0 0 0 0 127 0" result="hardAlpha"/>
<feOffset dx="-50" dy="20"/>
<feGaussianBlur stdDeviation="50"/>
<feComposite in2="hardAlpha" operator="arithmetic" k2="-1" k3="1"/>
<feColorMatrix type="matrix" values="0 0 0 0 0.413333 0 0 0 0 0.0843889 0 0 0 0 0.0843889 0 0 0 0.25 0"/>
<feBlend mode="normal" in2="shape" result="effect1_innerShadow_937_888"/>
</filter>
<linearGradient id="paint0_linear_937_888" x1="35.7269" y1="892.609" x2="357.567" y2="1079.31" gradientUnits="userSpaceOnUse">
<stop stop-color="#683A27"/>
<stop offset="0.4375" stop-color="#6C3D2A"/>
<stop offset="0.932292" stop-color="#4E341F"/>
<stop offset="1" stop-color="#D39C6C"/>
</linearGradient>
</defs>
</svg>
