<svg width="1465" height="1441" viewBox="0 0 1465 1441" fill="none" xmlns="http://www.w3.org/2000/svg">
<g filter="url(#filter0_i_937_845)">
<path d="M1200.66 854.544L1162.66 913.544C1153.33 940.21 1148.76 993.443 1205.16 993.043C1261.56 992.643 1334.33 958.543 1363.66 941.543C1379.66 939.71 1414.86 934.743 1427.66 929.543C1440.46 924.343 1433 919.043 1427.66 917.043H1379.16C1396.5 912.377 1434.26 900.843 1446.66 892.043C1459.06 883.243 1449.5 878.043 1443.16 876.543L1379.16 880.543C1398 878.71 1440.46 874.243 1459.66 871.043C1472.86 855.443 1454.16 851.877 1443.16 852.043L1369.66 858.543C1383.83 855.043 1417.46 847.143 1438.66 843.543C1451.06 830.743 1438.83 825.877 1431.16 825.043L1298.66 843.543L1338.16 789.044C1340 779.877 1339.36 763.744 1322.16 772.544C1307.76 789.744 1235.16 834.377 1200.66 854.544Z" fill="url(#paint0_linear_937_845)"/>
</g>
<g filter="url(#filter1_i_937_845)">
<path d="M691.5 1209L529 477C558.833 492.667 629.8 535 675 579C736.5 593 810.5 836.5 845 938.5C901.4 952.5 1085.5 914.667 1170.5 894C1174.67 900 1187.5 928.6 1205.5 995C943.5 1248.6 753.667 1243.33 691.5 1209Z" fill="#218C79"/>
</g>
<g filter="url(#filter2_i_937_845)">
<path d="M127.426 592.385C163.026 516.385 285.926 444.051 342.926 417.385C372.926 413.718 430.864 443.594 498 467C580.074 495.614 605.426 513.885 665.926 628.885C744.726 829.685 748.759 1253.88 740.926 1440.88H98.9256C93.5923 1189.72 91.8256 668.385 127.426 592.385Z" fill="#229C86"/>
</g>
<g filter="url(#filter3_i_937_845)">
<path d="M634 976.5C643.667 972.5 667.5 952.9 685.5 906.5C725.9 862.5 760.333 837.833 772.5 831C778.333 833.167 786.5 841.9 772.5 859.5C758.5 877.1 747 892.5 743 898C737.167 909 734.9 927.4 772.5 913C810.1 898.6 850.833 864 866.5 848.5C871.667 846.5 881.2 845.9 878 859.5C874.8 873.1 849.333 898.5 837 909.5L895 863C901.833 859.667 915.708 858.081 908.5 875.5C903.57 887.413 886.266 904.163 873.778 913.551L904 893C908.5 890.833 916.6 890.2 913 905C911.285 912.052 898.15 926.195 882 941.36C875.833 973.24 829.5 1046.2 693.5 1083C679 1061.5 660.5 1060 634 976.5Z" fill="#F6CBA5"/>
</g>
<g filter="url(#filter4_i_937_845)">
<path d="M349 417L385.5 300.5L552 374L514 472.5C517.333 473.5 524 482.7 524 511.5C458.8 534.3 380.167 458 349 417Z" fill="#F6CBA5"/>
</g>
<g filter="url(#filter5_i_937_845)">
<path d="M533.362 407.48C617.863 419.435 632 220.5 624.5 120C558.548 176.89 484.975 152.462 450.797 130.647L399.787 161.565L386.906 226.5C379.864 213.446 360.319 193.102 338.473 195.576C315.286 214.642 324.046 251.229 327.652 269.78C330.538 302.76 363.548 305.508 379.693 302.76C379.349 306.882 380.311 319.868 386.906 338.831C395.15 362.535 427.736 392.536 533.362 407.48Z" fill="#F6CBA5"/>
</g>
<g filter="url(#filter6_i_937_845)">
<path d="M623.873 129.023C565.473 188.623 487.873 161.856 456.373 141.023L406.373 166.022L394.873 240.522C388.373 229.689 370.173 206.822 349.373 202.022C323.373 196.022 324.373 251.522 333.873 279.522C341.473 301.922 371.706 301.856 385.873 299.022L368.373 350.022C365.206 349.356 355.773 347.522 343.373 345.522C255.373 321.522 249.873 92.0227 333.873 43.5227C417.873 -4.97731 426.373 -19.4773 603.873 34.0227C745.873 76.8227 676.373 150.856 623.873 182.523V129.023Z" fill="#965010"/>
</g>
<path d="M491 236.5C491 250.307 486.299 258 480.5 258C474.701 258 470 250.307 470 236.5C470 222.693 474.701 214 480.5 214C486.299 214 491 222.693 491 236.5Z" fill="black"/>
<path d="M589 236.5C589 250.307 584.299 258 578.5 258C572.701 258 568 250.307 568 236.5C568 222.693 572.701 214 578.5 214C584.299 214 589 222.693 589 236.5Z" fill="black"/>
<path d="M534.163 247C534.449 261.862 541.675 274.189 550.488 284.437C557.362 292.429 539.318 292.429 526 300" stroke="#DA8C44" stroke-opacity="0.58" stroke-width="10" stroke-linecap="round"/>
<g filter="url(#filter7_i_937_845)">
<path d="M568 328C535.518 334.79 505.442 332.393 489 328C495.149 337.319 512.018 356.677 530.305 359.553C553.162 363.148 557.574 344.376 568 328Z" fill="#D65454"/>
</g>
<g filter="url(#filter8_i_937_845)">
<path d="M76.2222 647.286C124.622 514.886 215.055 545.786 254.222 577.786C377.222 670.286 334.222 920.286 308.222 1019.29C374.222 992.486 558.722 975.119 642.722 969.786C646.889 981.786 663.922 1020.69 698.722 1080.29C572.722 1296.79 193.722 1373.79 104.222 1320.79C14.7223 1267.79 18.2223 1241.29 10.2222 1227.29C-18.2777 1168.79 15.7222 812.786 76.2222 647.286Z" fill="#218C79"/>
</g>
<defs>
<filter id="filter0_i_937_845" x="1157" y="770" width="317.203" height="227.046" filterUnits="userSpaceOnUse" color-interpolation-filters="sRGB">
<feFlood flood-opacity="0" result="BackgroundImageFix"/>
<feBlend mode="normal" in="SourceGraphic" in2="BackgroundImageFix" result="shape"/>
<feColorMatrix in="SourceAlpha" type="matrix" values="0 0 0 0 0 0 0 0 0 0 0 0 0 0 0 0 0 0 127 0" result="hardAlpha"/>
<feOffset dx="10" dy="4"/>
<feGaussianBlur stdDeviation="25"/>
<feComposite in2="hardAlpha" operator="arithmetic" k2="-1" k3="1"/>
<feColorMatrix type="matrix" values="0 0 0 0 0.555 0 0 0 0 0.3552 0 0 0 0 0.0555 0 0 0 0.25 0"/>
<feBlend mode="normal" in2="shape" result="effect1_innerShadow_937_845"/>
</filter>
<filter id="filter1_i_937_845" x="529" y="477" width="726.5" height="752.959" filterUnits="userSpaceOnUse" color-interpolation-filters="sRGB">
<feFlood flood-opacity="0" result="BackgroundImageFix"/>
<feBlend mode="normal" in="SourceGraphic" in2="BackgroundImageFix" result="shape"/>
<feColorMatrix in="SourceAlpha" type="matrix" values="0 0 0 0 0 0 0 0 0 0 0 0 0 0 0 0 0 0 127 0" result="hardAlpha"/>
<feOffset dx="50" dy="4"/>
<feGaussianBlur stdDeviation="25"/>
<feComposite in2="hardAlpha" operator="arithmetic" k2="-1" k3="1"/>
<feColorMatrix type="matrix" values="0 0 0 0 0 0 0 0 0 0 0 0 0 0 0 0 0 0 0.25 0"/>
<feBlend mode="normal" in2="shape" result="effect1_innerShadow_937_845"/>
</filter>
<filter id="filter2_i_937_845" x="96" y="417.077" width="697.708" height="1043.81" filterUnits="userSpaceOnUse" color-interpolation-filters="sRGB">
<feFlood flood-opacity="0" result="BackgroundImageFix"/>
<feBlend mode="normal" in="SourceGraphic" in2="BackgroundImageFix" result="shape"/>
<feColorMatrix in="SourceAlpha" type="matrix" values="0 0 0 0 0 0 0 0 0 0 0 0 0 0 0 0 0 0 127 0" result="hardAlpha"/>
<feOffset dx="50" dy="20"/>
<feGaussianBlur stdDeviation="50"/>
<feComposite in2="hardAlpha" operator="arithmetic" k2="-1" k3="1"/>
<feColorMatrix type="matrix" values="0 0 0 0 0 0 0 0 0 0 0 0 0 0 0 0 0 0 0.25 0"/>
<feBlend mode="normal" in2="shape" result="effect1_innerShadow_937_845"/>
</filter>
<filter id="filter3_i_937_845" x="634" y="831" width="289.897" height="256" filterUnits="userSpaceOnUse" color-interpolation-filters="sRGB">
<feFlood flood-opacity="0" result="BackgroundImageFix"/>
<feBlend mode="normal" in="SourceGraphic" in2="BackgroundImageFix" result="shape"/>
<feColorMatrix in="SourceAlpha" type="matrix" values="0 0 0 0 0 0 0 0 0 0 0 0 0 0 0 0 0 0 127 0" result="hardAlpha"/>
<feOffset dx="10" dy="4"/>
<feGaussianBlur stdDeviation="15"/>
<feComposite in2="hardAlpha" operator="arithmetic" k2="-1" k3="1"/>
<feColorMatrix type="matrix" values="0 0 0 0 0.438333 0 0 0 0 0.221176 0 0 0 0 0.0639236 0 0 0 0.25 0"/>
<feBlend mode="normal" in2="shape" result="effect1_innerShadow_937_845"/>
</filter>
<filter id="filter4_i_937_845" x="349" y="300.5" width="233" height="215.167" filterUnits="userSpaceOnUse" color-interpolation-filters="sRGB">
<feFlood flood-opacity="0" result="BackgroundImageFix"/>
<feBlend mode="normal" in="SourceGraphic" in2="BackgroundImageFix" result="shape"/>
<feColorMatrix in="SourceAlpha" type="matrix" values="0 0 0 0 0 0 0 0 0 0 0 0 0 0 0 0 0 0 127 0" result="hardAlpha"/>
<feOffset dx="30"/>
<feGaussianBlur stdDeviation="25"/>
<feComposite in2="hardAlpha" operator="arithmetic" k2="-1" k3="1"/>
<feColorMatrix type="matrix" values="0 0 0 0 0.500833 0 0 0 0 0.288689 0 0 0 0 0.0396493 0 0 0 0.25 0"/>
<feBlend mode="normal" in2="shape" result="effect1_innerShadow_937_845"/>
</filter>
<filter id="filter5_i_937_845" x="323" y="115" width="313.25" height="292.996" filterUnits="userSpaceOnUse" color-interpolation-filters="sRGB">
<feFlood flood-opacity="0" result="BackgroundImageFix"/>
<feBlend mode="normal" in="SourceGraphic" in2="BackgroundImageFix" result="shape"/>
<feColorMatrix in="SourceAlpha" type="matrix" values="0 0 0 0 0 0 0 0 0 0 0 0 0 0 0 0 0 0 127 0" result="hardAlpha"/>
<feOffset dx="10" dy="-5"/>
<feGaussianBlur stdDeviation="7.5"/>
<feComposite in2="hardAlpha" operator="arithmetic" k2="-1" k3="1"/>
<feColorMatrix type="matrix" values="0 0 0 0 0.700833 0 0 0 0 0.422953 0 0 0 0 0.166448 0 0 0 0.25 0"/>
<feBlend mode="normal" in2="shape" result="effect1_innerShadow_937_845"/>
</filter>
<filter id="filter6_i_937_845" x="274" y="0" width="423.938" height="350.022" filterUnits="userSpaceOnUse" color-interpolation-filters="sRGB">
<feFlood flood-opacity="0" result="BackgroundImageFix"/>
<feBlend mode="normal" in="SourceGraphic" in2="BackgroundImageFix" result="shape"/>
<feColorMatrix in="SourceAlpha" type="matrix" values="0 0 0 0 0 0 0 0 0 0 0 0 0 0 0 0 0 0 127 0" result="hardAlpha"/>
<feOffset dx="10"/>
<feGaussianBlur stdDeviation="25"/>
<feComposite in2="hardAlpha" operator="arithmetic" k2="-1" k3="1"/>
<feColorMatrix type="matrix" values="0 0 0 0 0.1925 0 0 0 0 0.137958 0 0 0 0 0.137958 0 0 0 0.4 0"/>
<feBlend mode="normal" in2="shape" result="effect1_innerShadow_937_845"/>
</filter>
<filter id="filter7_i_937_845" x="489" y="328" width="79" height="36" filterUnits="userSpaceOnUse" color-interpolation-filters="sRGB">
<feFlood flood-opacity="0" result="BackgroundImageFix"/>
<feBlend mode="normal" in="SourceGraphic" in2="BackgroundImageFix" result="shape"/>
<feColorMatrix in="SourceAlpha" type="matrix" values="0 0 0 0 0 0 0 0 0 0 0 0 0 0 0 0 0 0 127 0" result="hardAlpha"/>
<feOffset dy="4"/>
<feGaussianBlur stdDeviation="5"/>
<feComposite in2="hardAlpha" operator="arithmetic" k2="-1" k3="1"/>
<feColorMatrix type="matrix" values="0 0 0 0 0 0 0 0 0 0 0 0 0 0 0 0 0 0 0.25 0"/>
<feBlend mode="normal" in2="shape" result="effect1_innerShadow_937_845"/>
</filter>
<filter id="filter8_i_937_845" x="0" y="550" width="748.722" height="790.912" filterUnits="userSpaceOnUse" color-interpolation-filters="sRGB">
<feFlood flood-opacity="0" result="BackgroundImageFix"/>
<feBlend mode="normal" in="SourceGraphic" in2="BackgroundImageFix" result="shape"/>
<feColorMatrix in="SourceAlpha" type="matrix" values="0 0 0 0 0 0 0 0 0 0 0 0 0 0 0 0 0 0 127 0" result="hardAlpha"/>
<feOffset dx="50" dy="4"/>
<feGaussianBlur stdDeviation="25"/>
<feComposite in2="hardAlpha" operator="arithmetic" k2="-1" k3="1"/>
<feColorMatrix type="matrix" values="0 0 0 0 0 0 0 0 0 0 0 0 0 0 0 0 0 0 0.25 0"/>
<feBlend mode="normal" in2="shape" result="effect1_innerShadow_937_845"/>
</filter>
<linearGradient id="paint0_linear_937_845" x1="1433.5" y1="843" x2="1157" y2="1003.5" gradientUnits="userSpaceOnUse">
<stop stop-color="#F6CBA5"/>
<stop offset="0.4375" stop-color="#F8C89D"/>
<stop offset="1" stop-color="#D39C6C"/>
</linearGradient>
</defs>
</svg>
