<svg width="284" height="252" viewBox="0 0 284 252" fill="none" xmlns="http://www.w3.org/2000/svg">
<path fill-rule="evenodd" clip-rule="evenodd" d="M141.526 2.90095C157.472 -6.55378 173.347 9.37304 176.295 18.2447C205.062 20.871 221.618 35.1115 226.3 41.9034C231.87 38.2855 251.8 41.2934 255.387 57.7775C260.409 80.8524 245.77 91.869 234.773 95.5509C234.059 98.2676 232.645 101.973 230.451 105.902C241.06 103.219 262.787 102.85 264.819 122.843C266.634 140.694 253.289 149.346 232.481 156.307C231.966 155.127 230.935 154.259 229.39 153.705C227.769 153.065 225.891 152.745 223.758 152.745C222.265 152.745 220.771 152.937 219.278 153.321C217.827 153.705 216.739 154.11 216.014 154.537C215.715 155.305 215.289 156.414 214.734 157.865C214.306 159.077 213.833 160.439 213.316 161.949C210.791 162.633 208.209 163.321 205.579 164.022L204.428 164.328C202.098 172.023 199.43 178.761 196.544 184.647C196.385 184.21 196.207 183.837 196.011 183.529H179.563V176.809H191.339C192.491 176.809 193.408 176.467 194.091 175.785C194.774 175.102 195.115 173.95 195.115 172.329C195.115 171.475 194.987 170.686 194.731 169.961C194.518 169.193 194.262 168.574 193.963 168.105H179.563V162.153H193.067C194.219 162.153 195.136 161.811 195.819 161.129C196.544 160.446 196.907 159.294 196.907 157.673C196.907 156.819 196.779 156.009 196.523 155.241C196.31 154.473 196.054 153.854 195.755 153.385H174.635C172.8 153.385 171.35 153.918 170.283 154.985C169.216 156.051 168.683 157.502 168.683 159.337V186.409C168.683 188.243 169.216 189.694 170.283 190.761C171.35 191.827 172.8 192.361 174.635 192.361H192.365C178.011 216.333 160.129 222.697 151.159 222.41C150.188 223.091 146.901 226.26 141.517 233.49C124.578 267.822 89.4711 243.215 84.0727 236.638C78.6742 230.06 87.9782 209.718 100.728 209.413C95.3706 207.755 99.2324 198.365 102.809 192.13C103.049 192.061 103.286 191.988 103.521 191.913C106.166 191.059 108.428 189.779 110.305 188.073C112.225 186.323 113.697 184.19 114.721 181.673C115.745 179.113 116.257 176.126 116.257 172.713C116.257 169.214 115.724 166.185 114.657 163.625C113.59 161.065 112.076 158.953 110.113 157.289C108.193 155.582 105.868 154.323 103.137 153.513C100.449 152.702 97.441 152.297 94.113 152.297C92.4917 152.297 90.657 152.403 88.609 152.617C86.561 152.787 84.6197 153.171 82.785 153.769C81.9317 154.067 81.249 154.473 80.737 154.985C80.2677 155.454 80.033 156.137 80.033 157.033V181.661C74.7954 180.507 68.84 179.145 62.371 177.586C61.4878 177.373 60.6502 177.113 59.8566 176.809H64.4265C65.5785 176.809 66.4958 176.467 67.1785 175.785C67.8612 175.102 68.2025 173.95 68.2025 172.329C68.2025 171.475 68.0745 170.686 67.8185 169.961C67.6052 169.193 67.3492 168.574 67.0505 168.105H52.6505V162.153H66.1545C67.3065 162.153 68.2238 161.811 68.9065 161.129C69.6318 160.446 69.9945 159.294 69.9945 157.673C69.9945 156.819 69.8665 156.009 69.6105 155.241C69.3972 154.473 69.1412 153.854 68.8425 153.385H47.7225C47.6985 153.385 47.6746 153.385 47.6507 153.385C48.035 140.777 53.7654 127.08 60.3443 122.009C70.2738 114.355 82.1209 126.026 86.8033 132.818L111.059 127.898C99.9492 128.492 77.6792 123.844 77.4794 100.494C77.2795 77.1437 109.975 83.1246 126.348 89.0339C122.993 74.581 127.316 51.82 136.431 41.8816C124.729 33.6794 119.436 15.9988 141.526 2.90095ZM47.6507 153.385C45.85 153.399 44.4232 153.932 43.3705 154.985C42.3038 156.051 41.7705 157.502 41.7705 159.337V186.409C41.7705 188.243 42.3038 189.694 43.3705 190.761C44.4372 191.827 45.8878 192.361 47.7225 192.361H66.4105C67.5625 192.361 68.4798 192.019 69.1625 191.337C69.8878 190.611 70.2505 189.438 70.2505 187.817C70.2505 186.963 70.1225 186.153 69.8665 185.385C69.6532 184.617 69.3972 183.998 69.0985 183.529H52.6505V176.809H59.8566C50.5889 173.254 47.3369 163.682 47.6507 153.385ZM80.033 181.661V186.921C80.033 189.139 81.2063 190.697 83.553 191.593C84.4063 191.934 85.3237 192.19 86.305 192.361C87.329 192.574 88.3317 192.745 89.313 192.873C90.337 193.001 91.3183 193.086 92.257 193.129C93.1957 193.171 94.0277 193.193 94.753 193.193C97.6686 193.193 100.354 192.838 102.809 192.13C103.339 191.206 103.863 190.351 104.35 189.602L100.958 185.935C97.7081 185.361 90.231 183.906 80.033 181.661ZM192.365 192.361H193.323C194.475 192.361 195.392 192.019 196.075 191.337C196.8 190.611 197.163 189.438 197.163 187.817C197.163 186.963 197.035 186.153 196.779 185.385C196.706 185.121 196.628 184.875 196.544 184.647C195.195 187.401 193.797 189.968 192.365 192.361ZM213.316 161.949C213.214 162.246 213.111 162.548 213.006 162.857C212.366 164.691 211.683 166.654 210.958 168.745C210.233 170.835 209.55 172.883 208.91 174.889C208.27 176.851 207.673 178.686 207.118 180.393C206.606 182.099 206.201 183.529 205.902 184.681C205.689 185.491 205.497 186.195 205.326 186.793C205.155 187.39 205.07 187.987 205.07 188.585C205.07 189.907 205.582 190.953 206.606 191.721C207.673 192.446 209.294 192.809 211.47 192.809C212.409 192.809 213.198 192.723 213.838 192.553C214.521 192.425 215.161 192.254 215.758 192.041C216.099 190.761 216.441 189.438 216.782 188.073C217.123 186.707 217.465 185.385 217.806 184.105H229.39L230.542 188.521C230.755 189.246 230.99 189.886 231.246 190.441C231.545 190.995 231.907 191.443 232.334 191.785C232.803 192.126 233.379 192.382 234.062 192.553C234.787 192.723 235.662 192.809 236.686 192.809C238.094 192.809 239.31 192.617 240.334 192.233C241.358 191.891 242.126 191.422 242.638 190.825C241.998 188.478 241.251 185.79 240.398 182.761C239.545 179.689 238.67 176.595 237.774 173.481C236.878 170.323 235.982 167.273 235.086 164.329C234.19 161.385 233.358 158.803 232.59 156.585C232.557 156.49 232.52 156.398 232.481 156.307C226.626 158.266 220.181 160.091 213.316 161.949ZM163.669 63.6219C162.097 66.9427 158.131 68.3603 154.81 66.7882C151.489 65.2161 150.072 61.2496 151.644 57.9288C153.216 54.608 157.182 53.1904 160.503 54.7625C163.824 56.3346 165.242 60.3011 163.669 63.6219ZM194.894 85.7653C198.215 87.3374 202.181 85.9198 203.753 82.599C205.325 79.2782 203.908 75.3117 200.587 73.7396C197.266 72.1675 193.3 73.5851 191.728 76.9059C190.156 80.2267 191.573 84.1931 194.894 85.7653ZM161.028 79.5673C162.97 75.4634 166.234 77.0584 169.807 78.805L169.808 78.8057C170.183 78.989 170.562 79.174 170.942 79.3542C180.563 83.9089 177.061 87.159 177.061 87.159C175.164 91.1687 168.456 92.8978 165.249 91.3796C161.24 89.4819 159.13 83.5768 161.028 79.5673ZM0.384 160.425C0.64 161.235 0.917333 161.875 1.216 162.345H10.816V187.177C10.816 188.286 10.944 189.182 11.2 189.865C11.456 190.547 11.84 191.081 12.352 191.465C12.864 191.849 13.4827 192.105 14.208 192.233C14.976 192.403 15.8507 192.489 16.832 192.489C17.8133 192.489 18.7947 192.425 19.776 192.297C20.8 192.169 21.5467 192.041 22.016 191.913V162.345H29.12C30.3147 162.345 31.2747 161.982 32 161.257C32.768 160.531 33.152 159.337 33.152 157.673C33.152 156.777 33.024 155.923 32.768 155.113C32.512 154.302 32.2347 153.662 31.936 153.193H4.032C2.83733 153.193 1.856 153.555 1.088 154.281C0.362666 155.006 0 156.201 0 157.865C0 158.761 0.128 159.614 0.384 160.425ZM92.897 184.105C92.2143 184.019 91.6383 183.934 91.169 183.849V161.577C91.809 161.491 92.4277 161.427 93.025 161.385C93.665 161.342 94.2837 161.321 94.881 161.321C97.8677 161.321 100.257 162.302 102.049 164.265C103.841 166.185 104.737 169.065 104.737 172.905C104.737 174.91 104.481 176.638 103.969 178.089C103.5 179.497 102.817 180.649 101.921 181.545C101.068 182.441 100.022 183.102 98.785 183.529C97.5903 183.955 96.2677 184.169 94.817 184.169C94.2197 184.169 93.5797 184.147 92.897 184.105ZM139.042 184.553C138.103 184.467 137.335 184.339 136.738 184.169V176.361H141.986C143.906 176.361 145.335 176.659 146.274 177.257C147.213 177.854 147.682 178.857 147.682 180.265C147.682 181.758 147.106 182.867 145.954 183.593C144.845 184.275 143.437 184.617 141.73 184.617C140.877 184.617 139.981 184.595 139.042 184.553ZM141.41 168.553H136.738V161.001C137.207 160.915 137.847 160.851 138.658 160.809C139.511 160.766 140.258 160.745 140.898 160.745C142.818 160.745 144.247 161.086 145.186 161.769C146.167 162.451 146.658 163.369 146.658 164.521C146.658 165.843 146.231 166.846 145.378 167.529C144.567 168.211 143.245 168.553 141.41 168.553ZM138.338 193.129C139.319 193.171 140.173 193.193 140.898 193.193C146.786 193.193 151.287 192.19 154.402 190.185C157.559 188.137 159.138 185.001 159.138 180.777C159.138 178.387 158.413 176.403 156.962 174.825C155.554 173.246 153.783 172.158 151.65 171.561C153.527 170.921 155.021 169.918 156.13 168.553C157.239 167.145 157.794 165.481 157.794 163.561C157.794 159.721 156.322 156.883 153.378 155.049C150.434 153.214 146.231 152.297 140.77 152.297C138.466 152.297 136.226 152.425 134.05 152.681C131.874 152.894 130.061 153.257 128.61 153.769C127.757 154.067 127.074 154.473 126.562 154.985C126.093 155.454 125.858 156.137 125.858 157.033V186.921C125.858 189.139 127.031 190.697 129.378 191.593C130.231 191.934 131.17 192.19 132.194 192.361C133.218 192.574 134.242 192.745 135.266 192.873C136.333 193.001 137.357 193.086 138.338 193.129ZM221.646 168.809C222.414 166.59 223.097 164.585 223.694 162.793H224.078C224.59 164.542 225.145 166.526 225.742 168.745C226.382 170.921 227.001 173.161 227.598 175.465H219.662C220.259 173.203 220.921 170.985 221.646 168.809ZM262.219 191.913V179.625H265.611L270.987 188.265C271.371 188.905 271.776 189.502 272.203 190.057C272.63 190.611 273.099 191.081 273.611 191.465C274.123 191.849 274.72 192.147 275.403 192.361C276.086 192.574 276.896 192.681 277.835 192.681C279.243 192.681 280.502 192.297 281.611 191.529C282.763 190.718 283.552 189.566 283.979 188.073C283.126 186.579 281.952 184.915 280.459 183.081C278.966 181.246 277.451 179.283 275.915 177.193C277.792 176.169 279.414 174.718 280.779 172.841C282.144 170.963 282.827 168.702 282.827 166.057C282.827 161.833 281.334 158.483 278.347 156.009C275.36 153.534 270.923 152.297 265.035 152.297C262.859 152.297 260.811 152.425 258.891 152.681C256.971 152.894 255.286 153.257 253.835 153.769C252.982 154.067 252.299 154.473 251.787 154.985C251.318 155.454 251.083 156.137 251.083 157.033V187.177C251.083 188.286 251.211 189.182 251.467 189.865C251.723 190.547 252.086 191.081 252.555 191.465C253.067 191.849 253.686 192.105 254.411 192.233C255.179 192.403 256.054 192.489 257.035 192.489C258.016 192.489 258.998 192.425 259.979 192.297C261.003 192.169 261.75 192.041 262.219 191.913ZM270.091 169.897C269.152 170.707 267.872 171.113 266.251 171.113H262.155V161.513C262.624 161.427 263.051 161.363 263.435 161.321C263.819 161.278 264.331 161.257 264.971 161.257C267.232 161.257 268.875 161.683 269.899 162.537C270.966 163.347 271.499 164.563 271.499 166.185C271.499 167.806 271.03 169.043 270.091 169.897Z" fill="white"/>
</svg>
