<svg width="45" height="43" viewBox="0 0 45 43" fill="none" xmlns="http://www.w3.org/2000/svg">
<path fill-rule="evenodd" clip-rule="evenodd" d="M21.4971 0.488303C24.1812 -1.10317 26.8535 1.57772 27.3497 3.07105C32.1919 3.51313 34.9787 5.91016 35.7668 7.05341C36.7043 6.44443 40.0591 6.95074 40.6629 9.72542C41.5081 13.6095 39.0441 15.4639 37.1929 16.0837C37.0728 16.5409 36.8348 17.1646 36.4654 17.826C38.2513 17.3744 41.9084 17.3123 42.2505 20.6776C42.5704 23.8248 40.0911 25.2732 36.301 26.4753C36.2145 26.3158 36.0616 26.1967 35.8422 26.118C35.5889 26.018 35.2955 25.968 34.9622 25.968C34.7289 25.968 34.4955 25.998 34.2622 26.058C34.0355 26.118 33.8655 26.1813 33.7522 26.248C33.7055 26.368 33.6389 26.5413 33.5522 26.768C33.4936 26.934 33.4296 27.118 33.3603 27.3198C33.0059 27.4153 32.6452 27.5114 32.2789 27.609L32.0852 27.6606C31.6917 28.9598 31.2411 30.0968 30.7537 31.0898C30.7515 31.0825 30.7491 31.0752 30.7467 31.068C30.7134 30.948 30.6734 30.8513 30.6267 30.778H28.0567V29.728H29.8967C30.0767 29.728 30.2201 29.6746 30.3267 29.568C30.4334 29.4613 30.4867 29.2813 30.4867 29.028C30.4867 28.8946 30.4667 28.7713 30.4267 28.658C30.3934 28.538 30.3534 28.4413 30.3067 28.368H28.0567V27.438H30.1667C30.3467 27.438 30.4901 27.3846 30.5967 27.278C30.7101 27.1713 30.7667 26.9913 30.7667 26.738C30.7667 26.6046 30.7467 26.478 30.7067 26.358C30.6734 26.238 30.6334 26.1413 30.5867 26.068H27.2867C27.0001 26.068 26.7734 26.1513 26.6067 26.318C26.4401 26.4846 26.3567 26.7113 26.3567 26.998V31.228C26.3567 31.5146 26.4401 31.7413 26.6067 31.908C26.7734 32.0746 27.0001 32.158 27.2867 32.158H30.1848C27.7476 36.3754 24.6558 37.4864 23.1186 37.4373C22.9552 37.5519 22.4019 38.0853 21.4956 39.3022C18.6444 45.0812 12.735 40.9393 11.8263 39.8322C10.9176 38.725 12.4837 35.3009 14.6298 35.2496C13.7117 34.9654 14.402 33.3323 15.0127 32.284C15.4322 32.268 15.8197 32.2026 16.1752 32.088C16.5885 31.9546 16.9418 31.7546 17.2352 31.488C17.5352 31.2146 17.7652 30.8813 17.9252 30.488C18.0852 30.088 18.1652 29.6213 18.1652 29.088C18.1652 28.5413 18.0818 28.068 17.9152 27.668C17.7485 27.268 17.5118 26.938 17.2052 26.678C16.9052 26.4113 16.5418 26.2146 16.1152 26.088C15.6952 25.9613 15.2252 25.898 14.7052 25.898C14.4518 25.898 14.1652 25.9146 13.8452 25.948C13.5252 25.9746 13.2218 26.0346 12.9352 26.128C12.8018 26.1746 12.6952 26.238 12.6152 26.318C12.5418 26.3913 12.5052 26.498 12.5052 26.638V30.8703C11.3701 30.6324 9.90187 30.3082 8.22664 29.9051V29.728H10.0666C10.2466 29.728 10.39 29.6746 10.4966 29.568C10.6033 29.4613 10.6566 29.2813 10.6566 29.028C10.6566 28.8946 10.6366 28.7713 10.5966 28.658C10.5633 28.538 10.5233 28.4413 10.4766 28.368H8.22664V27.438H10.3366C10.5166 27.438 10.66 27.3846 10.7666 27.278C10.88 27.1713 10.9366 26.9913 10.9366 26.738C10.9366 26.6046 10.9166 26.478 10.8766 26.358C10.8433 26.238 10.8033 26.1413 10.7566 26.068H7.45664C7.16997 26.068 6.94331 26.1513 6.77664 26.318C6.60997 26.4846 6.52664 26.7113 6.52664 26.998V28.8763C4.74484 26.6629 6.11724 21.8592 7.83218 20.5372C9.50358 19.2489 11.4977 21.2133 12.2859 22.3566L16.3688 21.5285C14.4987 21.6286 10.7501 20.846 10.7165 16.9156C10.6828 12.9852 16.1863 13.992 18.9423 14.9867C18.3776 12.5539 19.1052 8.72263 20.6395 7.04973C18.6697 5.66909 17.7789 2.69301 21.4971 0.488303ZM6.52664 28.8763V31.228C6.52664 31.5146 6.60997 31.7413 6.77664 31.908C6.94331 32.0746 7.16997 32.158 7.45664 32.158H10.3766C10.5566 32.158 10.7 32.1046 10.8066 31.998C10.92 31.8846 10.9766 31.7013 10.9766 31.448C10.9766 31.3146 10.9566 31.188 10.9166 31.068C10.8833 30.948 10.8433 30.8513 10.7966 30.778H8.22664V29.9051C8.2089 29.9008 8.19113 29.8966 8.17334 29.8923C7.45469 29.7191 6.91554 29.3594 6.52664 28.8763ZM12.5052 30.8703V31.308C12.5052 31.6546 12.6885 31.898 13.0552 32.038C13.1885 32.0913 13.3318 32.1313 13.4852 32.158C13.6452 32.1913 13.8018 32.218 13.9552 32.238C14.1152 32.258 14.2685 32.2713 14.4152 32.278C14.5618 32.2846 14.6918 32.288 14.8052 32.288C14.8752 32.288 14.9443 32.2867 15.0127 32.284C15.0907 32.1501 15.1675 32.0256 15.2394 31.9148L14.6685 31.2976C14.2785 31.2287 13.5267 31.0845 12.5052 30.8703ZM30.1848 32.158H30.2067C30.3867 32.158 30.5301 32.1046 30.6367 31.998C30.7501 31.8846 30.8067 31.7013 30.8067 31.448C30.8067 31.3227 30.7891 31.2033 30.7537 31.0898C30.569 31.4662 30.379 31.8219 30.1848 32.158ZM33.3603 27.3198C33.335 27.3935 33.3089 27.4695 33.2822 27.548C33.1822 27.8346 33.0755 28.1413 32.9622 28.468C32.8489 28.7946 32.7422 29.1146 32.6422 29.428C32.5422 29.7346 32.4489 30.0213 32.3622 30.288C32.2822 30.5546 32.2189 30.778 32.1722 30.958C32.1389 31.0846 32.1089 31.1946 32.0822 31.288C32.0555 31.3813 32.0422 31.4746 32.0422 31.568C32.0422 31.7746 32.1222 31.938 32.2822 32.058C32.4489 32.1713 32.7022 32.228 33.0422 32.228C33.1889 32.228 33.3122 32.2146 33.4122 32.188C33.5189 32.168 33.6189 32.1413 33.7122 32.108C33.7655 31.908 33.8189 31.7013 33.8722 31.488C33.9255 31.2746 33.9789 31.068 34.0322 30.868H35.8422L36.0222 31.558C36.0555 31.6713 36.0922 31.7713 36.1322 31.858C36.1789 31.9446 36.2355 32.0146 36.3022 32.068C36.3755 32.1213 36.4655 32.1613 36.5722 32.188C36.6855 32.2146 36.8222 32.228 36.9822 32.228C37.2022 32.228 37.3922 32.198 37.5522 32.138C37.7122 32.0846 37.8322 32.0113 37.9122 31.918C37.8122 31.5513 37.6955 31.1313 37.5622 30.658C37.4289 30.178 37.2922 29.6946 37.1522 29.208C37.0122 28.7146 36.8722 28.238 36.7322 27.778C36.5922 27.318 36.4622 26.9146 36.3422 26.568C36.3307 26.5357 36.317 26.5048 36.301 26.4753C35.3896 26.7643 34.4025 27.0391 33.3603 27.3198ZM25.2244 10.7092C24.9598 11.2682 24.2921 11.5068 23.7332 11.2422C23.1742 10.9775 22.9356 10.3099 23.2002 9.7509C23.4648 9.19192 24.1325 8.9533 24.6915 9.21793C25.2504 9.48256 25.4891 10.1502 25.2244 10.7092ZM30.4804 14.4364C31.0394 14.7011 31.7071 14.4625 31.9717 13.9035C32.2363 13.3445 31.9977 12.6768 31.4387 12.4122C30.8797 12.1476 30.2121 12.3862 29.9475 12.9452C29.6828 13.5042 29.9214 14.1718 30.4804 14.4364ZM24.7797 13.3932C25.1067 12.7024 25.656 12.9709 26.2575 13.2649L26.2576 13.265C26.3208 13.2958 26.3845 13.327 26.4486 13.3573C28.0681 14.124 27.4786 14.6711 27.4786 14.6711C27.1592 15.346 26.03 15.6371 25.4902 15.3815C24.8155 15.0621 24.4602 14.0681 24.7797 13.3932ZM0.0600002 27.168C0.1 27.2946 0.143334 27.3946 0.19 27.468H1.69V31.348C1.69 31.5213 1.71 31.6613 1.75 31.768C1.79 31.8746 1.85 31.958 1.93 32.018C2.01 32.078 2.10667 32.118 2.22 32.138C2.34 32.1646 2.47667 32.178 2.63 32.178C2.78333 32.178 2.93667 32.168 3.09 32.148C3.25 32.128 3.36667 32.108 3.44 32.088V27.468H4.55C4.73667 27.468 4.88667 27.4113 5 27.298C5.12 27.1846 5.18 26.998 5.18 26.738C5.18 26.598 5.16 26.4646 5.12 26.338C5.08 26.2113 5.03667 26.1113 4.99 26.038H0.63C0.443334 26.038 0.29 26.0946 0.17 26.208C0.0566668 26.3213 0 26.508 0 26.768C0 26.908 0.0200002 27.0413 0.0600002 27.168ZM14.5152 30.868C14.4085 30.8546 14.3185 30.8413 14.2452 30.828V27.348C14.3452 27.3346 14.4418 27.3246 14.5352 27.318C14.6352 27.3113 14.7318 27.308 14.8252 27.308C15.2918 27.308 15.6652 27.4613 15.9452 27.768C16.2252 28.068 16.3652 28.518 16.3652 29.118C16.3652 29.4313 16.3252 29.7013 16.2452 29.928C16.1718 30.148 16.0652 30.328 15.9252 30.468C15.7918 30.608 15.6285 30.7113 15.4352 30.778C15.2485 30.8446 15.0418 30.878 14.8152 30.878C14.7218 30.878 14.6218 30.8746 14.5152 30.868ZM21.7253 30.938C21.5786 30.9246 21.4586 30.9046 21.3653 30.878V29.658H22.1853C22.4853 29.658 22.7086 29.7046 22.8553 29.798C23.002 29.8913 23.0753 30.048 23.0753 30.268C23.0753 30.5013 22.9853 30.6746 22.8053 30.788C22.632 30.8946 22.412 30.948 22.1453 30.948C22.012 30.948 21.872 30.9446 21.7253 30.938ZM22.0953 28.438H21.3653V27.258C21.4386 27.2446 21.5386 27.2346 21.6653 27.228C21.7986 27.2213 21.9153 27.218 22.0153 27.218C22.3153 27.218 22.5386 27.2713 22.6853 27.378C22.8386 27.4846 22.9153 27.628 22.9153 27.808C22.9153 28.0146 22.8486 28.1713 22.7153 28.278C22.5886 28.3846 22.382 28.438 22.0953 28.438ZM21.6153 32.278C21.7686 32.2846 21.902 32.288 22.0153 32.288C22.9353 32.288 23.6386 32.1313 24.1253 31.818C24.6186 31.498 24.8653 31.008 24.8653 30.348C24.8653 29.9746 24.752 29.6646 24.5253 29.418C24.3053 29.1713 24.0286 29.0013 23.6953 28.908C23.9886 28.808 24.222 28.6513 24.3953 28.438C24.5686 28.218 24.6553 27.958 24.6553 27.658C24.6553 27.058 24.4253 26.6146 23.9653 26.328C23.5053 26.0413 22.8486 25.898 21.9953 25.898C21.6353 25.898 21.2853 25.918 20.9453 25.958C20.6053 25.9913 20.322 26.048 20.0953 26.128C19.962 26.1746 19.8553 26.238 19.7753 26.318C19.702 26.3913 19.6653 26.498 19.6653 26.638V31.308C19.6653 31.6546 19.8486 31.898 20.2153 32.038C20.3486 32.0913 20.4953 32.1313 20.6553 32.158C20.8153 32.1913 20.9753 32.218 21.1353 32.238C21.302 32.258 21.462 32.2713 21.6153 32.278ZM34.6322 28.478C34.7522 28.1313 34.8589 27.818 34.9522 27.538H35.0122C35.0922 27.8113 35.1789 28.1213 35.2722 28.468C35.3722 28.808 35.4689 29.158 35.5622 29.518H34.3222C34.4155 29.1646 34.5189 28.818 34.6322 28.478ZM40.9717 32.088V30.168H41.5017L42.3417 31.518C42.4017 31.618 42.4651 31.7113 42.5317 31.798C42.5984 31.8846 42.6717 31.958 42.7517 32.018C42.8317 32.078 42.9251 32.1246 43.0317 32.158C43.1384 32.1913 43.2651 32.208 43.4117 32.208C43.6317 32.208 43.8284 32.148 44.0017 32.028C44.1817 31.9013 44.3051 31.7213 44.3717 31.488C44.2384 31.2546 44.0551 30.9946 43.8217 30.708C43.5884 30.4213 43.3517 30.1146 43.1117 29.788C43.4051 29.628 43.6584 29.4013 43.8717 29.108C44.0851 28.8146 44.1917 28.4613 44.1917 28.048C44.1917 27.388 43.9584 26.8646 43.4917 26.478C43.0251 26.0913 42.3317 25.898 41.4117 25.898C41.0717 25.898 40.7517 25.918 40.4517 25.958C40.1517 25.9913 39.8884 26.048 39.6617 26.128C39.5284 26.1746 39.4217 26.238 39.3417 26.318C39.2684 26.3913 39.2317 26.498 39.2317 26.638V31.348C39.2317 31.5213 39.2517 31.6613 39.2917 31.768C39.3317 31.8746 39.3884 31.958 39.4617 32.018C39.5417 32.078 39.6384 32.118 39.7517 32.138C39.8717 32.1646 40.0084 32.178 40.1617 32.178C40.3151 32.178 40.4684 32.168 40.6217 32.148C40.7817 32.128 40.8984 32.108 40.9717 32.088ZM42.2017 28.648C42.0551 28.7746 41.8551 28.838 41.6017 28.838H40.9617V27.338C41.0351 27.3246 41.1017 27.3146 41.1617 27.308C41.2217 27.3013 41.3017 27.298 41.4017 27.298C41.7551 27.298 42.0117 27.3646 42.1717 27.498C42.3384 27.6246 42.4217 27.8146 42.4217 28.068C42.4217 28.3213 42.3484 28.5146 42.2017 28.648Z" fill="current"/>
</svg>
