<svg viewBox="0 0 560 800" fill="none" xmlns="http://www.w3.org/2000/svg">
<rect width="560" height="800" fill="url(#paint0_linear_369_816)"/>
<path d="M0 312.402C26.3021 309.739 78.4353 319.093 76.551 377.816C134.539 335 197.855 384.807 186.667 436.24L273.817 620L353.901 450.222C357.827 416.266 386.17 358.541 468.139 399.288C472.379 329.779 531.146 317.062 560 319.393V620H273.817H0V312.402Z" fill="#8F84CE"/>
<circle cx="123" cy="92" r="32" fill="#8F84CE"/>
<circle cx="487" cy="211" r="24" fill="#8F84CE"/>
<circle cx="365" cy="363" r="12" fill="#8F84CE"/>
<circle cx="439" cy="111" r="24" fill="#8F84CE"/>
<circle cx="91" cy="226" r="12" fill="#8F84CE"/>
<path fill-rule="evenodd" clip-rule="evenodd" d="M0 417.904C19.6285 403.824 67.9537 387.164 104.227 433.156C138.381 395.611 183.722 396.785 200.799 444.889C217.876 436.089 228.475 453.102 224.353 463.074C249.048 440.761 277.104 448.58 285.577 480H286.634C292.205 454.575 319.648 459.578 329.169 473.047C329.562 461.706 335.882 442.073 358.023 454.275C358.023 397.371 413.375 410.277 423.386 430.223C446.94 404.411 481.094 416.144 484.038 448.408C508.181 424.357 527.024 438.436 533.502 451.342C539.39 435.503 549.99 433.743 560 438.436V480V598V800H0V598V480V417.904Z" fill="white"/>
<path fill-rule="evenodd" clip-rule="evenodd" d="M279.526 112.901C295.472 103.446 311.347 119.373 314.295 128.245C343.062 130.871 359.618 145.111 364.3 151.903C369.87 148.286 389.8 151.293 393.387 167.777C398.409 190.852 383.77 201.869 372.773 205.551C372.059 208.268 370.645 211.973 368.451 215.902C379.06 213.219 400.787 212.85 402.819 232.843C404.634 250.694 391.289 259.346 370.481 266.307C369.966 265.127 368.935 264.259 367.39 263.705C365.769 263.065 363.891 262.745 361.758 262.745C360.265 262.745 358.771 262.937 357.278 263.321C355.827 263.705 354.739 264.11 354.014 264.537C353.715 265.305 353.289 266.414 352.734 267.865C352.306 269.077 351.833 270.439 351.316 271.949C348.791 272.633 346.209 273.321 343.579 274.022L342.428 274.328C340.098 282.023 337.43 288.761 334.544 294.647C334.385 294.21 334.207 293.837 334.011 293.529H317.563V286.809H329.339C330.491 286.809 331.408 286.467 332.091 285.785C332.774 285.102 333.115 283.95 333.115 282.329C333.115 281.475 332.987 280.686 332.731 279.961C332.518 279.193 332.262 278.574 331.963 278.105H317.563V272.153H331.067C332.219 272.153 333.136 271.811 333.819 271.129C334.544 270.446 334.907 269.294 334.907 267.673C334.907 266.819 334.779 266.009 334.523 265.241C334.31 264.473 334.054 263.854 333.755 263.385H312.635C310.8 263.385 309.35 263.918 308.283 264.985C307.216 266.051 306.683 267.502 306.683 269.337V296.409C306.683 298.243 307.216 299.694 308.283 300.761C309.35 301.827 310.8 302.361 312.635 302.361H330.365C316.011 326.333 298.129 332.697 289.159 332.41C288.188 333.091 284.901 336.26 279.517 343.49C262.578 377.822 227.471 353.215 222.073 346.638C216.674 340.06 225.978 319.718 238.728 319.413C233.371 317.755 237.232 308.365 240.809 302.13C241.049 302.061 241.286 301.988 241.521 301.913C244.166 301.059 246.428 299.779 248.305 298.073C250.225 296.323 251.697 294.19 252.721 291.673C253.745 289.113 254.257 286.126 254.257 282.713C254.257 279.214 253.724 276.185 252.657 273.625C251.59 271.065 250.076 268.953 248.113 267.289C246.193 265.582 243.868 264.323 241.137 263.513C238.449 262.702 235.441 262.297 232.113 262.297C230.492 262.297 228.657 262.403 226.609 262.617C224.561 262.787 222.62 263.171 220.785 263.769C219.932 264.067 219.249 264.473 218.737 264.985C218.268 265.454 218.033 266.137 218.033 267.033V291.661C212.795 290.507 206.84 289.145 200.371 287.586C199.488 287.373 198.65 287.113 197.857 286.809H202.426C203.578 286.809 204.496 286.467 205.178 285.785C205.861 285.102 206.202 283.95 206.202 282.329C206.202 281.475 206.075 280.686 205.818 279.961C205.605 279.193 205.349 278.574 205.05 278.105H190.65V272.153H204.154C205.306 272.153 206.224 271.811 206.906 271.129C207.632 270.446 207.994 269.294 207.994 267.673C207.994 266.819 207.867 266.009 207.61 265.241C207.397 264.473 207.141 263.854 206.842 263.385H185.722C185.699 263.385 185.675 263.385 185.651 263.385C186.035 250.777 191.765 237.08 198.344 232.009C208.274 224.355 220.121 236.026 224.803 242.818L249.059 237.898C237.949 238.492 215.679 233.844 215.479 210.494C215.28 187.144 247.975 193.125 264.348 199.034C260.993 184.581 265.316 161.82 274.431 151.882C262.729 143.679 257.436 125.999 279.526 112.901ZM185.651 263.385C183.85 263.399 182.423 263.932 181.37 264.985C180.304 266.051 179.77 267.502 179.77 269.337V296.409C179.77 298.243 180.304 299.694 181.37 300.761C182.437 301.827 183.888 302.361 185.722 302.361H204.41C205.562 302.361 206.48 302.019 207.162 301.337C207.888 300.611 208.251 299.438 208.251 297.817C208.251 296.963 208.122 296.153 207.867 295.385C207.653 294.617 207.397 293.998 207.098 293.529H190.65V286.809H197.857C188.589 283.254 185.337 273.682 185.651 263.385ZM218.033 291.661V296.921C218.033 299.139 219.206 300.697 221.553 301.593C222.406 301.934 223.324 302.19 224.305 302.361C225.329 302.574 226.332 302.745 227.313 302.873C228.337 303.001 229.318 303.086 230.257 303.129C231.196 303.171 232.028 303.193 232.753 303.193C235.669 303.193 238.354 302.838 240.809 302.13C241.339 301.206 241.863 300.351 242.35 299.602L238.958 295.935C235.708 295.361 228.231 293.906 218.033 291.661ZM330.365 302.361H331.323C332.475 302.361 333.392 302.019 334.075 301.337C334.8 300.611 335.163 299.438 335.163 297.817C335.163 296.963 335.035 296.153 334.779 295.385C334.706 295.121 334.628 294.875 334.544 294.647C333.195 297.401 331.797 299.968 330.365 302.361ZM351.316 271.949C351.214 272.246 351.111 272.548 351.006 272.857C350.366 274.691 349.683 276.654 348.958 278.745C348.233 280.835 347.55 282.883 346.91 284.889C346.27 286.851 345.673 288.686 345.118 290.393C344.606 292.099 344.201 293.529 343.902 294.681C343.689 295.491 343.497 296.195 343.326 296.793C343.155 297.39 343.07 297.987 343.07 298.585C343.07 299.907 343.582 300.953 344.606 301.721C345.673 302.446 347.294 302.809 349.47 302.809C350.409 302.809 351.198 302.723 351.838 302.553C352.521 302.425 353.161 302.254 353.758 302.041C354.099 300.761 354.441 299.438 354.782 298.073C355.123 296.707 355.465 295.385 355.806 294.105H367.39L368.542 298.521C368.755 299.246 368.99 299.886 369.246 300.441C369.545 300.995 369.907 301.443 370.334 301.785C370.803 302.126 371.379 302.382 372.062 302.553C372.787 302.723 373.662 302.809 374.686 302.809C376.094 302.809 377.31 302.617 378.334 302.233C379.358 301.891 380.126 301.422 380.638 300.825C379.998 298.478 379.251 295.79 378.398 292.761C377.545 289.689 376.67 286.595 375.774 283.481C374.878 280.323 373.982 277.273 373.086 274.329C372.19 271.385 371.358 268.803 370.59 266.585C370.557 266.49 370.52 266.398 370.481 266.307C364.626 268.266 358.181 270.091 351.316 271.949ZM301.669 173.622C300.097 176.943 296.131 178.36 292.81 176.788C289.489 175.216 288.072 171.25 289.644 167.929C291.216 164.608 295.182 163.19 298.503 164.762C301.824 166.335 303.242 170.301 301.669 173.622ZM332.894 195.765C336.215 197.337 340.181 195.92 341.753 192.599C343.325 189.278 341.908 185.312 338.587 183.74C335.266 182.167 331.3 183.585 329.728 186.906C328.156 190.227 329.573 194.193 332.894 195.765ZM299.028 189.567C300.97 185.463 304.234 187.058 307.807 188.805L307.808 188.806C308.183 188.989 308.562 189.174 308.942 189.354C318.563 193.909 315.061 197.159 315.061 197.159C313.164 201.169 306.456 202.898 303.249 201.38C299.24 199.482 297.13 193.577 299.028 189.567ZM138.384 270.425C138.64 271.235 138.917 271.875 139.216 272.345H148.816V297.177C148.816 298.286 148.944 299.182 149.2 299.865C149.456 300.547 149.84 301.081 150.352 301.465C150.864 301.849 151.483 302.105 152.208 302.233C152.976 302.403 153.851 302.489 154.832 302.489C155.813 302.489 156.795 302.425 157.776 302.297C158.8 302.169 159.547 302.041 160.016 301.913V272.345H167.12C168.315 272.345 169.275 271.982 170 271.257C170.768 270.531 171.152 269.337 171.152 267.673C171.152 266.777 171.024 265.923 170.768 265.113C170.512 264.302 170.235 263.662 169.936 263.193H142.032C140.837 263.193 139.856 263.555 139.088 264.281C138.363 265.006 138 266.201 138 267.865C138 268.761 138.128 269.614 138.384 270.425ZM230.897 294.105C230.214 294.019 229.638 293.934 229.169 293.849V271.577C229.809 271.491 230.428 271.427 231.025 271.385C231.665 271.342 232.284 271.321 232.881 271.321C235.868 271.321 238.257 272.302 240.049 274.265C241.841 276.185 242.737 279.065 242.737 282.905C242.737 284.91 242.481 286.638 241.969 288.089C241.5 289.497 240.817 290.649 239.921 291.545C239.068 292.441 238.022 293.102 236.785 293.529C235.59 293.955 234.268 294.169 232.817 294.169C232.22 294.169 231.58 294.147 230.897 294.105ZM277.042 294.553C276.103 294.467 275.335 294.339 274.738 294.169V286.361H279.986C281.906 286.361 283.335 286.659 284.274 287.257C285.213 287.854 285.682 288.857 285.682 290.265C285.682 291.758 285.106 292.867 283.954 293.593C282.845 294.275 281.437 294.617 279.73 294.617C278.877 294.617 277.981 294.595 277.042 294.553ZM279.41 278.553H274.738V271.001C275.207 270.915 275.847 270.851 276.658 270.809C277.511 270.766 278.258 270.745 278.898 270.745C280.818 270.745 282.247 271.086 283.186 271.769C284.167 272.451 284.658 273.369 284.658 274.521C284.658 275.843 284.231 276.846 283.378 277.529C282.567 278.211 281.245 278.553 279.41 278.553ZM276.338 303.129C277.319 303.171 278.173 303.193 278.898 303.193C284.786 303.193 289.287 302.19 292.402 300.185C295.559 298.137 297.138 295.001 297.138 290.777C297.138 288.387 296.413 286.403 294.962 284.825C293.554 283.246 291.783 282.158 289.65 281.561C291.527 280.921 293.021 279.918 294.13 278.553C295.239 277.145 295.794 275.481 295.794 273.561C295.794 269.721 294.322 266.883 291.378 265.049C288.434 263.214 284.231 262.297 278.77 262.297C276.466 262.297 274.226 262.425 272.05 262.681C269.874 262.894 268.061 263.257 266.61 263.769C265.757 264.067 265.074 264.473 264.562 264.985C264.093 265.454 263.858 266.137 263.858 267.033V296.921C263.858 299.139 265.031 300.697 267.378 301.593C268.231 301.934 269.17 302.19 270.194 302.361C271.218 302.574 272.242 302.745 273.266 302.873C274.333 303.001 275.357 303.086 276.338 303.129ZM359.646 278.809C360.414 276.59 361.097 274.585 361.694 272.793H362.078C362.59 274.542 363.145 276.526 363.742 278.745C364.382 280.921 365.001 283.161 365.598 285.465H357.662C358.259 283.203 358.921 280.985 359.646 278.809ZM400.219 301.913V289.625H403.611L408.987 298.265C409.371 298.905 409.776 299.502 410.203 300.057C410.63 300.611 411.099 301.081 411.611 301.465C412.123 301.849 412.72 302.147 413.403 302.361C414.086 302.574 414.896 302.681 415.835 302.681C417.243 302.681 418.502 302.297 419.611 301.529C420.763 300.718 421.552 299.566 421.979 298.073C421.126 296.579 419.952 294.915 418.459 293.081C416.966 291.246 415.451 289.283 413.915 287.193C415.792 286.169 417.414 284.718 418.779 282.841C420.144 280.963 420.827 278.702 420.827 276.057C420.827 271.833 419.334 268.483 416.347 266.009C413.36 263.534 408.923 262.297 403.035 262.297C400.859 262.297 398.811 262.425 396.891 262.681C394.971 262.894 393.286 263.257 391.835 263.769C390.982 264.067 390.299 264.473 389.787 264.985C389.318 265.454 389.083 266.137 389.083 267.033V297.177C389.083 298.286 389.211 299.182 389.467 299.865C389.723 300.547 390.086 301.081 390.555 301.465C391.067 301.849 391.686 302.105 392.411 302.233C393.179 302.403 394.054 302.489 395.035 302.489C396.016 302.489 396.998 302.425 397.979 302.297C399.003 302.169 399.75 302.041 400.219 301.913ZM408.091 279.897C407.152 280.707 405.872 281.113 404.251 281.113H400.155V271.513C400.624 271.427 401.051 271.363 401.435 271.321C401.819 271.278 402.331 271.257 402.971 271.257C405.232 271.257 406.875 271.683 407.899 272.537C408.966 273.347 409.499 274.563 409.499 276.185C409.499 277.806 409.03 279.043 408.091 279.897Z" fill="white"/>
<defs>
<linearGradient id="paint0_linear_369_816" x1="280" y1="0" x2="280" y2="800" gradientUnits="userSpaceOnUse">
<stop stop-color="#6255A4"/>
<stop offset="0.885417" stop-color="#DCD9EB"/>
</linearGradient>
</defs>
</svg>
