<svg width="35" height="25" viewBox="0 0 35 25" fill="none" xmlns="http://www.w3.org/2000/svg">
<path d="M26.9037 0.478799C23.5346 -0.519164 22.4767 1.37171 17.7645 1.37171C13.0523 1.37171 11.9943 -0.526668 8.62522 0.478799C5.25615 1.47676 3.57537 5.0109 1.98463 11.644C0.393895 18.2846 0.686532 23.0793 2.5624 23.9722C4.43827 24.8651 6.55426 22.8167 8.57269 20.288C10.2085 18.3071 11.0263 18.1795 17.7645 18.1795C24.4951 18.1795 25.1929 18.232 26.9562 20.288C28.9747 22.8167 31.0907 24.8651 32.9665 23.9722C34.8424 23.0793 35.135 18.2846 33.5443 11.644C31.9536 5.0109 30.2653 1.48427 26.9037 0.478799ZM8.17501 12.7545C6.54675 12.7545 5.22614 11.4264 5.22614 9.78312C5.22614 8.14736 6.54675 6.81174 8.17501 6.81174C9.80327 6.81174 11.1239 8.14736 11.1239 9.78312C11.1239 11.4189 9.80327 12.7545 8.17501 12.7545ZM21.7938 11.2463C20.9985 11.2463 20.3457 10.5935 20.3457 9.79062C20.3457 8.98775 20.9985 8.33495 21.7938 8.33495C22.5967 8.33495 23.2495 8.98775 23.2495 9.79062C23.242 10.5935 22.5967 11.2463 21.7938 11.2463ZM24.9603 14.4278C24.1649 14.4278 23.5121 13.775 23.5121 12.9721C23.5121 12.1617 24.1649 11.5164 24.9603 11.5164C25.7632 11.5164 26.416 12.1692 26.416 12.9721C26.416 13.7825 25.7632 14.4278 24.9603 14.4278ZM24.9603 8.05732C24.1649 8.05732 23.5121 7.40452 23.5121 6.60164C23.5121 5.79877 24.1649 5.14597 24.9603 5.14597C25.7632 5.14597 26.416 5.79877 26.416 6.60164C26.416 7.40452 25.7632 8.05732 24.9603 8.05732ZM28.1343 11.2463C27.3314 11.2463 26.6861 10.5935 26.6861 9.79062C26.6861 8.98775 27.3389 8.33495 28.1343 8.33495C28.9296 8.33495 29.5825 8.98775 29.5825 9.79062C29.5825 10.5935 28.9372 11.2463 28.1343 11.2463Z" fill="white"/>
</svg>
