<svg width="125" height="131" viewBox="0 0 125 131" fill="none" xmlns="http://www.w3.org/2000/svg">
<path d="M97.1165 65.0982C106.639 80.5794 101.707 100.855 86.0999 110.385C70.4929 119.916 50.1213 115.092 40.5987 99.6106C31.0761 84.1294 36.0084 63.8536 51.6154 54.3233C67.2223 44.793 87.5939 49.6171 97.1165 65.0982Z" fill="#D8DBF6"/>
<path d="M34.9664 48.9511C38.8039 55.1898 36.8162 63.3606 30.5269 67.2012C24.2375 71.0417 16.028 69.0977 12.1906 62.859C8.35308 56.6204 10.3407 48.4495 16.6301 44.6089C22.9195 40.7684 31.1289 42.7124 34.9664 48.9511Z" fill="#D8DBF6"/>
<path d="M53.109 27.5124C56.9465 33.7511 54.9588 41.9219 48.6694 45.7625C42.3801 49.6031 34.1706 47.659 30.3331 41.4203C26.4957 35.1817 28.4833 27.0108 34.7727 23.1703C41.0621 19.3297 49.2715 21.2737 53.109 27.5124Z" fill="#D8DBF6"/>
<path d="M85.107 22.9366C88.9445 29.1753 86.9569 37.3462 80.6675 41.1867C74.3781 45.0273 66.1687 43.0833 62.3312 36.8446C58.4937 30.6059 60.4814 22.4351 66.7707 18.5945C73.0601 14.7539 81.2695 16.698 85.107 22.9366Z" fill="#D8DBF6"/>
</svg>
