<svg width="130" height="123" viewBox="0 0 130 123" fill="none" xmlns="http://www.w3.org/2000/svg">
<path d="M65.447 26.682C81.2901 17.598 101.549 22.9889 110.696 38.7229C119.843 54.4568 114.414 74.5758 98.5713 83.6598C82.7282 92.7438 62.4696 87.3529 53.3226 71.619C44.1755 55.885 49.6038 35.766 65.447 26.682Z" fill="#D8DBF6"/>
<path d="M47.447 88.0271C53.8315 84.3663 61.9954 86.5388 65.6815 92.8793C69.3677 99.2199 67.1802 107.328 60.7956 110.988C54.4111 114.649 46.2472 112.477 42.561 106.136C38.8749 99.7954 41.0624 91.6878 47.447 88.0271Z" fill="#D8DBF6"/>
<path d="M26.3923 69.4847C32.7768 65.824 40.9407 67.9965 44.6269 74.337C48.313 80.6776 46.1255 88.7852 39.7409 92.4459C33.3564 96.1066 25.1925 93.9342 21.5064 87.5937C17.8202 81.2531 20.0077 73.1455 26.3923 69.4847Z" fill="#D8DBF6"/>
<path d="M22.6921 37.5895C29.0766 33.9288 37.2405 36.1013 40.9267 42.4418C44.6128 48.7824 42.4253 56.89 36.0407 60.5507C29.6562 64.2114 21.4923 62.039 17.8062 55.6985C14.12 49.3579 16.3075 41.2503 22.6921 37.5895Z" fill="#D8DBF6"/>
</svg>
