<svg width="132" height="130" viewBox="0 0 132 130" fill="none" xmlns="http://www.w3.org/2000/svg">
<path d="M72.5874 98.2693C59.1278 110.574 38.1725 109.713 25.7825 96.346C13.3924 82.9791 14.2595 62.1683 27.7191 49.8636C41.1787 37.559 62.1339 38.42 74.524 51.7869C86.914 65.1537 86.0469 85.9646 72.5874 98.2693Z" fill="#D8DBF6"/>
<path d="M76.644 34.5001C71.22 39.4587 62.7753 39.1117 57.7823 33.7251C52.7893 28.3384 53.1387 19.952 58.5627 14.9934C63.9868 10.0348 72.4314 10.3818 77.4244 15.7684C82.4174 21.1551 82.068 29.5415 76.644 34.5001Z" fill="#D8DBF6"/>
<path d="M101.273 48.0214C95.8489 52.98 87.4042 52.633 82.4112 47.2463C77.4182 41.8597 77.7676 33.4732 83.1916 28.5146C88.6157 23.5561 97.0603 23.9031 102.053 29.2897C107.046 34.6763 106.697 43.0628 101.273 48.0214Z" fill="#D8DBF6"/>
<path d="M111.907 78.3413C106.483 83.2999 98.038 82.9529 93.045 77.5662C88.052 72.1796 88.4014 63.7931 93.8254 58.8345C99.2494 53.8759 107.694 54.2229 112.687 59.6096C117.68 64.9962 117.331 73.3827 111.907 78.3413Z" fill="#D8DBF6"/>
</svg>
