<svg width="131" height="127" viewBox="0 0 131 127" fill="none" xmlns="http://www.w3.org/2000/svg">
<path d="M33.8242 77.7492C18.9077 67.3773 15.2819 46.7932 25.7257 31.7732C36.1695 16.7532 56.7281 12.9851 71.6446 23.357C86.5611 33.7288 90.1869 54.313 79.7431 69.333C69.2993 84.353 48.7407 88.121 33.8242 77.7492Z" fill="#D8DBF6"/>
<path d="M97.119 67.565C91.1078 63.3853 89.6467 55.0902 93.8554 49.0374C98.0641 42.9845 106.349 41.4661 112.36 45.6458C118.371 49.8255 119.832 58.1206 115.624 64.1734C111.415 70.2263 103.13 71.7447 97.119 67.565Z" fill="#D8DBF6"/>
<path d="M89.1336 94.5296C83.1225 90.3499 81.6613 82.0547 85.8701 76.0019C90.0788 69.9491 98.3636 68.4306 104.375 72.6103C110.386 76.79 111.847 85.0851 107.638 91.138C103.43 97.1908 95.1447 98.7093 89.1336 94.5296Z" fill="#D8DBF6"/>
<path d="M61.7186 111.596C55.7075 107.417 54.2463 99.1215 58.455 93.0687C62.6637 87.0159 70.9485 85.4974 76.9596 89.6771C82.9708 93.8568 84.4319 102.152 80.2232 108.205C76.0145 114.258 67.7297 115.776 61.7186 111.596Z" fill="#D8DBF6"/>
</svg>
