<svg width="774" height="261" viewBox="0 0 774 261" fill="none" xmlns="http://www.w3.org/2000/svg">
<rect y="60.7329" width="676" height="170.251" rx="30" fill="#6255A4"/>
<path d="M72.1734 98.4072H64.5234V105.757C64.5234 106.091 64.6067 106.341 64.7734 106.507C64.9401 106.641 65.2067 106.707 65.5734 106.707H72.3734V100.707C72.3734 100.107 72.3567 99.6239 72.3234 99.2572C72.3234 98.8906 72.2734 98.6072 72.1734 98.4072ZM54.6234 114.407H93.8234C94.3901 114.407 94.8234 114.607 95.1234 115.007C95.4234 115.407 95.5734 115.774 95.5734 116.107C95.5734 116.507 95.4067 116.907 95.0734 117.307C94.7734 117.674 94.3567 117.857 93.8234 117.857H54.6234C54.1234 117.857 53.7067 117.657 53.3734 117.257C53.0401 116.857 52.8734 116.457 52.8734 116.057C52.8734 115.691 53.0401 115.324 53.3734 114.957C53.7067 114.591 54.1234 114.407 54.6234 114.407ZM76.4234 128.457L87.2234 134.357C87.7234 134.657 88.0734 134.991 88.2734 135.357C88.4734 135.757 88.5734 136.107 88.5734 136.407C88.5067 136.974 88.3401 137.424 88.0734 137.757C87.8401 138.091 87.5567 138.324 87.2234 138.457C86.9567 138.557 86.6067 138.574 86.1734 138.507C85.7401 138.474 85.3401 138.324 84.9734 138.057L74.4734 131.257C72.8734 133.057 70.9901 134.607 68.8234 135.907C66.6567 137.241 64.7234 138.191 63.0234 138.757C62.5234 138.891 62.1067 138.874 61.7734 138.707C61.4734 138.574 61.2567 138.374 61.1234 138.107C61.0234 137.841 61.0234 137.557 61.1234 137.257C61.2234 136.957 61.4734 136.707 61.8734 136.507C62.8734 136.007 63.9401 135.357 65.0734 134.557C66.2067 133.757 67.2901 132.874 68.3234 131.907C69.3234 130.974 70.2067 129.991 70.9734 128.957C71.7401 127.891 72.2401 126.841 72.4734 125.807C72.5401 125.507 72.4901 125.274 72.3234 125.107C72.1901 124.941 71.7234 124.791 70.9234 124.657C70.5567 124.624 70.1901 124.507 69.8234 124.307C69.4901 124.107 69.3234 123.791 69.3234 123.357C69.3234 122.957 69.4567 122.624 69.7234 122.357C70.0234 122.091 70.4734 121.957 71.0734 121.957H75.1734C75.7067 121.957 76.1401 122.091 76.4734 122.357C76.8401 122.591 77.1067 122.907 77.2734 123.307C77.4401 123.674 77.5234 124.074 77.5234 124.507C77.5567 124.941 77.5567 125.324 77.5234 125.657C77.4234 126.157 77.2734 126.641 77.0734 127.107C76.8734 127.574 76.6567 128.024 76.4234 128.457ZM63.9734 110.357C63.6067 110.357 63.2067 110.324 62.7734 110.257C62.3401 110.157 61.9401 109.974 61.5734 109.707C61.1734 109.474 60.8401 109.124 60.5734 108.657C60.3401 108.191 60.2234 107.591 60.2234 106.857V100.707C60.2234 99.5406 60.1401 98.8072 59.9734 98.5072C59.8401 98.1739 59.4234 97.8739 58.7234 97.6072C58.3567 97.5072 58.0067 97.3572 57.6734 97.1572C57.3401 96.9239 57.1734 96.5906 57.1734 96.1572C57.1734 95.6572 57.3734 95.3072 57.7734 95.1072C58.1734 94.8739 58.5567 94.7572 58.9234 94.7572H85.6734C86.0401 94.7572 86.3901 94.9739 86.7234 95.4072C87.0901 95.8406 87.2734 96.2406 87.2734 96.6072C87.2734 97.0072 87.1067 97.4072 86.7734 97.8072C86.4734 98.2072 86.1734 98.4072 85.8734 98.4072H76.6234V105.757C76.6234 106.091 76.7067 106.341 76.8734 106.507C77.0401 106.641 77.2901 106.707 77.6234 106.707H86.1234C86.6234 106.707 87.0234 106.924 87.3234 107.357C87.6567 107.791 87.8234 108.191 87.8234 108.557C87.8234 108.991 87.6567 109.407 87.3234 109.807C87.0234 110.174 86.6567 110.357 86.2234 110.357H63.9734ZM109.043 102.007C109.043 100.841 109.276 99.7239 109.743 98.6572C110.21 97.5572 110.91 96.6072 111.843 95.8072C112.743 94.9739 113.86 94.3072 115.193 93.8072C116.526 93.3072 118.06 93.0572 119.793 93.0572C121.426 93.0572 122.893 93.3072 124.193 93.8072C125.493 94.3072 126.61 94.9739 127.543 95.8072C128.476 96.6072 129.193 97.5572 129.693 98.6572C130.193 99.7239 130.443 100.841 130.443 102.007C130.443 103.174 130.176 104.291 129.643 105.357C129.143 106.424 128.426 107.357 127.493 108.157C126.593 108.991 125.476 109.641 124.143 110.107C122.843 110.574 121.393 110.807 119.793 110.807C118.06 110.807 116.526 110.574 115.193 110.107C113.86 109.607 112.743 108.957 111.843 108.157C110.91 107.357 110.21 106.424 109.743 105.357C109.276 104.291 109.043 103.174 109.043 102.007ZM113.443 102.007C113.443 103.574 113.976 104.857 115.043 105.857C116.143 106.857 117.726 107.357 119.793 107.357C121.693 107.357 123.21 106.857 124.343 105.857C125.476 104.824 126.043 103.541 126.043 102.007C126.043 100.507 125.476 99.2239 124.343 98.1572C123.243 97.0572 121.726 96.5072 119.793 96.5072C117.76 96.5072 116.193 97.0406 115.093 98.1072C113.993 99.1739 113.443 100.474 113.443 102.007ZM100.143 113.157H139.343C139.91 113.157 140.343 113.357 140.643 113.757C140.943 114.157 141.093 114.541 141.093 114.907C141.093 115.307 140.926 115.691 140.593 116.057C140.293 116.424 139.876 116.607 139.343 116.607H100.143C99.6429 116.607 99.2263 116.424 98.8929 116.057C98.5596 115.691 98.3929 115.291 98.3929 114.857C98.3929 114.457 98.5596 114.074 98.8929 113.707C99.2263 113.341 99.6429 113.157 100.143 113.157ZM107.643 127.807H127.143V124.307H108.993C108.493 124.307 108.093 124.107 107.793 123.707C107.526 123.307 107.393 122.907 107.393 122.507C107.393 122.107 107.526 121.724 107.793 121.357C108.06 120.991 108.476 120.807 109.043 120.807H129.393C129.96 120.807 130.443 121.007 130.843 121.407C131.276 121.807 131.493 122.357 131.493 123.057V128.707C131.493 129.441 131.31 130.057 130.943 130.557C130.61 131.057 130.126 131.307 129.493 131.307H113.243V134.107C113.243 134.674 113.326 135.007 113.493 135.107C113.66 135.241 113.91 135.307 114.243 135.307H131.543C131.976 135.307 132.36 135.507 132.693 135.907C133.026 136.307 133.193 136.691 133.193 137.057C133.193 137.524 133.026 137.941 132.693 138.307C132.36 138.674 131.976 138.857 131.543 138.857H112.543C111.443 138.857 110.56 138.491 109.893 137.757C109.26 137.024 108.943 136.157 108.943 135.157V132.557C108.943 131.857 108.843 131.374 108.643 131.107C108.443 130.874 108.043 130.674 107.443 130.507C107.043 130.407 106.71 130.241 106.443 130.007C106.21 129.774 106.093 129.457 106.093 129.057C106.093 128.657 106.26 128.357 106.593 128.157C106.96 127.924 107.31 127.807 107.643 127.807ZM161.666 105.557C161.666 104.157 161.933 102.857 162.466 101.657C163.033 100.457 163.816 99.4239 164.816 98.5572C165.783 97.6906 166.916 97.0072 168.216 96.5072C169.516 95.9739 170.9 95.7072 172.366 95.7072C173.766 95.7072 175.116 95.9572 176.416 96.4572C177.716 96.9572 178.85 97.6406 179.816 98.5072C180.783 99.3739 181.55 100.407 182.116 101.607C182.716 102.807 183.016 104.124 183.016 105.557C183.016 107.024 182.716 108.357 182.116 109.557C181.55 110.757 180.783 111.774 179.816 112.607C178.85 113.474 177.716 114.141 176.416 114.607C175.15 115.074 173.8 115.307 172.366 115.307C170.9 115.307 169.516 115.074 168.216 114.607C166.916 114.107 165.783 113.424 164.816 112.557C163.816 111.657 163.033 110.624 162.466 109.457C161.933 108.257 161.666 106.957 161.666 105.557ZM166.166 105.557C166.166 107.391 166.766 108.907 167.966 110.107C169.2 111.307 170.666 111.907 172.366 111.907C174.066 111.907 175.516 111.324 176.716 110.157C177.916 108.957 178.516 107.424 178.516 105.557C178.516 103.791 177.9 102.291 176.666 101.057C175.466 99.8239 174.033 99.2072 172.366 99.2072C170.666 99.2072 169.2 99.7906 167.966 100.957C166.766 102.124 166.166 103.657 166.166 105.557ZM195.516 94.8572V103.257H203.066C203.466 103.257 203.816 103.424 204.116 103.757C204.45 104.091 204.616 104.507 204.616 105.007C204.616 105.507 204.45 105.924 204.116 106.257C203.816 106.591 203.483 106.757 203.116 106.757H195.516V111.907C195.516 113.574 195.233 114.807 194.666 115.607C194.1 116.407 193.333 116.807 192.366 116.807H191.266V97.8572C191.266 96.8572 191.05 96.2239 190.616 95.9572C190.216 95.6572 189.616 95.4239 188.816 95.2572C188.016 95.1239 187.45 94.9239 187.116 94.6572C186.783 94.3906 186.616 94.0739 186.616 93.7072C186.616 93.2739 186.8 92.9406 187.166 92.7072C187.533 92.4739 187.966 92.3572 188.466 92.3572H193.366C193.966 92.3572 194.466 92.6239 194.866 93.1572C195.3 93.6572 195.516 94.2239 195.516 94.8572ZM172.216 127.257H190.466V122.757H173.616C173.116 122.757 172.716 122.557 172.416 122.157C172.116 121.757 171.966 121.374 171.966 121.007C171.966 120.607 172.1 120.224 172.366 119.857C172.633 119.457 173.066 119.257 173.666 119.257H192.716C193.25 119.257 193.733 119.457 194.166 119.857C194.6 120.224 194.816 120.741 194.816 121.407V128.157C194.816 128.891 194.616 129.507 194.216 130.007C193.85 130.474 193.366 130.707 192.766 130.707H177.816V134.157C177.816 134.691 177.9 135.007 178.066 135.107C178.266 135.241 178.566 135.307 178.966 135.307H194.866C195.3 135.307 195.666 135.507 195.966 135.907C196.3 136.341 196.466 136.724 196.466 137.057C196.466 137.491 196.3 137.891 195.966 138.257C195.666 138.657 195.3 138.857 194.866 138.857H177.116C176.016 138.857 175.133 138.491 174.466 137.757C173.833 137.024 173.516 136.157 173.516 135.157V132.007C173.516 131.274 173.416 130.791 173.216 130.557C173.016 130.324 172.616 130.124 172.016 129.957C171.65 129.857 171.35 129.691 171.116 129.457C170.883 129.224 170.766 128.907 170.766 128.507C170.766 128.107 170.933 127.807 171.266 127.607C171.6 127.374 171.916 127.257 172.216 127.257ZM239.974 100.157C239.974 101.757 239.924 103.474 239.824 105.307C239.758 107.141 239.624 108.974 239.424 110.807C239.224 112.641 238.941 114.407 238.574 116.107C238.241 117.807 237.808 119.274 237.274 120.507C237.074 120.941 236.758 121.274 236.324 121.507C235.924 121.707 235.558 121.757 235.224 121.657C234.691 121.557 234.374 121.324 234.274 120.957C234.208 120.557 234.224 120.107 234.324 119.607C234.624 118.374 234.841 117.024 234.974 115.557C235.141 114.091 235.258 112.574 235.324 111.007C235.391 109.441 235.424 107.824 235.424 106.157C235.458 104.491 235.474 102.807 235.474 101.107H216.224C215.724 101.107 215.308 100.907 214.974 100.507C214.674 100.107 214.524 99.6739 214.524 99.2072C214.524 98.8072 214.691 98.4239 215.024 98.0572C215.358 97.6906 215.774 97.5072 216.274 97.5072H237.674C238.541 97.5072 239.141 97.8072 239.474 98.4072C239.808 99.0072 239.974 99.5906 239.974 100.157ZM208.674 126.007H224.224V117.007C224.224 116.007 224.008 115.374 223.574 115.107C223.174 114.841 222.558 114.607 221.724 114.407C221.124 114.307 220.691 114.124 220.424 113.857C220.158 113.591 220.024 113.241 220.024 112.807C220.024 112.407 220.224 112.107 220.624 111.907C221.024 111.674 221.458 111.557 221.924 111.557H226.274C226.874 111.557 227.391 111.807 227.824 112.307C228.258 112.774 228.474 113.341 228.474 114.007V126.007H247.874C248.441 126.007 248.874 126.224 249.174 126.657C249.474 127.057 249.624 127.424 249.624 127.757C249.624 128.191 249.458 128.607 249.124 129.007C248.824 129.374 248.408 129.557 247.874 129.557H208.674C208.174 129.557 207.758 129.357 207.424 128.957C207.091 128.557 206.924 128.141 206.924 127.707C206.924 127.374 207.091 127.007 207.424 126.607C207.758 126.207 208.174 126.007 208.674 126.007ZM270.148 106.057C270.148 104.624 270.414 103.307 270.948 102.107C271.514 100.874 272.281 99.8239 273.248 98.9572C274.248 98.0572 275.398 97.3572 276.698 96.8572C277.998 96.3572 279.398 96.1072 280.898 96.1072C282.364 96.1072 283.748 96.3572 285.048 96.8572C286.348 97.3572 287.498 98.0406 288.498 98.9072C289.464 99.7739 290.231 100.824 290.798 102.057C291.398 103.291 291.698 104.624 291.698 106.057C291.698 107.557 291.398 108.924 290.798 110.157C290.231 111.357 289.464 112.391 288.498 113.257C287.498 114.091 286.348 114.741 285.048 115.207C283.748 115.674 282.364 115.907 280.898 115.907C279.398 115.907 277.998 115.674 276.698 115.207C275.398 114.707 274.248 114.024 273.248 113.157C272.281 112.257 271.514 111.207 270.948 110.007C270.414 108.807 270.148 107.491 270.148 106.057ZM274.648 106.057C274.648 107.957 275.231 109.507 276.398 110.707C277.598 111.907 279.098 112.507 280.898 112.507C282.664 112.507 284.148 111.924 285.348 110.757C286.581 109.557 287.198 107.991 287.198 106.057C287.198 104.224 286.581 102.691 285.348 101.457C284.148 100.224 282.664 99.6072 280.898 99.6072C279.098 99.6072 277.598 100.207 276.398 101.407C275.231 102.574 274.648 104.124 274.648 106.057ZM304.898 94.7572V112.957C304.898 114.591 304.598 115.824 303.998 116.657C303.431 117.491 302.664 117.907 301.698 117.907H300.648V97.8072C300.648 96.8406 300.448 96.2072 300.048 95.9072C299.648 95.6072 299.048 95.3739 298.248 95.2072C297.448 95.0739 296.881 94.8906 296.548 94.6572C296.214 94.3906 296.048 94.0739 296.048 93.7072C296.048 93.2739 296.231 92.9406 296.598 92.7072C296.998 92.4406 297.431 92.3072 297.898 92.3072H302.698C303.298 92.3072 303.814 92.5739 304.248 93.1072C304.681 93.6072 304.898 94.1572 304.898 94.7572ZM289.948 135.607L285.648 131.207C284.448 132.907 283.114 134.441 281.648 135.807C280.181 137.174 278.848 138.124 277.648 138.657C277.181 138.891 276.764 138.957 276.398 138.857C276.064 138.757 275.814 138.591 275.648 138.357C275.481 138.091 275.414 137.791 275.448 137.457C275.514 137.124 275.748 136.807 276.148 136.507C276.981 135.907 277.814 135.124 278.648 134.157C279.514 133.191 280.281 132.174 280.948 131.107C281.614 130.041 282.181 128.974 282.648 127.907C283.114 126.841 283.414 125.874 283.548 125.007C283.581 124.807 283.481 124.607 283.248 124.407C283.048 124.207 282.614 124.041 281.948 123.907C281.748 123.874 281.548 123.841 281.348 123.807C281.181 123.774 281.014 123.724 280.848 123.657C280.681 123.557 280.548 123.441 280.448 123.307C280.348 123.141 280.298 122.907 280.298 122.607C280.298 122.207 280.448 121.891 280.748 121.657C281.048 121.424 281.498 121.307 282.098 121.307H286.198C287.364 121.307 288.081 121.641 288.348 122.307C288.614 122.974 288.714 123.657 288.648 124.357C288.548 124.991 288.381 125.641 288.148 126.307C287.948 126.974 287.698 127.641 287.398 128.307L292.448 132.357C293.381 130.924 294.164 129.441 294.798 127.907C295.464 126.374 295.881 125.007 296.048 123.807C296.048 123.707 296.031 123.624 295.998 123.557C295.998 123.491 295.948 123.424 295.848 123.357C295.714 123.324 295.531 123.274 295.298 123.207C295.064 123.107 294.748 122.991 294.348 122.857C294.181 122.824 294.014 122.791 293.848 122.757C293.681 122.724 293.514 122.657 293.348 122.557C293.214 122.491 293.098 122.391 292.998 122.257C292.898 122.124 292.848 121.924 292.848 121.657C292.848 121.191 292.981 120.824 293.248 120.557C293.548 120.291 293.998 120.157 294.598 120.157H298.698C299.831 120.157 300.514 120.507 300.748 121.207C301.014 121.907 301.114 122.607 301.048 123.307C300.948 124.007 300.781 124.741 300.548 125.507C300.348 126.274 300.081 127.057 299.748 127.857L307.948 134.007C308.448 134.407 308.781 134.807 308.948 135.207C309.114 135.607 309.198 135.941 309.198 136.207C309.198 136.741 309.031 137.191 308.698 137.557C308.398 137.924 308.048 138.174 307.648 138.307C307.448 138.374 307.114 138.391 306.648 138.357C306.214 138.357 305.798 138.157 305.398 137.757L297.998 131.007C296.898 132.707 295.631 134.291 294.198 135.757C292.798 137.224 291.398 138.407 289.998 139.307C289.564 139.607 289.148 139.724 288.748 139.657C288.381 139.624 288.081 139.491 287.848 139.257C287.648 139.024 287.548 138.741 287.548 138.407C287.548 138.074 287.748 137.741 288.148 137.407C288.448 137.174 288.748 136.907 289.048 136.607C289.348 136.307 289.648 135.974 289.948 135.607ZM322.378 106.957V100.957C322.378 100.124 322.278 99.5572 322.078 99.2572C321.911 98.9572 321.528 98.7406 320.928 98.6072C320.395 98.5072 319.945 98.3572 319.578 98.1572C319.245 97.9239 319.078 97.5572 319.078 97.0572C319.078 96.4906 319.261 96.1239 319.628 95.9572C320.028 95.7906 320.428 95.7072 320.828 95.7072H324.578C325.211 95.7072 325.711 95.9906 326.078 96.5572C326.478 97.0906 326.678 97.6572 326.678 98.2572V106.657C326.678 106.991 326.711 107.241 326.778 107.407C326.878 107.574 327.111 107.657 327.478 107.657H344.628C345.128 107.657 345.528 107.874 345.828 108.307C346.161 108.741 346.328 109.141 346.328 109.507C346.328 110.007 346.161 110.424 345.828 110.757C345.528 111.091 345.145 111.257 344.678 111.257H327.678C325.911 111.257 324.578 111.024 323.678 110.557C322.811 110.091 322.378 108.891 322.378 106.957ZM314.178 116.557H353.378C353.945 116.557 354.378 116.774 354.678 117.207C354.978 117.607 355.128 117.974 355.128 118.307C355.128 118.741 354.961 119.141 354.628 119.507C354.328 119.874 353.911 120.057 353.378 120.057H314.178C313.678 120.057 313.261 119.874 312.928 119.507C312.595 119.141 312.428 118.724 312.428 118.257C312.428 117.924 312.595 117.557 312.928 117.157C313.261 116.757 313.678 116.557 314.178 116.557ZM323.028 133.957V129.707C323.028 128.807 322.861 128.241 322.528 128.007C322.195 127.741 321.628 127.507 320.828 127.307C320.061 127.107 319.528 126.891 319.228 126.657C318.961 126.391 318.828 126.007 318.828 125.507C318.828 125.107 319.045 124.807 319.478 124.607C319.911 124.407 320.328 124.307 320.728 124.307H325.078C325.678 124.307 326.195 124.541 326.628 125.007C327.061 125.474 327.278 126.057 327.278 126.757V133.957C327.278 134.357 327.328 134.607 327.428 134.707C327.528 134.807 327.795 134.857 328.228 134.857H345.228C345.728 134.857 346.145 135.041 346.478 135.407C346.845 135.807 347.028 136.224 347.028 136.657C347.028 137.057 346.861 137.457 346.528 137.857C346.195 138.257 345.778 138.457 345.278 138.457H328.378C326.611 138.457 325.261 138.157 324.328 137.557C323.428 136.957 322.995 135.757 323.028 133.957ZM378.752 99.5572H394.502C395.202 99.5572 395.735 99.8572 396.102 100.457C396.468 101.024 396.618 101.557 396.552 102.057C396.318 104.257 395.668 106.424 394.602 108.557C393.568 110.657 392.252 112.624 390.652 114.457C389.052 116.324 387.235 118.024 385.202 119.557C383.202 121.091 381.102 122.374 378.902 123.407C378.502 123.607 378.085 123.691 377.652 123.657C377.252 123.624 376.952 123.424 376.752 123.057C376.552 122.857 376.502 122.541 376.602 122.107C376.702 121.674 376.902 121.357 377.202 121.157C379.102 120.024 380.935 118.674 382.702 117.107C384.468 115.541 386.035 113.857 387.402 112.057H378.752C378.252 112.057 377.835 111.874 377.502 111.507C377.202 111.107 377.052 110.707 377.052 110.307C377.052 109.941 377.185 109.557 377.452 109.157C377.752 108.724 378.202 108.507 378.802 108.507H389.652C390.118 107.641 390.502 106.774 390.802 105.907C391.102 105.007 391.318 104.107 391.452 103.207H378.602C378.102 103.207 377.718 103.007 377.452 102.607C377.185 102.207 377.052 101.791 377.052 101.357C377.052 100.991 377.185 100.607 377.452 100.207C377.752 99.7739 378.185 99.5572 378.752 99.5572ZM409.552 94.7072V108.307H417.102C417.502 108.307 417.852 108.491 418.152 108.857C418.485 109.191 418.652 109.624 418.652 110.157C418.652 110.657 418.485 111.074 418.152 111.407C417.852 111.707 417.518 111.857 417.152 111.857H409.552V130.857C409.552 132.491 409.268 133.724 408.702 134.557C408.135 135.391 407.368 135.807 406.402 135.807H405.302V97.7072C405.302 96.7406 405.085 96.1072 404.652 95.8072C404.252 95.5072 403.652 95.2739 402.852 95.1072C402.052 95.0072 401.485 94.8406 401.152 94.6072C400.818 94.3406 400.652 94.0072 400.652 93.6072C400.652 93.1739 400.835 92.8406 401.202 92.6072C401.568 92.3406 402.002 92.2072 402.502 92.2072H407.402C408.002 92.2072 408.502 92.4739 408.902 93.0072C409.335 93.5406 409.552 94.1072 409.552 94.7072ZM451.909 101.157H435.209V112.457C435.209 112.791 435.293 113.041 435.459 113.207C435.626 113.374 435.893 113.457 436.259 113.457H452.659C453.159 113.457 453.559 113.657 453.859 114.057C454.159 114.424 454.309 114.807 454.309 115.207C454.309 115.607 454.159 115.991 453.859 116.357C453.559 116.724 453.176 116.907 452.709 116.907H434.609C434.243 116.907 433.843 116.874 433.409 116.807C433.009 116.707 432.609 116.541 432.209 116.307C431.843 116.074 431.526 115.741 431.259 115.307C431.026 114.874 430.909 114.307 430.909 113.607V103.507C430.909 102.307 430.826 101.557 430.659 101.257C430.526 100.924 430.109 100.641 429.409 100.407C429.009 100.307 428.659 100.157 428.359 99.9572C428.059 99.7239 427.909 99.3906 427.909 98.9572C427.909 98.4572 428.093 98.1072 428.459 97.9072C428.826 97.7072 429.209 97.6072 429.609 97.6072H451.659C452.026 97.6072 452.376 97.8072 452.709 98.2072C453.076 98.6072 453.259 99.0072 453.259 99.4072C453.259 99.8739 453.109 100.291 452.809 100.657C452.509 100.991 452.209 101.157 451.909 101.157ZM422.709 125.957H461.909C462.476 125.957 462.909 126.157 463.209 126.557C463.509 126.957 463.659 127.341 463.659 127.707C463.659 128.107 463.493 128.507 463.159 128.907C462.859 129.274 462.443 129.457 461.909 129.457H422.709C422.209 129.457 421.793 129.257 421.459 128.857C421.126 128.457 420.959 128.057 420.959 127.657C420.959 127.257 421.126 126.874 421.459 126.507C421.793 126.141 422.209 125.957 422.709 125.957ZM475.579 101.157H494.779V97.7572H476.579C476.246 97.7572 475.896 97.6072 475.529 97.3072C475.196 96.9739 475.029 96.5406 475.029 96.0072C475.029 95.5072 475.179 95.0906 475.479 94.7572C475.812 94.3906 476.179 94.2072 476.579 94.2072H497.129C497.729 94.2072 498.212 94.4406 498.579 94.9072C498.946 95.3406 499.129 95.8739 499.129 96.5072V101.957C499.129 102.691 498.912 103.324 498.479 103.857C498.079 104.391 497.512 104.657 496.779 104.657H480.929V107.107C480.929 107.507 480.996 107.807 481.129 108.007C481.296 108.207 481.579 108.307 481.979 108.307H499.029C499.462 108.307 499.846 108.491 500.179 108.857C500.546 109.224 500.729 109.607 500.729 110.007C500.729 110.474 500.546 110.891 500.179 111.257C499.846 111.624 499.446 111.807 498.979 111.807H479.729C478.729 111.807 477.962 111.507 477.429 110.907C476.896 110.274 476.629 109.457 476.629 108.457V105.957C476.629 105.257 476.496 104.791 476.229 104.557C475.996 104.324 475.629 104.124 475.129 103.957C474.996 103.924 474.846 103.891 474.679 103.857C474.546 103.791 474.412 103.707 474.279 103.607C474.112 103.507 473.979 103.391 473.879 103.257C473.812 103.091 473.779 102.874 473.779 102.607C473.779 102.074 473.979 101.707 474.379 101.507C474.779 101.274 475.179 101.157 475.579 101.157ZM468.229 115.107H507.429C507.996 115.107 508.429 115.307 508.729 115.707C509.029 116.107 509.179 116.474 509.179 116.807C509.179 117.207 509.012 117.591 508.679 117.957C508.379 118.324 507.962 118.507 507.429 118.507H468.229C467.729 118.507 467.312 118.324 466.979 117.957C466.646 117.591 466.479 117.191 466.479 116.757C466.479 116.391 466.646 116.024 466.979 115.657C467.312 115.291 467.729 115.107 468.229 115.107ZM475.729 128.457H495.229V125.407H477.079C476.579 125.407 476.179 125.207 475.879 124.807C475.612 124.374 475.479 123.974 475.479 123.607C475.479 123.207 475.612 122.807 475.879 122.407C476.146 122.007 476.546 121.807 477.079 121.807H497.479C498.079 121.807 498.579 122.007 498.979 122.407C499.379 122.807 499.579 123.357 499.579 124.057V129.357C499.579 130.091 499.396 130.707 499.029 131.207C498.696 131.707 498.212 131.957 497.579 131.957H481.329V134.107C481.329 134.641 481.412 134.957 481.579 135.057C481.746 135.191 481.996 135.257 482.329 135.257H499.629C500.062 135.257 500.446 135.457 500.779 135.857C501.112 136.291 501.279 136.674 501.279 137.007C501.279 137.507 501.112 137.941 500.779 138.307C500.446 138.674 500.062 138.857 499.629 138.857H480.629C479.529 138.857 478.646 138.474 477.979 137.707C477.346 136.974 477.029 136.107 477.029 135.107V133.257C477.029 132.524 476.929 132.041 476.729 131.807C476.529 131.574 476.129 131.357 475.529 131.157C475.129 131.057 474.796 130.891 474.529 130.657C474.296 130.457 474.179 130.157 474.179 129.757C474.179 129.324 474.346 129.007 474.679 128.807C475.046 128.574 475.396 128.457 475.729 128.457ZM171.699 174.657H157.949V182.257C157.949 182.591 158.032 182.841 158.199 183.007C158.365 183.141 158.599 183.207 158.899 183.207H171.449C172.015 183.207 172.449 183.424 172.749 183.857C173.049 184.291 173.199 184.691 173.199 185.057C173.199 185.491 173.032 185.907 172.699 186.307C172.399 186.674 171.999 186.857 171.499 186.857H157.399C156.999 186.857 156.582 186.824 156.149 186.757C155.715 186.657 155.299 186.474 154.899 186.207C154.532 185.974 154.215 185.624 153.949 185.157C153.715 184.691 153.599 184.091 153.599 183.357V177.007C153.599 175.807 153.532 175.057 153.399 174.757C153.265 174.424 152.849 174.124 152.149 173.857C151.715 173.757 151.349 173.607 151.049 173.407C150.749 173.174 150.599 172.841 150.599 172.407C150.599 171.941 150.782 171.591 151.149 171.357C151.515 171.124 151.899 171.007 152.299 171.007H171.549C171.915 171.007 172.265 171.224 172.599 171.657C172.965 172.091 173.149 172.491 173.149 172.857C173.149 173.291 172.982 173.707 172.649 174.107C172.349 174.474 172.032 174.657 171.699 174.657ZM185.899 169.707V205.907C185.899 207.607 185.599 208.857 184.999 209.657C184.399 210.457 183.615 210.857 182.649 210.857H181.549V172.707C181.549 171.741 181.332 171.107 180.899 170.807C180.499 170.507 179.899 170.274 179.099 170.107C178.299 170.007 177.715 169.841 177.349 169.607C177.015 169.341 176.849 169.007 176.849 168.607C176.849 168.174 177.049 167.841 177.449 167.607C177.882 167.341 178.332 167.207 178.799 167.207H183.699C184.299 167.207 184.815 167.474 185.249 168.007C185.682 168.507 185.899 169.074 185.899 169.707ZM178.949 193.107C178.249 193.474 177.382 193.791 176.349 194.057C175.349 194.324 174.265 194.541 173.099 194.707C171.932 194.907 170.732 195.057 169.499 195.157C168.299 195.224 167.149 195.257 166.049 195.257H165.599V204.707C165.599 206.407 165.299 207.691 164.699 208.557C164.099 209.424 163.382 209.857 162.549 209.857H161.249V195.257H151.099C150.565 195.257 150.132 195.074 149.799 194.707C149.499 194.307 149.349 193.891 149.349 193.457C149.349 193.057 149.515 192.657 149.849 192.257C150.182 191.857 150.615 191.657 151.149 191.657H165.849C167.949 191.657 170.032 191.624 172.099 191.557C174.165 191.491 176.199 191.241 178.199 190.807C178.732 190.707 179.132 190.741 179.399 190.907C179.665 191.074 179.832 191.291 179.899 191.557C179.932 191.824 179.865 192.107 179.699 192.407C179.532 192.707 179.282 192.941 178.949 193.107ZM196.879 171.807H212.129C212.896 171.807 213.412 172.207 213.679 173.007C213.979 173.774 214.079 174.407 213.979 174.907C213.646 176.107 213.129 177.274 212.429 178.407C211.729 179.541 210.929 180.624 210.029 181.657L216.979 187.257C217.312 187.624 217.546 187.974 217.679 188.307C217.846 188.607 217.929 188.857 217.929 189.057C217.929 189.591 217.779 190.057 217.479 190.457C217.212 190.857 216.862 191.141 216.429 191.307C216.096 191.407 215.679 191.424 215.179 191.357C214.712 191.257 214.296 191.007 213.929 190.607L207.379 184.257C205.379 186.024 203.296 187.557 201.129 188.857C198.962 190.124 197.096 191.041 195.529 191.607C195.096 191.774 194.712 191.791 194.379 191.657C194.046 191.524 193.812 191.307 193.679 191.007C193.512 190.741 193.462 190.441 193.529 190.107C193.629 189.774 193.879 189.507 194.279 189.307C195.546 188.641 196.896 187.807 198.329 186.807C199.762 185.774 201.146 184.657 202.479 183.457C203.812 182.224 205.012 180.924 206.079 179.557C207.179 178.191 208.029 176.807 208.629 175.407H196.729C196.229 175.407 195.829 175.207 195.529 174.807C195.229 174.407 195.079 174.007 195.079 173.607C195.079 173.241 195.229 172.857 195.529 172.457C195.862 172.024 196.312 171.807 196.879 171.807ZM228.629 169.807V186.907C228.629 188.574 228.329 189.807 227.729 190.607C227.162 191.407 226.396 191.807 225.429 191.807H224.379V172.807C224.379 171.807 224.179 171.174 223.779 170.907C223.379 170.607 222.779 170.374 221.979 170.207C221.179 170.074 220.612 169.874 220.279 169.607C219.946 169.341 219.779 169.024 219.779 168.657C219.779 168.224 219.962 167.891 220.329 167.657C220.729 167.424 221.162 167.307 221.629 167.307H226.429C227.029 167.307 227.546 167.557 227.979 168.057C228.412 168.557 228.629 169.141 228.629 169.807ZM210.579 204.957V209.907H223.779V204.957H210.579ZM227.779 213.457H209.729C209.596 213.791 209.329 214.091 208.929 214.357C208.529 214.657 208.029 214.807 207.429 214.807H206.329V200.507C206.329 199.607 206.212 199.057 205.979 198.857C205.746 198.624 205.296 198.424 204.629 198.257C204.029 198.157 203.629 197.974 203.429 197.707C203.229 197.441 203.129 197.107 203.129 196.707C203.129 196.307 203.296 196.024 203.629 195.857C203.996 195.657 204.412 195.557 204.879 195.557H208.579C209.179 195.557 209.662 195.757 210.029 196.157C210.396 196.557 210.579 197.074 210.579 197.707V201.407H223.779V198.657C223.779 198.291 223.746 198.007 223.679 197.807C223.646 197.607 223.579 197.441 223.479 197.307C223.346 197.174 223.179 197.091 222.979 197.057C222.812 196.991 222.579 196.907 222.279 196.807C221.646 196.674 221.179 196.491 220.879 196.257C220.612 196.024 220.479 195.724 220.479 195.357C220.479 194.891 220.662 194.557 221.029 194.357C221.429 194.124 221.862 194.007 222.329 194.007H225.879C226.579 194.007 227.112 194.224 227.479 194.657C227.879 195.091 228.079 195.657 228.079 196.357V206.857C228.079 207.557 228.046 208.174 227.979 208.707C227.912 209.241 227.829 209.657 227.729 209.957H227.979C228.279 209.957 228.529 210.157 228.729 210.557C228.962 210.957 229.079 211.357 229.079 211.757C229.079 212.124 228.962 212.491 228.729 212.857C228.496 213.257 228.179 213.457 227.779 213.457ZM236.41 184.957C236.41 183.491 236.693 182.107 237.26 180.807C237.826 179.474 238.626 178.324 239.66 177.357C240.66 176.391 241.843 175.624 243.21 175.057C244.576 174.457 246.043 174.157 247.61 174.157C248.976 174.157 250.276 174.391 251.51 174.857C252.743 175.324 253.826 175.941 254.76 176.707C255.726 177.507 256.526 178.457 257.16 179.557C257.826 180.624 258.276 181.774 258.51 183.007H267.51V172.707C267.51 171.741 267.293 171.107 266.86 170.807C266.46 170.507 265.86 170.274 265.06 170.107C264.293 170.007 263.743 169.841 263.41 169.607C263.076 169.341 262.91 169.007 262.91 168.607C262.91 168.174 263.093 167.841 263.46 167.607C263.86 167.341 264.293 167.207 264.76 167.207H269.66C270.26 167.207 270.776 167.474 271.21 168.007C271.643 168.541 271.86 169.107 271.86 169.707V205.907C271.86 207.607 271.56 208.857 270.96 209.657C270.36 210.457 269.593 210.857 268.66 210.857H267.51V186.607H258.61C258.41 187.941 257.976 189.157 257.31 190.257C256.676 191.357 255.876 192.307 254.91 193.107C253.943 193.907 252.826 194.541 251.56 195.007C250.326 195.441 249.01 195.657 247.61 195.657C246.01 195.657 244.526 195.391 243.16 194.857C241.793 194.291 240.61 193.524 239.61 192.557C238.61 191.591 237.826 190.457 237.26 189.157C236.693 187.857 236.41 186.457 236.41 184.957ZM240.91 184.957C240.91 187.057 241.543 188.774 242.81 190.107C244.076 191.407 245.676 192.057 247.61 192.057C249.51 192.057 251.093 191.407 252.36 190.107C253.626 188.774 254.26 187.057 254.26 184.957C254.26 182.957 253.61 181.274 252.31 179.907C251.043 178.507 249.476 177.807 247.61 177.807C245.676 177.807 244.076 178.491 242.81 179.857C241.543 181.224 240.91 182.924 240.91 184.957ZM304.19 180.457L312.94 184.257C313.44 184.457 313.807 184.757 314.04 185.157C314.307 185.557 314.457 185.924 314.49 186.257C314.523 186.657 314.457 187.057 314.29 187.457C314.123 187.824 313.873 188.124 313.54 188.357C313.307 188.491 312.957 188.591 312.49 188.657C312.057 188.691 311.59 188.607 311.09 188.407L300.89 182.957C298.923 184.257 296.857 185.391 294.69 186.357C292.523 187.324 290.44 188.057 288.44 188.557C288.173 188.624 287.823 188.657 287.39 188.657C286.957 188.624 286.64 188.357 286.44 187.857C286.34 187.457 286.357 187.074 286.49 186.707C286.623 186.307 286.94 186.024 287.44 185.857C288.773 185.424 290.223 184.807 291.79 184.007C293.357 183.207 294.873 182.307 296.34 181.307C297.807 180.307 299.157 179.224 300.39 178.057C301.657 176.857 302.657 175.641 303.39 174.407H289.09C288.69 174.407 288.34 174.241 288.04 173.907C287.74 173.574 287.59 173.157 287.59 172.657C287.59 172.191 287.757 171.774 288.09 171.407C288.423 171.041 288.79 170.857 289.19 170.857H307.14C308.007 170.857 308.623 171.257 308.99 172.057C309.39 172.857 309.423 173.607 309.09 174.307C308.523 175.441 307.807 176.524 306.94 177.557C306.107 178.591 305.19 179.557 304.19 180.457ZM280.89 192.107H320.09C320.657 192.107 321.09 192.324 321.39 192.757C321.69 193.157 321.84 193.524 321.84 193.857C321.84 194.291 321.673 194.707 321.34 195.107C321.04 195.474 320.623 195.657 320.09 195.657H302.64V206.157C302.64 207.857 302.34 209.124 301.74 209.957C301.14 210.791 300.44 211.207 299.64 211.207H298.44V195.657H280.89C280.39 195.657 279.973 195.457 279.64 195.057C279.307 194.657 279.14 194.241 279.14 193.807C279.14 193.474 279.307 193.107 279.64 192.707C279.973 192.307 280.39 192.107 280.89 192.107ZM338.41 177.957C338.31 178.957 338.093 180.024 337.76 181.157C337.426 182.291 336.993 183.457 336.46 184.657L344.71 193.107C345.143 193.607 345.393 194.041 345.46 194.407C345.526 194.741 345.56 195.041 345.56 195.307C345.526 195.807 345.31 196.291 344.91 196.757C344.51 197.224 343.993 197.457 343.36 197.457C343.06 197.491 342.76 197.441 342.46 197.307C342.16 197.174 341.826 196.907 341.46 196.507L334.71 187.957C333.61 189.791 332.343 191.541 330.91 193.207C329.51 194.874 328.043 196.291 326.51 197.457C326.143 197.724 325.776 197.824 325.41 197.757C325.076 197.657 324.793 197.491 324.56 197.257C324.36 196.991 324.243 196.691 324.21 196.357C324.21 195.991 324.376 195.641 324.71 195.307C325.81 194.241 326.86 192.991 327.86 191.557C328.893 190.124 329.826 188.624 330.66 187.057C331.46 185.491 332.126 183.924 332.66 182.357C333.193 180.791 333.526 179.324 333.66 177.957C333.66 177.624 333.443 177.374 333.01 177.207C332.576 177.041 332.093 176.907 331.56 176.807C331.126 176.741 330.793 176.557 330.56 176.257C330.36 175.957 330.26 175.657 330.26 175.357C330.26 175.024 330.376 174.724 330.61 174.457C330.843 174.191 331.193 174.057 331.66 174.057H335.66C336.96 174.057 337.76 174.491 338.06 175.357C338.36 176.191 338.476 177.057 338.41 177.957ZM363.16 169.707V205.907C363.16 207.574 362.86 208.807 362.26 209.607C361.66 210.441 360.893 210.857 359.96 210.857H358.81V172.707C358.81 171.741 358.61 171.107 358.21 170.807C357.81 170.507 357.193 170.274 356.36 170.107C355.593 170.007 355.043 169.841 354.71 169.607C354.376 169.341 354.21 169.007 354.21 168.607C354.21 168.174 354.393 167.841 354.76 167.607C355.126 167.341 355.56 167.207 356.06 167.207H360.96C361.56 167.207 362.076 167.474 362.51 168.007C362.943 168.541 363.16 169.107 363.16 169.707ZM353.41 171.857V203.357C353.41 205.024 353.11 206.257 352.51 207.057C351.943 207.891 351.193 208.307 350.26 208.307H349.21V187.207H342.76C342.393 187.207 342.06 187.057 341.76 186.757C341.493 186.424 341.36 186.007 341.36 185.507C341.36 184.974 341.51 184.541 341.81 184.207C342.11 183.841 342.46 183.657 342.86 183.657H349.21V174.857C349.21 173.857 348.993 173.224 348.56 172.957C348.16 172.657 347.543 172.424 346.71 172.257C345.943 172.157 345.393 171.974 345.06 171.707C344.726 171.441 344.56 171.124 344.56 170.757C344.56 170.357 344.726 170.024 345.06 169.757C345.426 169.491 345.843 169.357 346.31 169.357H351.26C351.86 169.357 352.36 169.624 352.76 170.157C353.193 170.691 353.41 171.257 353.41 171.857ZM379.142 182.407C379.142 180.941 379.425 179.541 379.992 178.207C380.592 176.874 381.409 175.707 382.442 174.707C383.509 173.674 384.742 172.857 386.142 172.257C387.575 171.657 389.142 171.357 390.842 171.357C392.509 171.357 394.042 171.657 395.442 172.257C396.875 172.857 398.109 173.674 399.142 174.707C400.175 175.707 400.975 176.874 401.542 178.207C402.142 179.541 402.442 180.941 402.442 182.407C402.442 184.074 402.075 185.657 401.342 187.157C400.609 188.624 399.609 189.857 398.342 190.857C398.742 191.057 399.059 191.357 399.292 191.757C399.559 192.157 399.692 192.607 399.692 193.107V201.157H410.642C411.175 201.157 411.592 201.374 411.892 201.807C412.192 202.241 412.342 202.641 412.342 203.007C412.342 203.441 412.175 203.841 411.842 204.207C411.542 204.574 411.125 204.757 410.592 204.757H371.392C370.892 204.757 370.475 204.574 370.142 204.207C369.809 203.841 369.642 203.424 369.642 202.957C369.642 202.591 369.792 202.207 370.092 201.807C370.425 201.374 370.842 201.157 371.342 201.157H382.592V197.157C382.592 196.157 382.459 195.541 382.192 195.307C381.959 195.041 381.442 194.807 380.642 194.607C380.042 194.507 379.609 194.324 379.342 194.057C379.109 193.757 378.992 193.441 378.992 193.107C378.992 192.641 379.175 192.291 379.542 192.057C379.909 191.791 380.342 191.657 380.842 191.657H384.392C382.759 190.657 381.475 189.341 380.542 187.707C379.609 186.074 379.142 184.307 379.142 182.407ZM392.742 193.257C392.442 193.324 392.125 193.374 391.792 193.407C391.459 193.407 391.142 193.407 390.842 193.407C390.042 193.407 389.259 193.341 388.492 193.207C387.759 193.074 387.075 192.891 386.442 192.657C386.575 192.891 386.692 193.141 386.792 193.407C386.892 193.674 386.942 193.941 386.942 194.207V201.157H395.342V196.107C395.342 195.107 395.225 194.474 394.992 194.207C394.759 193.941 394.259 193.707 393.492 193.507C393.325 193.507 393.175 193.491 393.042 193.457C392.942 193.391 392.842 193.324 392.742 193.257ZM383.492 182.407C383.492 183.407 383.659 184.374 383.992 185.307C384.359 186.207 384.875 187.007 385.542 187.707C386.175 188.407 386.942 188.957 387.842 189.357C388.742 189.757 389.742 189.957 390.842 189.957C391.842 189.957 392.775 189.757 393.642 189.357C394.542 188.957 395.325 188.407 395.992 187.707C396.625 187.007 397.125 186.207 397.492 185.307C397.892 184.374 398.092 183.407 398.092 182.407C398.092 181.407 397.892 180.457 397.492 179.557C397.125 178.624 396.609 177.824 395.942 177.157C395.275 176.457 394.509 175.907 393.642 175.507C392.775 175.074 391.842 174.857 390.842 174.857C389.809 174.857 388.842 175.074 387.942 175.507C387.042 175.907 386.259 176.457 385.592 177.157C384.925 177.824 384.409 178.624 384.042 179.557C383.675 180.457 383.492 181.407 383.492 182.407ZM420.511 198.307L419.011 169.557H424.961L423.411 198.307C423.378 198.707 423.211 199.024 422.911 199.257C422.611 199.457 422.295 199.574 421.961 199.607C421.595 199.607 421.261 199.507 420.961 199.307C420.661 199.107 420.511 198.774 420.511 198.307ZM418.461 206.907C418.461 205.941 418.795 205.124 419.461 204.457C420.128 203.757 420.961 203.407 421.961 203.407C422.928 203.407 423.761 203.757 424.461 204.457C425.161 205.124 425.511 205.941 425.511 206.907C425.511 207.907 425.161 208.741 424.461 209.407C423.761 210.107 422.928 210.457 421.961 210.457C420.961 210.457 420.128 210.107 419.461 209.407C418.795 208.741 418.461 207.907 418.461 206.907Z" fill="white"/>
<g filter="url(#filter0_i_278_265)">
<path d="M727.404 250.748C685.883 234.271 582.654 245.485 536.23 253.151L533.622 183.464C579.351 179.917 676.598 173.303 699.758 175.225C722.918 177.148 734.794 189.758 737.836 195.823C738.793 191.589 738.045 196.646 727.404 250.748Z" fill="#F6A324"/>
</g>
<path d="M587.753 212.376C571.516 219.396 579.588 159.833 585.654 129.173H671.039C671.039 129.173 679.496 200.784 677.338 212.376H587.753Z" fill="#FFB441"/>
<g filter="url(#filter1_i_278_265)">
<path d="M564.505 206.2C546.216 164.541 575.652 131.783 592.656 120.611C595.931 150.249 600.063 210.521 590.389 214.509C578.297 219.495 573.082 218.11 564.505 206.2Z" fill="#FFB441"/>
</g>
<g filter="url(#filter2_i_278_265)">
<path d="M698.532 197.011C713.622 146.866 677.033 118.846 656.852 111.105C656.884 144.244 659.743 210.979 670.932 212.805C684.918 215.087 690.515 212.22 698.532 197.011Z" fill="#FFB441"/>
</g>
<path d="M597.881 161.03C597.881 174.364 604.88 186.926 608.38 191.541" stroke="#C58B32" stroke-opacity="0.44" stroke-width="3"/>
<path d="M664.846 147.47C664.846 164.508 656.901 180.56 652.928 186.456" stroke="#C58B32" stroke-opacity="0.44" stroke-width="3"/>
<g filter="url(#filter3_i_278_265)">
<path d="M714.775 246.731C710.988 226.348 713.977 183.687 756.232 176.105C801.988 193.226 748.862 290.146 714.775 246.731Z" fill="#F3A124"/>
</g>
<g filter="url(#filter4_i_278_265)">
<path d="M749.377 196.692C761.968 202.502 773.637 227.266 746.307 246.528C713.141 263.038 725.216 191.699 749.377 196.692Z" fill="#BC5E28"/>
</g>
<g filter="url(#filter5_i_278_265)">
<path d="M740.878 189.864C740.878 192.059 741.13 194.145 743.335 194.145C745.539 194.145 748.248 192.059 748.248 189.864C748.248 187.669 747.382 186.195 745.177 186.195C742.972 186.195 740.878 187.669 740.878 189.864Z" fill="#FFD96F"/>
</g>
<g filter="url(#filter6_i_278_265)">
<path d="M760.776 200.736C761.28 202.688 761.592 204.071 763.337 203.624C765.083 203.177 767.116 201.193 766.612 199.241C766.107 197.29 765.04 195.839 763.295 196.286C761.549 196.733 760.272 198.785 760.776 200.736Z" fill="#FFD96F"/>
</g>
<g filter="url(#filter7_i_278_265)">
<path d="M763.876 211.719C764.225 213.072 764.441 214.03 765.651 213.721C766.861 213.411 768.27 212.035 767.92 210.683C767.571 209.331 766.831 208.324 765.621 208.634C764.411 208.944 763.526 210.367 763.876 211.719Z" fill="#FFD96F"/>
</g>
<g filter="url(#filter8_i_278_265)">
<path d="M752.223 191.858C752.87 193.956 754.124 195.095 756.231 194.45C758.339 193.806 759.915 191.801 759.268 189.702C758.62 187.604 757.358 186.449 755.25 187.093C753.143 187.738 751.575 189.759 752.223 191.858Z" fill="#FFD96F"/>
</g>
<g filter="url(#filter9_i_278_265)">
<path d="M557.225 249.177C561.012 228.795 558.023 186.134 515.768 178.551C470.012 195.673 523.138 292.592 557.225 249.177Z" fill="#F3A124"/>
</g>
<g filter="url(#filter10_i_278_265)">
<path d="M522.623 199.139C510.032 204.948 498.363 229.713 525.693 248.974C558.859 265.484 546.784 194.146 522.623 199.139Z" fill="#BC5E28"/>
</g>
<g filter="url(#filter11_i_278_265)">
<path d="M531.122 192.31C531.122 194.506 530.87 196.591 528.665 196.591C526.461 196.591 523.752 194.506 523.752 192.31C523.752 190.115 524.618 188.642 526.823 188.642C529.028 188.642 531.122 190.115 531.122 192.31Z" fill="#FBDA7F"/>
</g>
<g filter="url(#filter12_i_278_265)">
<path d="M511.224 203.183C510.72 205.134 510.408 206.517 508.663 206.07C506.917 205.623 504.884 203.639 505.388 201.688C505.893 199.737 506.96 198.285 508.705 198.732C510.451 199.18 511.728 201.231 511.224 203.183Z" fill="#FBDA7F"/>
</g>
<g filter="url(#filter13_i_278_265)">
<path d="M508.124 214.165C507.775 215.518 507.559 216.477 506.349 216.167C505.139 215.857 503.73 214.482 504.08 213.129C504.429 211.777 505.169 210.771 506.379 211.081C507.589 211.391 508.474 212.813 508.124 214.165Z" fill="#FBDA7F"/>
</g>
<g filter="url(#filter14_i_278_265)">
<path d="M519.777 194.304C519.13 196.402 517.876 197.541 515.769 196.897C513.661 196.252 512.085 194.247 512.732 192.149C513.38 190.05 514.642 188.895 516.75 189.54C518.857 190.184 520.425 192.206 519.777 194.304Z" fill="#FBDA7F"/>
</g>
<g filter="url(#filter15_i_278_265)">
<path d="M545.677 29.3196C562.41 9.53772 581.507 20.1296 589.14 26.8799C579.172 42.1658 558.388 73.0076 555.001 74.0879C550.768 75.4383 523.687 55.316 545.677 29.3196Z" fill="#FFD99B"/>
</g>
<g filter="url(#filter16_i_278_265)">
<path d="M586.176 28.8148L553.862 75.3239C544.375 68.4342 528.159 58.7878 543.549 34.4195C555.861 14.9248 577.097 22.5602 586.176 28.8148Z" fill="#F8A73E"/>
</g>
<g filter="url(#filter17_i_278_265)">
<path d="M580.744 36.385L560.339 65.8771C554.975 62.587 546.185 52.8136 553.939 40.0408C561.692 27.2679 575.039 32.2816 580.744 36.385Z" fill="#AF5E27"/>
</g>
<g filter="url(#filter18_i_278_265)">
<path d="M692.654 7.98503C713.681 23.1727 704.45 42.9015 698.24 50.9692C682.206 42.174 649.807 23.7624 648.48 20.4775C646.822 16.3714 665.022 -11.9738 692.654 7.98503Z" fill="#FFD99B"/>
</g>
<g filter="url(#filter19_i_278_265)">
<path d="M696.084 48.1638L647.158 19.4348C653.375 9.51643 661.866 -7.28336 687.39 6.23856C707.809 17.0561 701.694 38.696 696.084 48.1638Z" fill="#F8A73E"/>
</g>
<g filter="url(#filter20_i_278_265)">
<path d="M688.108 43.3193L657.089 25.1876C659.998 19.6233 669.153 10.1887 682.509 16.9651C695.865 23.7415 691.807 37.3581 688.108 43.3193Z" fill="#AF5E27"/>
</g>
<g filter="url(#filter21_i_278_265)">
<path d="M560.311 52.0046C576.048 23.2232 615.184 16.352 632.785 16.514C686.624 16.514 718.72 65.6174 710.437 94.0584C702.154 122.5 673.164 130.035 645.469 138.3C617.773 146.565 582.707 135.416 575.582 130.035C560.311 118.502 540.639 87.9813 560.311 52.0046Z" fill="#FFB441"/>
</g>
<path d="M576.395 133.121C535.102 109.158 549.844 71.7059 560.597 52.5869L637.11 140.029C637.11 140.029 613.57 149.053 576.395 133.121Z" fill="url(#paint0_linear_278_265)"/>
<g filter="url(#filter22_i_278_265)">
<path d="M603.141 132.618C596.076 112.879 618.539 105.69 630.653 104.564C658.166 104.564 662.921 110.31 662.581 128.9C662.242 147.49 611.972 157.292 603.141 132.618Z" fill="#FCF4A1"/>
</g>
<path d="M632.316 129.926L634.044 137.467" stroke="#442417" stroke-linecap="round"/>
<g filter="url(#filter23_d_278_265)">
<path d="M622.384 135.645C625.961 137.753 635.11 140.17 643.093 132.976" stroke="#442417" stroke-linecap="round"/>
</g>
<g filter="url(#filter24_i_278_265)">
<path d="M620.085 126.221C619.768 120.799 625.723 120.135 629.687 119.362C632.654 118.783 637.535 118.009 639.767 119.943C642.408 122.231 640.919 127.139 639.407 128.992C638.196 130.475 635.613 132.225 632.948 132.745C628.792 132.83 620.401 131.642 620.085 126.221Z" fill="#492D1D"/>
</g>
<path d="M626.811 123.236C626.925 122.173 626.368 120.573 623.238 122.675C619.325 125.302 624.132 129.188 626.811 123.236Z" fill="url(#paint1_radial_278_265)"/>
<g filter="url(#filter25_i_278_265)">
<path d="M604.866 104.87C604.866 109.429 602.862 111.902 600.391 111.902C597.92 111.902 594.425 109.429 594.425 104.87C594.425 100.311 596.801 97.8379 599.272 97.8379C601.744 97.8379 604.866 100.311 604.866 104.87Z" fill="#442210"/>
</g>
<ellipse cx="599.273" cy="100.894" rx="1.49156" ry="1.22296" fill="url(#paint2_radial_278_265)"/>
<g filter="url(#filter26_i_278_265)">
<path d="M662.598 98.1409C662.598 102.7 660.595 105.173 658.123 105.173C655.652 105.173 652.157 102.7 652.157 98.1409C652.157 93.5818 654.533 91.1089 657.005 91.1089C659.476 91.1089 662.598 93.5818 662.598 98.1409Z" fill="#442210"/>
</g>
<ellipse cx="657.004" cy="94.168" rx="1.49156" ry="1.22296" fill="url(#paint3_radial_278_265)"/>
<ellipse cx="659.034" cy="224.028" rx="37.3178" ry="4.11736" fill="url(#paint4_radial_278_265)"/>
<ellipse cx="664.417" cy="224.028" rx="37.3178" ry="4.11736" fill="url(#paint5_radial_278_265)"/>
<g filter="url(#filter27_i_278_265)">
<ellipse cx="669.081" cy="199.501" rx="24.4001" ry="24.3461" fill="#FA7A98"/>
</g>
<ellipse cx="669.081" cy="199.501" rx="24.4001" ry="24.3461" fill="url(#paint6_radial_278_265)"/>
<ellipse cx="590.39" cy="224.653" rx="31.6673" ry="3.49393" fill="url(#paint7_radial_278_265)"/>
<g filter="url(#filter28_i_278_265)">
<ellipse cx="598.916" cy="203.84" rx="20.7056" ry="20.6597" fill="#89C2C1"/>
</g>
<ellipse cx="598.916" cy="203.84" rx="20.7056" ry="20.6597" fill="url(#paint8_radial_278_265)"/>
<ellipse cx="615.891" cy="232.192" rx="35.0363" ry="3.86564" fill="url(#paint9_radial_278_265)"/>
<ellipse cx="619.119" cy="253.551" rx="44.9931" ry="4.96419" fill="url(#paint10_radial_278_265)"/>
<ellipse cx="625.609" cy="253.551" rx="44.9931" ry="4.96419" fill="url(#paint11_radial_278_265)"/>
<g filter="url(#filter29_i_278_265)">
<ellipse cx="631.233" cy="223.981" rx="29.4186" ry="29.3535" fill="#FF5757"/>
</g>
<ellipse cx="631.233" cy="223.981" rx="29.4186" ry="29.3535" fill="url(#paint12_radial_278_265)"/>
<defs>
<filter id="filter0_i_278_265" x="533.622" y="154.882" width="204.519" height="98.2695" filterUnits="userSpaceOnUse" color-interpolation-filters="sRGB">
<feFlood flood-opacity="0" result="BackgroundImageFix"/>
<feBlend mode="normal" in="SourceGraphic" in2="BackgroundImageFix" result="shape"/>
<feColorMatrix in="SourceAlpha" type="matrix" values="0 0 0 0 0 0 0 0 0 0 0 0 0 0 0 0 0 0 127 0" result="hardAlpha"/>
<feOffset dy="-20"/>
<feGaussianBlur stdDeviation="10"/>
<feComposite in2="hardAlpha" operator="arithmetic" k2="-1" k3="1"/>
<feColorMatrix type="matrix" values="0 0 0 0 0 0 0 0 0 0 0 0 0 0 0 0 0 0 0.25 0"/>
<feBlend mode="normal" in2="shape" result="effect1_innerShadow_278_265"/>
</filter>
<filter id="filter1_i_278_265" x="558.723" y="120.611" width="47.6807" height="101.614" filterUnits="userSpaceOnUse" color-interpolation-filters="sRGB">
<feFlood flood-opacity="0" result="BackgroundImageFix"/>
<feBlend mode="normal" in="SourceGraphic" in2="BackgroundImageFix" result="shape"/>
<feColorMatrix in="SourceAlpha" type="matrix" values="0 0 0 0 0 0 0 0 0 0 0 0 0 0 0 0 0 0 127 0" result="hardAlpha"/>
<feOffset dx="10" dy="5"/>
<feGaussianBlur stdDeviation="5"/>
<feComposite in2="hardAlpha" operator="arithmetic" k2="-1" k3="1"/>
<feColorMatrix type="matrix" values="0 0 0 0 0 0 0 0 0 0 0 0 0 0 0 0 0 0 0.25 0"/>
<feBlend mode="normal" in2="shape" result="effect1_innerShadow_278_265"/>
</filter>
<filter id="filter2_i_278_265" x="646.853" y="111.104" width="55.2344" height="107.395" filterUnits="userSpaceOnUse" color-interpolation-filters="sRGB">
<feFlood flood-opacity="0" result="BackgroundImageFix"/>
<feBlend mode="normal" in="SourceGraphic" in2="BackgroundImageFix" result="shape"/>
<feColorMatrix in="SourceAlpha" type="matrix" values="0 0 0 0 0 0 0 0 0 0 0 0 0 0 0 0 0 0 127 0" result="hardAlpha"/>
<feOffset dx="-10" dy="5"/>
<feGaussianBlur stdDeviation="5"/>
<feComposite in2="hardAlpha" operator="arithmetic" k2="-1" k3="1"/>
<feColorMatrix type="matrix" values="0 0 0 0 0 0 0 0 0 0 0 0 0 0 0 0 0 0 0.25 0"/>
<feBlend mode="normal" in2="shape" result="effect1_innerShadow_278_265"/>
</filter>
<filter id="filter3_i_278_265" x="703.573" y="176.105" width="70.4268" height="85.7134" filterUnits="userSpaceOnUse" color-interpolation-filters="sRGB">
<feFlood flood-opacity="0" result="BackgroundImageFix"/>
<feBlend mode="normal" in="SourceGraphic" in2="BackgroundImageFix" result="shape"/>
<feColorMatrix in="SourceAlpha" type="matrix" values="0 0 0 0 0 0 0 0 0 0 0 0 0 0 0 0 0 0 127 0" result="hardAlpha"/>
<feOffset dx="-10" dy="4"/>
<feGaussianBlur stdDeviation="5"/>
<feComposite in2="hardAlpha" operator="arithmetic" k2="-1" k3="1"/>
<feColorMatrix type="matrix" values="0 0 0 0 0 0 0 0 0 0 0 0 0 0 0 0 0 0 0.25 0"/>
<feBlend mode="normal" in2="shape" result="effect1_innerShadow_278_265"/>
</filter>
<filter id="filter4_i_278_265" x="715.979" y="196.441" width="47.002" height="56.5718" filterUnits="userSpaceOnUse" color-interpolation-filters="sRGB">
<feFlood flood-opacity="0" result="BackgroundImageFix"/>
<feBlend mode="normal" in="SourceGraphic" in2="BackgroundImageFix" result="shape"/>
<feColorMatrix in="SourceAlpha" type="matrix" values="0 0 0 0 0 0 0 0 0 0 0 0 0 0 0 0 0 0 127 0" result="hardAlpha"/>
<feOffset dx="-10" dy="4"/>
<feGaussianBlur stdDeviation="5"/>
<feComposite in2="hardAlpha" operator="arithmetic" k2="-1" k3="1"/>
<feColorMatrix type="matrix" values="0 0 0 0 0 0 0 0 0 0 0 0 0 0 0 0 0 0 0.25 0"/>
<feBlend mode="normal" in2="shape" result="effect1_innerShadow_278_265"/>
</filter>
<filter id="filter5_i_278_265" x="739.878" y="186.195" width="8.37012" height="9.94922" filterUnits="userSpaceOnUse" color-interpolation-filters="sRGB">
<feFlood flood-opacity="0" result="BackgroundImageFix"/>
<feBlend mode="normal" in="SourceGraphic" in2="BackgroundImageFix" result="shape"/>
<feColorMatrix in="SourceAlpha" type="matrix" values="0 0 0 0 0 0 0 0 0 0 0 0 0 0 0 0 0 0 127 0" result="hardAlpha"/>
<feOffset dx="-1" dy="2"/>
<feGaussianBlur stdDeviation="1"/>
<feComposite in2="hardAlpha" operator="arithmetic" k2="-1" k3="1"/>
<feColorMatrix type="matrix" values="0 0 0 0 0 0 0 0 0 0 0 0 0 0 0 0 0 0 0.25 0"/>
<feBlend mode="normal" in2="shape" result="effect1_innerShadow_278_265"/>
</filter>
<filter id="filter6_i_278_265" x="759.665" y="196.205" width="7.02441" height="9.50366" filterUnits="userSpaceOnUse" color-interpolation-filters="sRGB">
<feFlood flood-opacity="0" result="BackgroundImageFix"/>
<feBlend mode="normal" in="SourceGraphic" in2="BackgroundImageFix" result="shape"/>
<feColorMatrix in="SourceAlpha" type="matrix" values="0 0 0 0 0 0 0 0 0 0 0 0 0 0 0 0 0 0 127 0" result="hardAlpha"/>
<feOffset dx="-1" dy="2"/>
<feGaussianBlur stdDeviation="1"/>
<feComposite in2="hardAlpha" operator="arithmetic" k2="-1" k3="1"/>
<feColorMatrix type="matrix" values="0 0 0 0 0 0 0 0 0 0 0 0 0 0 0 0 0 0 0.25 0"/>
<feBlend mode="normal" in2="shape" result="effect1_innerShadow_278_265"/>
</filter>
<filter id="filter7_i_278_265" x="762.799" y="208.578" width="5.17578" height="7.20117" filterUnits="userSpaceOnUse" color-interpolation-filters="sRGB">
<feFlood flood-opacity="0" result="BackgroundImageFix"/>
<feBlend mode="normal" in="SourceGraphic" in2="BackgroundImageFix" result="shape"/>
<feColorMatrix in="SourceAlpha" type="matrix" values="0 0 0 0 0 0 0 0 0 0 0 0 0 0 0 0 0 0 127 0" result="hardAlpha"/>
<feOffset dx="-1" dy="2"/>
<feGaussianBlur stdDeviation="1"/>
<feComposite in2="hardAlpha" operator="arithmetic" k2="-1" k3="1"/>
<feColorMatrix type="matrix" values="0 0 0 0 0 0 0 0 0 0 0 0 0 0 0 0 0 0 0.25 0"/>
<feBlend mode="normal" in2="shape" result="effect1_innerShadow_278_265"/>
</filter>
<filter id="filter8_i_278_265" x="751.075" y="186.915" width="8.33984" height="9.71558" filterUnits="userSpaceOnUse" color-interpolation-filters="sRGB">
<feFlood flood-opacity="0" result="BackgroundImageFix"/>
<feBlend mode="normal" in="SourceGraphic" in2="BackgroundImageFix" result="shape"/>
<feColorMatrix in="SourceAlpha" type="matrix" values="0 0 0 0 0 0 0 0 0 0 0 0 0 0 0 0 0 0 127 0" result="hardAlpha"/>
<feOffset dx="-1" dy="2"/>
<feGaussianBlur stdDeviation="1"/>
<feComposite in2="hardAlpha" operator="arithmetic" k2="-1" k3="1"/>
<feColorMatrix type="matrix" values="0 0 0 0 0 0 0 0 0 0 0 0 0 0 0 0 0 0 0.25 0"/>
<feBlend mode="normal" in2="shape" result="effect1_innerShadow_278_265"/>
</filter>
<filter id="filter9_i_278_265" x="488" y="178.551" width="70.4268" height="85.7134" filterUnits="userSpaceOnUse" color-interpolation-filters="sRGB">
<feFlood flood-opacity="0" result="BackgroundImageFix"/>
<feBlend mode="normal" in="SourceGraphic" in2="BackgroundImageFix" result="shape"/>
<feColorMatrix in="SourceAlpha" type="matrix" values="0 0 0 0 0 0 0 0 0 0 0 0 0 0 0 0 0 0 127 0" result="hardAlpha"/>
<feOffset dx="-10" dy="4"/>
<feGaussianBlur stdDeviation="5"/>
<feComposite in2="hardAlpha" operator="arithmetic" k2="-1" k3="1"/>
<feColorMatrix type="matrix" values="0 0 0 0 0 0 0 0 0 0 0 0 0 0 0 0 0 0 0.25 0"/>
<feBlend mode="normal" in2="shape" result="effect1_innerShadow_278_265"/>
</filter>
<filter id="filter10_i_278_265" x="499.02" y="198.888" width="47.002" height="56.5718" filterUnits="userSpaceOnUse" color-interpolation-filters="sRGB">
<feFlood flood-opacity="0" result="BackgroundImageFix"/>
<feBlend mode="normal" in="SourceGraphic" in2="BackgroundImageFix" result="shape"/>
<feColorMatrix in="SourceAlpha" type="matrix" values="0 0 0 0 0 0 0 0 0 0 0 0 0 0 0 0 0 0 127 0" result="hardAlpha"/>
<feOffset dx="-10" dy="4"/>
<feGaussianBlur stdDeviation="5"/>
<feComposite in2="hardAlpha" operator="arithmetic" k2="-1" k3="1"/>
<feColorMatrix type="matrix" values="0 0 0 0 0 0 0 0 0 0 0 0 0 0 0 0 0 0 0.25 0"/>
<feBlend mode="normal" in2="shape" result="effect1_innerShadow_278_265"/>
</filter>
<filter id="filter11_i_278_265" x="522.752" y="188.642" width="8.37012" height="9.94922" filterUnits="userSpaceOnUse" color-interpolation-filters="sRGB">
<feFlood flood-opacity="0" result="BackgroundImageFix"/>
<feBlend mode="normal" in="SourceGraphic" in2="BackgroundImageFix" result="shape"/>
<feColorMatrix in="SourceAlpha" type="matrix" values="0 0 0 0 0 0 0 0 0 0 0 0 0 0 0 0 0 0 127 0" result="hardAlpha"/>
<feOffset dx="-1" dy="2"/>
<feGaussianBlur stdDeviation="1"/>
<feComposite in2="hardAlpha" operator="arithmetic" k2="-1" k3="1"/>
<feColorMatrix type="matrix" values="0 0 0 0 0 0 0 0 0 0 0 0 0 0 0 0 0 0 0.25 0"/>
<feBlend mode="normal" in2="shape" result="effect1_innerShadow_278_265"/>
</filter>
<filter id="filter12_i_278_265" x="504.311" y="198.651" width="7.02441" height="9.50366" filterUnits="userSpaceOnUse" color-interpolation-filters="sRGB">
<feFlood flood-opacity="0" result="BackgroundImageFix"/>
<feBlend mode="normal" in="SourceGraphic" in2="BackgroundImageFix" result="shape"/>
<feColorMatrix in="SourceAlpha" type="matrix" values="0 0 0 0 0 0 0 0 0 0 0 0 0 0 0 0 0 0 127 0" result="hardAlpha"/>
<feOffset dx="-1" dy="2"/>
<feGaussianBlur stdDeviation="1"/>
<feComposite in2="hardAlpha" operator="arithmetic" k2="-1" k3="1"/>
<feColorMatrix type="matrix" values="0 0 0 0 0 0 0 0 0 0 0 0 0 0 0 0 0 0 0.25 0"/>
<feBlend mode="normal" in2="shape" result="effect1_innerShadow_278_265"/>
</filter>
<filter id="filter13_i_278_265" x="503.025" y="211.024" width="5.17578" height="7.20117" filterUnits="userSpaceOnUse" color-interpolation-filters="sRGB">
<feFlood flood-opacity="0" result="BackgroundImageFix"/>
<feBlend mode="normal" in="SourceGraphic" in2="BackgroundImageFix" result="shape"/>
<feColorMatrix in="SourceAlpha" type="matrix" values="0 0 0 0 0 0 0 0 0 0 0 0 0 0 0 0 0 0 127 0" result="hardAlpha"/>
<feOffset dx="-1" dy="2"/>
<feGaussianBlur stdDeviation="1"/>
<feComposite in2="hardAlpha" operator="arithmetic" k2="-1" k3="1"/>
<feColorMatrix type="matrix" values="0 0 0 0 0 0 0 0 0 0 0 0 0 0 0 0 0 0 0.25 0"/>
<feBlend mode="normal" in2="shape" result="effect1_innerShadow_278_265"/>
</filter>
<filter id="filter14_i_278_265" x="511.585" y="189.361" width="8.33984" height="9.71558" filterUnits="userSpaceOnUse" color-interpolation-filters="sRGB">
<feFlood flood-opacity="0" result="BackgroundImageFix"/>
<feBlend mode="normal" in="SourceGraphic" in2="BackgroundImageFix" result="shape"/>
<feColorMatrix in="SourceAlpha" type="matrix" values="0 0 0 0 0 0 0 0 0 0 0 0 0 0 0 0 0 0 127 0" result="hardAlpha"/>
<feOffset dx="-1" dy="2"/>
<feGaussianBlur stdDeviation="1"/>
<feComposite in2="hardAlpha" operator="arithmetic" k2="-1" k3="1"/>
<feColorMatrix type="matrix" values="0 0 0 0 0 0 0 0 0 0 0 0 0 0 0 0 0 0 0.25 0"/>
<feBlend mode="normal" in2="shape" result="effect1_innerShadow_278_265"/>
</filter>
<filter id="filter15_i_278_265" x="537.167" y="17.929" width="51.9736" height="60.2231" filterUnits="userSpaceOnUse" color-interpolation-filters="sRGB">
<feFlood flood-opacity="0" result="BackgroundImageFix"/>
<feBlend mode="normal" in="SourceGraphic" in2="BackgroundImageFix" result="shape"/>
<feColorMatrix in="SourceAlpha" type="matrix" values="0 0 0 0 0 0 0 0 0 0 0 0 0 0 0 0 0 0 127 0" result="hardAlpha"/>
<feOffset dy="4"/>
<feGaussianBlur stdDeviation="2"/>
<feComposite in2="hardAlpha" operator="arithmetic" k2="-1" k3="1"/>
<feColorMatrix type="matrix" values="0 0 0 0 0 0 0 0 0 0 0 0 0 0 0 0 0 0 0.25 0"/>
<feBlend mode="normal" in2="shape" result="effect1_innerShadow_278_265"/>
</filter>
<filter id="filter16_i_278_265" x="537.195" y="21.9463" width="48.9814" height="57.3777" filterUnits="userSpaceOnUse" color-interpolation-filters="sRGB">
<feFlood flood-opacity="0" result="BackgroundImageFix"/>
<feBlend mode="normal" in="SourceGraphic" in2="BackgroundImageFix" result="shape"/>
<feColorMatrix in="SourceAlpha" type="matrix" values="0 0 0 0 0 0 0 0 0 0 0 0 0 0 0 0 0 0 127 0" result="hardAlpha"/>
<feOffset dy="4"/>
<feGaussianBlur stdDeviation="2"/>
<feComposite in2="hardAlpha" operator="arithmetic" k2="-1" k3="1"/>
<feColorMatrix type="matrix" values="0 0 0 0 0 0 0 0 0 0 0 0 0 0 0 0 0 0 0.25 0"/>
<feBlend mode="normal" in2="shape" result="effect1_innerShadow_278_265"/>
</filter>
<filter id="filter17_i_278_265" x="550.878" y="31.8743" width="29.8662" height="38.0027" filterUnits="userSpaceOnUse" color-interpolation-filters="sRGB">
<feFlood flood-opacity="0" result="BackgroundImageFix"/>
<feBlend mode="normal" in="SourceGraphic" in2="BackgroundImageFix" result="shape"/>
<feColorMatrix in="SourceAlpha" type="matrix" values="0 0 0 0 0 0 0 0 0 0 0 0 0 0 0 0 0 0 127 0" result="hardAlpha"/>
<feOffset dy="4"/>
<feGaussianBlur stdDeviation="2"/>
<feComposite in2="hardAlpha" operator="arithmetic" k2="-1" k3="1"/>
<feColorMatrix type="matrix" values="0 0 0 0 0 0 0 0 0 0 0 0 0 0 0 0 0 0 0.25 0"/>
<feBlend mode="normal" in2="shape" result="effect1_innerShadow_278_265"/>
</filter>
<filter id="filter18_i_278_265" x="648.376" y="0.936523" width="57.3291" height="54.0327" filterUnits="userSpaceOnUse" color-interpolation-filters="sRGB">
<feFlood flood-opacity="0" result="BackgroundImageFix"/>
<feBlend mode="normal" in="SourceGraphic" in2="BackgroundImageFix" result="shape"/>
<feColorMatrix in="SourceAlpha" type="matrix" values="0 0 0 0 0 0 0 0 0 0 0 0 0 0 0 0 0 0 127 0" result="hardAlpha"/>
<feOffset dy="4"/>
<feGaussianBlur stdDeviation="2"/>
<feComposite in2="hardAlpha" operator="arithmetic" k2="-1" k3="1"/>
<feColorMatrix type="matrix" values="0 0 0 0 0 0 0 0 0 0 0 0 0 0 0 0 0 0 0.25 0"/>
<feBlend mode="normal" in2="shape" result="effect1_innerShadow_278_265"/>
</filter>
<filter id="filter19_i_278_265" x="647.158" y="1.18408" width="54.3643" height="50.9797" filterUnits="userSpaceOnUse" color-interpolation-filters="sRGB">
<feFlood flood-opacity="0" result="BackgroundImageFix"/>
<feBlend mode="normal" in="SourceGraphic" in2="BackgroundImageFix" result="shape"/>
<feColorMatrix in="SourceAlpha" type="matrix" values="0 0 0 0 0 0 0 0 0 0 0 0 0 0 0 0 0 0 127 0" result="hardAlpha"/>
<feOffset dy="4"/>
<feGaussianBlur stdDeviation="2"/>
<feComposite in2="hardAlpha" operator="arithmetic" k2="-1" k3="1"/>
<feColorMatrix type="matrix" values="0 0 0 0 0 0 0 0 0 0 0 0 0 0 0 0 0 0 0.25 0"/>
<feBlend mode="normal" in2="shape" result="effect1_innerShadow_278_265"/>
</filter>
<filter id="filter20_i_278_265" x="657.09" y="14.6082" width="34.627" height="32.7112" filterUnits="userSpaceOnUse" color-interpolation-filters="sRGB">
<feFlood flood-opacity="0" result="BackgroundImageFix"/>
<feBlend mode="normal" in="SourceGraphic" in2="BackgroundImageFix" result="shape"/>
<feColorMatrix in="SourceAlpha" type="matrix" values="0 0 0 0 0 0 0 0 0 0 0 0 0 0 0 0 0 0 127 0" result="hardAlpha"/>
<feOffset dy="4"/>
<feGaussianBlur stdDeviation="2"/>
<feComposite in2="hardAlpha" operator="arithmetic" k2="-1" k3="1"/>
<feColorMatrix type="matrix" values="0 0 0 0 0 0 0 0 0 0 0 0 0 0 0 0 0 0 0.25 0"/>
<feBlend mode="normal" in2="shape" result="effect1_innerShadow_278_265"/>
</filter>
<filter id="filter21_i_278_265" x="537.048" y="16.5112" width="174.685" height="134.742" filterUnits="userSpaceOnUse" color-interpolation-filters="sRGB">
<feFlood flood-opacity="0" result="BackgroundImageFix"/>
<feBlend mode="normal" in="SourceGraphic" in2="BackgroundImageFix" result="shape"/>
<feColorMatrix in="SourceAlpha" type="matrix" values="0 0 0 0 0 0 0 0 0 0 0 0 0 0 0 0 0 0 127 0" result="hardAlpha"/>
<feOffset dx="-15" dy="10"/>
<feGaussianBlur stdDeviation="7.5"/>
<feComposite in2="hardAlpha" operator="arithmetic" k2="-1" k3="1"/>
<feColorMatrix type="matrix" values="0 0 0 0 0 0 0 0 0 0 0 0 0 0 0 0 0 0 0.25 0"/>
<feBlend mode="normal" in2="shape" result="effect1_innerShadow_278_265"/>
</filter>
<filter id="filter22_i_278_265" x="597.795" y="104.564" width="64.8027" height="46.8037" filterUnits="userSpaceOnUse" color-interpolation-filters="sRGB">
<feFlood flood-opacity="0" result="BackgroundImageFix"/>
<feBlend mode="normal" in="SourceGraphic" in2="BackgroundImageFix" result="shape"/>
<feColorMatrix in="SourceAlpha" type="matrix" values="0 0 0 0 0 0 0 0 0 0 0 0 0 0 0 0 0 0 127 0" result="hardAlpha"/>
<feOffset dx="-10" dy="4"/>
<feGaussianBlur stdDeviation="2"/>
<feComposite in2="hardAlpha" operator="arithmetic" k2="-1" k3="1"/>
<feColorMatrix type="matrix" values="0 0 0 0 0 0 0 0 0 0 0 0 0 0 0 0 0 0 0.25 0"/>
<feBlend mode="normal" in2="shape" result="effect1_innerShadow_278_265"/>
</filter>
<filter id="filter23_d_278_265" x="619.884" y="130.676" width="25.709" height="9.82349" filterUnits="userSpaceOnUse" color-interpolation-filters="sRGB">
<feFlood flood-opacity="0" result="BackgroundImageFix"/>
<feColorMatrix in="SourceAlpha" type="matrix" values="0 0 0 0 0 0 0 0 0 0 0 0 0 0 0 0 0 0 127 0" result="hardAlpha"/>
<feOffset dy="0.2"/>
<feGaussianBlur stdDeviation="1"/>
<feComposite in2="hardAlpha" operator="out"/>
<feColorMatrix type="matrix" values="0 0 0 0 0 0 0 0 0 0 0 0 0 0 0 0 0 0 0.5 0"/>
<feBlend mode="normal" in2="BackgroundImageFix" result="effect1_dropShadow_278_265"/>
<feBlend mode="normal" in="SourceGraphic" in2="effect1_dropShadow_278_265" result="shape"/>
</filter>
<filter id="filter24_i_278_265" x="616.073" y="118.709" width="25.1436" height="18.0408" filterUnits="userSpaceOnUse" color-interpolation-filters="sRGB">
<feFlood flood-opacity="0" result="BackgroundImageFix"/>
<feBlend mode="normal" in="SourceGraphic" in2="BackgroundImageFix" result="shape"/>
<feColorMatrix in="SourceAlpha" type="matrix" values="0 0 0 0 0 0 0 0 0 0 0 0 0 0 0 0 0 0 127 0" result="hardAlpha"/>
<feOffset dx="-10" dy="4"/>
<feGaussianBlur stdDeviation="2"/>
<feComposite in2="hardAlpha" operator="arithmetic" k2="-1" k3="1"/>
<feColorMatrix type="matrix" values="0 0 0 0 0 0 0 0 0 0 0 0 0 0 0 0 0 0 0.25 0"/>
<feBlend mode="normal" in2="shape" result="effect1_innerShadow_278_265"/>
</filter>
<filter id="filter25_i_278_265" x="590.425" y="97.8379" width="14.4404" height="18.064" filterUnits="userSpaceOnUse" color-interpolation-filters="sRGB">
<feFlood flood-opacity="0" result="BackgroundImageFix"/>
<feBlend mode="normal" in="SourceGraphic" in2="BackgroundImageFix" result="shape"/>
<feColorMatrix in="SourceAlpha" type="matrix" values="0 0 0 0 0 0 0 0 0 0 0 0 0 0 0 0 0 0 127 0" result="hardAlpha"/>
<feOffset dx="-10" dy="4"/>
<feGaussianBlur stdDeviation="2"/>
<feComposite in2="hardAlpha" operator="arithmetic" k2="-1" k3="1"/>
<feColorMatrix type="matrix" values="0 0 0 0 0 0 0 0 0 0 0 0 0 0 0 0 0 0 0.25 0"/>
<feBlend mode="normal" in2="shape" result="effect1_innerShadow_278_265"/>
</filter>
<filter id="filter26_i_278_265" x="648.157" y="91.1089" width="14.4404" height="18.064" filterUnits="userSpaceOnUse" color-interpolation-filters="sRGB">
<feFlood flood-opacity="0" result="BackgroundImageFix"/>
<feBlend mode="normal" in="SourceGraphic" in2="BackgroundImageFix" result="shape"/>
<feColorMatrix in="SourceAlpha" type="matrix" values="0 0 0 0 0 0 0 0 0 0 0 0 0 0 0 0 0 0 127 0" result="hardAlpha"/>
<feOffset dx="-10" dy="4"/>
<feGaussianBlur stdDeviation="2"/>
<feComposite in2="hardAlpha" operator="arithmetic" k2="-1" k3="1"/>
<feColorMatrix type="matrix" values="0 0 0 0 0 0 0 0 0 0 0 0 0 0 0 0 0 0 0.25 0"/>
<feBlend mode="normal" in2="shape" result="effect1_innerShadow_278_265"/>
</filter>
<filter id="filter27_i_278_265" x="644.681" y="167.155" width="56.7998" height="56.6924" filterUnits="userSpaceOnUse" color-interpolation-filters="sRGB">
<feFlood flood-opacity="0" result="BackgroundImageFix"/>
<feBlend mode="normal" in="SourceGraphic" in2="BackgroundImageFix" result="shape"/>
<feColorMatrix in="SourceAlpha" type="matrix" values="0 0 0 0 0 0 0 0 0 0 0 0 0 0 0 0 0 0 127 0" result="hardAlpha"/>
<feOffset dx="8" dy="-8"/>
<feGaussianBlur stdDeviation="12"/>
<feComposite in2="hardAlpha" operator="arithmetic" k2="-1" k3="1"/>
<feColorMatrix type="matrix" values="0 0 0 0 0 0 0 0 0 0 0 0 0 0 0 0 0 0 0.25 0"/>
<feBlend mode="normal" in2="shape" result="effect1_innerShadow_278_265"/>
</filter>
<filter id="filter28_i_278_265" x="578.21" y="175.18" width="49.4111" height="49.3196" filterUnits="userSpaceOnUse" color-interpolation-filters="sRGB">
<feFlood flood-opacity="0" result="BackgroundImageFix"/>
<feBlend mode="normal" in="SourceGraphic" in2="BackgroundImageFix" result="shape"/>
<feColorMatrix in="SourceAlpha" type="matrix" values="0 0 0 0 0 0 0 0 0 0 0 0 0 0 0 0 0 0 127 0" result="hardAlpha"/>
<feOffset dx="8" dy="-8"/>
<feGaussianBlur stdDeviation="12"/>
<feComposite in2="hardAlpha" operator="arithmetic" k2="-1" k3="1"/>
<feColorMatrix type="matrix" values="0 0 0 0 0 0 0 0 0 0 0 0 0 0 0 0 0 0 0.25 0"/>
<feBlend mode="normal" in2="shape" result="effect1_innerShadow_278_265"/>
</filter>
<filter id="filter29_i_278_265" x="601.814" y="186.627" width="66.8369" height="66.707" filterUnits="userSpaceOnUse" color-interpolation-filters="sRGB">
<feFlood flood-opacity="0" result="BackgroundImageFix"/>
<feBlend mode="normal" in="SourceGraphic" in2="BackgroundImageFix" result="shape"/>
<feColorMatrix in="SourceAlpha" type="matrix" values="0 0 0 0 0 0 0 0 0 0 0 0 0 0 0 0 0 0 127 0" result="hardAlpha"/>
<feOffset dx="8" dy="-8"/>
<feGaussianBlur stdDeviation="12"/>
<feComposite in2="hardAlpha" operator="arithmetic" k2="-1" k3="1"/>
<feColorMatrix type="matrix" values="0 0 0 0 0 0 0 0 0 0 0 0 0 0 0 0 0 0 0.25 0"/>
<feBlend mode="normal" in2="shape" result="effect1_innerShadow_278_265"/>
</filter>
<linearGradient id="paint0_linear_278_265" x1="560.326" y1="130.348" x2="584.54" y2="113.943" gradientUnits="userSpaceOnUse">
<stop stop-color="#FFB441"/>
<stop offset="0.0001" stop-color="#FFD99B"/>
<stop offset="1" stop-color="#FFB441"/>
</linearGradient>
<radialGradient id="paint1_radial_278_265" cx="0" cy="0" r="1" gradientUnits="userSpaceOnUse" gradientTransform="translate(624.312 124.039) rotate(53.6111) scale(1.78385 2.14342)">
<stop stop-color="white"/>
<stop offset="0.661458" stop-color="#FCF5BA" stop-opacity="0.338542"/>
<stop offset="1" stop-color="#FBF097" stop-opacity="0"/>
</radialGradient>
<radialGradient id="paint2_radial_278_265" cx="0" cy="0" r="1" gradientUnits="userSpaceOnUse" gradientTransform="translate(599.273 100.894) rotate(90) scale(1.22296 1.49156)">
<stop offset="0.390625" stop-color="#F7F5CC"/>
<stop offset="0.75" stop-color="#E4E3D4" stop-opacity="0.363636"/>
<stop offset="1" stop-color="#D9D9D9" stop-opacity="0"/>
</radialGradient>
<radialGradient id="paint3_radial_278_265" cx="0" cy="0" r="1" gradientUnits="userSpaceOnUse" gradientTransform="translate(657.004 94.168) rotate(90) scale(1.22296 1.49156)">
<stop offset="0.390625" stop-color="#F7F5CC"/>
<stop offset="0.75" stop-color="#E4E3D4" stop-opacity="0.363636"/>
<stop offset="1" stop-color="#D9D9D9" stop-opacity="0"/>
</radialGradient>
<radialGradient id="paint4_radial_278_265" cx="0" cy="0" r="1" gradientUnits="userSpaceOnUse" gradientTransform="translate(659.034 224.028) rotate(90) scale(4.11736 37.3178)">
<stop stop-opacity="0.25"/>
<stop offset="1" stop-color="#C4C4C4" stop-opacity="0"/>
</radialGradient>
<radialGradient id="paint5_radial_278_265" cx="0" cy="0" r="1" gradientUnits="userSpaceOnUse" gradientTransform="translate(664.416 224.028) rotate(90) scale(4.11736 37.3178)">
<stop stop-opacity="0.25"/>
<stop offset="1" stop-color="#C4C4C4" stop-opacity="0"/>
</radialGradient>
<radialGradient id="paint6_radial_278_265" cx="0" cy="0" r="1" gradientUnits="userSpaceOnUse" gradientTransform="translate(674.104 189.655) rotate(70.5861) scale(17.2725 17.3024)">
<stop stop-color="white"/>
<stop offset="1" stop-color="#F2E1E5" stop-opacity="0"/>
</radialGradient>
<radialGradient id="paint7_radial_278_265" cx="0" cy="0" r="1" gradientUnits="userSpaceOnUse" gradientTransform="translate(590.39 224.653) rotate(90) scale(3.49393 31.6673)">
<stop stop-opacity="0.25"/>
<stop offset="1" stop-color="#C4C4C4" stop-opacity="0"/>
</radialGradient>
<radialGradient id="paint8_radial_278_265" cx="0" cy="0" r="1" gradientUnits="userSpaceOnUse" gradientTransform="translate(603.178 195.485) rotate(70.5861) scale(14.6572 14.6825)">
<stop stop-color="white"/>
<stop offset="1" stop-color="#89C2C1" stop-opacity="0"/>
</radialGradient>
<radialGradient id="paint9_radial_278_265" cx="0" cy="0" r="1" gradientUnits="userSpaceOnUse" gradientTransform="translate(615.891 232.192) rotate(90) scale(3.86564 35.0363)">
<stop stop-opacity="0.25"/>
<stop offset="1" stop-color="#C4C4C4" stop-opacity="0"/>
</radialGradient>
<radialGradient id="paint10_radial_278_265" cx="0" cy="0" r="1" gradientUnits="userSpaceOnUse" gradientTransform="translate(619.119 253.551) rotate(90) scale(4.96419 44.9931)">
<stop stop-opacity="0.25"/>
<stop offset="1" stop-color="#C4C4C4" stop-opacity="0"/>
</radialGradient>
<radialGradient id="paint11_radial_278_265" cx="0" cy="0" r="1" gradientUnits="userSpaceOnUse" gradientTransform="translate(625.609 253.551) rotate(90) scale(4.96419 44.9931)">
<stop stop-opacity="0.25"/>
<stop offset="1" stop-color="#C4C4C4" stop-opacity="0"/>
</radialGradient>
<radialGradient id="paint12_radial_278_265" cx="0" cy="0" r="1" gradientUnits="userSpaceOnUse" gradientTransform="translate(637.29 212.11) rotate(70.5861) scale(20.825 20.861)">
<stop stop-color="white"/>
<stop offset="1" stop-color="#F2E1E5" stop-opacity="0"/>
</radialGradient>
</defs>
</svg>
