<svg width="30" height="30" viewBox="0 0 30 30" fill="none" xmlns="http://www.w3.org/2000/svg">
<path d="M23.385 20.6582C23.056 20.3179 22.6029 20.1258 22.1296 20.1258H21.6379C21.5012 20.1258 21.3698 20.0728 21.2714 19.9779C21.07 19.7836 21.0561 19.4667 21.2296 19.247C22.832 17.218 23.785 14.6602 23.785 11.8925C23.785 5.32419 18.4608 0 11.8925 0C5.32419 0 0 5.32419 0 11.8925C0 18.4608 5.32419 23.785 11.8925 23.785C14.6602 23.785 17.218 22.832 19.247 21.2296C19.4667 21.0561 19.7836 21.07 19.9779 21.2714C20.0728 21.3698 20.1258 21.5012 20.1258 21.6379V22.1455C20.1258 22.6102 20.307 23.0567 20.6308 23.3899L25.9095 28.8221C26.6599 29.5943 27.8969 29.6031 28.6582 28.8418C29.4029 28.0971 29.413 26.8929 28.681 26.1358L23.385 20.6582ZM11.8925 20.1258C7.33676 20.1258 3.65923 16.4483 3.65923 11.8925C3.65923 7.33676 7.33676 3.65923 11.8925 3.65923C16.4483 3.65923 20.1258 7.33676 20.1258 11.8925C20.1258 16.4483 16.4483 20.1258 11.8925 20.1258Z" fill="#717171"/>
</svg>
