<svg width="50" height="42" viewBox="0 0 50 42" fill="current" xmlns="http://www.w3.org/2000/svg">
<path fill-rule="evenodd" clip-rule="evenodd" d="M0 9C0 12.749 2.29222 15.9626 5.55159 17.3157C5.19099 18.8183 5 20.3868 5 22C5 33.0457 13.9543 42 25 42C36.0457 42 45 33.0457 45 22C45 20.3868 44.809 18.8183 44.4484 17.3157C47.7078 15.9625 50 12.749 50 9C50 4.02944 45.9706 0 41 0C37.913 0 35.1889 1.55425 33.5677 3.92291C30.9708 2.68989 28.066 2 25 2C21.934 2 19.0292 2.68989 16.4323 3.92291C14.8111 1.55425 12.087 0 9 0C4.02944 0 0 4.02944 0 9Z" fill="current"/>
</svg>
