<svg width="48" height="41" viewBox="0 0 48 41" fill="none" xmlns="http://www.w3.org/2000/svg">
<path d="M5.39047 13.9925C5.04992 13.805 4.7304 13.6019 4.43978 13.3879C2.77821 12.1661 1.64548 10.4318 1.25017 8.50702C0.854934 6.58371 1.24394 4.70105 2.34542 3.20584C3.5891 1.5177 5.58894 0.549805 7.83095 0.549805C9.53703 0.549805 11.2627 1.12788 12.6915 2.17939C13.3836 2.68949 13.8133 3.06055 14.1734 3.46209L14.8085 4.16825L14.0039 4.67448C10.6385 6.78682 7.98015 9.95377 6.51855 13.5902L6.18264 14.4292L5.39047 13.9925Z" fill="#7F9CFF"/>
<path d="M24.203 38.9526C13.8054 38.9526 5.34668 30.6415 5.34668 20.4251C5.34668 18.5081 5.65211 16.6028 6.2544 14.7631L6.29191 14.649L6.35905 14.5529L6.37468 14.4412L6.40047 14.3701C9.03698 6.90821 16.1911 1.89453 24.203 1.89453C32.2844 1.89453 39.4471 6.94805 42.0531 14.4795L42.1133 14.6568C42.7422 16.5223 43.064 18.4706 43.064 20.4251C43.064 30.6415 34.603 38.9526 24.203 38.9526Z" fill="#7F9CFF"/>
<path d="M41.8963 13.6052C40.4363 9.95707 37.7709 6.78312 34.393 4.66688L33.5564 4.14193L34.2431 3.4326C34.6743 2.98732 35.1625 2.61707 35.757 2.18037C37.1858 1.12963 38.9122 0.550781 40.6176 0.550781C42.8611 0.550781 44.8602 1.51868 46.1031 3.20605C47.2038 4.70126 47.592 6.58392 47.1975 8.50723C46.8014 10.4336 45.6664 12.1678 44.0024 13.3897C43.704 13.6099 43.3736 13.8193 43.022 14.0107L42.2315 14.4411L41.8963 13.6052Z" fill="#7F9CFF"/>
<path d="M46.5844 3.01554C44.0261 -0.463113 38.8351 -1.00682 35.008 1.80624C34.2651 2.35307 33.6105 2.8499 33.0559 3.52876C30.3365 2.13747 27.2508 1.34611 23.9792 1.34611C20.699 1.34611 17.6055 2.14215 14.8807 3.54125C14.3206 2.82959 13.6886 2.3195 12.9871 1.80156C11.149 0.450106 8.94523 -0.173299 6.76962 0.0415276C4.56744 0.261035 2.66679 1.31722 1.41848 3.01476C0.166988 4.71226 -0.2767 6.84177 0.168572 9.01112C0.607626 11.1485 1.86062 13.0694 3.69797 14.4209C4.1292 14.738 4.59088 15.0013 5.06427 15.2388C4.5362 16.9871 4.24797 18.8369 4.24797 20.7524C4.24797 31.4516 13.0996 40.1556 23.9792 40.1556C34.8619 40.1556 43.7152 31.4516 43.7152 20.7524C43.7152 18.8424 43.4284 16.998 42.9035 15.2536C43.3886 15.0122 43.8612 14.745 44.2995 14.4209C46.1376 13.0702 47.3914 11.1493 47.8313 9.01112C48.2765 6.84258 47.8336 4.71381 46.5844 3.01554ZM4.64556 13.1319C3.12851 12.0156 2.09498 10.4376 1.73563 8.68928C1.38255 6.96989 1.72705 5.29189 2.70666 3.96387C3.68392 2.63507 5.18303 1.80778 6.92899 1.6336C8.70461 1.4508 10.5201 1.97342 12.038 3.08971C12.6621 3.54984 13.1043 3.91545 13.4722 4.33806C9.92403 6.54338 7.13836 9.82827 5.59316 13.7225C5.2666 13.5475 4.94786 13.3545 4.64556 13.1319ZM23.9792 38.5557C13.9816 38.5557 5.84782 30.5688 5.84782 20.7524C5.84782 18.8604 6.15248 17.0379 6.7118 15.3263C6.75635 15.2684 6.79619 15.2052 6.8243 15.1341C6.86177 15.0403 6.87508 14.9443 6.87662 14.849C9.36239 7.92372 16.0884 2.946 23.9792 2.946C31.952 2.946 38.735 8.02527 41.1591 15.0599C41.1662 15.0841 41.163 15.1091 41.1724 15.1325C41.1794 15.1513 41.1935 15.1646 41.2013 15.1825C41.7919 16.9355 42.1153 18.8072 42.1153 20.7524C42.1153 30.5688 33.9792 38.5557 23.9792 38.5557ZM46.2634 8.68928C45.904 10.4384 44.8705 12.0164 43.3511 13.1327C43.0418 13.3616 42.7129 13.5584 42.3754 13.7373C40.8294 9.83136 38.0344 6.53711 34.4737 4.3287C34.8784 3.89433 35.3728 3.52408 35.9619 3.09051C39.0734 0.803186 43.2598 1.19691 45.2955 3.96387C46.2727 5.29189 46.6173 6.97067 46.2634 8.68928Z" fill="#7F9CFF"/>
</svg>
