<svg width="1920" height="356" viewBox="0 0 1920 356" fill="none" xmlns="http://www.w3.org/2000/svg">
<path d="M0 290.388V355.388H1919.5C1919.83 260.222 1920.3 70.3882 1919.5 72.3882C1918.5 74.8882 1819.5 204.388 1728 218.388C1636.5 232.388 1590 228.888 1457.5 126.388C1325 23.8882 1285.5 8.88828 1189.5 0.388281C1093.5 -8.11172 921.5 125.388 882 161.388C853.5 187.363 718.5 249.388 582.5 247.888C446.5 246.388 387.5 203.388 347 177.388C306.5 151.388 282.5 130.388 223 130.388C168.5 127.5 92.5 206.388 86.5 214.388C82 220.388 28.1667 267.222 0 290.388Z" fill="#EAEAEA" fill-opacity="0.2"/>
</svg>
